<?xml version="1.0" standalone="no"?>
<!DOCTYPE svg PUBLIC "-//W3C//DTD SVG 1.1//EN" "http://www.w3.org/Graphics/SVG/1.1/DTD/svg11.dtd" >
<svg xmlns="http://www.w3.org/2000/svg" xmlns:xlink="http://www.w3.org/1999/xlink" version="1.1">
<metadata>
Created by FontForge 20170731 at Sun Jul 22 23:01:51 2018
 By Aleksey,,,
Copyright (c) 2018 by Nizar Kazan. All rights reserved.
</metadata>
<defs>
<font id="Lausanne-Regular" horiz-adv-x="562" >
  <font-face 
    font-family="Lausanne"
    font-weight="400"
    font-stretch="normal"
    units-per-em="1000"
    panose-1="2 0 5 3 0 0 0 0 0 0"
    ascent="800"
    descent="-200"
    x-height="517"
    cap-height="714"
    bbox="-115 -214 1380 973"
    underline-thickness="50"
    underline-position="-250"
    unicode-range="U+0020-FB02"
  />
<missing-glyph horiz-adv-x="625" 
d="M24 714h577v-871h-577v871zM496 214v125h-123v125h-125v-125h-126v-125h126v-125h125v125h123zM351 442v-125h123v-82h-123v-124h-82v124h-125v82h125v125h82z" />
    <glyph glyph-name=".notdef" horiz-adv-x="625" 
d="M24 714h577v-871h-577v871zM496 214v125h-123v125h-125v-125h-126v-125h126v-125h125v125h123zM351 442v-125h123v-82h-123v-124h-82v124h-125v82h125v125h82z" />
    <glyph glyph-name=".null" horiz-adv-x="0" 
 />
    <glyph glyph-name="nonmarkingreturn" horiz-adv-x="333" 
 />
    <glyph glyph-name="space" unicode=" " horiz-adv-x="274" 
 />
    <glyph glyph-name="exclam" unicode="!" horiz-adv-x="239" 
d="M167 714v-220l-25 -311h-45l-25 311v220h95zM64 0v111h111v-111h-111z" />
    <glyph glyph-name="quotedbl" unicode="&#x22;" horiz-adv-x="355" 
d="M145 482h-68v250h68v-250zM206 733h68v-250h-68v250z" />
    <glyph glyph-name="numbersign" unicode="#" horiz-adv-x="556" 
d="M102 0l29 206h-97v68h107l21 150h-102v68h111l29 205h69l-29 -205h124l29 205h69l-29 -205h89v-68h-98l-21 -150h91v-68h-101l-29 -206h-69l29 206h-124l-29 -206h-69zM355 424h-124l-21 -150h124z" />
    <glyph glyph-name="dollar" unicode="$" horiz-adv-x="556" 
d="M25 218h85q2 -64 40 -104.5t101 -50.5v265q-114 29 -159 68q-46 40 -46 125q0 89 58 146q58 58 147 64v66h55v-67q155 -20 197 -198h-85q-20 99 -112 116v-246l60 -16q48 -12 98 -52q61 -47 61 -134q0 -94 -61 -151q-60 -57 -158 -66v-82h-55v82q-100 10 -159 70.5
t-67 164.5zM251 417v234q-53 -6 -84 -37.5t-31 -83.5q0 -46 27.5 -71.5t87.5 -41.5zM306 314v-251q129 9 129 128q0 50 -30 76.5t-99 46.5z" />
    <glyph glyph-name="percent" unicode="%" horiz-adv-x="1000" 
d="M188 -22l538 744h85l-537 -744h-86zM254 709q160 0 160 -200q0 -86 -40 -144q-39 -57 -120 -57q-82 0 -122 52.5t-40 145.5q0 95 39.5 149t122.5 54zM251 363q88 0 88 146q0 145 -85 145q-87 0 -87 -146q0 -145 84 -145zM748 389q160 0 160 -200q0 -86 -40 -144
q-39 -57 -120 -57q-82 0 -122 52.5t-40 145.5q0 95 39.5 149t122.5 54zM745 43q88 0 88 146q0 145 -85 145q-87 0 -87 -146q0 -145 84 -145z" />
    <glyph glyph-name="ampersand" unicode="&#x26;" horiz-adv-x="630" 
d="M534 0l-76 96q-32 -50 -87 -79t-115 -29q-66 0 -114 21t-71 55q-38 61 -38 119q0 72 44 121t135 94l-25 28l-23 28l-17 24q-22 36 -26 89q0 61 43 104t118 43q72 0 122 -39q51 -37 51 -107q0 -101 -143 -184l140 -159q9 22 17 63.5t11 48.5h72q-4 -9 -17 -70
q-14 -62 -33 -101l143 -166h-111zM370 563q0 33 -23 54.5t-59 21.5q-35 0 -58.5 -20.5t-23.5 -55.5q0 -51 68 -137q96 63 96 137zM411 148l-161 205q-63 -35 -95 -74.5t-32 -94.5q0 -52 41 -87q40 -34 95 -34q95 0 152 85z" />
    <glyph glyph-name="quotesingle" unicode="'" horiz-adv-x="224" 
d="M145 482h-68v250h68v-250z" />
    <glyph glyph-name="parenleft" unicode="(" horiz-adv-x="259" 
d="M269 -198h-65q-80 124 -118.5 236t-38.5 232t41 240t116 221h65q-132 -209 -132 -461q0 -255 132 -468z" />
    <glyph glyph-name="parenright" unicode=")" horiz-adv-x="259" 
d="M55 -198h-65q132 209 132 461q0 255 -132 468h65q80 -124 118.5 -236t38.5 -232t-41 -240t-116 -221z" />
    <glyph glyph-name="asterisk" unicode="*" horiz-adv-x="352" 
d="M201 714l-2 -116l109 43l20 -48l-112 -37l69 -92l-41 -31l-68 102l-66 -102l-45 31l68 92l-109 37l18 48l108 -43l-2 116h53z" />
    <glyph glyph-name="plus" unicode="+" horiz-adv-x="600" 
d="M340 506v-215h212v-76h-212v-215h-80v215h-212v76h212v215h80z" />
    <glyph glyph-name="comma" unicode="," horiz-adv-x="220" 
d="M50 0v111h110v-101q0 -124 -110 -157v50q29 11 45 39.5t13 57.5h-58z" />
    <glyph glyph-name="hyphen" unicode="-" horiz-adv-x="429" 
d="M60 238v80h309v-80h-309z" />
    <glyph glyph-name="period" unicode="." horiz-adv-x="220" 
d="M50 0v111h110v-111h-110z" />
    <glyph glyph-name="slash" unicode="/" horiz-adv-x="333" 
d="M-18 -17l296 748h73l-296 -748h-73z" />
    <glyph glyph-name="zero" unicode="0" horiz-adv-x="576" 
d="M538 357q0 -148 -49 -250q-27 -56 -78.5 -87.5t-122.5 -31.5t-122.5 31.5t-79.5 87.5q-48 103 -48 250q0 119 30 202q55 159 220 159q114 0 175 -76q29 -35 45 -83q30 -83 30 -202zM448 358q0 106 -33 188q-37 96 -127 96t-127 -96q-33 -82 -33 -188t33 -192
q18 -46 50.5 -72t76.5 -26t76.5 26t50.5 72q33 86 33 192z" />
    <glyph glyph-name="one" unicode="1" horiz-adv-x="417" 
d="M228 714h70v-714h-90v525h-174v68q53 0 90 8q87 20 104 113z" />
    <glyph glyph-name="two" unicode="2" horiz-adv-x="571" 
d="M118 80h393v-80h-491q4 100 54 163q37 44 76 71l42 29l45 27q100 62 140 108q41 47 41 117q0 57 -40 91q-39 36 -97 36q-69 0 -106 -42t-37 -113h-90q0 113 61.5 172t176.5 59q96 0 159 -54t63 -150q6 -66 -44 -142q-10 -15 -34 -36q-12 -12 -35 -31l-42 -33
q-30 -23 -87 -55q-66 -39 -101.5 -70t-46.5 -67z" />
    <glyph glyph-name="three" unicode="3" horiz-adv-x="561" 
d="M350 376v-2q75 -10 118 -58t43 -120q0 -103 -67 -155q-67 -53 -172 -53q-114 0 -179.5 57.5t-63.5 162.5h90q5 -140 150 -140q67 0 109.5 35.5t42.5 96.5q0 63 -41 98t-108 35q-27 0 -51 -3v78q5 -1 19 -1h18q55 0 95 32q40 33 40 88q0 54 -34.5 84.5t-91.5 30.5
q-127 0 -130 -133h-90q2 98 59.5 153.5t160.5 55.5q99 0 157.5 -50t58.5 -142q0 -58 -35.5 -96.5t-97.5 -53.5z" />
    <glyph glyph-name="four" unicode="4" horiz-adv-x="567" 
d="M454 245h79v-76h-79v-169h-90v169h-320v83l332 462h78v-469zM362 571l-232 -326h234v326h-2z" />
    <glyph glyph-name="five" unicode="5" horiz-adv-x="558" 
d="M285 467q100 0 165 -62t65 -179q0 -104 -63 -171q-61 -67 -183 -67q-97 0 -170 55t-75 148h90q5 -55 48 -89t107 -34q72 0 114 40t42 118q0 76 -42 121t-109 45q-92 0 -133 -72l-90 9l56 385h350v-76h-283l-38 -246l2 -2q18 36 59 56.5t88 20.5z" />
    <glyph glyph-name="six" unicode="6" horiz-adv-x="561" 
d="M304 456q100 0 160 -65q61 -64 61 -165q0 -42 -13 -81.5t-40 -76t-75.5 -58.5t-112.5 -22q-246 0 -246 341q0 156 54 267q63 122 207 122q87 0 142 -51.5t63 -139.5h-90q-6 51 -38.5 83t-80.5 32q-103 0 -142 -103q-33 -85 -31 -215l2 -2q38 134 180 134zM288 68
q67 0 107 43t40 109q0 71 -39.5 115t-107.5 44q-70 0 -107.5 -44t-37.5 -115q0 -68 38 -110t107 -42z" />
    <glyph glyph-name="seven" unicode="7" horiz-adv-x="556" 
d="M50 638v76h459v-73q-107 -105 -185 -290q-76 -185 -87 -351h-90q12 182 98 371q85 188 197 267h-392z" />
    <glyph glyph-name="eight" unicode="8" horiz-adv-x="556" 
d="M354 378q68 -13 118 -60q49 -46 49 -114q0 -100 -69 -158q-68 -58 -171 -58q-106 0 -176 56q-69 56 -69 160q0 65 49 113q49 47 114 61q-59 15 -98 58t-40 96q-1 80 56 133q58 53 160 53q107 0 161 -50t54 -136q0 -54 -40 -97q-41 -42 -98 -57zM151 529q0 -55 37.5 -89
t92.5 -34q51 0 86 35t35 88q0 51 -35 82t-90 31t-90.5 -31t-35.5 -82zM281 68q64 0 107 37t43 96q0 58 -46 98q-45 42 -105 42q-65 0 -109 -40q-45 -41 -45 -101q0 -61 43 -96.5t112 -35.5z" />
    <glyph glyph-name="nine" unicode="9" horiz-adv-x="561" 
d="M276 718q246 0 246 -341q0 -160 -55 -267q-28 -58 -81 -90t-125 -32q-87 0 -142 51.5t-63 139.5h90q6 -51 38.5 -83t80.5 -32q103 0 142 102q33 87 31 216l-2 2q-38 -134 -180 -134q-99 0 -161 65q-60 65 -60 165q0 42 13 81.5t40 76t75.5 58.5t112.5 22zM272 327
q70 0 107.5 44t37.5 115q0 68 -38 110t-107 42q-66 0 -107 -44q-40 -43 -40 -108q0 -71 39.5 -115t107.5 -44z" />
    <glyph glyph-name="colon" unicode=":" horiz-adv-x="278" 
d="M194 517v-111h-111v111h111zM83 0v111h111v-111h-111z" />
    <glyph glyph-name="semicolon" unicode=";" horiz-adv-x="278" 
d="M194 517v-111h-111v111h111zM83 0v111h111v-101q1 -124 -110 -157v50q29 11 45 39.5t13 57.5h-59z" />
    <glyph glyph-name="less" unicode="&#x3c;" horiz-adv-x="600" 
d="M554 514v-68l-425 -193l425 -193v-68l-508 230v62z" />
    <glyph glyph-name="equal" unicode="=" horiz-adv-x="600" 
d="M552 388v-68h-504v68h504zM48 118v68h504v-68h-504z" />
    <glyph glyph-name="greater" unicode="&#x3e;" horiz-adv-x="600" 
d="M46 -8v68l425 193l-425 193v68l508 -230v-62z" />
    <glyph glyph-name="question" unicode="?" horiz-adv-x="556" 
d="M148 521h-85q-2 101 54 155.5t162 54.5q96 0 153.5 -53.5t57.5 -146.5q0 -37 -14 -73q-13 -32 -29 -51q-15 -18 -43 -46q-40 -39 -59 -63q-28 -35 -28 -85v-39h-85v47q2 46 21 82t44 60t49.5 47.5t40 55.5t13.5 73q-4 55 -35.5 86t-85.5 31q-70 0 -100.5 -32t-30.5 -103z
M218 0v111h111v-111h-111z" />
    <glyph glyph-name="at" unicode="@" horiz-adv-x="800" 
d="M618 554l-84 -284q-11 -39 -11 -51q0 -31 24 -31q45 0 92 75q46 76 46 155q0 114 -81 186q-79 72 -190 72q-127 0 -216 -95q-88 -94 -88 -226q0 -134 91 -225q92 -92 218 -92q71 0 138 33t110 88h63q-49 -82 -132.5 -129t-180.5 -47q-158 0 -267 109q-108 110 -108 268
q0 153 109 262t262 109q142 0 240 -88q100 -87 100 -220q0 -60 -23 -116.5t-60 -94.5q-77 -79 -151 -79q-30 0 -46 23t-8 62h-3q-18 -41 -55.5 -64t-78.5 -23q-62 0 -103 45q-40 46 -40 113q0 111 67 197q68 87 168 87q40 0 71.5 -27.5t37.5 -71.5l23 80h66zM264 296
q0 -43 22 -69t60 -26q61 0 108 71q47 73 47 140q0 36 -25 64q-26 29 -56 29q-64 0 -111 -69q-45 -68 -45 -140z" />
    <glyph glyph-name="A" unicode="A" horiz-adv-x="651" 
d="M659 0h-107l-84 228h-291l-85 -228h-100l281 714h105zM325 636h-2l-119 -332h239z" />
    <glyph glyph-name="B" unicode="B" horiz-adv-x="670" 
d="M465 374v-2q70 -2 121 -52q50 -50 50 -115q0 -83 -58 -144t-159 -61h-345v714h259q146 0 189 -26q84 -50 84 -149q0 -65 -35.5 -109t-105.5 -56zM378 634h-209v-227h209q73 0 103 28.5t30 85.5q0 62 -32 87.5t-101 25.5zM169 80h238q63 0 98.5 33t35.5 92q0 60 -36 91
t-99 31h-237v-247z" />
    <glyph glyph-name="C" unicode="C" horiz-adv-x="739" 
d="M690 508h-95q-12 70 -65.5 106.5t-134.5 36.5q-122 0 -192 -85t-70 -204q0 -129 70 -214t195 -85q90 0 144 44.5t64 128.5h95q-14 -127 -94 -190t-217 -63q-163 0 -257 105q-95 107 -95 267q0 159 98 268q99 108 260 108q118 0 200 -56q82 -55 94 -167z" />
    <glyph glyph-name="D" unicode="D" horiz-adv-x="698" 
d="M72 714h245q159 0 251 -89t92 -251q0 -181 -86 -277.5t-257 -96.5h-245v714zM167 80h158q58 0 112 26q125 57 128 255q0 129 -60.5 201t-177.5 72h-160v-554z" />
    <glyph glyph-name="E" unicode="E" horiz-adv-x="614" 
d="M169 327v-247h401v-80h-496v714h493v-80h-398v-227h377v-80h-377z" />
    <glyph glyph-name="F" unicode="F" horiz-adv-x="583" 
d="M543 714v-80h-374v-227h349v-80h-349v-327h-95v714h469z" />
    <glyph glyph-name="G" unicode="G" horiz-adv-x="757" 
d="M409 286v80h298l-9 -366h-58l-16 134q-35 -98 -108 -128q-54 -23 -124 -23q-157 0 -251 106q-93 107 -93 254q0 164 89 276q88 112 251 112q127 0 205 -59.5t92 -177.5h-95q-10 78 -62.5 117.5t-139.5 39.5q-121 0 -183 -89t-62 -214q0 -119 65 -202q66 -83 184 -83
q109 0 169 61q60 62 56 162h-208z" />
    <glyph glyph-name="H" unicode="H" horiz-adv-x="724" 
d="M555 398v316h95v-714h-95v318h-386v-318h-95v714h95v-316h386z" />
    <glyph glyph-name="I" unicode="I" horiz-adv-x="255" 
d="M80 0v714h95v-714h-95z" />
    <glyph glyph-name="J" unicode="J" horiz-adv-x="513" 
d="M443 714v-536q0 -81 -50 -139q-50 -56 -161 -56q-100 0 -154 53.5t-54 154.5v24h93v-10q0 -71 27 -106.5t90 -35.5q61 0 87.5 32t26.5 97v522h95z" />
    <glyph glyph-name="K" unicode="K" horiz-adv-x="666" 
d="M666 0h-120l-257 362l-120 -112v-250h-95v714h95v-356l362 356h123l-300 -287z" />
    <glyph glyph-name="L" unicode="L" horiz-adv-x="555" 
d="M169 714v-634h378v-80h-473v714h95z" />
    <glyph glyph-name="M" unicode="M" horiz-adv-x="859" 
d="M430 103l221 611h134v-714h-90v594h-2l-216 -594h-94l-217 594h-2v-594h-90v714h134z" />
    <glyph glyph-name="N" unicode="N" horiz-adv-x="733" 
d="M569 135v579h90v-714h-104l-389 573h-2v-573h-90v714h101l392 -579h2z" />
    <glyph glyph-name="O" unicode="O" horiz-adv-x="788" 
d="M200 677q82 54 194 54q110 0 193 -54q82 -52 123 -137q40 -81 40 -183q0 -215 -163 -321q-83 -53 -193 -53q-111 0 -194 53q-81 53 -122 137q-40 83 -40 184q0 102 41 185t121 135zM248 107q62 -44 146 -44t146 44q60 44 88 110q27 66 28 139.5t-29 141t-87 108.5
q-62 45 -146 45t-146 -45q-60 -43 -88 -109t-28.5 -139t29.5 -141t87 -110z" />
    <glyph glyph-name="P" unicode="P" horiz-adv-x="636" 
d="M74 714h305q106 0 162.5 -55t56.5 -156q0 -102 -57 -157t-162 -54h-210v-292h-95v714zM169 372h178q156 -2 156 131q0 131 -156 131h-178v-262z" />
    <glyph glyph-name="Q" unicode="Q" horiz-adv-x="788" 
d="M750 357q0 -77 -30 -156q-30 -77 -90 -133q44 -35 79 -37l-39 -63q-31 2 -102 55q-74 -40 -174 -40q-111 0 -194 53q-81 53 -122 137q-40 83 -40 184q0 102 40 183q41 86 122 137q82 54 194 54q110 0 193 -54q81 -52 122 -135t41 -185zM394 63q54 0 102 20
q-48 40 -105 62l50 58q42 -13 121 -77q45 40 69 101.5t24 129.5q0 165 -115 249q-62 45 -146 45t-146 -45q-115 -84 -115 -249q0 -75 27 -140q28 -66 88 -110q62 -44 146 -44z" />
    <glyph glyph-name="R" unicode="R" horiz-adv-x="676" 
d="M594 163q13 -55 26 -89q12 -32 38 -64v-10h-103q-18 23 -29 52q-9 23 -19 68q-7 36 -11 51q-18 64 -50.5 96t-86.5 32h-189v-299h-95v714h304q113 0 174.5 -52t61.5 -141q0 -153 -141 -192q52 -12 76 -52q28 -42 44 -114zM170 634v-255h205q144 0 144 142q0 113 -140 113
h-209z" />
    <glyph glyph-name="S" unicode="S" horiz-adv-x="656" 
d="M589 509h-95q-8 74 -49 108t-118 34q-69 0 -119 -29q-49 -28 -49 -93q0 -37 25 -61t65.5 -35.5t89.5 -20.5t97.5 -22t89 -33.5t65.5 -61t25 -99.5q0 -72 -45 -122q-80 -91 -237 -91q-130 0 -214 60q-84 61 -84 183h95q0 -84 57 -124q57 -39 146 -39q76 0 132 30
q55 30 55 100q0 44 -25 72.5t-65.5 42t-89.5 23t-97.5 20.5t-89 28.5t-65.5 53.5t-25 89q0 101 77 155q78 54 186 54q120 0 189 -56t73 -166z" />
    <glyph glyph-name="T" unicode="T" horiz-adv-x="578" 
d="M4 714h570v-80h-238v-634h-94v634h-238v80z" />
    <glyph glyph-name="U" unicode="U" horiz-adv-x="710" 
d="M642 714v-456q0 -134 -72.5 -204.5t-208.5 -70.5q-143 0 -218 69t-75 206v456h95v-456q0 -95 51 -145t147 -50q91 0 138.5 50t47.5 145v456h95z" />
    <glyph glyph-name="V" unicode="V" horiz-adv-x="614" 
d="M307 95l207 619h100l-248 -713l-120 -1l-246 714h100l205 -619h2z" />
    <glyph glyph-name="W" unicode="W" horiz-adv-x="918" 
d="M669 100l141 614h100l-181 -714h-119l-151 600h-2l-157 -600h-119l-173 714h100l134 -614h2l150 614h129l144 -614h2z" />
    <glyph glyph-name="X" unicode="X" horiz-adv-x="613" 
d="M362 367l251 -367h-116l-192 294l-198 -294h-107l249 367l-235 347h114l179 -277l185 277h106z" />
    <glyph glyph-name="Y" unicode="Y" horiz-adv-x="644" 
d="M536 714h108l-273 -422v-292h-95v292l-276 422h113l214 -340z" />
    <glyph glyph-name="Z" unicode="Z" horiz-adv-x="610" 
d="M578 634l-443 -554h455v-80h-568v80l445 554h-411v80h522v-80z" />
    <glyph glyph-name="bracketleft" unicode="[" horiz-adv-x="259" 
d="M259 731v-68h-107v-793h107v-68h-187v929h187z" />
    <glyph glyph-name="backslash" unicode="\" horiz-adv-x="333" 
d="M55 731l296 -748h-73l-296 748h73z" />
    <glyph glyph-name="bracketright" unicode="]" horiz-adv-x="259" 
d="M0 -198v68h107v793h-107v68h187v-929h-187z" />
    <glyph glyph-name="asciicircum" unicode="^" horiz-adv-x="600" 
d="M50 264l218 433h64l218 -433h-70l-181 360l-178 -360h-71z" />
    <glyph glyph-name="underscore" unicode="_" horiz-adv-x="500" 
d="M0 -125v50h500v-50h-500z" />
    <glyph glyph-name="grave" unicode="`" horiz-adv-x="467" 
d="M126 732h109l86 -143h-64z" />
    <glyph glyph-name="a" unicode="a" horiz-adv-x="540" 
d="M484 347v-277q0 -41 8 -70h-90q-4 24 -4 115h-1q-12 -62 -59 -94.5t-122 -32.5q-188 0 -188 149q0 48 23 82t63 49q39 14 77 22t79 12q44 4 57 9q43 12 55 25.5t12 43.5q0 36 -31.5 55.5t-89.5 19.5q-78 0 -102 -40q-13 -24 -17 -50h-90q6 49 19 74q47 90 188 90
q107 0 160 -47q22 -19 34 -47q19 -40 19 -88zM394 240v83q-7 -33 -38 -49.5t-105 -31.5q-72 -13 -101 -35t-29 -68q0 -36 28.5 -58.5t76.5 -22.5q85 0 126.5 43t41.5 139z" />
    <glyph glyph-name="b" unicode="b" horiz-adv-x="578" 
d="M313 529q114 0 174 -78q61 -76 61 -194q0 -117 -61 -193t-175 -76q-118 0 -167 111h-2v-99h-87v714h91l-2 -300h3q14 55 59.5 85t105.5 30zM301 63q81 0 118 57q37 58 37 143q0 81 -40 134q-39 55 -117 55q-71 0 -112 -49t-43 -131v-6q0 -86 36 -145q37 -58 121 -58z" />
    <glyph glyph-name="c" unicode="c" horiz-adv-x="552" 
d="M523 361h-88q-25 94 -142 94q-82 0 -127 -59q-44 -59 -44 -142q0 -76 44 -134q44 -57 121 -57q132 0 154 105h87q-20 -95 -79 -137.5t-164 -42.5q-117 0 -184 73t-67 193q0 118 72 196q73 79 190 79q97 0 158 -46q62 -47 69 -122z" />
    <glyph glyph-name="d" unicode="d" horiz-adv-x="574" 
d="M434 414l-2 300h90v-714h-87v99h-2q-49 -111 -167 -111q-114 0 -175 76t-61 193q0 118 60 194q61 78 175 78q60 0 105.5 -30t59.5 -85h4zM277 63q84 0 120 58q37 58 37 145v7q-2 82 -43 130.5t-112 48.5q-78 0 -118 -55q-39 -54 -39 -134q0 -85 37 -143q37 -57 118 -57z
" />
    <glyph glyph-name="e" unicode="e" horiz-adv-x="559" 
d="M286 529q54 0 97.5 -19t70.5 -49t44.5 -70t24 -79.5t4.5 -79.5h-409q13 -169 171 -169q56 0 93 26t48 75h88q-17 -84 -77.5 -130t-151.5 -46q-121 0 -189 73.5t-72 198.5q0 115 74 192t184 77zM121 308h315q-4 64 -45.5 105.5t-104.5 41.5t-108 -40.5t-57 -106.5z" />
    <glyph glyph-name="f" unicode="f" horiz-adv-x="320" 
d="M193 517h99v-73h-98v-444h-88v444h-86v73h86v98q0 43 31 71t82 28h67v-75h-51q-42 0 -42 -37v-85z" />
    <glyph glyph-name="g" unicode="g" horiz-adv-x="581" 
d="M435 418v99h90v-503q0 -113 -57.5 -168.5t-187.5 -55.5q-88 -2 -151.5 36.5t-67.5 115.5h90q3 -40 38.5 -58.5t90.5 -18.5q87 0 121 33.5t34 115.5v99h-2q-12 -57 -59 -91t-106 -34q-114 0 -176 78q-62 79 -62 194q0 116 61 192q62 77 175 77q118 0 167 -111h2zM277 69
q81 1 121 65t33 146q0 37 -12.5 74.5t-47.5 68.5t-87 31q-75 0 -115 -52t-40 -136q0 -80 35 -139q36 -58 113 -58z" />
    <glyph glyph-name="h" unicode="h" horiz-adv-x="563" 
d="M311 529q97 0 147.5 -50t50.5 -139v-340h-90v331q0 66 -30 94.5t-90 28.5q-67 0 -107 -34t-46 -102v-318h-90v714h88v-304q18 58 62.5 88.5t104.5 30.5z" />
    <glyph glyph-name="i" unicode="i" horiz-adv-x="212" 
d="M152 714v-104h-92v104h92zM61 0v517h90v-517h-90z" />
    <glyph glyph-name="j" unicode="j" horiz-adv-x="229" 
d="M169 714v-104h-92v104h92zM168 517v-615q0 -99 -95 -99h-91v75h50q46 0 46 33v606h90z" />
    <glyph glyph-name="k" unicode="k" horiz-adv-x="510" 
d="M522 0h-108l-192 270l-78 -69v-201h-90v714h90v-413l240 216h117l-214 -190z" />
    <glyph glyph-name="l" unicode="l" horiz-adv-x="210" 
d="M60 0v714h90v-714h-90z" />
    <glyph glyph-name="m" unicode="m" horiz-adv-x="846" 
d="M617 529q83 0 129 -37.5t46 -112.5v-379h-89v339q0 58 -22 86.5t-77 28.5q-63 0 -99 -38.5t-36 -111.5v-304h-89v339q0 57 -22.5 86t-73.5 29q-31 0 -56 -11.5t-39.5 -29t-24.5 -38.5t-14 -39t-4 -32v-304h-90v517h85v-112h2q17 61 61.5 92.5t105.5 31.5q54 0 94.5 -29.5
t48.5 -81.5h1q17 54 61.5 82.5t101.5 28.5z" />
    <glyph glyph-name="n" unicode="n" 
d="M311 529q96 0 146.5 -50t50.5 -139v-340h-90v331q0 66 -30 94.5t-89 28.5q-77 0 -115 -42.5t-38 -137.5v-274h-90v517h85v-112h2q18 61 62 92.5t106 31.5z" />
    <glyph glyph-name="o" unicode="o" horiz-adv-x="576" 
d="M28 258q0 117 68 194t187 77t187 -77t68 -194t-68 -194q-67 -76 -187 -76t-187 76q-68 77 -68 194zM448 258q0 92 -48 144q-47 53 -117 53t-118 -53q-47 -53 -47 -144q0 -90 47 -143q48 -52 118 -52q71 0 117 52q48 52 48 143z" />
    <glyph glyph-name="p" unicode="p" horiz-adv-x="581" 
d="M316 529q114 0 174 -78q61 -76 61 -194q0 -117 -61 -193t-175 -76q-117 0 -167 111h-2v-299h-90v717h94l-2 -103h3q14 55 59.5 85t105.5 30zM304 63q81 0 118 57q37 58 37 143q0 81 -40 134q-39 55 -117 55q-71 0 -112 -49t-43 -131v-6q0 -86 36 -145q37 -58 121 -58z
" />
    <glyph glyph-name="q" unicode="q" horiz-adv-x="581" 
d="M433 414l-2 103h94v-717h-90v299h-2q-49 -111 -167 -111q-114 0 -175 76t-61 193q0 118 60 194q61 78 175 78q60 0 105.5 -30t59.5 -85h3zM277 63q84 0 120 58q37 58 37 145v6q-2 82 -43 131t-112 49q-78 0 -118 -55q-39 -54 -39 -134q0 -85 37 -143q37 -57 118 -57z" />
    <glyph glyph-name="r" unicode="r" horiz-adv-x="367" 
d="M349 519v-85q-95 15 -149 -38.5t-54 -165.5v-230h-90v517h85v-129h2q21 76 76 109.5t130 21.5z" />
    <glyph glyph-name="s" unicode="s" horiz-adv-x="509" 
d="M24 152h87q7 -91 133 -91q53 0 94 18t41 61q0 36 -31 59q-11 10 -35 17q-29 9 -40 11q-11 3 -46 10q-62 12 -104 28q-40 17 -59.5 43.5t-22.5 73.5q0 72 58 109q59 38 135 38q96 0 148 -32q52 -31 64 -121h-83q-11 46 -40 63t-83 17q-47 0 -78 -17.5t-31 -51.5
q0 -44 56 -63l33 -10l40 -8q16 -3 40 -8q69 -16 115 -43q54 -31 54 -104q0 -59 -37 -97q-62 -66 -192 -66q-91 0 -150 37q-60 37 -66 127z" />
    <glyph glyph-name="t" unicode="t" horiz-adv-x="318" 
d="M284 517v-74h-103v-335q0 -18 7.5 -25t30.5 -7h60v-76h-101q-46 0 -65.5 24.5t-19.5 74.5v344h-85v74h85v123l85 42h3v-165h103z" />
    <glyph glyph-name="u" unicode="u" 
d="M416 243v274h90v-517h-85v112h-2q-18 -61 -62 -92.5t-106 -31.5q-96 0 -146.5 50t-50.5 139v340h90v-331q0 -66 30 -94.5t89 -28.5q77 0 115 42.5t38 137.5z" />
    <glyph glyph-name="v" unicode="v" horiz-adv-x="524" 
d="M264 80l151 437h101l-201 -517h-103l-204 517h103l151 -437h2z" />
    <glyph glyph-name="w" unicode="w" horiz-adv-x="730" 
d="M521 70l107 447h94l-144 -517h-129l-79 413h-2l-93 -413h-121l-146 517h95l108 -447h4l93 447h116l95 -447h2z" />
    <glyph glyph-name="x" unicode="x" horiz-adv-x="516" 
d="M304 274l204 -274h-109l-148 208l-140 -208h-103l195 274l-181 243h109l126 -178l127 178h102z" />
    <glyph glyph-name="y" unicode="y" horiz-adv-x="500" 
d="M256 98l146 419h90l-224 -617q-34 -100 -131 -100h-70v75h57q24 0 45 18t30 46l14 38l-205 540h96z" />
    <glyph glyph-name="z" unicode="z" horiz-adv-x="476" 
d="M445 459l-319 -383h330v-76h-436v65l315 377h-292v75h402v-58z" />
    <glyph glyph-name="braceleft" unicode="{" horiz-adv-x="333" 
d="M309 731v-60h-50q-48 0 -48 -86v-183q0 -60 -30 -95q-30 -33 -57 -39v-3q28 -5 57 -36q30 -31 30 -98v-183q0 -86 48 -86h50v-60h-70q-41 0 -75 36q-33 34 -33 95v182q0 52 -24 84.5t-59 32.5v68q34 0 58.5 34t24.5 84v182q0 60 33 95q34 36 75 36h70z" />
    <glyph glyph-name="bar" unicode="|" horiz-adv-x="222" 
d="M77 -214v1000h68v-1000h-68z" />
    <glyph glyph-name="braceright" unicode="}" horiz-adv-x="333" 
d="M24 -198v60h50q48 0 48 86v183q0 61 30 94q29 34 57 40v3q-28 4 -58 36q-29 32 -29 98v181q0 88 -48 88h-50v60h70q41 0 74 -36q34 -34 34 -95v-182q0 -52 24 -85t59 -33v-68q-34 0 -58.5 -34t-24.5 -83v-182q0 -61 -34 -95q-33 -36 -74 -36h-70z" />
    <glyph glyph-name="asciitilde" unicode="~" horiz-adv-x="600" 
d="M495 319l36 -50q-29 -44 -57 -65t-68 -21q-45 0 -102 33q-66 39 -115 39q-50 0 -84 -76l-36 50q42 86 125 86q36 0 111 -32q16 -7 34 -17q47 -23 68 -23q5 0 10.5 1t8.5 2.5t8 4.5l7.5 4.5t8 6t7.5 5.5q10 10 19 25z" />
    <glyph glyph-name="exclamdown" unicode="&#xa1;" horiz-adv-x="259" 
d="M185 517v-111h-111v111h111zM82 -198v220l25 311h45l25 -311v-220h-95z" />
    <glyph glyph-name="cent" unicode="&#xa2;" horiz-adv-x="556" 
d="M432 189h85q-9 -79 -61 -137q-53 -57 -145 -63v-104h-39v104q-106 6 -166 74t-60 189q0 114 58 191q58 78 168 86v95h39v-94q183 -9 203 -179h-87q-19 94 -116 102v-389q51 5 81.5 38.5t39.5 86.5zM136 252q0 -86 36 -133.5t100 -54.5v389q-64 -7 -100 -58t-36 -143z" />
    <glyph glyph-name="sterling" unicode="&#xa3;" horiz-adv-x="556" 
d="M501 95l50 -65q-55 -47 -153 -47q-33 0 -99 20q-63 21 -135 21q-47 0 -100 -35l-39 59q68 58 94 91q38 50 38 95q0 39 -26 93h-94v45h69q-48 86 -48 156q0 92 66 147q68 56 162 56q240 0 236 -238h-90q-2 87 -35.5 124.5t-105.5 37.5q-61 0 -102 -37q-41 -38 -41 -93
q0 -37 11 -69l11 -27l30 -57h173v-45h-151q20 -38 20 -75q0 -65 -43 -111q-31 -35 -108 -89l2 -2q70 40 128 40q51 0 107 -14q62 -18 84 -18q43 0 89 37z" />
    <glyph glyph-name="currency" unicode="&#xa4;" horiz-adv-x="556" 
d="M528 351q0 -83 -52 -150l55 -56l-47 -47l-54 57q-68 -54 -150 -54q-86 0 -153 54l-54 -58l-48 48l54 58q-51 67 -51 146q0 83 52 150l-55 56l49 49l56 -56q68 51 151 51q80 0 144 -49l56 55l50 -51l-55 -55q52 -67 52 -148zM280 176q70 0 116 51q47 52 47 124
q0 70 -47 122q-47 51 -115 51q-71 0 -120 -51q-48 -49 -48 -124q0 -73 48 -123q50 -50 119 -50z" />
    <glyph glyph-name="yen" unicode="&#xa5;" horiz-adv-x="556" 
d="M232 0v174h-141v60h141v42l-18 33h-123v60h92l-183 345h109l174 -353l169 353h104l-178 -345h93v-60h-126l-18 -33v-42h144v-60h-144v-174h-95z" />
    <glyph glyph-name="brokenbar" unicode="&#xa6;" horiz-adv-x="222" 
d="M145 661v-250h-68v250h68zM77 -89v250h68v-250h-68z" />
    <glyph glyph-name="section" unicode="&#xa7;" horiz-adv-x="556" 
d="M473 551h-85q-1 46 -31 75.5t-78 29.5q-43 0 -69 -22.5t-26 -63.5q0 -42 46 -76q30 -22 103 -62l17 -9q72 -39 113 -76q53 -47 53 -118q0 -44 -32 -80.5t-84 -57.5q71 -50 71 -129q0 -71 -53 -115q-52 -45 -134 -45q-91 0 -148 49.5t-63 135.5h85q1 -49 36 -79.5
t88 -30.5q42 0 71.5 22.5t29.5 60.5q0 46 -45 77q-28 22 -46 32q-19 12 -26 15q-7 5 -30.5 17.5t-26.5 14.5q-78 42 -118 80q-56 53 -56 129q0 44 33.5 81t81.5 50q-54 51 -54 113q0 75 55 118q56 44 130 44q88 0 139 -46t53 -134zM117 329q0 -38 28 -68q19 -17 28 -24
q13 -8 15 -10q3 -1 18 -11l16 -9q78 -41 140 -83q72 30 72 93q3 24 -28 61q-1 2 -38 31q-14 9 -22 14l-18 12q-113 67 -138 85q-31 -10 -52 -35.5t-21 -55.5z" />
    <glyph glyph-name="dieresis" unicode="&#xa8;" horiz-adv-x="592" 
d="M150 714h90v-104h-90v104zM338 714h90v-104h-90v104z" />
    <glyph glyph-name="copyright" unicode="&#xa9;" horiz-adv-x="800" 
d="M776 359q0 -158 -110 -268q-110 -108 -265 -108q-156 0 -267 108q-110 110 -110 268q0 157 111 264q111 108 266 108t265 -108q110 -107 110 -264zM401 38q129 0 218 92t89 229q0 133 -89 225t-218 92q-132 0 -221 -92q-88 -91 -88 -225q0 -138 88 -229q89 -92 221 -92z
M535 285h64q-16 -72 -66.5 -114.5t-119.5 -42.5q-100 0 -161 64t-61 165t59 165q58 63 160 63q75 0 125.5 -40t62.5 -112h-63q-8 43 -42 70t-82 27q-71 0 -111.5 -47.5t-40.5 -123.5q0 -73 42 -125q42 -51 112 -51q49 0 82 28t40 74z" />
    <glyph glyph-name="ordfeminine" unicode="&#xaa;" horiz-adv-x="540" 
d="M484 347v-277q0 -41 8 -70h-90q-4 24 -4 115h-1q-12 -62 -59 -94.5t-122 -32.5q-188 0 -188 149q0 48 23 82t63 49q39 14 77 22t79 12q44 4 57 9q43 12 55 25.5t12 43.5q0 36 -31.5 55.5t-89.5 19.5q-78 0 -102 -40q-13 -24 -17 -50h-90q6 49 19 74q47 90 188 90
q107 0 160 -47q22 -19 34 -47q19 -40 19 -88zM394 240v83q-7 -33 -38 -49.5t-105 -31.5q-72 -13 -101 -35t-29 -68q0 -36 28.5 -58.5t76.5 -22.5q85 0 126.5 43t41.5 139z" />
    <glyph glyph-name="guillemotleft" unicode="&#xab;" horiz-adv-x="463" 
d="M202 114l-152 120v88l152 120v-86l-100 -78l100 -78v-86zM398 114l-152 120v88l152 120v-86l-100 -78l100 -78v-86z" />
    <glyph glyph-name="logicalnot" unicode="&#xac;" horiz-adv-x="600" 
d="M552 388v-279h-68v211h-436v68h504z" />
    <glyph glyph-name="registered" unicode="&#xae;" horiz-adv-x="800" 
d="M776 359q0 -158 -110 -268q-110 -108 -265 -108q-156 0 -267 108q-110 110 -110 268q0 157 111 264q111 108 266 108t265 -108q110 -107 110 -264zM401 38q129 0 218 92t89 229q0 133 -89 225t-218 92q-133 0 -221 -91t-88 -226q0 -138 88 -229q89 -92 221 -92zM255 139
v437h169q153 0 153 -125q0 -107 -115 -119l125 -193h-73l-119 188h-72v-188h-68zM323 521v-139h71q37 0 66 5q49 11 49 67q0 67 -96 67h-90z" />
    <glyph glyph-name="degree" unicode="&#xb0;" horiz-adv-x="575" 
d="M357 596q-33 -33 -79 -33t-80 33q-33 33 -33 79t33 79q34 33 80 33t79 -33q34 -33 34 -79t-34 -79zM326 722q-19 20 -48 20t-48 -20q-19 -19 -19 -48t19 -49q19 -19 48 -19t48 19q19 20 19 49t-19 48z" />
    <glyph glyph-name="plusminus" unicode="&#xb1;" horiz-adv-x="600" 
d="M48 271v68h218v166h68v-166h218v-68h-218v-167h-68v167h-218zM48 0v68h504v-68h-504z" />
    <glyph glyph-name="acute" unicode="&#xb4;" horiz-adv-x="542" 
d="M272 732h109l-131 -143h-64z" />
    <glyph glyph-name="middot" unicode="&#xb7;" horiz-adv-x="278" 
d="M203 311q0 -24 -19.5 -44t-43.5 -20q-41 -2 -59 40t13 69q27 31 69 13.5t40 -58.5z" />
    <glyph glyph-name="cedilla" unicode="&#xb8;" horiz-adv-x="833" 
 />
    <glyph glyph-name="ordmasculine" unicode="&#xba;" horiz-adv-x="576" 
d="M28 258q0 117 68 194t187 77t187 -77t68 -194t-68 -194q-67 -76 -187 -76t-187 76q-68 77 -68 194zM448 258q0 92 -48 144q-47 53 -117 53t-118 -53q-47 -53 -47 -144q0 -90 47 -143q48 -52 118 -52q71 0 117 52q48 52 48 143z" />
    <glyph glyph-name="guillemotright" unicode="&#xbb;" horiz-adv-x="463" 
d="M65 442l152 -120v-88l-152 -120v86l100 78l-100 78v86zM261 442l152 -120v-88l-152 -120v86l100 78l-100 78v86z" />
    <glyph glyph-name="questiondown" unicode="&#xbf;" horiz-adv-x="556" 
d="M337 517v-111h-111v111h111zM418 30h85q2 -104 -60 -172t-164 -68q-96 0 -153.5 53.5t-57.5 146.5q0 53 20 90t66 80q37 36 58 62q29 37 29 86v31h85v-39q-2 -46 -21 -82t-44 -60t-49.5 -47.5t-40 -55.5t-13.5 -73q4 -55 35.5 -86t85.5 -31q67 0 103 45t36 120z" />
    <glyph glyph-name="Agrave" unicode="&#xc0;" horiz-adv-x="651" 
d="M287 922l86 -143h-64l-131 143h109zM659 0h-107l-84 228h-291l-85 -228h-100l281 714h105zM325 636h-2l-119 -332h239z" />
    <glyph glyph-name="Aacute" unicode="&#xc1;" horiz-adv-x="651" 
d="M356 922h109l-131 -143h-64zM659 0h-107l-84 228h-291l-85 -228h-100l281 714h105zM325 636h-2l-119 -332h239z" />
    <glyph glyph-name="Acircumflex" unicode="&#xc2;" horiz-adv-x="651" 
d="M392 779l-69 96l-70 -96h-77l103 143h93l104 -143h-84zM659 0h-107l-84 228h-291l-85 -228h-100l281 714h105zM325 636h-2l-119 -332h239z" />
    <glyph glyph-name="Atilde" unicode="&#xc3;" horiz-adv-x="651" 
d="M224 823q-9 -7 -18 -30h-52q23 110 106 110q27 0 73 -20q48 -20 66 -20q32 0 46 44h52q-6 -44 -32 -79q-26 -32 -69 -32q-30 0 -75 20q-50 19 -66 19q-19 0 -31 -12zM659 0h-107l-84 228h-291l-85 -228h-100l281 714h105zM325 636h-2l-119 -332h239z" />
    <glyph glyph-name="Adieresis" unicode="&#xc4;" horiz-adv-x="651" 
d="M185 897h90v-104h-90v104zM373 897h90v-104h-90v104zM659 0h-107l-84 228h-291l-85 -228h-100l281 714h105zM325 636h-2l-119 -332h239z" />
    <glyph glyph-name="Aring" unicode="&#xc5;" horiz-adv-x="651" 
d="M403 782q-33 -33 -79 -33t-80 33q-33 33 -33 79t33 79q34 33 80 33t79 -33q34 -33 34 -79t-34 -79zM372 908q-19 20 -48 20t-48 -20q-19 -19 -19 -48t19 -49q19 -19 48 -19t48 19q19 20 19 49t-19 48zM659 0h-107l-84 228h-291l-85 -228h-100l281 714h105zM325 636h-2
l-119 -332h239z" />
    <glyph glyph-name="AE" unicode="&#xc6;" horiz-adv-x="926" 
d="M538 327v-247h357v-80h-447v228h-245l-120 -228h-99l393 714h512v-80h-351v-227h330v-80h-330zM419 636l-175 -332h204v332h-29z" />
    <glyph glyph-name="Ccedilla" unicode="&#xc7;" horiz-adv-x="739" 
d="M390 -17h-10l-74 -58l2 -2q34 25 88 25q37 0 60 -19t23 -53q0 -43 -36.5 -64.5t-91.5 -21.5q-59 0 -102 22l35 40q21 -12 54 -12q26 0 46 9.5t20 24.5q0 16 -15 25.5t-39 9.5q-38 0 -67 -20l-18 33l68 65q-137 18 -216 120q-79 101 -79 248q0 159 98 268q99 108 260 108
q118 0 200 -56q82 -55 94 -167h-95q-12 70 -65.5 106.5t-134.5 36.5q-122 0 -192 -85t-70 -204q0 -129 70 -214t195 -85q90 0 144 44.5t64 128.5h95q-14 -127 -94 -190t-217 -63z" />
    <glyph glyph-name="Egrave" unicode="&#xc8;" horiz-adv-x="614" 
d="M273 922l86 -143h-64l-131 143h109zM169 327v-247h401v-80h-496v714h493v-80h-398v-227h377v-80h-377z" />
    <glyph glyph-name="Eacute" unicode="&#xc9;" horiz-adv-x="614" 
d="M366 922h109l-131 -143h-64zM169 327v-247h401v-80h-496v714h493v-80h-398v-227h377v-80h-377z" />
    <glyph glyph-name="Ecircumflex" unicode="&#xca;" horiz-adv-x="614" 
d="M387 779l-69 96l-70 -96h-77l103 143h93l104 -143h-84zM169 327v-247h401v-80h-496v714h493v-80h-398v-227h377v-80h-377z" />
    <glyph glyph-name="Edieresis" unicode="&#xcb;" horiz-adv-x="614" 
d="M185 896h90v-104h-90v104zM373 896h90v-104h-90v104zM169 327v-247h401v-80h-496v714h493v-80h-398v-227h377v-80h-377z" />
    <glyph glyph-name="Igrave" unicode="&#xcc;" horiz-adv-x="255" 
d="M113 779l-131 143h109l86 -143h-64zM80 0v714h95v-714h-95z" />
    <glyph glyph-name="Iacute" unicode="&#xcd;" horiz-adv-x="255" 
d="M78 779l86 143h109l-131 -143h-64zM80 0v714h95v-714h-95z" />
    <glyph glyph-name="Icircumflex" unicode="&#xce;" horiz-adv-x="255" 
d="M-22 779l103 143h92l104 -143h-84l-68 96l-70 -96h-77zM80 0v714h95v-714h-95z" />
    <glyph glyph-name="Idieresis" unicode="&#xcf;" horiz-adv-x="255" 
d="M-11 792v104h90v-104h-90zM177 792v104h90v-104h-90zM80 0v714h95v-714h-95z" />
    <glyph glyph-name="Ntilde" unicode="&#xd1;" horiz-adv-x="733" 
d="M272 823q-9 -7 -18 -30h-52q23 110 106 110q27 0 73 -20q48 -20 66 -20q32 0 46 44h52q-6 -44 -32 -79q-26 -32 -69 -32q-30 0 -75 20q-50 19 -66 19q-19 0 -31 -12zM569 135v579h90v-714h-104l-389 573h-2v-573h-90v714h101l392 -579h2z" />
    <glyph glyph-name="Ograve" unicode="&#xd2;" horiz-adv-x="788" 
d="M376 779l-131 143h109l86 -143h-64zM200 677q82 54 194 54q110 0 193 -54q82 -52 123 -137q40 -81 40 -183q0 -215 -163 -321q-83 -53 -193 -53q-111 0 -194 53q-81 53 -122 137q-40 83 -40 184q0 102 41 185t121 135zM248 107q62 -44 146 -44t146 44q60 44 88 110
q27 66 28 139.5t-29 141t-87 108.5q-62 45 -146 45t-146 -45q-60 -43 -88 -109t-28.5 -139t29.5 -141t87 -110z" />
    <glyph glyph-name="Oacute" unicode="&#xd3;" horiz-adv-x="788" 
d="M339 779l86 143h109l-131 -143h-64zM200 677q82 54 194 54q110 0 193 -54q82 -52 123 -137q40 -81 40 -183q0 -215 -163 -321q-83 -53 -193 -53q-111 0 -194 53q-81 53 -122 137q-40 83 -40 184q0 102 41 185t121 135zM248 107q62 -44 146 -44t146 44q60 44 88 110
q27 66 28 139.5t-29 141t-87 108.5q-62 45 -146 45t-146 -45q-60 -43 -88 -109t-28.5 -139t29.5 -141t87 -110z" />
    <glyph glyph-name="Ocircumflex" unicode="&#xd4;" horiz-adv-x="788" 
d="M246 779l103 143h93l104 -143h-84l-69 96l-70 -96h-77zM200 677q82 54 194 54q110 0 193 -54q82 -52 123 -137q40 -81 40 -183q0 -215 -163 -321q-83 -53 -193 -53q-111 0 -194 53q-81 53 -122 137q-40 83 -40 184q0 102 41 185t121 135zM248 107q62 -44 146 -44t146 44
q60 44 88 110q27 66 28 139.5t-29 141t-87 108.5q-62 45 -146 45t-146 -45q-60 -43 -88 -109t-28.5 -139t29.5 -141t87 -110z" />
    <glyph glyph-name="Otilde" unicode="&#xd5;" horiz-adv-x="788" 
d="M516 907h52q-6 -44 -32 -79q-26 -32 -69 -32q-30 0 -75 20q-50 19 -66 19q-19 0 -31 -12q-9 -7 -18 -30h-52q23 110 106 110q27 0 73 -20q48 -20 66 -20q32 0 46 44zM200 677q82 54 194 54q110 0 193 -54q82 -52 123 -137q40 -81 40 -183q0 -215 -163 -321
q-83 -53 -193 -53q-111 0 -194 53q-81 53 -122 137q-40 83 -40 184q0 102 41 185t121 135zM248 107q62 -44 146 -44t146 44q60 44 88 110q27 66 28 139.5t-29 141t-87 108.5q-62 45 -146 45t-146 -45q-60 -43 -88 -109t-28.5 -139t29.5 -141t87 -110z" />
    <glyph glyph-name="Odieresis" unicode="&#xd6;" horiz-adv-x="788" 
d="M256 792v104h90v-104h-90zM444 792v104h90v-104h-90zM200 677q82 54 194 54q110 0 193 -54q82 -52 123 -137q40 -81 40 -183q0 -215 -163 -321q-83 -53 -193 -53q-111 0 -194 53q-81 53 -122 137q-40 83 -40 184q0 102 41 185t121 135zM248 107q62 -44 146 -44t146 44
q60 44 88 110q27 66 28 139.5t-29 141t-87 108.5q-62 45 -146 45t-146 -45q-60 -43 -88 -109t-28.5 -139t29.5 -141t87 -110z" />
    <glyph glyph-name="multiply" unicode="&#xd7;" horiz-adv-x="600" 
d="M122 22l-54 54l179 178l-178 177l54 54l178 -177l177 178l54 -54l-177 -178l178 -179l-54 -54l-178 180z" />
    <glyph glyph-name="Oslash" unicode="&#xd8;" horiz-adv-x="787" 
d="M737 700l-77 -85q90 -105 90 -258q0 -101 -40 -184q-41 -83 -123 -137q-83 -53 -193 -53q-141 0 -233 82l-77 -84l-33 29l79 87q-92 104 -92 260q0 102 40 183q41 86 122 137q82 54 194 54q140 0 235 -84l76 83zM133 357q0 -114 58 -193l379 418q-69 69 -176 69
q-84 0 -146 -45q-115 -84 -115 -249zM394 63q84 0 146 44q115 85 115 250q0 111 -56 191l-379 -418q68 -67 174 -67z" />
    <glyph glyph-name="Ugrave" unicode="&#xd9;" horiz-adv-x="710" 
d="M338 779l-131 143h109l86 -143h-64zM642 714v-456q0 -134 -72.5 -204.5t-208.5 -70.5q-143 0 -218 69t-75 206v456h95v-456q0 -95 51 -145t147 -50q91 0 138.5 50t47.5 145v456h95z" />
    <glyph glyph-name="Uacute" unicode="&#xda;" horiz-adv-x="710" 
d="M309 779l86 143h109l-131 -143h-64zM642 714v-456q0 -134 -72.5 -204.5t-208.5 -70.5q-143 0 -218 69t-75 206v456h95v-456q0 -95 51 -145t147 -50q91 0 138.5 50t47.5 145v456h95z" />
    <glyph glyph-name="Ucircumflex" unicode="&#xdb;" horiz-adv-x="710" 
d="M209 779l103 143h93l104 -143h-84l-69 96l-70 -96h-77zM642 714v-456q0 -134 -72.5 -204.5t-208.5 -70.5q-143 0 -218 69t-75 206v456h95v-456q0 -95 51 -145t147 -50q91 0 138.5 50t47.5 145v456h95z" />
    <glyph glyph-name="Udieresis" unicode="&#xdc;" horiz-adv-x="710" 
d="M217 792v104h90v-104h-90zM405 792v104h90v-104h-90zM642 714v-456q0 -134 -72.5 -204.5t-208.5 -70.5q-143 0 -218 69t-75 206v456h95v-456q0 -95 51 -145t147 -50q91 0 138.5 50t47.5 145v456h95z" />
    <glyph glyph-name="Yacute" unicode="&#xdd;" horiz-adv-x="644" 
d="M378 922h109l-131 -143h-64zM536 714h108l-273 -422v-292h-95v292l-276 422h113l214 -340z" />
    <glyph glyph-name="Thorn" unicode="&#xde;" horiz-adv-x="648" 
d="M173 0h-95v714h95v-114h218q105 0 162 -55t57 -157q0 -101 -56.5 -156t-162.5 -54h-218v-178zM173 520v-262h186q156 -2 156 130t-156 132h-186z" />
    <glyph glyph-name="germandbls" unicode="&#xdf;" horiz-adv-x="524" 
d="M54 0v531q0 88 56 144q58 56 147 56q85 0 144 -47q58 -46 58 -130q0 -161 -174 -164v-4q101 1 155 -49.5t54 -134.5q0 -95 -62 -154q-61 -58 -161 -58q-52 0 -82 8v78q25 -9 73 -9q71 0 107.5 36.5t36.5 102.5q0 94 -47 120q-38 23 -130 27v63q140 5 140 125
q0 53 -28.5 83t-77.5 30q-60 0 -89.5 -32t-29.5 -108v-514h-90z" />
    <glyph glyph-name="agrave" unicode="&#xe0;" horiz-adv-x="540" 
d="M245 732l86 -143h-64l-131 143h109zM484 347v-277q0 -41 8 -70h-90q-4 24 -4 115h-1q-12 -62 -59 -94.5t-122 -32.5q-188 0 -188 149q0 48 23 82t63 49q39 14 77 22t79 12q44 4 57 9q43 12 55 25.5t12 43.5q0 36 -31.5 55.5t-89.5 19.5q-78 0 -102 -40q-13 -24 -17 -50
h-90q6 49 19 74q47 90 188 90q107 0 160 -47q22 -19 34 -47q19 -40 19 -88zM394 240v83q-7 -33 -38 -49.5t-105 -31.5q-72 -13 -101 -35t-29 -68q0 -36 28.5 -58.5t76.5 -22.5q85 0 126.5 43t41.5 139z" />
    <glyph glyph-name="aacute" unicode="&#xe1;" horiz-adv-x="540" 
d="M322 732h109l-131 -143h-64zM484 347v-277q0 -41 8 -70h-90q-4 24 -4 115h-1q-12 -62 -59 -94.5t-122 -32.5q-188 0 -188 149q0 48 23 82t63 49q39 14 77 22t79 12q44 4 57 9q43 12 55 25.5t12 43.5q0 36 -31.5 55.5t-89.5 19.5q-78 0 -102 -40q-13 -24 -17 -50h-90
q6 49 19 74q47 90 188 90q107 0 160 -47q22 -19 34 -47q19 -40 19 -88zM394 240v83q-7 -33 -38 -49.5t-105 -31.5q-72 -13 -101 -35t-29 -68q0 -36 28.5 -58.5t76.5 -22.5q85 0 126.5 43t41.5 139z" />
    <glyph glyph-name="acircumflex" unicode="&#xe2;" horiz-adv-x="540" 
d="M353 589l-69 96l-70 -96h-77l103 143h93l104 -143h-84zM484 347v-277q0 -41 8 -70h-90q-4 24 -4 115h-1q-12 -62 -59 -94.5t-122 -32.5q-188 0 -188 149q0 48 23 82t63 49q39 14 77 22t79 12q44 4 57 9q43 12 55 25.5t12 43.5q0 36 -31.5 55.5t-89.5 19.5q-78 0 -102 -40
q-13 -24 -17 -50h-90q6 49 19 74q47 90 188 90q107 0 160 -47q22 -19 34 -47q19 -40 19 -88zM394 240v83q-7 -33 -38 -49.5t-105 -31.5q-72 -13 -101 -35t-29 -68q0 -36 28.5 -58.5t76.5 -22.5q85 0 126.5 43t41.5 139z" />
    <glyph glyph-name="atilde" unicode="&#xe3;" horiz-adv-x="540" 
d="M185 633q-9 -7 -18 -30h-52q23 110 106 110q27 0 73 -20q48 -20 66 -20q32 0 46 44h52q-6 -44 -32 -79q-26 -32 -69 -32q-30 0 -75 20q-50 19 -66 19q-19 0 -31 -12zM484 347v-277q0 -41 8 -70h-90q-4 24 -4 115h-1q-12 -62 -59 -94.5t-122 -32.5q-188 0 -188 149
q0 48 23 82t63 49q39 14 77 22t79 12q44 4 57 9q43 12 55 25.5t12 43.5q0 36 -31.5 55.5t-89.5 19.5q-78 0 -102 -40q-13 -24 -17 -50h-90q6 49 19 74q47 90 188 90q107 0 160 -47q22 -19 34 -47q19 -40 19 -88zM394 240v83q-7 -33 -38 -49.5t-105 -31.5q-72 -13 -101 -35
t-29 -68q0 -36 28.5 -58.5t76.5 -22.5q85 0 126.5 43t41.5 139z" />
    <glyph glyph-name="adieresis" unicode="&#xe4;" horiz-adv-x="540" 
d="M150 714h90v-104h-90v104zM338 714h90v-104h-90v104zM484 347v-277q0 -41 8 -70h-90q-4 24 -4 115h-1q-12 -62 -59 -94.5t-122 -32.5q-188 0 -188 149q0 48 23 82t63 49q39 14 77 22t79 12q44 4 57 9q43 12 55 25.5t12 43.5q0 36 -31.5 55.5t-89.5 19.5q-78 0 -102 -40
q-13 -24 -17 -50h-90q6 49 19 74q47 90 188 90q107 0 160 -47q22 -19 34 -47q19 -40 19 -88zM394 240v83q-7 -33 -38 -49.5t-105 -31.5q-72 -13 -101 -35t-29 -68q0 -36 28.5 -58.5t76.5 -22.5q85 0 126.5 43t41.5 139z" />
    <glyph glyph-name="aring" unicode="&#xe5;" horiz-adv-x="540" 
d="M357 596q-33 -33 -79 -33t-80 33q-33 33 -33 79t33 79q34 33 80 33t79 -33q34 -33 34 -79t-34 -79zM326 722q-19 20 -48 20t-48 -20q-19 -19 -19 -48t19 -49q19 -19 48 -19t48 19q19 20 19 49t-19 48zM484 347v-277q0 -41 8 -70h-90q-4 24 -4 115h-1q-12 -62 -59 -94.5
t-122 -32.5q-188 0 -188 149q0 48 23 82t63 49q39 14 77 22t79 12q44 4 57 9q43 12 55 25.5t12 43.5q0 36 -31.5 55.5t-89.5 19.5q-78 0 -102 -40q-13 -24 -17 -50h-90q6 49 19 74q47 90 188 90q107 0 160 -47q22 -19 34 -47q19 -40 19 -88zM394 240v83q-7 -33 -38 -49.5
t-105 -31.5q-72 -13 -101 -35t-29 -68q0 -36 28.5 -58.5t76.5 -22.5q85 0 126.5 43t41.5 139z" />
    <glyph glyph-name="ae" unicode="&#xe6;" horiz-adv-x="880" 
d="M624 63q51 0 85 26t46 74h87q-19 -84 -77.5 -129.5t-146.5 -45.5q-82 0 -133.5 36.5t-83.5 116.5l-5 -26q-13 -62 -60 -94.5t-120 -32.5q-188 0 -188 149q0 48 23 82t63 49q39 14 77 22t79 12q44 4 57 9q31 9 44.5 19.5t16 19.5t2.5 30q0 75 -117 75q-77 0 -98 -40
q-13 -24 -17 -50h-90v9q2 17 4.5 30t15.5 39t32.5 42.5t59 30t91.5 13.5q128 0 178 -71q59 71 166 71q233 0 233 -296h-379q0 -75 41 -122.5t114 -47.5zM615 454q-66 0 -106 -41t-40 -105h289q-2 65 -40 105.5t-103 40.5zM390 240v82q-6 -33 -35.5 -49t-103.5 -31
q-72 -13 -101 -35t-29 -68q0 -36 28.5 -58.5t76.5 -22.5q85 0 124.5 42.5t39.5 139.5z" />
    <glyph glyph-name="ccedilla" unicode="&#xe7;" horiz-adv-x="552" 
d="M441 168h87q-18 -91 -73.5 -134t-151.5 -46l-83 -63l2 -2q34 25 88 25q37 0 60 -19t23 -53q0 -43 -36.5 -64.5t-91.5 -21.5q-59 0 -102 22l35 40q21 -12 54 -12q26 0 46 9.5t20 24.5q0 16 -15 25.5t-39 9.5q-38 0 -67 -20l-18 33l73 68q-102 10 -160 82q-58 71 -58 182
q0 118 72 196q73 79 190 79q97 0 158 -46q62 -47 69 -122h-88q-25 94 -142 94q-82 0 -127 -59q-44 -59 -44 -142q0 -76 44 -134q44 -57 121 -57q132 0 154 105z" />
    <glyph glyph-name="egrave" unicode="&#xe8;" horiz-adv-x="559" 
d="M255 732l86 -143h-64l-131 143h109zM286 529q54 0 97.5 -19t70.5 -49t44.5 -70t24 -79.5t4.5 -79.5h-409q13 -169 171 -169q56 0 93 26t48 75h88q-17 -84 -77.5 -130t-151.5 -46q-121 0 -189 73.5t-72 198.5q0 115 74 192t184 77zM121 308h315q-4 64 -45.5 105.5
t-104.5 41.5t-108 -40.5t-57 -106.5z" />
    <glyph glyph-name="eacute" unicode="&#xe9;" horiz-adv-x="559" 
d="M322 732h109l-131 -143h-64zM286 529q54 0 97.5 -19t70.5 -49t44.5 -70t24 -79.5t4.5 -79.5h-409q13 -169 171 -169q56 0 93 26t48 75h88q-17 -84 -77.5 -130t-151.5 -46q-121 0 -189 73.5t-72 198.5q0 115 74 192t184 77zM121 308h315q-4 64 -45.5 105.5t-104.5 41.5
t-108 -40.5t-57 -106.5z" />
    <glyph glyph-name="ecircumflex" unicode="&#xea;" horiz-adv-x="559" 
d="M353 589l-69 96l-70 -96h-77l103 143h93l104 -143h-84zM286 529q54 0 97.5 -19t70.5 -49t44.5 -70t24 -79.5t4.5 -79.5h-409q13 -169 171 -169q56 0 93 26t48 75h88q-17 -84 -77.5 -130t-151.5 -46q-121 0 -189 73.5t-72 198.5q0 115 74 192t184 77zM121 308h315
q-4 64 -45.5 105.5t-104.5 41.5t-108 -40.5t-57 -106.5z" />
    <glyph glyph-name="edieresis" unicode="&#xeb;" horiz-adv-x="559" 
d="M147 706h90v-103h-90v103zM335 706h90v-103h-90v103zM286 529q54 0 97.5 -19t70.5 -49t44.5 -70t24 -79.5t4.5 -79.5h-409q13 -169 171 -169q56 0 93 26t48 75h88q-17 -84 -77.5 -130t-151.5 -46q-121 0 -189 73.5t-72 198.5q0 115 74 192t184 77zM121 308h315
q-4 64 -45.5 105.5t-104.5 41.5t-108 -40.5t-57 -106.5z" />
    <glyph glyph-name="igrave" unicode="&#xec;" horiz-adv-x="201" 
d="M82 589l-131 143h109l86 -143h-64zM61 0v517h90v-517h-90z" />
    <glyph glyph-name="iacute" unicode="&#xed;" horiz-adv-x="201" 
d="M55 589l86 143h109l-131 -143h-64zM61 0v517h90v-517h-90z" />
    <glyph glyph-name="icircumflex" unicode="&#xee;" horiz-adv-x="200" 
d="M-50 589l103 143h93l104 -143h-84l-69 96l-70 -96h-77zM61 0v517h90v-517h-90z" />
    <glyph glyph-name="idieresis" unicode="&#xef;" horiz-adv-x="200" 
d="M-39 602v104h90v-104h-90zM149 602v104h90v-104h-90zM61 0v517h90v-517h-90z" />
    <glyph glyph-name="eth" unicode="&#xf0;" horiz-adv-x="574" 
d="M440 412h2q-22 52 -72 111q-48 57 -79 78l-115 -54l-38 40l109 51q-34 29 -80 47l80 46q52 -35 77 -56l120 56l35 -37l-115 -53q174 -144 174 -383q0 -118 -66 -194t-185 -76t-185 76t-66 194q0 103 63 175q64 73 173 73q117 0 168 -94zM126 258q0 -89 45.5 -142
t115.5 -53t115.5 53t45.5 142q0 78 -42.5 125.5t-123.5 47.5q-74 0 -115 -46.5t-41 -126.5z" />
    <glyph glyph-name="ntilde" unicode="&#xf1;" 
d="M181 633q-9 -7 -18 -30h-52q23 110 106 110q27 0 73 -20q48 -20 66 -20q32 0 46 44h52q-6 -44 -32 -79q-26 -32 -69 -32q-30 0 -75 20q-50 19 -66 19q-19 0 -31 -12zM311 529q96 0 146.5 -50t50.5 -139v-340h-90v331q0 66 -30 94.5t-89 28.5q-77 0 -115 -42.5t-38 -137.5
v-274h-90v517h85v-112h2q18 61 62 92.5t106 31.5z" />
    <glyph glyph-name="ograve" unicode="&#xf2;" horiz-adv-x="576" 
d="M257 589l-131 143h109l86 -143h-64zM28 258q0 117 68 194t187 77t187 -77t68 -194t-68 -194q-67 -76 -187 -76t-187 76q-68 77 -68 194zM448 258q0 92 -48 144q-47 53 -117 53t-118 -53q-47 -53 -47 -144q0 -90 47 -143q48 -52 118 -52q71 0 117 52q48 52 48 143z" />
    <glyph glyph-name="oacute" unicode="&#xf3;" horiz-adv-x="576" 
d="M236 589l86 143h109l-131 -143h-64zM28 258q0 117 68 194t187 77t187 -77t68 -194t-68 -194q-67 -76 -187 -76t-187 76q-68 77 -68 194zM448 258q0 92 -48 144q-47 53 -117 53t-118 -53q-47 -53 -47 -144q0 -90 47 -143q48 -52 118 -52q71 0 117 52q48 52 48 143z" />
    <glyph glyph-name="ocircumflex" unicode="&#xf4;" horiz-adv-x="576" 
d="M137 589l103 143h93l104 -143h-84l-69 96l-70 -96h-77zM28 258q0 117 68 194t187 77t187 -77t68 -194t-68 -194q-67 -76 -187 -76t-187 76q-68 77 -68 194zM448 258q0 92 -48 144q-47 53 -117 53t-118 -53q-47 -53 -47 -144q0 -90 47 -143q48 -52 118 -52q71 0 117 52
q48 52 48 143z" />
    <glyph glyph-name="otilde" unicode="&#xf5;" horiz-adv-x="576" 
d="M406 717h52q-6 -44 -32 -79q-26 -32 -69 -32q-30 0 -75 20q-50 19 -66 19q-19 0 -31 -12q-9 -7 -18 -30h-52q23 110 106 110q27 0 73 -20q48 -20 66 -20q32 0 46 44zM28 258q0 117 68 194t187 77t187 -77t68 -194t-68 -194q-67 -76 -187 -76t-187 76q-68 77 -68 194z
M448 258q0 92 -48 144q-47 53 -117 53t-118 -53q-47 -53 -47 -144q0 -90 47 -143q48 -52 118 -52q71 0 117 52q48 52 48 143z" />
    <glyph glyph-name="odieresis" unicode="&#xf6;" horiz-adv-x="576" 
d="M150 610v104h90v-104h-90zM338 610v104h90v-104h-90zM28 258q0 117 68 194t187 77t187 -77t68 -194t-68 -194q-67 -76 -187 -76t-187 76q-68 77 -68 194zM448 258q0 92 -48 144q-47 53 -117 53t-118 -53q-47 -53 -47 -144q0 -90 47 -143q48 -52 118 -52q71 0 117 52
q48 52 48 143z" />
    <glyph glyph-name="divide" unicode="&#xf7;" horiz-adv-x="600" 
d="M364 459q0 -24 -19 -44t-44 -20q-41 -2 -59 40t13 69q27 31 69 13.5t40 -58.5zM48 219v68h504v-68h-504zM364 47q0 -24 -19 -44t-44 -20q-41 -2 -59 40t13 69q27 31 69 13.5t40 -58.5z" />
    <glyph glyph-name="oslash" unicode="&#xf8;" 
d="M534 509l-57 -64q61 -73 61 -187q0 -117 -68 -194q-67 -76 -187 -76q-101 0 -167 57l-60 -67l-28 24l62 69q-62 74 -62 187q0 117 68 194t187 77q103 0 168 -58l57 64zM118 258q0 -71 31 -121l245 272q-46 46 -111 46q-70 0 -118 -53q-47 -53 -47 -144zM283 63
q71 0 117 52q48 52 48 143q0 71 -31 121l-244 -271q43 -45 110 -45z" />
    <glyph glyph-name="ugrave" unicode="&#xf9;" 
d="M236 732l86 -143h-64l-131 143h109zM416 243v274h90v-517h-85v112h-2q-18 -61 -62 -92.5t-106 -31.5q-96 0 -146.5 50t-50.5 139v340h90v-331q0 -66 30 -94.5t89 -28.5q77 0 115 42.5t38 137.5z" />
    <glyph glyph-name="uacute" unicode="&#xfa;" 
d="M317 732h109l-131 -143h-64zM416 243v274h90v-517h-85v112h-2q-18 -61 -62 -92.5t-106 -31.5q-96 0 -146.5 50t-50.5 139v340h90v-331q0 -66 30 -94.5t89 -28.5q77 0 115 42.5t38 137.5z" />
    <glyph glyph-name="ucircumflex" unicode="&#xfb;" 
d="M346 589l-69 96l-70 -96h-77l103 143h93l104 -143h-84zM416 243v274h90v-517h-85v112h-2q-18 -61 -62 -92.5t-106 -31.5q-96 0 -146.5 50t-50.5 139v340h90v-331q0 -66 30 -94.5t89 -28.5q77 0 115 42.5t38 137.5z" />
    <glyph glyph-name="udieresis" unicode="&#xfc;" 
d="M140 706h90v-104h-90v104zM328 706h90v-104h-90v104zM416 243v274h90v-517h-85v112h-2q-18 -61 -62 -92.5t-106 -31.5q-96 0 -146.5 50t-50.5 139v340h90v-331q0 -66 30 -94.5t89 -28.5q77 0 115 42.5t38 137.5z" />
    <glyph glyph-name="yacute" unicode="&#xfd;" horiz-adv-x="500" 
d="M307 732h109l-131 -143h-64zM256 98l146 419h90l-224 -617q-34 -100 -131 -100h-70v75h57q24 0 45 18t30 46l14 38l-205 540h96z" />
    <glyph glyph-name="thorn" unicode="&#xfe;" horiz-adv-x="593" 
d="M152 714v-297h2q42 112 165 112q115 0 176 -78q62 -79 62 -194q0 -117 -61 -193t-175 -76q-53 0 -98.5 27.5t-68.5 83.5h-2v-297h-85v912h85zM307 454q-80 0 -119 -57t-39 -138q0 -84 40 -140q41 -56 123 -56q80 0 118 57q37 58 37 143q0 79 -41 135t-119 56z" />
    <glyph glyph-name="ydieresis" unicode="&#xff;" horiz-adv-x="500" 
d="M118 706h90v-104h-90v104zM306 706h90v-104h-90v104zM256 98l146 419h90l-224 -617q-34 -100 -131 -100h-70v75h57q24 0 45 18t30 46l14 38l-205 540h96z" />
    <glyph glyph-name="amacron" unicode="&#x101;" horiz-adv-x="540" 
d="M113 682h341v-55h-341v55zM484 347v-277q0 -41 8 -70h-90q-4 24 -4 115h-1q-12 -62 -59 -94.5t-122 -32.5q-188 0 -188 149q0 48 23 82t63 49q39 14 77 22t79 12q44 4 57 9q43 12 55 25.5t12 43.5q0 36 -31.5 55.5t-89.5 19.5q-78 0 -102 -40q-13 -24 -17 -50h-90
q6 49 19 74q47 90 188 90q107 0 160 -47q22 -19 34 -47q19 -40 19 -88zM394 240v83q-7 -33 -38 -49.5t-105 -31.5q-72 -13 -101 -35t-29 -68q0 -36 28.5 -58.5t76.5 -22.5q85 0 126.5 43t41.5 139z" />
    <glyph glyph-name="Abreve" unicode="&#x102;" horiz-adv-x="651" 
d="M321 781q-135 0 -154 138h50q24 -83 112 -83q38 0 59.5 19t39.5 64h51q-11 -66 -52 -102t-106 -36zM659 0h-107l-84 228h-291l-85 -228h-100l281 714h105zM325 636h-2l-119 -332h239z" />
    <glyph glyph-name="abreve" unicode="&#x103;" horiz-adv-x="540" 
d="M284 591q-134 0 -154 138h50q24 -83 112 -83q38 0 59.5 19t39.5 64h51q-11 -66 -52 -102t-106 -36zM484 347v-277q0 -41 8 -70h-90q-4 24 -4 115h-1q-12 -62 -59 -94.5t-122 -32.5q-188 0 -188 149q0 48 23 82t63 49q39 14 77 22t79 12q44 4 57 9q43 12 55 25.5t12 43.5
q0 36 -31.5 55.5t-89.5 19.5q-78 0 -102 -40q-13 -24 -17 -50h-90q6 49 19 74q47 90 188 90q107 0 160 -47q22 -19 34 -47q19 -40 19 -88zM394 240v83q-7 -33 -38 -49.5t-105 -31.5q-72 -13 -101 -35t-29 -68q0 -36 28.5 -58.5t76.5 -22.5q85 0 126.5 43t41.5 139z" />
    <glyph glyph-name="Aogonek" unicode="&#x104;" horiz-adv-x="651" 
d="M545 -160q38 0 62 30l32 -18q-36 -62 -108 -62q-92 0 -92 82q0 10 8 29q10 20 38.5 48.5t66.5 50.5l-84 228h-291l-85 -228h-100l281 714h105l281 -714h-68q-84 -72 -84 -118q0 -18 10 -30t28 -12zM325 636h-2l-119 -332h239z" />
    <glyph glyph-name="aogonek" unicode="&#x105;" horiz-adv-x="540" 
d="M474 -130l32 -18q-36 -62 -108 -62q-39 0 -65.5 21t-26.5 60q0 46 38 84q32 31 78 45h-20q-4 24 -4 115h-1q-12 -62 -59 -94.5t-122 -32.5q-188 0 -188 149q0 48 23 82t63 49q39 14 77 22t79 12q44 4 57 9q43 12 55 25.5t12 43.5q0 36 -31.5 55.5t-89.5 19.5
q-78 0 -102 -40q-13 -24 -17 -50h-90q6 49 19 74q47 90 188 90q107 0 160 -47q22 -19 34 -47q19 -40 19 -88v-277q0 -41 8 -70h-14q-52 -13 -85 -57q-29 -38 -23 -70q6 -33 42 -33q38 0 62 30zM394 240v83q-7 -33 -38 -49.5t-105 -31.5q-72 -13 -101 -35t-29 -68
q0 -36 28.5 -58.5t76.5 -22.5q85 0 126.5 43t41.5 139z" />
    <glyph glyph-name="Cacute" unicode="&#x106;" horiz-adv-x="739" 
d="M360 779l86 143h109l-131 -143h-64zM690 508h-95q-12 70 -65.5 106.5t-134.5 36.5q-122 0 -192 -85t-70 -204q0 -129 70 -214t195 -85q90 0 144 44.5t64 128.5h95q-14 -127 -94 -190t-217 -63q-163 0 -257 105q-95 107 -95 267q0 159 98 268q99 108 260 108
q118 0 200 -56q82 -55 94 -167z" />
    <glyph glyph-name="cacute" unicode="&#x107;" horiz-adv-x="552" 
d="M245 589l86 143h109l-131 -143h-64zM523 361h-88q-25 94 -142 94q-82 0 -127 -59q-44 -59 -44 -142q0 -76 44 -134q44 -57 121 -57q132 0 154 105h87q-20 -95 -79 -137.5t-164 -42.5q-117 0 -184 73t-67 193q0 118 72 196q73 79 190 79q97 0 158 -46q62 -47 69 -122z" />
    <glyph glyph-name="Ccircumflex" unicode="&#x108;" horiz-adv-x="739" 
d="M250 779l103 143h93l104 -143h-84l-69 96l-70 -96h-77zM690 508h-95q-12 70 -65.5 106.5t-134.5 36.5q-122 0 -192 -85t-70 -204q0 -129 70 -214t195 -85q90 0 144 44.5t64 128.5h95q-14 -127 -94 -190t-217 -63q-163 0 -257 105q-95 107 -95 267q0 159 98 268
q99 108 260 108q118 0 200 -56q82 -55 94 -167z" />
    <glyph glyph-name="ccircumflex" unicode="&#x109;" horiz-adv-x="552" 
d="M137 589l103 143h93l104 -143h-84l-69 96l-70 -96h-77zM523 361h-88q-25 94 -142 94q-82 0 -127 -59q-44 -59 -44 -142q0 -76 44 -134q44 -57 121 -57q132 0 154 105h87q-20 -95 -79 -137.5t-164 -42.5q-117 0 -184 73t-67 193q0 118 72 196q73 79 190 79q97 0 158 -46
q62 -47 69 -122z" />
    <glyph glyph-name="Cdotaccent" unicode="&#x10a;" horiz-adv-x="739" 
d="M436 898v-104h-90v104h90zM690 508h-95q-12 70 -65.5 106.5t-134.5 36.5q-122 0 -192 -85t-70 -204q0 -129 70 -214t195 -85q90 0 144 44.5t64 128.5h95q-14 -127 -94 -190t-217 -63q-163 0 -257 105q-95 107 -95 267q0 159 98 268q99 108 260 108q118 0 200 -56
q82 -55 94 -167z" />
    <glyph glyph-name="cdotaccent" unicode="&#x10b;" horiz-adv-x="552" 
d="M336 710v-104h-90v104h90zM523 361h-88q-25 94 -142 94q-82 0 -127 -59q-44 -59 -44 -142q0 -76 44 -134q44 -57 121 -57q132 0 154 105h87q-20 -95 -79 -137.5t-164 -42.5q-117 0 -184 73t-67 193q0 118 72 196q73 79 190 79q97 0 158 -46q62 -47 69 -122z" />
    <glyph glyph-name="Ccaron" unicode="&#x10c;" horiz-adv-x="739" 
d="M541 922l-103 -143h-93l-104 143h84l69 -96l70 96h77zM690 508h-95q-12 70 -65.5 106.5t-134.5 36.5q-122 0 -192 -85t-70 -204q0 -129 70 -214t195 -85q90 0 144 44.5t64 128.5h95q-14 -127 -94 -190t-217 -63q-163 0 -257 105q-95 107 -95 267q0 159 98 268
q99 108 260 108q118 0 200 -56q82 -55 94 -167z" />
    <glyph glyph-name="ccaron" unicode="&#x10d;" horiz-adv-x="552" 
d="M434 732l-103 -143h-93l-104 143h84l69 -96l70 96h77zM523 361h-88q-25 94 -142 94q-82 0 -127 -59q-44 -59 -44 -142q0 -76 44 -134q44 -57 121 -57q132 0 154 105h87q-20 -95 -79 -137.5t-164 -42.5q-117 0 -184 73t-67 193q0 118 72 196q73 79 190 79q97 0 158 -46
q62 -47 69 -122z" />
    <glyph glyph-name="Dcaron" unicode="&#x10e;" horiz-adv-x="698" 
d="M461 922l-103 -143h-93l-104 143h84l69 -96l70 96h77zM72 714h245q159 0 251 -89t92 -251q0 -181 -86 -277.5t-257 -96.5h-245v714zM167 80h158q58 0 112 26q125 57 128 255q0 129 -60.5 201t-177.5 72h-160v-554z" />
    <glyph glyph-name="dcaron" unicode="&#x10f;" horiz-adv-x="623" 
d="M430 414h4l-2 300h90v-714h-87v99h-2q-49 -111 -167 -111q-114 0 -175 76t-61 193q0 118 60 194q61 78 175 78q60 0 105.5 -30t59.5 -85zM572 571l26 143h109l-75 -143h-60zM277 63q84 0 120 58q37 58 37 145v7q-2 82 -43 130.5t-112 48.5q-78 0 -118 -55
q-39 -54 -39 -134q0 -85 37 -143q37 -57 118 -57z" />
    <glyph glyph-name="Dcroat" unicode="&#x110;" horiz-adv-x="698" 
d="M72 714h245q159 0 251 -89t92 -251q0 -181 -86 -277.5t-257 -96.5h-245v339h-64v68h64v307zM167 80h158q58 0 112 26q125 57 128 255q0 129 -60.5 201t-177.5 72h-160v-227h220v-68h-220v-259z" />
    <glyph glyph-name="dslash" unicode="&#x111;" horiz-adv-x="574" 
d="M522 639h86v-56h-86v-583h-87v99h-2q-49 -111 -167 -111q-114 0 -175 76t-61 193q0 118 60 194q61 78 175 78q60 0 105.5 -30t59.5 -85h4l-1 169h-166v56h165v75h90v-75zM277 63q84 0 120 58q37 58 37 145v7q-2 82 -43 130.5t-112 48.5q-78 0 -118 -55q-39 -54 -39 -134
q0 -85 37 -143q37 -57 118 -57z" />
    <glyph glyph-name="Emacron" unicode="&#x112;" horiz-adv-x="614" 
d="M154 872h341v-55h-341v55zM169 327v-247h401v-80h-496v714h493v-80h-398v-227h377v-80h-377z" />
    <glyph glyph-name="emacron" unicode="&#x113;" horiz-adv-x="559" 
d="M120 682h341v-55h-341v55zM286 529q54 0 97.5 -19t70.5 -49t44.5 -70t24 -79.5t4.5 -79.5h-409q13 -169 171 -169q56 0 93 26t48 75h88q-17 -84 -77.5 -130t-151.5 -46q-121 0 -189 73.5t-72 198.5q0 115 74 192t184 77zM121 308h315q-4 64 -45.5 105.5t-104.5 41.5
t-108 -40.5t-57 -106.5z" />
    <glyph glyph-name="Ebreve" unicode="&#x114;" horiz-adv-x="614" 
d="M313 781q-134 0 -154 138h50q24 -83 112 -83q38 0 59.5 19t39.5 64h51q-11 -66 -52 -102t-106 -36zM169 327v-247h401v-80h-496v714h493v-80h-398v-227h377v-80h-377z" />
    <glyph glyph-name="ebreve" unicode="&#x115;" horiz-adv-x="559" 
d="M286 591q-134 0 -154 138h50q24 -83 112 -83q38 0 59.5 19t39.5 64h51q-11 -66 -52 -102t-106 -36zM286 529q54 0 97.5 -19t70.5 -49t44.5 -70t24 -79.5t4.5 -79.5h-409q13 -169 171 -169q56 0 93 26t48 75h88q-17 -84 -77.5 -130t-151.5 -46q-121 0 -189 73.5t-72 198.5
q0 115 74 192t184 77zM121 308h315q-4 64 -45.5 105.5t-104.5 41.5t-108 -40.5t-57 -106.5z" />
    <glyph glyph-name="Edotaccent" unicode="&#x116;" horiz-adv-x="614" 
d="M276 898h90v-104h-90v104zM169 327v-247h401v-80h-496v714h493v-80h-398v-227h377v-80h-377z" />
    <glyph glyph-name="edotaccent" unicode="&#x117;" horiz-adv-x="559" 
d="M243 708h90v-104h-90v104zM286 529q54 0 97.5 -19t70.5 -49t44.5 -70t24 -79.5t4.5 -79.5h-409q13 -169 171 -169q56 0 93 26t48 75h88q-17 -84 -77.5 -130t-151.5 -46q-121 0 -189 73.5t-72 198.5q0 115 74 192t184 77zM121 308h315q-4 64 -45.5 105.5t-104.5 41.5
t-108 -40.5t-57 -106.5z" />
    <glyph glyph-name="Eogonek" unicode="&#x118;" horiz-adv-x="614" 
d="M570 0h-50q-82 -70 -82 -118q0 -18 10 -30t28 -12q38 0 62 30l32 -18q-36 -62 -108 -62q-92 0 -92 82q0 12 7 29q8 20 35.5 48.5t66.5 50.5h-405v714h493v-80h-398v-227h377v-80h-377v-247h401v-80z" />
    <glyph glyph-name="eogonek" unicode="&#x119;" horiz-adv-x="559" 
d="M286 529q54 0 97.5 -19t70.5 -49t44.5 -70t24 -79.5t4.5 -79.5h-409q13 -169 171 -169q56 0 93 26t48 75h88q-15 -76 -67.5 -121.5t-131.5 -53.5l-27 -27q-42 -42 -42 -80q0 -18 10 -30t28 -12q38 0 62 30l32 -18q-36 -62 -108 -62q-92 0 -92 82q0 37 53 88q12 11 37 28
q-113 6 -176.5 79t-67.5 193q0 115 74 192t184 77zM121 308h315q-4 64 -45.5 105.5t-104.5 41.5t-108 -40.5t-57 -106.5z" />
    <glyph glyph-name="Ecaron" unicode="&#x11a;" horiz-adv-x="614" 
d="M469 922l-103 -143h-93l-104 143h84l69 -96l70 96h77zM169 327v-247h401v-80h-496v714h493v-80h-398v-227h377v-80h-377z" />
    <glyph glyph-name="ecaron" unicode="&#x11b;" horiz-adv-x="559" 
d="M434 732l-103 -143h-93l-104 143h84l69 -96l70 96h77zM286 529q54 0 97.5 -19t70.5 -49t44.5 -70t24 -79.5t4.5 -79.5h-409q13 -169 171 -169q56 0 93 26t48 75h88q-17 -84 -77.5 -130t-151.5 -46q-121 0 -189 73.5t-72 198.5q0 115 74 192t184 77zM121 308h315
q-4 64 -45.5 105.5t-104.5 41.5t-108 -40.5t-57 -106.5z" />
    <glyph glyph-name="Gcircumflex" unicode="&#x11c;" horiz-adv-x="757" 
d="M464 779l-69 96l-70 -96h-77l103 143h93l104 -143h-84zM409 286v80h298l-9 -366h-58l-16 134q-35 -98 -108 -128q-54 -23 -124 -23q-157 0 -251 106q-93 107 -93 254q0 164 89 276q88 112 251 112q127 0 205 -59.5t92 -177.5h-95q-10 78 -62.5 117.5t-139.5 39.5
q-121 0 -183 -89t-62 -214q0 -119 65 -202q66 -83 184 -83q109 0 169 61q60 62 56 162h-208z" />
    <glyph glyph-name="gcircumflex" unicode="&#x11d;" horiz-adv-x="581" 
d="M361 589l-69 96l-70 -96h-77l103 143h93l104 -143h-84zM435 418v99h90v-503q0 -113 -57.5 -168.5t-187.5 -55.5q-88 -2 -151.5 36.5t-67.5 115.5h90q3 -40 38.5 -58.5t90.5 -18.5q87 0 121 33.5t34 115.5v99h-2q-12 -57 -59 -91t-106 -34q-114 0 -176 78q-62 79 -62 194
q0 116 61 192q62 77 175 77q118 0 167 -111h2zM277 69q81 1 121 65t33 146q0 37 -12.5 74.5t-47.5 68.5t-87 31q-75 0 -115 -52t-40 -136q0 -80 35 -139q36 -58 113 -58z" />
    <glyph glyph-name="Gbreve" unicode="&#x11e;" horiz-adv-x="757" 
d="M384 781q-134 0 -154 138h50q24 -83 112 -83q38 0 59.5 19t39.5 64h51q-11 -66 -52 -102t-106 -36zM409 286v80h298l-9 -366h-58l-16 134q-35 -98 -108 -128q-54 -23 -124 -23q-157 0 -251 106q-93 107 -93 254q0 164 89 276q88 112 251 112q127 0 205 -59.5t92 -177.5
h-95q-10 78 -62.5 117.5t-139.5 39.5q-121 0 -183 -89t-62 -214q0 -119 65 -202q66 -83 184 -83q109 0 169 61q60 62 56 162h-208z" />
    <glyph glyph-name="gbreve" unicode="&#x11f;" horiz-adv-x="581" 
d="M282 591q-134 0 -154 138h50q24 -83 112 -83q38 0 59.5 19t39.5 64h51q-11 -66 -52 -102t-106 -36zM435 418v99h90v-503q0 -113 -57.5 -168.5t-187.5 -55.5q-88 -2 -151.5 36.5t-67.5 115.5h90q3 -40 38.5 -58.5t90.5 -18.5q87 0 121 33.5t34 115.5v99h-2
q-12 -57 -59 -91t-106 -34q-114 0 -176 78q-62 79 -62 194q0 116 61 192q62 77 175 77q118 0 167 -111h2zM277 69q81 1 121 65t33 146q0 37 -12.5 74.5t-47.5 68.5t-87 31q-75 0 -115 -52t-40 -136q0 -80 35 -139q36 -58 113 -58z" />
    <glyph glyph-name="Gdotaccent" unicode="&#x120;" horiz-adv-x="757" 
d="M344 898h90v-104h-90v104zM409 286v80h298l-9 -366h-58l-16 134q-35 -98 -108 -128q-54 -23 -124 -23q-157 0 -251 106q-93 107 -93 254q0 164 89 276q88 112 251 112q127 0 205 -59.5t92 -177.5h-95q-10 78 -62.5 117.5t-139.5 39.5q-121 0 -183 -89t-62 -214
q0 -119 65 -202q66 -83 184 -83q109 0 169 61q60 62 56 162h-208z" />
    <glyph glyph-name="gdotaccent" unicode="&#x121;" horiz-adv-x="581" 
d="M240 708h90v-104h-90v104zM435 418v99h90v-503q0 -113 -57.5 -168.5t-187.5 -55.5q-88 -2 -151.5 36.5t-67.5 115.5h90q3 -40 38.5 -58.5t90.5 -18.5q87 0 121 33.5t34 115.5v99h-2q-12 -57 -59 -91t-106 -34q-114 0 -176 78q-62 79 -62 194q0 116 61 192q62 77 175 77
q118 0 167 -111h2zM277 69q81 1 121 65t33 146q0 37 -12.5 74.5t-47.5 68.5t-87 31q-75 0 -115 -52t-40 -136q0 -80 35 -139q36 -58 113 -58z" />
    <glyph glyph-name="Gcommaaccent" unicode="&#x122;" horiz-adv-x="757" 
d="M409 286v80h298l-9 -366h-58l-16 134q-35 -98 -108 -128q-54 -23 -124 -23q-157 0 -251 106q-93 107 -93 254q0 164 89 276q88 112 251 112q127 0 205 -59.5t92 -177.5h-95q-10 78 -62.5 117.5t-139.5 39.5q-121 0 -183 -89t-62 -214q0 -119 65 -202q66 -83 184 -83
q109 0 169 61q60 62 56 162h-208zM378 -138h-52v88h111v-77q0 -41 -26 -62t-73 -21v35q28 10 34.5 17t5.5 20z" />
    <glyph glyph-name="gcommaaccent" unicode="&#x123;" horiz-adv-x="581" 
d="M287 714h52v-88h-111v77q0 41 26 62t73 21v-35q-28 -10 -34.5 -17t-5.5 -20zM435 418v99h90v-503q0 -113 -57.5 -168.5t-187.5 -55.5q-88 -2 -151.5 36.5t-67.5 115.5h90q3 -40 38.5 -58.5t90.5 -18.5q87 0 121 33.5t34 115.5v99h-2q-12 -57 -59 -91t-106 -34
q-114 0 -176 78q-62 79 -62 194q0 116 61 192q62 77 175 77q118 0 167 -111h2zM277 69q81 1 121 65t33 146q0 37 -12.5 74.5t-47.5 68.5t-87 31q-75 0 -115 -52t-40 -136q0 -80 35 -139q36 -58 113 -58z" />
    <glyph glyph-name="Hcircumflex" unicode="&#x124;" horiz-adv-x="724" 
d="M421 779l-69 96l-70 -96h-77l103 143h93l104 -143h-84zM555 398v316h95v-714h-95v318h-386v-318h-95v714h95v-316h386z" />
    <glyph glyph-name="hcircumflex" unicode="&#x125;" horiz-adv-x="563" 
d="M324 779l-69 96l-70 -96h-77l103 143h93l104 -143h-84zM311 529q97 0 147.5 -50t50.5 -139v-340h-90v331q0 66 -30 94.5t-90 28.5q-67 0 -107 -34t-46 -102v-318h-90v714h88v-304q18 58 62.5 88.5t104.5 30.5z" />
    <glyph glyph-name="Hbar" unicode="&#x126;" horiz-adv-x="724" 
d="M555 516v198h95v-714h-95v318h-386v-318h-95v714h95v-198h386zM169 462v-64h386v64h-386z" />
    <glyph glyph-name="hbar" unicode="&#x127;" horiz-adv-x="563" 
d="M311 529q97 0 147.5 -50t50.5 -139v-340h-90v331q0 66 -30 94.5t-90 28.5q-67 0 -107 -34t-46 -102v-318h-90v583h-70v56h70v75h88v-75h151v-56h-151v-173q18 58 62.5 88.5t104.5 30.5z" />
    <glyph glyph-name="Itilde" unicode="&#x128;" horiz-adv-x="255" 
d="M250 907h52q-6 -44 -32 -79q-26 -32 -69 -32q-30 0 -75 20q-50 19 -66 19q-19 0 -31 -12q-9 -7 -18 -30h-52q23 110 106 110q27 0 73 -20q48 -20 66 -20q32 0 46 44zM80 0v714h95v-714h-95z" />
    <glyph glyph-name="itilde" unicode="&#x129;" horiz-adv-x="201" 
d="M220 717h52q-6 -44 -32 -79q-26 -32 -69 -32q-30 0 -75 20q-50 19 -66 19q-19 0 -31 -12q-9 -7 -18 -30h-52q23 110 106 110q27 0 73 -20q48 -20 66 -20q32 0 46 44zM61 0v517h90v-517h-90z" />
    <glyph glyph-name="Imacron" unicode="&#x12a;" horiz-adv-x="255" 
d="M-43 817v55h341v-55h-341zM80 0v714h95v-714h-95z" />
    <glyph glyph-name="imacron" unicode="&#x12b;" horiz-adv-x="213" 
d="M-64 627v55h341v-55h-341zM61 0v517h90v-517h-90z" />
    <glyph glyph-name="Iogonek" unicode="&#x12e;" horiz-adv-x="255" 
d="M190 -130l28 -18q-35 -62 -91 -62q-89 0 -89 82q0 14 6 30q7 19 33 47t62 51h-59v714h95v-714q-46 -43 -61 -67q-14 -26 -14 -51q0 -19 9 -30.5t25 -11.5q32 0 56 30z" />
    <glyph glyph-name="iogonek" unicode="&#x12f;" horiz-adv-x="201" 
d="M60 714h92v-104h-92v104zM154 -130l28 -18q-32 -62 -97 -62q-83 0 -83 82q0 12 6 29q7 19 33 47.5t62 51.5h-42v517h90v-517h-12q-43 -41 -59 -66.5t-16 -51.5q0 -18 9 -30t25 -12q35 0 56 30z" />
    <glyph glyph-name="Idot" unicode="&#x130;" horiz-adv-x="255" 
d="M173 898v-104h-90v104h90zM80 0v714h95v-714h-95z" />
    <glyph glyph-name="dotlessi" unicode="&#x131;" horiz-adv-x="201" 
d="M61 0v517h90v-517h-90z" />
    <glyph glyph-name="Jcircumflex" unicode="&#x134;" horiz-adv-x="513" 
d="M245 779l103 143h93l104 -143h-84l-69 96l-70 -96h-77zM443 714v-536q0 -81 -50 -139q-50 -56 -161 -56q-100 0 -154 53.5t-54 154.5v24h93v-10q0 -71 27 -106.5t90 -35.5q61 0 87.5 32t26.5 97v522h95z" />
    <glyph glyph-name="jcircumflex" unicode="&#x135;" horiz-adv-x="228" 
d="M-26 589l103 143h93l104 -143h-84l-69 96l-70 -96h-77zM168 517v-615q0 -99 -95 -99h-91v75h50q46 0 46 33v606h90z" />
    <glyph glyph-name="Kcommaaccent" unicode="&#x136;" horiz-adv-x="666" 
d="M654 714l-300 -287l312 -427h-120l-257 362l-120 -112v-250h-95v714h95v-356l362 356h123zM334 -138h-52v88h111v-77q0 -41 -26 -62t-73 -21v35q28 10 34.5 17t5.5 20z" />
    <glyph glyph-name="kcommaaccent" unicode="&#x137;" horiz-adv-x="510" 
d="M501 517l-214 -190l235 -327h-108l-192 270l-78 -69v-201h-90v714h90v-413l240 216h117zM259 -138h-52v88h111v-77q0 -41 -26 -62t-73 -21v35q28 10 34.5 17t5.5 20z" />
    <glyph glyph-name="Lacute" unicode="&#x139;" horiz-adv-x="555" 
d="M175 922h109l-131 -143h-64zM169 714v-634h378v-80h-473v714h95z" />
    <glyph glyph-name="lacute" unicode="&#x13a;" horiz-adv-x="210" 
d="M55 779l86 143h109l-131 -143h-64zM60 0v714h90v-714h-90z" />
    <glyph glyph-name="Lcommaaccent" unicode="&#x13b;" horiz-adv-x="555" 
d="M169 714v-634h378v-80h-473v714h95zM291 -138h-52v88h111v-77q0 -41 -26 -62t-73 -21v35q28 10 34.5 17t5.5 20z" />
    <glyph glyph-name="lcommaaccent" unicode="&#x13c;" horiz-adv-x="210" 
d="M60 0v714h90v-714h-90zM50 -138v88h111v-77q0 -41 -26 -62t-73 -21v35q28 10 34.5 17t5.5 20h-52z" />
    <glyph glyph-name="Lcaron" unicode="&#x13d;" horiz-adv-x="555" 
d="M169 714v-634h378v-80h-473v714h95zM302 714h109l-75 -143h-60z" />
    <glyph glyph-name="lcaron" unicode="&#x13e;" horiz-adv-x="210" 
d="M60 0v714h90v-714h-90zM191 571l26 143h109l-75 -143h-60z" />
    <glyph glyph-name="Ldot" unicode="&#x13f;" horiz-adv-x="555" 
d="M169 714v-634h378v-80h-473v714h95zM305 517h90v-104h-90v104z" />
    <glyph glyph-name="ldot" unicode="&#x140;" horiz-adv-x="210" 
d="M60 0v714h90v-714h-90zM295 517v-104h-90v104h90z" />
    <glyph glyph-name="Lslash" unicode="&#x141;" horiz-adv-x="552" 
d="M169 306v-226h378v-80h-473v239l-78 -55v76l78 55v399h95v-332l229 162v-76z" />
    <glyph glyph-name="lslash" unicode="&#x142;" horiz-adv-x="210" 
d="M218 517l1 -72l-69 -55v-390h-90v319l-66 -53v71l66 53v324h90v-252z" />
    <glyph glyph-name="Nacute" unicode="&#x143;" horiz-adv-x="733" 
d="M405 922h109l-131 -143h-64zM569 135v579h90v-714h-104l-389 573h-2v-573h-90v714h101l392 -579h2z" />
    <glyph glyph-name="nacute" unicode="&#x144;" 
d="M334 732h109l-131 -143h-64zM311 529q96 0 146.5 -50t50.5 -139v-340h-90v331q0 66 -30 94.5t-89 28.5q-77 0 -115 -42.5t-38 -137.5v-274h-90v517h85v-112h2q18 61 62 92.5t106 31.5z" />
    <glyph glyph-name="Ncommaaccent" unicode="&#x145;" horiz-adv-x="733" 
d="M569 135v579h90v-714h-104l-389 573h-2v-573h-90v714h101l392 -579h2zM360 -138h-52v88h111v-77q0 -41 -26 -62t-73 -21v35q28 10 34.5 17t5.5 20z" />
    <glyph glyph-name="ncommaaccent" unicode="&#x146;" 
d="M311 529q96 0 146.5 -50t50.5 -139v-340h-90v331q0 66 -30 94.5t-89 28.5q-77 0 -115 -42.5t-38 -137.5v-274h-90v517h85v-112h2q18 61 62 92.5t106 31.5zM279 -138h-52v88h111v-77q0 -41 -26 -62t-73 -21v35q28 10 34.5 17t5.5 20z" />
    <glyph glyph-name="Ncaron" unicode="&#x147;" horiz-adv-x="733" 
d="M515 922l-103 -143h-93l-104 143h84l69 -96l70 96h77zM569 135v579h90v-714h-104l-389 573h-2v-573h-90v714h101l392 -579h2z" />
    <glyph glyph-name="ncaron" unicode="&#x148;" 
d="M435 732l-103 -143h-93l-104 143h84l69 -96l70 96h77zM311 529q96 0 146.5 -50t50.5 -139v-340h-90v331q0 66 -30 94.5t-89 28.5q-77 0 -115 -42.5t-38 -137.5v-274h-90v517h85v-112h2q18 61 62 92.5t106 31.5z" />
    <glyph glyph-name="Omacron" unicode="&#x14c;" horiz-adv-x="788" 
d="M225 817v55h341v-55h-341zM200 677q82 54 194 54q110 0 193 -54q82 -52 123 -137q40 -81 40 -183q0 -215 -163 -321q-83 -53 -193 -53q-111 0 -194 53q-81 53 -122 137q-40 83 -40 184q0 102 41 185t121 135zM248 107q62 -44 146 -44t146 44q60 44 88 110q27 66 28 139.5
t-29 141t-87 108.5q-62 45 -146 45t-146 -45q-60 -43 -88 -109t-28.5 -139t29.5 -141t87 -110z" />
    <glyph glyph-name="omacron" unicode="&#x14d;" horiz-adv-x="576" 
d="M119 627v55h341v-55h-341zM28 258q0 117 68 194t187 77t187 -77t68 -194t-68 -194q-67 -76 -187 -76t-187 76q-68 77 -68 194zM448 258q0 92 -48 144q-47 53 -117 53t-118 -53q-47 -53 -47 -144q0 -90 47 -143q48 -52 118 -52q71 0 117 52q48 52 48 143z" />
    <glyph glyph-name="Obreve" unicode="&#x14e;" horiz-adv-x="788" 
d="M239 919h50q24 -83 112 -83q38 0 59.5 19t39.5 64h51q-11 -66 -52 -102t-106 -36q-135 0 -154 138zM200 677q82 54 194 54q110 0 193 -54q82 -52 123 -137q40 -81 40 -183q0 -215 -163 -321q-83 -53 -193 -53q-111 0 -194 53q-81 53 -122 137q-40 83 -40 184
q0 102 41 185t121 135zM248 107q62 -44 146 -44t146 44q60 44 88 110q27 66 28 139.5t-29 141t-87 108.5q-62 45 -146 45t-146 -45q-60 -43 -88 -109t-28.5 -139t29.5 -141t87 -110z" />
    <glyph glyph-name="obreve" unicode="&#x14f;" horiz-adv-x="576" 
d="M130 729h50q24 -83 112 -83q38 0 59.5 19t39.5 64h51q-11 -66 -52 -102t-106 -36q-134 0 -154 138zM28 258q0 117 68 194t187 77t187 -77t68 -194t-68 -194q-67 -76 -187 -76t-187 76q-68 77 -68 194zM448 258q0 92 -48 144q-47 53 -117 53t-118 -53q-47 -53 -47 -144
q0 -90 47 -143q48 -52 118 -52q71 0 117 52q48 52 48 143z" />
    <glyph glyph-name="Ohungarumlaut" unicode="&#x150;" horiz-adv-x="788" 
d="M282 779l81 143h105l-120 -143h-66zM438 779l81 143h105l-120 -143h-66zM200 677q82 54 194 54q110 0 193 -54q82 -52 123 -137q40 -81 40 -183q0 -215 -163 -321q-83 -53 -193 -53q-111 0 -194 53q-81 53 -122 137q-40 83 -40 184q0 102 41 185t121 135zM248 107
q62 -44 146 -44t146 44q60 44 88 110q27 66 28 139.5t-29 141t-87 108.5q-62 45 -146 45t-146 -45q-60 -43 -88 -109t-28.5 -139t29.5 -141t87 -110z" />
    <glyph glyph-name="ohungarumlaut" unicode="&#x151;" horiz-adv-x="576" 
d="M169 589l81 143h105l-120 -143h-66zM325 589l81 143h105l-120 -143h-66zM28 258q0 117 68 194t187 77t187 -77t68 -194t-68 -194q-67 -76 -187 -76t-187 76q-68 77 -68 194zM448 258q0 92 -48 144q-47 53 -117 53t-118 -53q-47 -53 -47 -144q0 -90 47 -143
q48 -52 118 -52q71 0 117 52q48 52 48 143z" />
    <glyph glyph-name="OE" unicode="&#x152;" horiz-adv-x="1074" 
d="M551 0v69h-2q-24 -40 -74.5 -63t-109.5 -23q-154 0 -241 105q-86 106 -86 267q0 165 90 270q90 106 245 106q57 0 106.5 -20t69.5 -56h2v59h477v-80h-382v-227h360v-80h-360v-247h388v-80h-483zM551 204v301q0 47 -15 69q-22 34 -65.5 55.5t-96.5 21.5q-116 0 -179 -86
q-62 -86 -62 -214q0 -125 63 -207q63 -81 176 -81q76 0 127 39q52 40 52 102z" />
    <glyph glyph-name="oe" unicode="&#x153;" horiz-adv-x="903" 
d="M870 233h-379q-2 -72 37 -121q40 -49 112 -49q112 0 144 101h81q-53 -176 -225 -176q-144 0 -188 102q-44 -102 -179 -102q-118 0 -182 76q-63 76 -63 195q0 118 64 194t181 76q63 0 110.5 -23.5t68.5 -67.5q26 43 75.5 67t107.5 24q123 0 182 -83t53 -213zM273 454
q-58 0 -94 -31.5t-48.5 -75t-12.5 -99.5q0 -49 13 -88q14 -42 51 -69.5t91 -27.5q55 0 87 31q57 52 57 166q0 194 -144 194zM491 308h289q0 66 -39.5 106t-105.5 40t-105.5 -40.5t-38.5 -105.5z" />
    <glyph glyph-name="Racute" unicode="&#x154;" horiz-adv-x="685" 
d="M370 922h109l-131 -143h-64zM594 163q13 -55 26 -89q12 -32 38 -64v-10h-103q-18 23 -29 52q-9 23 -19 68q-7 36 -11 51q-18 64 -50.5 96t-86.5 32h-189v-299h-95v714h304q113 0 174.5 -52t61.5 -141q0 -153 -141 -192q52 -12 76 -52q28 -42 44 -114zM170 634v-255h205
q144 0 144 142q0 113 -140 113h-209z" />
    <glyph glyph-name="racute" unicode="&#x155;" horiz-adv-x="367" 
d="M73 589l86 143h109l-131 -143h-64zM349 519v-85q-95 15 -149 -38.5t-54 -165.5v-230h-90v517h85v-129h2q21 76 76 109.5t130 21.5z" />
    <glyph glyph-name="Rcommaaccent" unicode="&#x156;" horiz-adv-x="685" 
d="M594 163q13 -55 26 -89q12 -32 38 -64v-10h-103q-18 23 -29 52q-9 23 -19 68q-7 36 -11 51q-18 64 -50.5 96t-86.5 32h-189v-299h-95v714h304q113 0 174.5 -52t61.5 -141q0 -153 -141 -192q52 -12 76 -52q28 -42 44 -114zM170 634v-255h205q144 0 144 142q0 113 -140 113
h-209zM347 -138h-52v88h111v-77q0 -41 -26 -62t-73 -21v35q28 10 34.5 17t5.5 20z" />
    <glyph glyph-name="rcommaaccent" unicode="&#x157;" horiz-adv-x="367" 
d="M349 519v-85q-95 15 -149 -38.5t-54 -165.5v-230h-90v517h85v-129h2q21 76 76 109.5t130 21.5zM54 -138v88h111v-77q0 -41 -26 -62t-73 -21v35q28 10 34.5 17t5.5 20h-52z" />
    <glyph glyph-name="Rcaron" unicode="&#x158;" horiz-adv-x="685" 
d="M491 922l-103 -143h-93l-104 143h84l69 -96l70 96h77zM594 163q13 -55 26 -89q12 -32 38 -64v-10h-103q-18 23 -29 52q-9 23 -19 68q-7 36 -11 51q-18 64 -50.5 96t-86.5 32h-189v-299h-95v714h304q113 0 174.5 -52t61.5 -141q0 -153 -141 -192q52 -12 76 -52
q28 -42 44 -114zM170 634v-255h205q144 0 144 142q0 113 -140 113h-209z" />
    <glyph glyph-name="rcaron" unicode="&#x159;" horiz-adv-x="367" 
d="M348 732l-103 -143h-93l-104 143h84l69 -96l70 96h77zM349 519v-85q-95 15 -149 -38.5t-54 -165.5v-230h-90v517h85v-129h2q21 76 76 109.5t130 21.5z" />
    <glyph glyph-name="Sacute" unicode="&#x15a;" horiz-adv-x="656" 
d="M285 779l86 143h109l-131 -143h-64zM589 509h-95q-8 74 -49 108t-118 34q-69 0 -119 -29q-49 -28 -49 -93q0 -37 25 -61t65.5 -35.5t89.5 -20.5t97.5 -22t89 -33.5t65.5 -61t25 -99.5q0 -72 -45 -122q-80 -91 -237 -91q-130 0 -214 60q-84 61 -84 183h95q0 -84 57 -124
q57 -39 146 -39q76 0 132 30q55 30 55 100q0 44 -25 72.5t-65.5 42t-89.5 23t-97.5 20.5t-89 28.5t-65.5 53.5t-25 89q0 101 77 155q78 54 186 54q120 0 189 -56t73 -166z" />
    <glyph glyph-name="sacute" unicode="&#x15b;" horiz-adv-x="509" 
d="M199 589l86 143h109l-131 -143h-64zM24 152h87q7 -91 133 -91q53 0 94 18t41 61q0 36 -31 59q-11 10 -35 17q-29 9 -40 11q-11 3 -46 10q-62 12 -104 28q-40 17 -59.5 43.5t-22.5 73.5q0 72 58 109q59 38 135 38q96 0 148 -32q52 -31 64 -121h-83q-11 46 -40 63t-83 17
q-47 0 -78 -17.5t-31 -51.5q0 -44 56 -63l33 -10l40 -8q16 -3 40 -8q69 -16 115 -43q54 -31 54 -104q0 -59 -37 -97q-62 -66 -192 -66q-91 0 -150 37q-60 37 -66 127z" />
    <glyph glyph-name="Scircumflex" unicode="&#x15c;" horiz-adv-x="656" 
d="M179 779l103 143h93l104 -143h-84l-69 96l-70 -96h-77zM589 509h-95q-8 74 -49 108t-118 34q-69 0 -119 -29q-49 -28 -49 -93q0 -37 25 -61t65.5 -35.5t89.5 -20.5t97.5 -22t89 -33.5t65.5 -61t25 -99.5q0 -72 -45 -122q-80 -91 -237 -91q-130 0 -214 60q-84 61 -84 183
h95q0 -84 57 -124q57 -39 146 -39q76 0 132 30q55 30 55 100q0 44 -25 72.5t-65.5 42t-89.5 23t-97.5 20.5t-89 28.5t-65.5 53.5t-25 89q0 101 77 155q78 54 186 54q120 0 189 -56t73 -166z" />
    <glyph glyph-name="scircumflex" unicode="&#x15d;" horiz-adv-x="509" 
d="M103 589l103 143h93l104 -143h-84l-69 96l-70 -96h-77zM24 152h87q7 -91 133 -91q53 0 94 18t41 61q0 36 -31 59q-11 10 -35 17q-29 9 -40 11q-11 3 -46 10q-62 12 -104 28q-40 17 -59.5 43.5t-22.5 73.5q0 72 58 109q59 38 135 38q96 0 148 -32q52 -31 64 -121h-83
q-11 46 -40 63t-83 17q-47 0 -78 -17.5t-31 -51.5q0 -44 56 -63l33 -10l40 -8q16 -3 40 -8q69 -16 115 -43q54 -31 54 -104q0 -59 -37 -97q-62 -66 -192 -66q-91 0 -150 37q-60 37 -66 127z" />
    <glyph glyph-name="Scedilla" unicode="&#x15e;" horiz-adv-x="656" 
d="M616 196q0 -71 -43 -120q-76 -88 -228 -93h-17l-76 -58l2 -2q34 25 88 25q37 0 60 -19t23 -53q0 -43 -36.5 -64.5t-91.5 -21.5q-59 0 -102 22l35 40q21 -12 54 -12q26 0 46 9.5t20 24.5q0 16 -15 25.5t-39 9.5q-38 0 -67 -20l-18 33l69 64q-109 10 -177 71
q-67 60 -67 169h95q0 -84 57 -124q57 -39 146 -39q76 0 132 30q55 30 55 100q0 44 -25 72.5t-65.5 42t-89.5 23t-97.5 20.5t-89 28.5t-65.5 53.5t-25 89q0 101 77 155q78 54 186 54q120 0 189 -56t73 -166h-95q-8 74 -49 108t-118 34q-69 0 -119 -29q-49 -28 -49 -93
q0 -37 25 -61t65.5 -35.5t89.5 -20.5t97.5 -22t89 -33.5t65.5 -61t25 -99.5z" />
    <glyph glyph-name="scedilla" unicode="&#x15f;" horiz-adv-x="509" 
d="M469 151q0 -75 -54 -114q-55 -40 -134 -47l-86 -65l2 -2q34 25 88 25q37 0 60 -19t23 -53q0 -43 -36.5 -64.5t-91.5 -21.5q-59 0 -102 22l35 40q21 -12 54 -12q26 0 46 9.5t20 24.5q0 16 -15.5 25.5t-38.5 9.5q-38 0 -67 -20l-18 33l71 66q-190 7 -201 164h87
q7 -91 133 -91q53 0 94 18t41 61q0 36 -31 59q-11 10 -35 17q-29 9 -40 11q-11 3 -46 10q-62 12 -104 28q-40 17 -59.5 43.5t-22.5 73.5q0 72 58 109q59 38 135 38q96 0 148 -32q52 -31 64 -121h-83q-11 46 -40 63t-83 17q-47 0 -78 -17.5t-31 -51.5q0 -44 56 -63l33 -10
l40 -8q16 -3 40 -8q69 -16 115 -43q54 -31 54 -104z" />
    <glyph glyph-name="Scaron" unicode="&#x160;" horiz-adv-x="656" 
d="M480 922l-103 -143h-93l-104 143h84l69 -96l70 96h77zM589 509h-95q-8 74 -49 108t-118 34q-69 0 -119 -29q-49 -28 -49 -93q0 -37 25 -61t65.5 -35.5t89.5 -20.5t97.5 -22t89 -33.5t65.5 -61t25 -99.5q0 -72 -45 -122q-80 -91 -237 -91q-130 0 -214 60q-84 61 -84 183
h95q0 -84 57 -124q57 -39 146 -39q76 0 132 30q55 30 55 100q0 44 -25 72.5t-65.5 42t-89.5 23t-97.5 20.5t-89 28.5t-65.5 53.5t-25 89q0 101 77 155q78 54 186 54q120 0 189 -56t73 -166z" />
    <glyph glyph-name="scaron" unicode="&#x161;" horiz-adv-x="509" 
d="M403 732l-103 -143h-93l-104 143h84l69 -96l70 96h77zM24 152h87q7 -91 133 -91q53 0 94 18t41 61q0 36 -31 59q-11 10 -35 17q-29 9 -40 11q-11 3 -46 10q-62 12 -104 28q-40 17 -59.5 43.5t-22.5 73.5q0 72 58 109q59 38 135 38q96 0 148 -32q52 -31 64 -121h-83
q-11 46 -40 63t-83 17q-47 0 -78 -17.5t-31 -51.5q0 -44 56 -63l33 -10l40 -8q16 -3 40 -8q69 -16 115 -43q54 -31 54 -104q0 -59 -37 -97q-62 -66 -192 -66q-91 0 -150 37q-60 37 -66 127z" />
    <glyph glyph-name="Tcaron" unicode="&#x164;" horiz-adv-x="579" 
d="M437 922l-103 -143h-93l-104 143h84l69 -96l70 96h77zM4 714h570v-80h-238v-634h-94v634h-238v80z" />
    <glyph glyph-name="tcaron" unicode="&#x165;" horiz-adv-x="318" 
d="M281 571l26 143h109l-75 -143h-60zM178 682h3v-165h103v-74h-103v-335q0 -18 7.5 -25t30.5 -7h60v-76h-101q-46 0 -65.5 24.5t-19.5 74.5v344h-85v74h85v123z" />
    <glyph glyph-name="Tbar" unicode="&#x166;" horiz-adv-x="578" 
d="M574 714v-80h-238v-148h145v-55h-145v-431h-94v431h-142v55h142v148h-238v80h570z" />
    <glyph glyph-name="tbar" unicode="&#x167;" horiz-adv-x="322" 
d="M304 344v-53h-123v-183q0 -18 7.5 -25t30.5 -7h60v-76h-101q-46 0 -65.5 24.5t-19.5 74.5v192h-89v53h89v99h-85v74h85v123l85 42h3v-165h103v-74h-103v-99h123z" />
    <glyph glyph-name="Utilde" unicode="&#x168;" horiz-adv-x="710" 
d="M476 907h52q-6 -44 -32 -79q-26 -32 -69 -32q-30 0 -75 20q-50 19 -66 19q-19 0 -31 -12q-9 -7 -18 -30h-52q23 110 106 110q27 0 73 -20q48 -20 66 -20q32 0 46 44zM642 714v-456q0 -134 -72.5 -204.5t-208.5 -70.5q-143 0 -218 69t-75 206v456h95v-456q0 -95 51 -145
t147 -50q91 0 138.5 50t47.5 145v456h95z" />
    <glyph glyph-name="utilde" unicode="&#x169;" 
d="M179 633q-9 -7 -18 -30h-52q23 110 106 110q27 0 73 -20q48 -20 66 -20q32 0 46 44h52q-6 -44 -32 -79q-26 -32 -69 -32q-30 0 -75 20q-50 19 -66 19q-19 0 -31 -12zM416 243v274h90v-517h-85v112h-2q-18 -61 -62 -92.5t-106 -31.5q-96 0 -146.5 50t-50.5 139v340h90
v-331q0 -66 30 -94.5t89 -28.5q77 0 115 42.5t38 137.5z" />
    <glyph glyph-name="Umacron" unicode="&#x16a;" horiz-adv-x="710" 
d="M186 817v55h341v-55h-341zM642 714v-456q0 -134 -72.5 -204.5t-208.5 -70.5q-143 0 -218 69t-75 206v456h95v-456q0 -95 51 -145t147 -50q91 0 138.5 50t47.5 145v456h95z" />
    <glyph glyph-name="umacron" unicode="&#x16b;" 
d="M114 682h341v-55h-341v55zM416 243v274h90v-517h-85v112h-2q-18 -61 -62 -92.5t-106 -31.5q-96 0 -146.5 50t-50.5 139v340h90v-331q0 -66 30 -94.5t89 -28.5q77 0 115 42.5t38 137.5z" />
    <glyph glyph-name="Ubreve" unicode="&#x16c;" horiz-adv-x="710" 
d="M194 919h50q24 -83 112 -83q38 0 59.5 19t39.5 64h51q-11 -66 -52 -102t-106 -36q-134 0 -154 138zM642 714v-456q0 -134 -72.5 -204.5t-208.5 -70.5q-143 0 -218 69t-75 206v456h95v-456q0 -95 51 -145t147 -50q91 0 138.5 50t47.5 145v456h95z" />
    <glyph glyph-name="ubreve" unicode="&#x16d;" 
d="M278 591q-134 0 -154 138h50q24 -83 112 -83q38 0 59.5 19t39.5 64h51q-11 -66 -52 -102t-106 -36zM416 243v274h90v-517h-85v112h-2q-18 -61 -62 -92.5t-106 -31.5q-96 0 -146.5 50t-50.5 139v340h90v-331q0 -66 30 -94.5t89 -28.5q77 0 115 42.5t38 137.5z" />
    <glyph glyph-name="uring" unicode="&#x16f;" 
d="M359 602q-33 -33 -79 -33t-80 33q-33 33 -33 79t33 79q34 33 80 33t79 -33q34 -33 34 -79t-34 -79zM328 728q-19 20 -48 20t-48 -20q-19 -19 -19 -48t19 -49q19 -19 48 -19t48 19q19 20 19 49t-19 48zM416 243v274h90v-517h-85v112h-2q-18 -61 -62 -92.5t-106 -31.5
q-96 0 -146.5 50t-50.5 139v340h90v-331q0 -66 30 -94.5t89 -28.5q77 0 115 42.5t38 137.5z" />
    <glyph glyph-name="Uhungarumlaut" unicode="&#x170;" horiz-adv-x="710" 
d="M242 779l81 143h105l-120 -143h-66zM398 779l81 143h105l-120 -143h-66zM642 714v-456q0 -134 -72.5 -204.5t-208.5 -70.5q-143 0 -218 69t-75 206v456h95v-456q0 -95 51 -145t147 -50q91 0 138.5 50t47.5 145v456h95z" />
    <glyph glyph-name="Uogonek" unicode="&#x172;" horiz-adv-x="710" 
d="M547 258v456h95v-456q0 -126 -64.5 -196t-186.5 -78q-6 -5 -23 -22q-42 -42 -42 -80q0 -18 10 -30t28 -12q38 0 62 30l32 -18q-36 -62 -108 -62q-92 0 -92 82q0 37 53 88q16 15 32 23q-275 11 -275 275v456h95v-456q0 -95 51 -145t147 -50q91 0 138.5 50t47.5 145z" />
    <glyph glyph-name="uogonek" unicode="&#x173;" horiz-adv-x="564" 
d="M478 -130l32 -18q-36 -62 -108 -62q-92 0 -92 82q0 10 6 27q7 18 32.5 45.5t62.5 49.5l11 6h-1v112h-2q-18 -61 -62 -92.5t-106 -31.5q-96 0 -146.5 50t-50.5 139v340h90v-331q0 -66 30 -94.5t89 -28.5q77 0 115 42.5t38 137.5v274h90v-517h-44l-5 -4q-79 -67 -79 -114
q0 -18 10 -30t28 -12q38 0 62 30z" />
    <glyph glyph-name="Wcircumflex" unicode="&#x174;" horiz-adv-x="918" 
d="M529 779l-69 96l-70 -96h-77l103 143h93l104 -143h-84zM669 100l141 614h100l-181 -714h-119l-151 600h-2l-157 -600h-119l-173 714h100l134 -614h2l150 614h129l144 -614h2z" />
    <glyph glyph-name="wcircumflex" unicode="&#x175;" horiz-adv-x="730" 
d="M446 589l-69 96l-70 -96h-77l103 143h93l104 -143h-84zM521 70l107 447h94l-144 -517h-129l-79 413h-2l-93 -413h-121l-146 517h95l108 -447h4l93 447h116l95 -447h2z" />
    <glyph glyph-name="Ycircumflex" unicode="&#x176;" horiz-adv-x="644" 
d="M393 779l-69 96l-70 -96h-77l103 143h93l104 -143h-84zM536 714h108l-273 -422v-292h-95v292l-276 422h113l214 -340z" />
    <glyph glyph-name="ycircumflex" unicode="&#x177;" horiz-adv-x="500" 
d="M322 589l-69 96l-70 -96h-77l103 143h93l104 -143h-84zM256 98l146 419h90l-224 -617q-34 -100 -131 -100h-70v75h57q24 0 45 18t30 46l14 38l-205 540h96z" />
    <glyph glyph-name="Ydieresis" unicode="&#x178;" horiz-adv-x="644" 
d="M187 896h90v-104h-90v104zM375 896h90v-104h-90v104zM536 714h108l-273 -422v-292h-95v292l-276 422h113l214 -340z" />
    <glyph glyph-name="Zacute" unicode="&#x179;" horiz-adv-x="610" 
d="M357 922h109l-131 -143h-64zM578 634l-443 -554h455v-80h-568v80l445 554h-411v80h522v-80z" />
    <glyph glyph-name="zacute" unicode="&#x17a;" horiz-adv-x="476" 
d="M289 732h109l-131 -143h-64zM445 459l-319 -383h330v-76h-436v65l315 377h-292v75h402v-58z" />
    <glyph glyph-name="Zdotaccent" unicode="&#x17b;" horiz-adv-x="610" 
d="M269 898h90v-104h-90v104zM578 634l-443 -554h455v-80h-568v80l445 554h-411v80h522v-80z" />
    <glyph glyph-name="zdotaccent" unicode="&#x17c;" horiz-adv-x="476" 
d="M198 708h90v-104h-90v104zM445 459l-319 -383h330v-76h-436v65l315 377h-292v75h402v-58z" />
    <glyph glyph-name="Zcaron" unicode="&#x17d;" horiz-adv-x="610" 
d="M463 922l-103 -143h-93l-104 143h84l69 -96l70 96h77zM578 634l-443 -554h455v-80h-568v80l445 554h-411v80h522v-80z" />
    <glyph glyph-name="zcaron" unicode="&#x17e;" horiz-adv-x="476" 
d="M389 732l-103 -143h-93l-104 143h84l69 -96l70 96h77zM445 459l-319 -383h330v-76h-436v65l315 377h-292v75h402v-58z" />
    <glyph glyph-name="florin" unicode="&#x192;" horiz-adv-x="320" 
d="M193 517h99v-73h-98v-444h-88v444h-86v73h86v98q0 43 31 71t82 28h67v-75h-51q-42 0 -42 -37v-85z" />
    <glyph glyph-name="Scommaaccent" unicode="&#x218;" horiz-adv-x="656" 
d="M589 509h-95q-8 74 -49 108t-118 34q-69 0 -119 -29q-49 -28 -49 -93q0 -37 25 -61t65.5 -35.5t89.5 -20.5t97.5 -22t89 -33.5t65.5 -61t25 -99.5q0 -72 -45 -122q-80 -91 -237 -91q-130 0 -214 60q-84 61 -84 183h95q0 -84 57 -124q57 -39 146 -39q76 0 132 30
q55 30 55 100q0 44 -25 72.5t-65.5 42t-89.5 23t-97.5 20.5t-89 28.5t-65.5 53.5t-25 89q0 101 77 155q78 54 186 54q120 0 189 -56t73 -166zM274 -138v88h111v-77q0 -41 -26 -62t-73 -21v35q28 10 34.5 17t5.5 20h-52z" />
    <glyph glyph-name="scommaaccent" unicode="&#x219;" horiz-adv-x="509" 
d="M24 152h87q7 -91 133 -91q53 0 94 18t41 61q0 36 -31 59q-11 10 -35 17q-29 9 -40 11q-11 3 -46 10q-62 12 -104 28q-40 17 -59.5 43.5t-22.5 73.5q0 72 58 109q59 38 135 38q96 0 148 -32q52 -31 64 -121h-83q-11 46 -40 63t-83 17q-47 0 -78 -17.5t-31 -51.5
q0 -44 56 -63l33 -10l40 -8q16 -3 40 -8q69 -16 115 -43q54 -31 54 -104q0 -59 -37 -97q-62 -66 -192 -66q-91 0 -150 37q-60 37 -66 127zM196 -138v88h111v-77q0 -41 -26 -62t-73 -21v35q28 10 34.5 17t5.5 20h-52z" />
    <glyph glyph-name="circumflex" unicode="&#x2c6;" horiz-adv-x="585" 
d="M240 732h93l104 -143h-84l-69 96l-70 -96h-77z" />
    <glyph glyph-name="caron" unicode="&#x2c7;" horiz-adv-x="833" 
 />
    <glyph glyph-name="breve" unicode="&#x2d8;" horiz-adv-x="833" 
 />
    <glyph glyph-name="dotaccent" unicode="&#x2d9;" horiz-adv-x="833" 
 />
    <glyph glyph-name="ring" unicode="&#x2da;" horiz-adv-x="833" 
 />
    <glyph glyph-name="ogonek" unicode="&#x2db;" horiz-adv-x="833" 
 />
    <glyph glyph-name="tilde" unicode="&#x2dc;" horiz-adv-x="577" 
d="M458 717q-6 -44 -32 -79q-26 -32 -69 -32q-30 0 -75 20q-50 19 -66 19q-19 0 -31 -12q-9 -7 -18 -30h-52q23 110 106 110q27 0 73 -20q48 -20 66 -20q32 0 46 44h52z" />
    <glyph glyph-name="hungarumlaut" unicode="&#x2dd;" horiz-adv-x="1084" 
d="M272 732h109l-131 -143h-64zM814 732h109l-131 -143h-64z" />
    <glyph glyph-name="uni0394" unicode="&#x394;" horiz-adv-x="674" 
d="M662 0h-649l279 712h83zM550 72l-217 556l-213 -556h430z" />
    <glyph glyph-name="uni03A9" unicode="&#x3a9;" horiz-adv-x="748" 
d="M688 0h-256v183q84 17 130 77t46 150q0 103 -68 171t-172 68q-102 0 -172 -68q-69 -67 -69 -171q0 -89 46 -151q47 -63 131 -76v-183h-257v67h193v72q-90 26 -142 101q-51 76 -51 173q0 133 94 220q94 88 227 88q134 0 227 -87q93 -86 93 -219q0 -99 -51 -175
q-50 -76 -141 -101v-72h192v-67z" />
    <glyph glyph-name="uni03BC" unicode="&#x3bc;" horiz-adv-x="556" 
d="M492 517v-517h-80v102h-2q-11 -64 -45.5 -89t-100.5 -25q-44 0 -74.5 24t-38.5 64h-2v-274h-85v715h85v-330q0 -124 115 -124q72 0 107.5 42.5t35.5 119.5v292h85z" />
    <glyph glyph-name="pi" unicode="&#x3c0;" horiz-adv-x="570" 
d="M547 68v-57q-37 -17 -69 -17q-58 0 -74 36q-12 33 -12 84v296h-246v-410h-75v410h-69v69h541v-69h-76v-299q0 -28 7.5 -40.5t30.5 -12.5q22 0 42 10z" />
    <glyph glyph-name="endash" unicode="&#x2013;" horiz-adv-x="570" 
d="M35 238v80h500v-80h-500z" />
    <glyph glyph-name="emdash" unicode="&#x2014;" horiz-adv-x="800" 
d="M30 238v80h740v-80h-740z" />
    <glyph glyph-name="quoteleft" unicode="&#x2018;" horiz-adv-x="223" 
d="M167 456h-111v111q0 66 28.5 106.5t81.5 40.5v-50q-29 0 -43.5 -27t-14.5 -70h59v-111z" />
    <glyph glyph-name="quoteright" unicode="&#x2019;" horiz-adv-x="217" 
d="M56 603v111h111v-111q0 -66 -28.5 -106.5t-81.5 -40.5v50q29 0 43.5 27t14.5 70h-59z" />
    <glyph glyph-name="quotedblleft" unicode="&#x201c;" horiz-adv-x="382" 
d="M325 456h-111v111q0 66 28.5 106.5t81.5 40.5v-50q-29 0 -43.5 -27t-14.5 -70h59v-111zM56 456v111q0 66 28.5 106.5t81.5 40.5v-50q-29 0 -43.5 -27t-14.5 -70h59v-111h-111z" />
    <glyph glyph-name="quotedblright" unicode="&#x201d;" horiz-adv-x="383" 
d="M166 714v-111q0 -66 -28.5 -106.5t-81.5 -40.5v50q29 0 43.5 27t14.5 70h-59v111h111zM324 714v-111q0 -66 -28.5 -106.5t-81.5 -40.5v50q29 0 43.5 27t14.5 70h-59v111h111z" />
    <glyph glyph-name="dagger" unicode="&#x2020;" horiz-adv-x="274" 
d="M103 -214v1000h68v-1000h-68zM-17 238v80h309v-80h-309z" />
    <glyph glyph-name="daggerdbl" unicode="&#x2021;" horiz-adv-x="274" 
d="M103 -214v1000h68v-1000h-68zM389 388v-68h-504v68h504zM-115 118v68h504v-68h-504z" />
    <glyph glyph-name="bullet" unicode="&#x2022;" horiz-adv-x="353" 
d="M226 349q19 -19 19 -48t-19 -49q-19 -19 -48 -19t-48 19q-19 20 -19 49t19 48q19 20 48 20t48 -20z" />
    <glyph glyph-name="ellipsis" unicode="&#x2026;" horiz-adv-x="1000" 
d="M111 0v111h111v-111h-111zM444 0v111h111v-111h-111zM777 0v111h111v-111h-111z" />
    <glyph glyph-name="perthousand" unicode="&#x2030;" horiz-adv-x="1148" 
d="M90 -22l538 744h85l-537 -744h-86zM220 709q76 0 110 -46q36 -47 36 -123q0 -78 -40 -127q-38 -45 -108 -45q-72 0 -109 44.5t-37 122.5q0 82 36.5 128t111.5 46zM219 423q37 0 54.5 32t17.5 82q0 19 -3 37t-9.5 37.5t-21 31t-34.5 11.5q-39 0 -57.5 -32.5t-18.5 -83.5
q0 -115 72 -115zM585 329q76 0 110 -46q36 -47 36 -123q0 -78 -40 -127q-37 -45 -108 -45q-72 0 -109 44.5t-37 122.5q0 82 36.5 128t111.5 46zM930 329q76 0 110 -46q36 -47 36 -123q0 -78 -40 -127q-38 -45 -108 -45q-72 0 -109 44.5t-37 122.5q0 82 36.5 128t111.5 46z
M584 43q37 0 54.5 32t17.5 82q0 19 -3 37t-9.5 37.5t-21 31t-34.5 11.5q-39 0 -57.5 -32.5t-18.5 -83.5q0 -115 72 -115zM929 43q37 0 54.5 32t17.5 82q0 19 -3 37t-9.5 37.5t-21 31t-34.5 11.5q-39 0 -57.5 -32.5t-18.5 -83.5q0 -115 72 -115z" />
    <glyph glyph-name="Euro" unicode="&#x20ac;" horiz-adv-x="556" 
d="M387 61q48 0 85 19q28 15 69 53v-105q-68 -44 -154 -44q-126 0 -202.5 76.5t-94.5 215.5h-77l27 61h45v20q0 25 1 32h-73l27 61h53q24 124 91 194q35 38 91.5 59.5t118.5 21.5q91 0 181 -63l-46 -83q-71 69 -143 69q-41 0 -79.5 -17t-61.5 -47q-41 -53 -56 -134h302
l-26 -61h-283q-1 -7 -1 -31v-21h270l-26 -61h-238q14 -102 66 -158.5t134 -56.5z" />
    <glyph glyph-name="uni2113" unicode="&#x2113;" horiz-adv-x="500" 
d="M285 -14q-58 0 -92.5 33.5t-34.5 94.5v114l-58 -62h-2l-41 37l101 84v259q0 80 36 127.5t93 47.5q49 0 79.5 -34.5t30.5 -93.5q0 -143 -171 -318v-150q0 -45 21 -66t54 -21q23 0 49 17.5t41 44.5l24 -59q-58 -55 -130 -55zM287 673q-26 0 -43.5 -31t-17.5 -85v-222
q114 132 114 253q0 38 -15 61.5t-38 23.5z" />
    <glyph glyph-name="trademark" unicode="&#x2122;" horiz-adv-x="990" 
d="M390 714v-55h-129v-357h-68v357h-129v55h326zM927 714v-412h-68v352h-2l-135 -352h-43l-135 352h-2v-352h-68v412h105l123 -329l121 329h104z" />
    <glyph glyph-name="estimated" unicode="&#x212e;" horiz-adv-x="600" 
d="M561 259h-394v-189q33 -28 63 -39.5t72 -11.5q122 0 193 120l35 -21q-46 -73 -98.5 -104t-129.5 -31q-115 0 -187 79q-71 80 -71 197q0 118 71 197q70 79 187 79q115 0 186 -77q71 -76 73 -199zM167 295h271v159q-29 26 -60 36t-77 10q-84 0 -134 -46v-159z" />
    <glyph glyph-name="arrowleft" unicode="&#x2190;" horiz-adv-x="814" 
d="M774 284h-603l121 -117l47 -48q90 -90 117 -119h-127l-138 147q-130 138 -171 179q27 27 165 172l144 152h127q-27 -29 -117 -119l-92 -94q-66 -63 -76 -71h603v-82z" />
    <glyph glyph-name="arrowup" unicode="&#x2191;" horiz-adv-x="720" 
d="M401 591v-591h-82v591q-8 -10 -71 -76l-94 -92q-90 -90 -119 -117v127l152 144q145 138 172 165q41 -41 179 -171l147 -138v-127q-29 27 -119 117l-48 47z" />
    <glyph glyph-name="arrowright" unicode="&#x2192;" horiz-adv-x="814" 
d="M643 284h-603v82h603q-10 8 -76 71l-92 94q-90 90 -117 119h127l144 -152q138 -145 165 -172q-41 -41 -171 -179l-138 -147h-127q27 29 117 119l47 48z" />
    <glyph glyph-name="arrowdown" unicode="&#x2193;" horiz-adv-x="720" 
d="M319 124v591h82v-591q8 10 71 76l94 92q90 90 119 117v-127l-152 -144q-145 -138 -172 -165q-41 41 -179 171l-147 138v127q29 -27 119 -117l48 -47z" />
    <glyph glyph-name="uni2196" unicode="&#x2196;" horiz-adv-x="742" 
d="M615 -13l-413 413l-2 -229q0 -87 -2 -165l-85 83q0 51 3 222t3 232q61 0 232 3t221 3l85 -84q-158 -2 -165 -2l-229 -2l413 -413z" />
    <glyph glyph-name="uni2197" unicode="&#x2197;" horiz-adv-x="742" 
d="M540 412l-413 -413l-61 61l413 413l-229 2q-7 0 -165 2l85 84q50 0 221 -3t232 -3q0 -61 3 -232t3 -222l-85 -83q-2 78 -2 165z" />
    <glyph glyph-name="uni2198" unicode="&#x2198;" horiz-adv-x="742" 
d="M127 561l413 -413l2 229q0 87 2 165l85 -83q0 -51 -3 -222t-3 -232q-61 0 -232 -3t-221 -3l-85 84q158 2 165 2l229 2l-413 413z" />
    <glyph glyph-name="uni2199" unicode="&#x2199;" horiz-adv-x="742" 
d="M202 148l413 413l61 -61l-413 -413l229 -2q7 0 165 -2l-85 -84q-50 0 -221 3t-232 3q0 61 -3 232t-3 222l85 83q2 -78 2 -165z" />
    <glyph glyph-name="partialdiff" unicode="&#x2202;" horiz-adv-x="511" 
d="M237 -12q-93 0 -148 66q-56 67 -56 159q0 91 54 152q56 62 145 62q112 0 160 -103q0 17 1 36t1 36q0 92 -37 170q-18 42 -54 67t-82 25q-58 0 -107 -52l-49 55q67 60 153 60q70 0 121.5 -32.5t78.5 -87.5t39 -114t12 -125q0 -109 -25 -198q-47 -172 -207 -176zM241 365
q-63 0 -99 -46q-35 -46 -35 -109t35 -113q34 -49 97 -49q52 0 87 41q63 72 63 191q-30 46 -65 65.5t-83 19.5z" />
    <glyph glyph-name="product" unicode="&#x220f;" horiz-adv-x="719" 
d="M650 -214h-78v928h-426v-928h-78v1000h582v-1000z" />
    <glyph glyph-name="minus" unicode="&#x2212;" horiz-adv-x="600" 
d="M48 219v68h504v-68h-504z" />
    <glyph glyph-name="radical" unicode="&#x221a;" horiz-adv-x="504" 
d="M514 786l-211 -1000h-75l-162 334l-47 -22l-28 60l112 52l151 -317l184 893h76z" />
    <glyph glyph-name="infinity" unicode="&#x221e;" horiz-adv-x="759" 
d="M570 98q-87 0 -190 109l-24 -22l-26 -23q-3 -3 -23 -18q-12 -10 -54 -32q-25 -13 -64 -13q-66 0 -106.5 43t-40.5 110t40 111.5t105 44.5q38 0 76 -20q39 -19 59 -38q26 -24 58 -56l17 17l19 19q3 2 18.5 16.5t19.5 17.5q29 23 42 28q44 18 73 18q65 0 106.5 -44
t41.5 -111q0 -69 -40.5 -113t-106.5 -44zM570 342q-23 0 -69 -24q-13 -8 -42 -33l-20 -19l-16 -15q18 -17 46 -42q18 -15 48 -29t56 -14q36 0 57.5 24t21.5 62q0 40 -22 65t-60 25zM187 341q-36 0 -58 -25.5t-22 -63.5q0 -39 22 -62.5t61 -23.5q62 0 147 85q-25 23 -45 40
q-19 15 -48 32q-32 18 -57 18z" />
    <glyph glyph-name="integral" unicode="&#x222b;" horiz-adv-x="554" 
d="M322 735q-8 0 -14.5 -7t-9.5 -18.5t-5 -25t-2 -29v-27t0.5 -22.5t0.5 -12l1 -39v-511q0 -119 -15 -167q-27 -90 -111 -90q-28 0 -48.5 14t-20.5 38q0 14 11.5 25t25.5 11q19 0 32 -21q15 -21 20 -21q29 0 29 139l-1 12v517q0 19 -1 39v46q0 56 8 94q16 55 37 75
q35 31 82 31q33 0 56 -15t23 -41q0 -17 -12 -27.5t-30 -10.5t-34 21q-16 22 -22 22z" />
    <glyph glyph-name="approxequal" unicode="&#x2248;" horiz-adv-x="593" 
d="M511 415h50q-7 -66 -40 -106t-90 -40q-44 0 -143 35q-97 36 -128 36q-29 0 -49.5 -21.5t-26.5 -55.5h-51q7 66 39.5 107t89.5 41q44 0 139 -36q97 -35 135 -35q60 0 75 75zM510 234h50q-7 -66 -39.5 -105.5t-89.5 -39.5q-45 0 -143 36t-129 36q-30 0 -50.5 -22.5
t-24.5 -55.5h-52q22 148 129 148q45 0 140 -36q96 -35 134 -35q60 0 75 74z" />
    <glyph glyph-name="notequal" unicode="&#x2260;" horiz-adv-x="593" 
d="M550 114h-287l-76 -146l-62 32l59 114h-141v72h178l67 127h-245v71h283l77 148l62 -32l-61 -116h146v-71h-183l-67 -127h250v-72z" />
    <glyph glyph-name="lessequal" unicode="&#x2264;" horiz-adv-x="593" 
d="M550 82l-507 184v75l507 187v-78l-408 -146l408 -145v-77zM550 -30h-507v72h507v-72z" />
    <glyph glyph-name="greaterequal" unicode="&#x2265;" horiz-adv-x="593" 
d="M550 266l-507 -184v77l408 145l-408 146v78l507 -187v-75zM550 -30h-507v72h507v-72z" />
    <glyph glyph-name="fi" unicode="&#xfb01;" horiz-adv-x="517" 
d="M184 602v-85h100v-74h-99v-443h-86v443h-87v74h87v98q0 43 30.5 71t81.5 28h67v-75h-51q-43 0 -43 -37zM361 610v104h92v-104h-92zM452 0h-90v517h90v-517z" />
    <glyph glyph-name="fl" unicode="&#xfb02;" horiz-adv-x="516" 
d="M99 443h-87v74h87v98q0 43 30.5 71t81.5 28h67v-75h-51q-43 0 -43 -37v-85h100v-74h-99v-443h-86v443zM362 0v714h90v-714h-90z" />
    <glyph glyph-name="NULL" horiz-adv-x="0" 
 />
    <glyph glyph-name="CR" horiz-adv-x="333" 
 />
    <glyph glyph-name="f.ss03" horiz-adv-x="424" 
d="M232 517h164v-73h-164l1 -444h-88v444h-125v73h125v98q0 43 31 71t82 28h123v-75h-107q-42 0 -42 -37v-85z" />
    <glyph glyph-name="acircumflex.ss01" horiz-adv-x="580" 
d="M345 589l-69 78l-70 -78h-77l107 125h85l108 -125h-84zM524 517v-447q0 -41 8 -70h-90q-9 66 -8 99h-1q-49 -111 -167 -111q-114 0 -175 79t-61 196q0 113 65 190q64 76 180 76q65 0 105.5 -30t51.5 -85h2v103h90zM277 63q84 0 120 58q37 58 37 145v6q-2 82 -43 131
t-112 49q-78 0 -118 -55q-39 -54 -39 -134q0 -85 37 -143q37 -57 118 -57z" />
    <glyph glyph-name="a.ss01" horiz-adv-x="580" 
d="M524 517v-447q0 -41 8 -70h-90q-9 66 -8 99h-1q-49 -111 -167 -111q-114 0 -175 79t-61 196q0 113 65 190q64 76 180 76q65 0 105.5 -30t51.5 -85h2v103h90zM277 63q84 0 120 58q37 58 37 145v6q-2 82 -43 131t-112 49q-78 0 -118 -55q-39 -54 -39 -134q0 -85 37 -143
q37 -57 118 -57z" />
    <glyph glyph-name="t.ss03" horiz-adv-x="412" 
d="M384 517v-75h-163v-334q0 -18 7.5 -25t30.5 -7h110v-76h-151q-46 0 -65.5 24.5t-19.5 74.5v343h-125v75h125v123l85 42h3v-165h163z" />
    <glyph glyph-name="plus.cap" horiz-adv-x="652" 
d="M366 591v-215h212v-76h-212v-215h-80v215h-212v76h212v215h80z" />
    <glyph glyph-name="tcaron.ss03" horiz-adv-x="412" 
d="M367 571l26 143h109l-75 -143h-60zM218 682h3v-165h163v-75h-163v-334q0 -18 7.5 -25t30.5 -7h110v-76h-151q-46 0 -65.5 24.5t-19.5 74.5v343h-125v75h125v123z" />
    <glyph glyph-name="tbar.ss03" horiz-adv-x="412" 
d="M394 344v-53h-173v-183q0 -18 7.5 -25t30.5 -7h110v-76h-151q-46 0 -65.5 24.5t-19.5 74.5v192h-127v53h127v98h-125v75h125v123l85 42h3v-165h163v-75h-163v-98h173z" />
    <glyph glyph-name="agrave.ss01" horiz-adv-x="580" 
d="M260 732l86 -143h-64l-131 143h109zM524 517v-447q0 -41 8 -70h-90q-9 66 -8 99h-1q-49 -111 -167 -111q-114 0 -175 79t-61 196q0 113 65 190q64 76 180 76q65 0 105.5 -30t51.5 -85h2v103h90zM277 63q84 0 120 58q37 58 37 145v6q-2 82 -43 131t-112 49q-78 0 -118 -55
q-39 -54 -39 -134q0 -85 37 -143q37 -57 118 -57z" />
    <glyph glyph-name="aacute.ss01" horiz-adv-x="580" 
d="M335 732h109l-131 -143h-64zM524 517v-447q0 -41 8 -70h-90q-9 66 -8 99h-1q-49 -111 -167 -111q-114 0 -175 79t-61 196q0 113 65 190q64 76 180 76q65 0 105.5 -30t51.5 -85h2v103h90zM277 63q84 0 120 58q37 58 37 145v6q-2 82 -43 131t-112 49q-78 0 -118 -55
q-39 -54 -39 -134q0 -85 37 -143q37 -57 118 -57z" />
    <glyph glyph-name="atilde.ss01" horiz-adv-x="580" 
d="M179 633q-9 -7 -18 -30h-52q23 110 106 110q27 0 73 -20q48 -20 66 -20q34 0 46 41h52q-6 -39 -32 -76q-26 -32 -69 -32q-30 0 -75 20q-50 19 -66 19q-19 0 -31 -12zM524 517v-447q0 -41 8 -70h-90q-9 66 -8 99h-1q-49 -111 -167 -111q-114 0 -175 79t-61 196
q0 113 65 190q64 76 180 76q65 0 105.5 -30t51.5 -85h2v103h90zM277 63q84 0 120 58q37 58 37 145v6q-2 82 -43 131t-112 49q-78 0 -118 -55q-39 -54 -39 -134q0 -85 37 -143q37 -57 118 -57z" />
    <glyph glyph-name="adieresis.ss01" horiz-adv-x="580" 
d="M131 706h90v-104h-90v104zM319 706h90v-104h-90v104zM524 517v-447q0 -41 8 -70h-90q-9 66 -8 99h-1q-49 -111 -167 -111q-114 0 -175 79t-61 196q0 113 65 190q64 76 180 76q65 0 105.5 -30t51.5 -85h2v103h90zM277 63q84 0 120 58q37 58 37 145v6q-2 82 -43 131
t-112 49q-78 0 -118 -55q-39 -54 -39 -134q0 -85 37 -143q37 -57 118 -57z" />
    <glyph glyph-name="aring.ss01" horiz-adv-x="580" 
d="M357 596q-33 -33 -79 -33t-80 33q-33 33 -33 79t33 79q34 33 80 33t79 -33q34 -33 34 -79t-34 -79zM326 722q-19 20 -48 20t-48 -20q-19 -19 -19 -48t19 -49q19 -19 48 -19t48 19q19 20 19 49t-19 48zM524 517v-447q0 -41 8 -70h-90q-9 66 -8 99h-1q-49 -111 -167 -111
q-114 0 -175 79t-61 196q0 113 65 190q64 76 180 76q65 0 105.5 -30t51.5 -85h2v103h90zM277 63q84 0 120 58q37 58 37 145v6q-2 82 -43 131t-112 49q-78 0 -118 -55q-39 -54 -39 -134q0 -85 37 -143q37 -57 118 -57z" />
    <glyph glyph-name="abreve.ss01" horiz-adv-x="580" 
d="M279 587q-70 0 -107 30.5t-47 96.5h50q12 -39 38.5 -55.5t73.5 -16.5q41 0 62 16t37 56h51q-22 -127 -158 -127zM524 517v-447q0 -41 8 -70h-90q-9 66 -8 99h-1q-49 -111 -167 -111q-114 0 -175 79t-61 196q0 113 65 190q64 76 180 76q65 0 105.5 -30t51.5 -85h2v103h90z
M277 63q84 0 120 58q37 58 37 145v6q-2 82 -43 131t-112 49q-78 0 -118 -55q-39 -54 -39 -134q0 -85 37 -143q37 -57 118 -57z" />
    <glyph glyph-name="amacron.ss01" horiz-adv-x="580" 
d="M113 682h341v-55h-341v55zM524 517v-447q0 -41 8 -70h-90q-9 66 -8 99h-1q-49 -111 -167 -111q-114 0 -175 79t-61 196q0 113 65 190q64 76 180 76q65 0 105.5 -30t51.5 -85h2v103h90zM277 63q84 0 120 58q37 58 37 145v6q-2 82 -43 131t-112 49q-78 0 -118 -55
q-39 -54 -39 -134q0 -85 37 -143q37 -57 118 -57z" />
    <glyph glyph-name="arrowleft.ss06" horiz-adv-x="1400" 
d="M1360 284h-1189l121 -117l47 -48q90 -90 117 -119h-127l-138 147q-130 138 -171 179q27 27 165 172l144 152h127q-27 -29 -117 -119l-92 -94q-66 -63 -76 -71h1189v-82z" />
    <glyph glyph-name="plus.cap.ss05" horiz-adv-x="652" 
d="M342 591v-239h236v-28h-236v-239h-32v239h-236v28h236v239h32z" />
    <glyph glyph-name="plus.ss05" horiz-adv-x="600" 
d="M316 506v-239h236v-28h-236v-239h-32v239h-236v28h236v239h32z" />
    <glyph glyph-name="zero.zero" horiz-adv-x="576" 
d="M538 357q0 -148 -49 -250q-27 -56 -78.5 -87.5t-122.5 -31.5t-122.5 31.5t-79.5 87.5q-48 103 -48 250q0 119 30 202q55 159 220 159q114 0 175 -76q29 -35 45 -83q30 -83 30 -202zM288 642q-90 0 -127 -96q-33 -82 -33 -188q0 -115 33 -193l212 444q-36 33 -85 33z
M288 68q44 0 76.5 26t50.5 72q33 86 33 192q0 102 -27 174l-209 -438q35 -26 76 -26z" />
    <glyph glyph-name="one.ss02" horiz-adv-x="421" 
d="M298 714v-636h123v-78h-357v78h144v447h-174v68q53 0 90 8q87 20 104 113h70z" />
    <glyph glyph-name="arrowright.ss06" horiz-adv-x="1400" 
d="M1229 284h-1189v82h1189q-10 8 -76 71l-92 94q-90 90 -117 119h127l144 -152q138 -145 165 -172q-41 -41 -171 -179l-138 -147h-127q27 29 117 119l47 48z" />
    <glyph glyph-name="nizarkazansignature" horiz-adv-x="1004" 
d="M642 232v-262h-280v262h-262v281h262v261h280v-261h262v-281h-262zM422 292v-262h160v262h262v161h-262v261h-160v-261h-262v-161h262z" />
    <glyph glyph-name="list1" horiz-adv-x="1113" 
d="M556 -96q-115 -3 -218.5 58t-164.5 164.5t-58 218.5q0 181 130 311q131 131 311 131q116 3 219.5 -58t164.5 -164.5t58 -219.5q0 -180 -131 -311q-130 -130 -311 -130zM556 740q-164 0 -279 -115t-115 -280q0 -164 115 -279t279 -115q165 0 280 115t115 279
q0 165 -115 280t-280 115zM595 137v427h-40q-14 -80 -122 -80v-40h110v-307h52z" />
    <glyph glyph-name="list2" horiz-adv-x="1113" 
d="M556 -96q-115 -3 -218.5 58t-164.5 164.5t-58 218.5q0 181 130 311q131 131 311 131q116 3 219.5 -58t164.5 -164.5t58 -219.5q0 -180 -131 -311q-130 -130 -311 -130zM556 740q-164 0 -279 -115t-115 -280q0 -164 115 -279t279 -115q165 0 280 115t115 279
q0 165 -115 280t-280 115zM418 433h53q0 43 23.5 69.5t66.5 26.5q36 0 59.5 -22t23.5 -57q0 -42 -24 -67q-22 -25 -86 -66q-32 -18 -48 -30q-19 -12 -40 -33q-45 -41 -45 -112h300v45h-239q8 33 38 55l26 20l36 21l32 18q38 26 53 39q18 15 35 44q18 30 18 65q0 58 -38 92
t-98 34q-70 0 -108 -36.5t-38 -105.5z" />
    <glyph glyph-name="list3" horiz-adv-x="1113" 
d="M556 -96q-115 -3 -218.5 58t-164.5 164.5t-58 218.5q0 181 130 311q131 131 311 131q116 3 219.5 -58t164.5 -164.5t58 -219.5q0 -180 -131 -311q-130 -130 -311 -130zM556 740q-164 0 -279 -115t-115 -280q0 -164 115 -279t279 -115q165 0 280 115t115 279
q0 165 -115 280t-280 115zM528 389v-43q7 1 32 1q39 0 64 -21.5t25 -57.5q0 -37 -26.5 -59.5t-65.5 -22.5q-43 0 -68.5 23t-26.5 63h-51q-1 -62 38.5 -96t107.5 -34q64 0 104.5 34t40.5 94q0 38 -26.5 66.5t-69.5 34.5v1q37 10 57.5 32.5t20.5 52.5q0 55 -34 83.5t-93 28.5
q-62 0 -96 -32.5t-35 -90.5h50q3 78 81 78q33 0 53.5 -17.5t20.5 -48.5t-22.5 -50t-56.5 -19h-11h-13z" />
    <glyph glyph-name="list4" horiz-adv-x="1113" 
d="M556 -96q-115 -3 -218.5 58t-164.5 164.5t-58 218.5q0 181 130 311q131 131 311 131q116 3 219.5 -58t164.5 -164.5t58 -219.5q0 -180 -131 -311q-130 -130 -311 -130zM556 740q-164 0 -279 -115t-115 -280q0 -164 115 -279t279 -115q165 0 280 115t115 279
q0 165 -115 280t-280 115zM626 282v275h-39l-202 -270v-48h194v-97h47v97h39v43h-39zM579 282h-146l146 197v-197z" />
    <glyph glyph-name="list5" horiz-adv-x="1113" 
d="M556 -96q-115 -3 -218.5 58t-164.5 164.5t-58 218.5q0 181 130 311q131 131 311 131q116 3 219.5 -58t164.5 -164.5t58 -219.5q0 -180 -131 -311q-130 -130 -311 -130zM556 740q-164 0 -279 -115t-115 -280q0 -164 115 -279t279 -115q165 0 280 115t115 279
q0 165 -115 280t-280 115zM665 513v44h-206l-33 -216l43 -2q29 39 80 39q42 0 67.5 -26t25.5 -67q0 -47 -24 -73t-62 -26t-65.5 21.5t-29.5 52.5h-50q2 -53 42 -86q43 -32 99 -32q69 0 106 40q38 41 38 97q0 68 -36.5 105.5t-95.5 37.5q-63 0 -89 -44h-1l23 135h168z" />
    <glyph glyph-name="list6" horiz-adv-x="1113" 
d="M556 -96q-115 -3 -218.5 58t-164.5 164.5t-58 218.5q0 181 130 311q131 131 311 131q116 3 219.5 -58t164.5 -164.5t58 -219.5q0 -180 -131 -311q-130 -130 -311 -130zM556 740q-164 0 -279 -115t-115 -280q0 -164 115 -279t279 -115q165 0 280 115t115 279
q0 165 -115 280t-280 115zM635 456h51q-5 52 -36.5 82.5t-82.5 30.5q-44 0 -75 -18.5t-48 -51t-24.5 -71t-7.5 -84.5q0 -202 145 -202q72 0 106 43t34 98q0 61 -35 99t-93 38q-82 0 -107 -79h-1q-3 79 21.5 130t81.5 53q30 0 49 -19t22 -49zM472 279q0 43 23.5 69.5
t64.5 26.5q39 0 61.5 -27t22.5 -69q0 -40 -23 -66.5t-61 -26.5q-40 0 -64 26t-24 67z" />
    <glyph glyph-name="list7" horiz-adv-x="1113" 
d="M556 -96q-115 -3 -218.5 58t-164.5 164.5t-58 218.5q0 181 130 311q131 131 311 131q116 3 219.5 -58t164.5 -164.5t58 -219.5q0 -180 -131 -311q-130 -130 -311 -130zM556 740q-164 0 -279 -115t-115 -280q0 -164 115 -279t279 -115q165 0 280 115t115 279
q0 165 -115 280t-280 115zM705 512v43h-272v-47h231q-66 -48 -118 -154q-51 -103 -59 -212h56q8 100 52 202q47 107 110 168z" />
    <glyph glyph-name="list8" horiz-adv-x="1113" 
d="M556 -96q-115 -3 -218.5 58t-164.5 164.5t-58 218.5q0 181 130 311q131 131 311 131q116 3 219.5 -58t164.5 -164.5t58 -219.5q0 -180 -131 -311q-130 -130 -311 -130zM556 740q-164 0 -279 -115t-115 -280q0 -164 115 -279t279 -115q165 0 280 115t115 279
q0 165 -115 280t-280 115zM556 569q-51 0 -86.5 -29.5t-35.5 -76.5q0 -33 21.5 -57t57.5 -32q-40 -8 -67.5 -37.5t-27.5 -66.5q0 -60 39.5 -94t103.5 -34q62 0 101 34.5t39 93.5q0 38 -27.5 66.5t-68.5 37.5q35 8 57 32.5t22 56.5q0 47 -32.5 76.5t-95.5 29.5zM561 393
q-34 0 -54.5 17.5t-20.5 49.5q0 30 20.5 47t54.5 17q31 0 50.5 -17t19.5 -47t-19.5 -48.5t-50.5 -18.5zM561 186q-40 0 -65 22t-25 60q0 35 25.5 57t64.5 22q36 0 61 -23t25 -56q0 -36 -24 -59t-62 -23z" />
    <glyph glyph-name="list9" horiz-adv-x="1113" 
d="M556 -96q-115 -3 -218.5 58t-164.5 164.5t-58 218.5q0 181 130 311q131 131 311 131q116 3 219.5 -58t164.5 -164.5t58 -219.5q0 -180 -131 -311q-130 -130 -311 -130zM556 740q-164 0 -279 -115t-115 -280q0 -164 115 -279t279 -115q165 0 280 115t115 279
q0 165 -115 280t-280 115zM479 256h-52q5 -54 36.5 -84t82.5 -30q155 0 155 226q0 201 -145 201q-72 0 -106 -43q-34 -41 -34 -98q0 -61 35 -99t93 -38q81 0 107 80l1 -1q4 -184 -103 -184q-29 0 -48 19.5t-22 50.5zM642 431q0 -43 -24 -69.5t-65 -26.5q-39 0 -61.5 27
t-22.5 69q0 41 23 67t61 26q41 0 65 -25.5t24 -67.5z" />
    <glyph glyph-name="list10" horiz-adv-x="1113" 
d="M556 -96q-115 -3 -218.5 58t-164.5 164.5t-58 218.5q0 181 130 311q131 131 311 131q116 3 219.5 -58t164.5 -164.5t58 -219.5q0 -180 -131 -311q-130 -130 -311 -130zM556 740q-164 0 -279 -115t-115 -280q0 -164 115 -279t279 -115q165 0 280 115t115 279
q0 165 -115 280t-280 115zM667 556q-107 0 -134 -95q-14 -47 -14 -122q0 -88 24 -145q30 -70 124 -70q95 0 125 70q24 57 24 145q0 75 -14 122q-9 31 -25 50q-36 45 -110 45zM447 129v413h-40q-11 -77 -117 -77v-40h106v-296h51zM667 166q-61 0 -79 60q-13 46 -13 114
q0 69 13 115q19 61 79 61q62 0 79 -62q14 -45 14 -114q0 -68 -14 -114q-17 -60 -79 -60z" />
    <glyph glyph-name="zero.ss02" horiz-adv-x="576" 
d="M538 357q0 -148 -49 -250q-27 -56 -78.5 -87.5t-122.5 -31.5t-122.5 31.5t-79.5 87.5q-48 103 -48 250q0 119 30 202q55 159 220 159q114 0 175 -76q29 -35 45 -83q30 -83 30 -202zM288 642q-90 0 -127 -96q-33 -82 -33 -188q0 -115 33 -193l212 444q-36 33 -85 33z
M288 68q44 0 76.5 26t50.5 72q33 86 33 192q0 102 -27 174l-209 -438q35 -26 76 -26z" />
  </font>
</defs>
</svg>
