<?xml version="1.0" standalone="no"?>
<!DOCTYPE svg PUBLIC "-//W3C//DTD SVG 1.1//EN" "http://www.w3.org/Graphics/SVG/1.1/DTD/svg11.dtd" >
<svg xmlns="http://www.w3.org/2000/svg" xmlns:xlink="http://www.w3.org/1999/xlink" version="1.1">
<metadata>
Created by FontForge 20170731 at Sat Jun 14 14:44:12 2014
 By Aleksey,,,
Copyright (c) 2013 by Lucas Sharp. All rights reserved.
</metadata>
<defs>
<font id="Ogg-Roman" horiz-adv-x="558" >
  <font-face 
    font-family="Ogg"
    font-weight="400"
    font-stretch="normal"
    units-per-em="1000"
    panose-1="0 0 0 0 0 0 0 0 0 0"
    ascent="750"
    descent="-250"
    x-height="500"
    cap-height="693"
    bbox="-170.138 -352 1350 1024"
    underline-thickness="50"
    underline-position="-200"
    unicode-range="U+0020-FA53"
  />
<missing-glyph horiz-adv-x="850" 
d="M674 584l-239 -239l239 -239l-10 -10l-239 239l-239 -239l-10 10l239 239l-239 239l10 10l239 -239l239 239zM94 14h662v662h-662v-662zM80 0v690h690v-690h-690z" />
    <glyph glyph-name="fi" unicode="fi" horiz-adv-x="536" 
d="M382 110v267q0 54 -12 65t-52 3q-6 -2 -7.5 2t4.5 6q62 13 125 57q2 2 10 -0.5t8 -6.5v-393q0 -67 10 -84t53 -17q6 0 6 -4.5t-6 -4.5q-16 0 -54.5 1t-44.5 1t-47 -1t-57 -1q-6 0 -6 4.5t6 4.5q44 0 54 17t10 84zM150 497h99q35 0 35 -1q0 -3 -6.5 -10.5t-20 -21
t-20.5 -21.5q-14 0 -42 0.5t-45 0.5v-202q0 -86 1 -132q0 -52 5 -71.5t16.5 -24.5t45.5 -5q6 0 6 -4.5t-6 -4.5q-17 0 -57 1t-46 1t-44.5 -1t-55.5 -1q-6 0 -6 4.5t6 4.5q43 0 52 16t9 85q-1 60 -1 161v164v10h-41q-14 0 -14 5l35 47h27q25 106 115 179t178 73q39 0 70.5 -8
t31.5 -18q0 -15 -16 -33t-38 -18q-13 0 -62 9.5t-82 9.5q-129 0 -129 -194z" />
    <glyph glyph-name="fl" unicode="fl" horiz-adv-x="527" 
d="M150 497h99q35 0 35 -1q0 -3 -6.5 -10.5t-20 -21t-20.5 -21.5q-14 0 -42 0.5t-45 0.5v-202q0 -86 1 -132q0 -52 5 -71.5t16.5 -24.5t45.5 -5q6 0 6 -4.5t-6 -4.5q-17 0 -57 1t-46 1t-44.5 -1t-55.5 -1q-6 0 -6 4.5t6 4.5q43 0 52 16t9 85q-1 61 -1 165v163v7h-41
q-14 0 -14 5l35 47h25q16 91 72 162.5t128 100.5q30 13 64 13q12 0 31.5 -6t21.5 -6q28 12 48 48q2 2 6 1.5t4 -4.5v-687q0 -69 10.5 -89.5t52.5 -20.5q6 0 6 -4.5t-6 -4.5q-16 0 -51 1t-44 1t-48 -1t-55 -1q-6 0 -6 4.5t6 4.5q43 0 51.5 15t8.5 95v568q0 6 -18 14.5t-48 15
t-58 6.5q-106 0 -106 -226z" />
    <glyph glyph-name=".notdef" horiz-adv-x="850" 
d="M674 584l-239 -239l239 -239l-10 -10l-239 239l-239 -239l-10 10l239 239l-239 239l10 10l239 -239l239 239zM94 14h662v662h-662v-662zM80 0v690h690v-690h-690z" />
    <glyph glyph-name=".null" horiz-adv-x="0" 
 />
    <glyph glyph-name="nonmarkingreturn" horiz-adv-x="333" 
 />
    <glyph glyph-name="space" unicode=" " horiz-adv-x="309" 
 />
    <glyph glyph-name="exclam" unicode="!" horiz-adv-x="252" 
d="M94 608v5q0 15 22.5 46t31.5 31q24 0 24 -35v-4q0 -42 -20.5 -219t-20.5 -269q0 -6 -4 -3l-2 3q0 95 -15.5 256t-15.5 189zM68 54q0 24 17 41t41 17q23 0 40.5 -17.5t17.5 -40.5q0 -24 -17 -41t-41 -17q-25 0 -41.5 16.5t-16.5 41.5z" />
    <glyph glyph-name="quotedbl" unicode="&#x22;" horiz-adv-x="281" 
d="M198 709q11 0 20 -8.5t9 -20.5q0 -6 -6.5 -49t-12.5 -102.5t-6 -105.5q0 -4 -2.5 -6t-5 0t-2.5 6q0 46 -5.5 105.5t-11 102.5t-5.5 49q0 12 8.5 20.5t19.5 8.5zM82 709q11 0 20 -8.5t9 -20.5q0 -6 -6.5 -49t-12.5 -102.5t-6 -105.5q0 -4 -2.5 -6t-5 0t-2.5 6
q0 46 -5.5 105.5t-11 102.5t-5.5 49q0 12 8.5 20.5t19.5 8.5z" />
    <glyph glyph-name="numbersign" unicode="#" horiz-adv-x="809" 
d="M405 479q-29 0 -71.5 -0.5t-58.5 -0.5q-1 -35 -1 -127v-124h252q2 66 2 123q0 93 -1 128q-35 1 -122 1zM537 351v-124q130 2 203 5q7 -9 7.5 -12.5t-1.5 -14.5q-129 9 -209 12q0 -68 4 -203q-12 -10 -12.5 -10.5t-12.5 0.5q0 17 10 214q-35 1 -121 1q-29 0 -72 -0.5
t-59 -0.5q0 -68 4 -204q-12 -10 -12.5 -10.5t-12.5 0.5q1 23 10 213q-41 0 -195 -6q-10 12 -10.5 12.5t0.5 12.5q144 -9 205 -9q2 66 2 123q0 93 -1 128q-40 0 -196 -6q-10 12 -10.5 12.5t0.5 12.5q128 -8 206 -9l-3 193q9 7 12.5 7.5t14.5 -1.5q-3 -47 -7 -107.5t-5 -91.5
q36 -1 128 -1h123l-3 194q9 7 12.5 7.5t14.5 -1.5q-2 -45 -6 -107l-6 -93q128 2 201 5q7 -9 7.5 -12.5t-1.5 -14.5q-130 9 -208 12q-1 -33 -1 -126z" />
    <glyph glyph-name="dollar" unicode="$" horiz-adv-x="561" 
d="M116 560q0 -54 40.5 -89.5t116.5 -68.5q0 108 -2 292h-2q-73 0 -113 -37.5t-40 -96.5zM286 -11h9q73 0 114.5 40.5t41.5 105.5q0 64 -44 105.5t-123 77.5q0 -254 2 -329zM53 513q0 86 61.5 137t156.5 53q-1 27 -1 78q9 7 10.5 7.5t13.5 -1.5q-1 -13 -4 -84
q41 0 71.5 -3.5t72.5 -12.5t48 -10q10 -4 11 -11q1 -8 -0.5 -46.5t-3.5 -87t-2 -71.5q0 -9 -5 -9t-5 9q0 108 -45 166t-142 66q-5 -162 -5 -297q111 -50 148 -77q77 -57 78 -137q0 -88 -61 -145.5t-163 -57.5h-1q0 -27 2 -85q-8 -14 -24 -10l3 95q-45 1 -82 6t-52.5 9
t-58.5 15q-12 4 -13 13q-1 10 0.5 50.5t3.5 93t2 80.5q0 5 2.5 7t5 0t2.5 -7q0 -113 47 -180.5t144 -75.5q5 195 5 333q-7 3 -34.5 15.5t-36.5 16.5t-32.5 15.5t-32.5 18.5t-26.5 19t-24.5 22t-16.5 23.5t-13 28.5t-3.5 31z" />
    <glyph glyph-name="percent" unicode="%" horiz-adv-x="777" 
d="M118 648q-20 -28 -20 -119q0 -140 119 -140q49 0 76 16q21 23 21 120q0 73 -27 106t-89 33q-52 0 -80 -16zM113 655q20 14 55 29t60 15q75 0 110.5 -38.5t35.5 -119.5q0 -47 -23 -84t-52 -57q-68 -49 -116 -49q-143 0 -143 154q0 49 22 89t51 61zM478 290
q-20 -28 -20 -119q0 -140 119 -140q49 0 76 16q21 23 21 120q0 73 -27 106t-89 33q-52 0 -80 -16zM473 297q20 14 55 29t60 15q75 0 110.5 -38.5t35.5 -119.5q0 -47 -23 -84t-52 -57q-68 -49 -116 -49q-143 0 -143 154q0 49 22 89t51 61zM384 340q-39 -47 -86 -105.5
t-103.5 -129.5t-84.5 -106q-28 -6 -41 0q177 197 303 343q161 196 283 350q19 4 35 -2q-177 -193 -306 -350z" />
    <glyph glyph-name="ampersand" unicode="&#x26;" horiz-adv-x="839" 
d="M313 231q-34 37 -72 83q-63 -16 -89 -41t-29 -75q2 -58 50 -104.5t90 -46.5q39 0 73.5 25.5t59.5 69.5q-16 16 -45.5 48t-37.5 41zM598 -2q-57 0 -194 137q-21 -41 -82.5 -90.5t-113.5 -49.5t-98.5 50t-46.5 104q0 55 54 109t117 62l3 -2q-104 130 -104 183
q0 88 52.5 140t134.5 54q38 0 97 -13.5t75 -24.5q-4 -32 -5 -55q-5 -55 -5 -117q0 -12 -5.5 -12t-5.5 12q-6 90 -44 146t-108 56q-63 0 -97 -32t-34 -89q0 -37 31 -90t65 -94t97 -111q210 -234 295 -234q26 0 38 44.5t12 106.5q0 104 -32 149l-112 1q-85 0 -108 -3
q-5 -1 -6 0t2 5q6 7 17.5 23t19.5 25.5t12 9.5h138q66 0 90 6q6 1 7.5 0t-3.5 -6q-13 -11 -27 -32.5t-20 -27.5q42 -33 66.5 -68.5t24.5 -87.5q0 -60 -67 -122t-130 -62z" />
    <glyph glyph-name="quotesingle" unicode="'" horiz-adv-x="164" 
d="M82 709q11 0 20 -8.5t9 -20.5q0 -6 -6.5 -49t-12.5 -102.5t-6 -105.5q0 -4 -2.5 -6t-5 0t-2.5 6q0 46 -5.5 105.5t-11 102.5t-5.5 49q0 12 8.5 20.5t19.5 8.5z" />
    <glyph glyph-name="parenleft" unicode="(" horiz-adv-x="400" 
d="M102 262q0 157 72 302.5t188 224.5q9 7 13 -1q2 -4 -3 -8q-108 -76 -173.5 -220t-65.5 -298q0 -157 63 -302.5t170 -221.5q7 -6 1 -10q-5 -2 -10 1q-114 78 -184.5 226t-70.5 307z" />
    <glyph glyph-name="parenright" unicode=")" horiz-adv-x="400" 
d="M298 262q0 -159 -70.5 -307t-184.5 -226q-7 -5 -12 1q-3 4 3 8q107 76 170 221.5t63 302.5q0 154 -65.5 298t-173.5 220q-8 7 0 11q5 2 10 -2q114 -78 187 -224.5t73 -302.5z" />
    <glyph glyph-name="asterisk" unicode="*" horiz-adv-x="351" 
d="M145 430q0 1 6 21.5t12.5 48t7.5 42.5q-20 -13 -85 -78q-19 -10 -32.5 -8t-20.5 9q-4 8 2.5 22.5t23.5 24.5q1 1 21.5 6t47.5 13t40 15q-13 7 -40 15t-47.5 13t-21.5 6q-17 10 -23.5 24.5t-2.5 21.5q6 8 20 10t33 -8l4 -4q3 -4 8.5 -9.5l12.5 -12.5l14.5 -14.5
t15.5 -14.5t16 -13.5t14 -10.5q-1 15 -7.5 42.5t-12.5 48.5t-6 22q0 19 9.5 32t18.5 13t18.5 -13t9.5 -32q0 -2 -6.5 -23t-13 -47.5t-6.5 -42.5q6 4 13.5 10t15.5 13t16 15l15 15l12.5 12.5t8.5 9.5l4 4q19 10 33 8t20 -10q4 -7 -2.5 -21.5t-23.5 -24.5q-1 -1 -21.5 -6
t-47.5 -13t-41 -15q14 -7 41 -15t47.5 -13t21.5 -6q17 -10 23.5 -24.5t2.5 -22.5q-7 -7 -20.5 -9t-32.5 8q-1 0 -16 15.5t-36 35t-33 27.5q0 -16 6.5 -43t13 -47.5t6.5 -21.5q0 -19 -9.5 -32t-18.5 -13t-18.5 13t-9.5 32z" />
    <glyph glyph-name="plus" unicode="+" 
d="M268 416q4 5 12.5 5t11.5 -5q-7 -74 -7 -165q67 0 163 6q5 -4 5 -12.5t-5 -11.5q-126 7 -163 7q0 -93 7 -164q-3 -5 -11.5 -5t-12.5 5q3 48 3 164q-42 0 -163 -7q-5 3 -5 11.5t5 12.5q94 -6 163 -6q0 118 -3 165z" />
    <glyph glyph-name="comma" unicode="," horiz-adv-x="269" 
d="M116 -123q-4 -2 -6 -0.5t3 4.5q61 35 61 110q0 18 -6 33q-14 -24 -43 -24q-22 0 -37 15t-15 37q0 24 16 41t44 17q33 0 52 -27t19 -75q0 -41 -29.5 -77.5t-58.5 -53.5z" />
    <glyph glyph-name="hyphen" unicode="-" horiz-adv-x="538" 
d="M272 251q102 0 198 6q6 -4 6 -12.5t-5 -11.5q-98 7 -199 7q-108 0 -201 -7q-6 3 -5.5 11.5t4.5 12.5q102 -6 202 -6z" />
    <glyph glyph-name="period" unicode="." horiz-adv-x="252" 
d="M68 54q0 24 17 41t41 17q23 0 40.5 -17.5t17.5 -40.5q0 -24 -17 -41t-41 -17q-25 0 -41.5 16.5t-16.5 41.5z" />
    <glyph glyph-name="slash" unicode="/" horiz-adv-x="356" 
d="M188 247q-59 -142 -208 -518q-3 -1 -6.5 -2t-4.5 -1.5t-3 -1t-3 0t-3 1t-3.5 1.5l-4.5 3q39 86 223 521q32 82 108.5 272.5t103.5 258.5q14 4 28 -4q-90 -187 -227 -531z" />
    <glyph glyph-name="zero" unicode="0" horiz-adv-x="706" 
d="M381 29q80 0 130 24q40 43 55.5 113.5t15.5 180.5q0 319 -245 319q-88 0 -149 -33q-60 -66 -60 -283q0 -151 63.5 -236t189.5 -85zM344 -10q-289 0 -289 351q0 197 128 296q33 24 87 45t96 21q150 0 219 -88t69 -262q0 -102 -42.5 -186t-96.5 -119q-32 -23 -78.5 -40.5
t-92.5 -17.5z" />
    <glyph glyph-name="one" unicode="1" horiz-adv-x="257" 
d="M15 9h15q42 0 52 28.5t10 123.5v395q0 46 -12.5 56.5t-62.5 -4.5q-4 -1 -6.5 0.5t-2 5t4.5 4.5q14 5 27 10.5t25 12t20.5 11.5t19.5 13t15.5 11.5t15 12t12.5 9.5q2 2 10 -0.5t8 -6.5v-530q0 -94 10.5 -123t54.5 -29h17q3 0 4.5 -2t0 -4.5t-4.5 -2.5q-17 0 -62 2t-51 2
t-55 -2t-65 -2q-3 0 -4.5 2t0 4.5t4.5 2.5z" />
    <glyph glyph-name="two" unicode="2" horiz-adv-x="602" 
d="M219 -1q-29 0 -70 -0.5t-71 -1.5t-33 -1q-1 6 -1 17q0 18 3 21q121 102 217 190q105 97 149 165.5t44 148.5q0 74 -39.5 117.5t-117.5 43.5q-117 0 -164 -68t-47 -249q0 -4 -2.5 -6t-4.5 0t-2 6q0 68 -10 161t-10 94q0 21 11 22q3 1 22.5 7t24 7.5t22 6.5t24 6.5
t22.5 5.5t25 5.5l24 4t26.5 3.5t26 2t28.5 1q105 0 164.5 -44t59.5 -124q0 -32 -15.5 -64.5t-54.5 -74.5t-68.5 -68.5t-93.5 -82.5q-8 -7 -13 -11t-12 -10.5t-13 -11.5q-88 -78 -165 -155q251 0 303 2q62 1 96 29t43 94l10 68q0 3 3 4.5t5.5 -0.5t2.5 -5l-10 -69
q-29 -181 -31 -184q-4 -4 -44 -4q-10 0 -124 1t-140 1z" />
    <glyph glyph-name="three" unicode="3" horiz-adv-x="565" 
d="M75 2q-9 2 -10 5q0 3 3 4h5q63 -10 119 -10q249 0 249 215q0 61 -41.5 105t-96.5 44q-28 0 -57.5 -19.5t-51.5 -39t-31 -19.5q-7 0 -10.5 4t-4 9.5t0 11t1.5 10.5l2 5q113 37 180.5 98t67.5 133q0 64 -34.5 102t-106.5 38q-84 0 -134.5 -64.5t-50.5 -195.5q0 -4 -2 -6
t-4.5 0t-2.5 6q0 52 -2 98.5t-4 73t-2 29.5q0 21 11 22q139 48 223 48q85 0 138.5 -37.5t53.5 -97.5q0 -52 -57 -100.5t-165 -109.5q51 18 85 18q79 0 128 -47.5t49 -127.5q0 -94 -67 -158t-200 -64q-107 0 -181 17z" />
    <glyph glyph-name="four" unicode="4" horiz-adv-x="603" 
d="M58 274h236v286q-31 -38 -105.5 -127t-130.5 -159zM362 274h78q118 2 135 115l6 38q0 3 3 4.5t5 -0.5t2 -5l-6 -39q-5 -31 -12 -73t-11 -64t-5 -25q-5 -5 -57 -5h-138v-89v-50.5t4 -31.5t7.5 -22t17.5 -10t26.5 -6t42.5 -1q3 0 4.5 -2t0 -4.5t-4.5 -2.5q-16 0 -70.5 1
t-60.5 1t-70 -1t-80 -1q-3 0 -4.5 2t0 4.5t4.5 2.5q33 1 47 1.5t30.5 5.5t21 10.5t10 21t6 32.5t0.5 50v89h-214q-24 0 -57 -3q-14 -2 -13 5q1 11 32 49q19 23 36.5 45t31 39t30 39.5t25.5 34.5t26 38t24 35.5t27 41t26.5 41.5t31.5 49.5t33 52.5q12 20 27 23q28 8 39 1.5
t2 -25.5q-4 -8 -15 -25t-17.5 -32.5t-6.5 -33.5v-321z" />
    <glyph glyph-name="five" unicode="5" horiz-adv-x="559" 
d="M509 206q0 -97 -68.5 -159t-193.5 -62q-85 0 -159 17q-9 2 -10 5q0 3 3 4h5q63 -10 127 -10q109 0 162.5 59.5t53.5 148.5q0 73 -50.5 124t-131.5 51q-48 0 -86 -20t-89 -62q-4 -2 -9.5 1t-5.5 8l3 328q0 6 33 29t39 23t71.5 -1t91.5 -1h156q43 0 43 -4q0 -6 -8.5 -64
t-10.5 -91l-5 -71q0 -6 -5 -6q-4 0 -4 5l5 72q4 61 -19 81.5t-97 20.5h-222l-18 -292q90 73 174 73q107 0 166 -57.5t59 -149.5z" />
    <glyph glyph-name="six" unicode="6" horiz-adv-x="571" 
d="M40 268q0 71 36.5 152.5t115.5 160t184 117.5q5 2 7 -1t-3 -5q-71 -29 -124 -78.5t-81 -108t-41 -114.5t-13 -111q0 -108 58.5 -188.5t129.5 -80.5q61 0 98 22q27 39 37.5 75.5t10.5 91.5q0 90 -53.5 139.5t-123.5 49.5q-25 0 -60.5 -13.5t-57.5 -33.5q-6 -3 -7 0
q0 2 2 4q31 31 79 55t83 24q93 0 152.5 -52t59.5 -156q0 -90 -81 -171q-105 -59 -169 -59q-97 0 -168 73t-71 208z" />
    <glyph glyph-name="seven" unicode="7" horiz-adv-x="542" 
d="M224 1q-6 0 -61 -1t-68 -1q-5 0 -6 4q0 5 7 5h28q36 0 73 43.5t89 155.5l70 153q92 205 110 249h-273q-83 0 -105.5 -16.5t-26.5 -81.5l-6 -100q0 -8 -5.5 -7.5t-4.5 8.5l7 99q6 112 6 171q0 4 41 4h134q25 0 139 1t120 1q4 0 7 -33t0 -38q-72 -133 -133 -261l-70 -154
q-34 -75 -34 -138q0 -57 65 -57q9 0 20 1l11 2q6 0 6 -6q0 -5 -12 -5q-9 0 -65 1t-63 1z" />
    <glyph glyph-name="eight" unicode="8" horiz-adv-x="574" 
d="M410 552q0 127 -151 127q-58 0 -92 -16q-31 -47 -31 -97q0 -35 29.5 -68.5t55.5 -50t89 -50.5q15 -9 23 -13q77 74 77 168zM304 27q62 0 104 17q26 30 33.5 48t7.5 49q0 33 -13 61t-42.5 51.5t-52 37.5t-68 37.5t-63.5 34.5q-97 -62 -97 -168q0 -75 52 -121.5t139 -46.5z
M82 527q0 90 82 140q81 42 134 42q88 0 134.5 -42t46.5 -105q0 -28 -12.5 -54.5t-39 -52t-42.5 -38.5t-47 -35q40 -22 63.5 -37.5t50.5 -39t40 -49t13 -55.5q0 -103 -94 -161q-95 -50 -152 -50q-104 0 -159.5 51.5t-55.5 122.5q0 110 160 203q-61 37 -91.5 72t-30.5 88z" />
    <glyph glyph-name="nine" unicode="9" horiz-adv-x="578" 
d="M529 414q0 -47 -21 -106.5t-60.5 -121.5t-107 -118t-151.5 -87q-5 -2 -7 1t3 5q76 30 130 83t80 116t37 117t12 109q2 111 -52 187.5t-136 76.5q-58 0 -95 -22q-28 -41 -40.5 -77.5t-12.5 -89.5q0 -90 50 -140t118 -50q28 0 61.5 13t56.5 34q6 3 7 0q0 -2 -2 -4
q-32 -32 -79.5 -56.5t-84.5 -24.5q-91 0 -145.5 51.5t-54.5 156.5q0 94 80 174q105 59 171 59q102 0 172.5 -75t70.5 -211z" />
    <glyph glyph-name="colon" unicode=":" horiz-adv-x="252" 
d="M68 360q0 24 17 41t41 17q23 0 40.5 -17.5t17.5 -40.5q0 -24 -17 -41t-41 -17q-25 0 -41.5 16.5t-16.5 41.5zM68 54q0 24 17 41t41 17q23 0 40.5 -17.5t17.5 -40.5q0 -24 -17 -41t-41 -17q-25 0 -41.5 16.5t-16.5 41.5z" />
    <glyph glyph-name="semicolon" unicode=";" horiz-adv-x="269" 
d="M68 360q0 24 17 41t41 17q23 0 40.5 -17.5t17.5 -40.5q0 -24 -17 -41t-41 -17q-25 0 -41.5 16.5t-16.5 41.5zM116 -123q-4 -2 -6 -0.5t3 4.5q61 35 61 110q0 18 -6 33q-14 -24 -43 -24q-22 0 -37 15t-15 37q0 24 16 41t44 17q33 0 52 -27t19 -75q0 -41 -29.5 -77.5
t-58.5 -53.5z" />
    <glyph glyph-name="less" unicode="&#x3c;" 
d="M278 181q85 -38 150 -59q5 -15 -7 -20q-6 3 -150 68l-148 67q-2 0 -2 6t2 6q30 13 72.5 33t77.5 35q106 48 143 68q11 -8 8 -20q-44 -15 -146 -60q-43 -19 -136 -62q16 -7 38.5 -17t45 -20.5z" />
    <glyph glyph-name="equal" unicode="=" 
d="M280 162q-151 0 -172 -1q-13 6 -5 22q56 -7 176 -7q107 0 171 4q11 -8 3 -24q-40 6 -173 6zM280 317q-151 0 -172 -1q-11 8 -5 22q56 -7 176 -7q107 0 171 4q8 -11 3 -24q-41 6 -173 6z" />
    <glyph glyph-name="greater" unicode="&#x3e;" 
d="M284 307q-93 41 -146 59q-5 15 7 20q58 -28 146 -68l148 -67q2 0 2 -6t-2 -6q-30 -13 -72.5 -33t-77.5 -35q-111 -50 -146 -70q-11 8 -8 20q38 13 149 62q59 26 135 61q-15 7 -38 17.5t-45.5 21t-51.5 24.5z" />
    <glyph glyph-name="question" unicode="?" horiz-adv-x="395" 
d="M131 341q0 8 8 11q81 40 116.5 77.5t34.5 90.5q-1 57 -52.5 88.5t-151.5 31.5q-6 0 -6 6q0 5 6.5 28t15 53.5t11.5 41.5q6 10 6 -1q-9 -56 -9 -57q1 -4 18 -4q98 0 153 -43.5t55 -102.5q0 -58 -42.5 -110.5t-97.5 -79.5q0 -8 5 -73.5t4 -71.5q0 -3 -18.5 -14t-36.5 -20
t-18 -7v34t-0.5 69.5t-0.5 52.5zM120 54q0 24 17 41t42 17q23 0 40 -17.5t17 -40.5q0 -24 -17 -41t-41 -17q-25 0 -41.5 16.5t-16.5 41.5z" />
    <glyph glyph-name="at" unicode="@" horiz-adv-x="977" 
d="M360 60q30 9 123.5 105t156.5 182q-47 54 -66.5 69.5t-43.5 15.5q-46 0 -97 -55t-75 -132q-19 -65 -18 -114t20 -71zM790 -83l3 -2q-57 -57 -140 -96t-173 -39q-120 0 -216 44t-154 134t-58 212q0 108 46.5 203t120.5 157.5t163 98t176 35.5q77 0 141.5 -22t105.5 -56
t70 -77.5t41 -84t12 -77.5q0 -144 -93 -245t-225 -101q-8 0 -33 7t-29 11q-24 27 -27 71q-4 50 70 173q-112 -133 -244 -245q-5 -4 -22 -4t-19 4q-31 24 -34 88t23 128q39 95 127.5 158.5t153.5 63.5q32 0 50 -11.5t60 -55.5q55 55 60 61q6 4 9 3l2 -4q-48 -58 -110 -183
t-59 -175q0 -10 19.5 -38.5t30.5 -32.5q106 0 187 89t81 226q0 47 -20.5 98.5t-61 101t-113.5 82t-165 32.5q-84 0 -168 -33.5t-151.5 -91.5t-110 -144.5t-42.5 -183.5q0 -98 32.5 -174.5t90.5 -124t134 -72t166 -24.5q76 0 157 35t136 81z" />
    <glyph glyph-name="A" unicode="A" horiz-adv-x="711" 
d="M460 259l-149 349l-139 -351l170 1h118v1zM465 248l-117 -3q-26 0 -96.5 1.5t-82.5 1.5l-17 -42q-36 -97 -36 -149q0 -49 56 -49q4 0 15 1.5t13 1.5q7 0 7 -5q0 -6 -12 -6q-9 0 -57.5 1t-56.5 1q-5 0 -37 -1t-46 -1q-6 0 -6 5q0 4 6 4h4q40 0 72 60q37 63 66 142l193 482
q1 3 7 3h10q8 0 10 -3l182 -434q50 -120 76.5 -171t43 -65t42.5 -14h8q7 0 7 -4q0 -5 -6 -5q-16 0 -55.5 1.5t-45.5 1.5t-55.5 -1.5t-65.5 -1.5q-7 0 -8 5q2 3 5 4h21q28 0 30 19q5 38 -74 220z" />
    <glyph glyph-name="B" unicode="B" horiz-adv-x="605" 
d="M170 434v-67h114q96 0 143 38t47 126q0 86 -45.5 118t-147.5 32h-72q-30 0 -35.5 -18.5t-4.5 -123.5q1 -63 1 -105zM222 9h85q99 0 144.5 44t45.5 136q0 85 -47 126t-153 41h-127v-97q0 -182 7.5 -216t44.5 -34zM19 0q-6 0 -6 4.5t6 4.5h18q21 0 29.5 3.5t15.5 31t8 72
t1 143.5v175q0 99 -1 143.5t-8 72t-15.5 31t-29.5 3.5h-18q-6 0 -6 4.5t6 4.5q16 0 60.5 -1.5t50.5 -1.5t81.5 1.5t84.5 1.5q132 0 197.5 -37t65.5 -126q0 -139 -204 -166q102 -9 164.5 -53.5t62.5 -121.5q0 -189 -260 -189q-10 0 -98 1.5t-94 1.5t-50.5 -1.5t-60.5 -1.5z
" />
    <glyph glyph-name="C" unicode="C" horiz-adv-x="756" 
d="M133 346q0 -156 76.5 -251t210.5 -95q234 0 261 267h8l-12 -233q-101 -44 -255 -44q-162 0 -270.5 101.5t-108.5 254.5q0 154 113 255.5t270 101.5q62 0 135 -13t114 -31l12 -218h-9q-25 252 -250 252q-134 0 -214.5 -96t-80.5 -251z" />
    <glyph glyph-name="D" unicode="D" horiz-adv-x="733" 
d="M690 346q0 -152 -107.5 -249t-270.5 -97q-55 0 -90 1q-11 1 -32.5 1.5t-32.5 0.5l-141 -3q-7 0 -8 3q-1 2 2 3t6 1q32 0 44.5 7.5t19.5 34t11 91.5q2 30 2.5 80.5t-0.5 107.5t-1 65q0 22 -1.5 96.5t-1.5 103.5q0 68 -8.5 79.5t-57.5 11.5q-6 0 -6 4.5t6 4.5q4 0 58.5 -1
t63.5 -1q6 0 76.5 1t86.5 1q159 0 270.5 -97.5t111.5 -249.5zM601 346q0 154 -80.5 246t-214.5 92h-66q-51 0 -60 -33t-9 -217v-273q0 -113 -8 -147q10 0 67.5 -2t83.5 -2q135 0 211 90.5t76 245.5z" />
    <glyph glyph-name="E" unicode="E" horiz-adv-x="622" 
d="M171 434v-69h83q88 0 120 29t32 86v21q0 6 5 6t5 -6q0 -17 -2.5 -76.5t-2.5 -65.5q0 -7 2.5 -68t2.5 -69q0 -6 -5 -6t-5 6v15q0 57 -32 86.5t-120 29.5h-83v-192q0 -113 -8 -147q14 0 93.5 -1.5t95.5 -1.5q84 0 142.5 60.5t68.5 141.5l6 53q0 3 3 4.5t5.5 -0.5t2.5 -5
l-6 -54q-23 -193 -29 -204q-1 -2 -2 -3q-4 -4 -133 -4q-15 0 -69.5 0.5t-83.5 0.5q-16 1 -49.5 1.5t-50.5 0.5l-141 -3q-7 0 -8 3q-1 2 2 3t6 1q32 0 44.5 7.5t19.5 34t11 91.5q4 55 4 294q0 95 -1.5 143t-9.5 73.5t-17 29.5t-30 4h-18q-6 0 -6 4.5t6 4.5q16 0 60.5 -1.5
t50.5 -1.5q4 0 168 1.5t184 1.5q38 0 47 -4q4 -2 29 -184l4 -36q2 -5 -3 -5t-7 5l-5 36q-14 84 -69 129.5t-142 46.5h-127q-29 0 -34 -20t-4 -141v-86z" />
    <glyph glyph-name="F" unicode="F" horiz-adv-x="622" 
d="M134 3q-6 0 -48 -1.5t-58 -1.5q-6 0 -6 4.5t6 4.5h13q21 0 29.5 3.5t15.5 31t8 72t1 143.5v175q0 95 -1.5 143t-9.5 73.5t-17 29.5t-30 4h-18q-6 0 -6 4.5t6 4.5q9 0 52 -0.5t85 -0.5q110 0 188.5 1t114 1.5t41.5 0.5q42 0 53 -3q1 -2 3 -22t8 -77.5t15 -128.5l8 -66
q0 -3 -2.5 -5t-5.5 -0.5t-3 4.5l-8 65q-15 102 -67.5 160.5t-135.5 58.5h-156q-29 0 -34 -20t-4 -141v-86v-88h80q88 0 120 33t32 98v14q0 6 5 6t5 -6q0 -16 -2.5 -81t-2.5 -70q0 -8 2.5 -76t2.5 -76q0 -6 -5 -6t-5 6v16q0 64 -32 97t-120 33h-80v-75q0 -99 1 -144t8 -72
t15 -30.5t29 -3.5h37q6 0 6 -4.5t-6 -4.5q-16 0 -69 1.5t-58 1.5z" />
    <glyph glyph-name="G" unicode="G" horiz-adv-x="770" 
d="M428 693q-136 0 -215.5 -95t-79.5 -252q0 -156 76.5 -251t210.5 -95q103 0 201 56q3 5 3 130q0 90 -2 112q-24 6 -78 8q-60 4 -217 4q-4 0 -5 3q2 3 6 4q220 0 366 11q6 0 6 -8q-1 -96 -1 -322q0 -7 -8 -1q-37 30 -62 30q-14 0 -84.5 -18.5t-122.5 -18.5
q-162 0 -270.5 101.5t-108.5 254.5q0 154 113 255.5t270 101.5q62 0 135 -13t114 -31l12 -213q0 -4 -2 -6t-4.5 -0.5t-2.5 5.5q-24 248 -250 248z" />
    <glyph glyph-name="H" unicode="H" horiz-adv-x="696" 
d="M91 259v175q0 99 -1 143.5t-8 72t-15.5 31t-29.5 3.5h-13q-6 0 -6 4.5t6 4.5q16 0 58 -1.5t48 -1.5q5 0 50 1.5t61 1.5q6 0 6 -4.5t-6 -4.5h-20q-21 0 -29.5 -3.5t-15.5 -31t-8 -72t-1 -143.5v-80l184 2l178 -3v81q0 99 -1 143.5t-8 72t-15.5 31t-29.5 3.5h-21
q-6 0 -6 4.5t6 4.5q16 0 61 -1.5t51 -1.5t49 1.5t59 1.5q6 0 6 -4.5t-6 -4.5h-16q-21 0 -29 -3.5t-15 -30.5t-8 -72t-1 -144v-175q0 -99 1 -144t8 -72t15 -30.5t29 -3.5h16q6 0 6 -4.5t-6 -4.5q-16 0 -59 1.5t-49 1.5t-51 -1.5t-61 -1.5q-6 0 -6 4.5t6 4.5h21q21 0 29.5 3.5
t15.5 31t8 72t1 143.5v84l-177 -1q-107 0 -185 2v-85q0 -99 1 -143.5t8 -72t15.5 -31t29.5 -3.5h20q6 0 6 -4.5t-6 -4.5q-16 0 -61 1.5t-50 1.5q-6 0 -48 -1.5t-58 -1.5q-6 0 -6 4.5t6 4.5h13q21 0 29.5 3.5t15.5 31t8 72t1 143.5z" />
    <glyph glyph-name="I" unicode="I" horiz-adv-x="281" 
d="M102 259v175q0 99 -1 143.5t-8 72t-15.5 31t-29.5 3.5h-21q-6 0 -6 4.5t6 4.5q15 0 62 -1.5t52 -1.5q6 0 51.5 1.5t61.5 1.5q6 0 6 -4.5t-6 -4.5h-21q-21 0 -29.5 -3.5t-15.5 -31t-8 -72t-1 -143.5v-175q0 -99 1 -143.5t8 -72t15.5 -31t29.5 -3.5h21q6 0 6 -4.5t-6 -4.5
q-16 0 -61.5 1.5t-51.5 1.5q-5 0 -52 -1.5t-62 -1.5q-6 0 -6 4.5t6 4.5h21q21 0 29.5 3.5t15.5 31t8 72t1 143.5z" />
    <glyph glyph-name="J" unicode="J" horiz-adv-x="285" 
d="M188 434v-115q0 -12 0.5 -52t0.5 -54q0 -76 -7.5 -125.5t-31.5 -93t-47.5 -70t-76.5 -78.5q-18 -18 -46 -38t-39 -20q-9 0 -23 2q-27 7 -27 23q0 18 10 34.5t29 22.5q10 2 20 2q14 0 36.5 -0.5t25.5 -0.5q27 0 40 15q33 35 45.5 109t12.5 264v175q0 185 -7 217.5
t-46 32.5h-1h-26q-6 0 -6 4.5t6 4.5q16 0 65.5 -1.5t54.5 -1.5q6 0 51.5 1.5t62.5 1.5q6 0 6 -4.5t-6 -4.5h-20q-41 0 -48.5 -32t-7.5 -218z" />
    <glyph glyph-name="K" unicode="K" horiz-adv-x="668" 
d="M243 0q-3 0 -51 1t-56 1t-59.5 -1t-54.5 -1q-6 0 -6 4.5t6 4.5q32 0 46 2q11 11 14.5 28t5.5 62q3 55 3 200v133q0 99 -1 143.5t-8 72t-15.5 31t-29.5 3.5h-18q-6 0 -6 4.5t6 4.5q15 0 61.5 -1.5t51.5 -1.5t48.5 1.5t59.5 1.5q6 0 6 -4.5t-6 -4.5h-18q-21 0 -29.5 -3.5
t-16 -30.5t-8.5 -72.5t-1 -143.5v-140l180 194q116 123 116 172q-1 25 -39 25q-4 0 -13 -2t-10 -2q-9 0 -9 6t11 6q9 0 55 -1t54 -1q5 0 49 1t57 1q3 0 4.5 -2.5t0 -4.5t-4.5 -2h-2q-49 0 -93.5 -36t-166.5 -166l-96 -103q33 21 70 21t62 -13q18 -9 31 -21t25 -33
t18.5 -34.5t20 -47t19.5 -48.5q48 -120 75 -157t66 -37h12q9 0 9 -4q1 -2 -3 -4l-8 -1h-34q-20 0 -43.5 -2t-28.5 -2q-31 0 -50 24q-26 33 -69 151q-43 117 -61 150q-35 58 -73 59q-32 0 -63 -27l-68 -73v-21q0 -99 1 -143.5t8 -72t15.5 -31t29.5 -3.5h22q6 0 6 -4.5
t-6 -4.5z" />
    <glyph glyph-name="L" unicode="L" horiz-adv-x="609" 
d="M171 434v-273q0 -113 -8 -147q15 0 95 -1.5t96 -1.5q81 0 138.5 72t68.5 157l10 91q0 3 3 4.5t5.5 -0.5t2.5 -5l-10 -92q-25 -218 -31 -229q-1 -2 -2 -3q-6 -6 -133 -6q-15 0 -68.5 0.5t-82.5 0.5q-16 1 -49 1.5t-49 0.5l-141 -3q-7 0 -8 3q-1 2 2 3t6 1q32 0 44.5 7.5
t19.5 34t11 91.5q2 30 2.5 80.5t-0.5 107.5t-1 65q0 22 -1.5 96.5t-1.5 103.5q0 68 -8.5 79.5t-57.5 11.5q-6 0 -6 4.5t6 4.5q4 0 58.5 -1t63.5 -1q6 0 56 1t67 1q6 0 6 -4.5t-6 -4.5h-28q-51 0 -60 -33t-9 -217z" />
    <glyph glyph-name="M" unicode="M" horiz-adv-x="855" 
d="M403 211h-9q-4 0 -8 7l-275 401l-1 -360q0 -71 6.5 -120.5t15.5 -74t25 -38t27.5 -15.5t30.5 -2h14q3 0 4.5 -2t0 -4.5t-4.5 -2.5q-17 0 -71.5 1.5t-60.5 1.5t-35.5 -1.5t-45.5 -1.5q-5 0 -5 4q1 4 6 5h6q26 0 39.5 12t24 69t10.5 169q0 64 0.5 194t0.5 151q0 29 -13 43
q-34 38 -65 38h-5q-3 0 -4.5 2t0 4t4.5 2q46 0 76 1.5t41 3.5l11 2q7 0 10 -6q17 -31 40 -62l241 -355l203 316q8 13 17.5 28.5t15 24.5t11.5 19.5t10 15.5t8.5 10t8.5 7t8 2q7 0 57 -3.5t59 -3.5q6 0 6 -4.5t-6 -4.5h-15q-21 0 -29.5 -3.5t-15.5 -31t-8 -72t-1 -143.5v-175
q0 -99 1 -143.5t8 -72t15.5 -31t29.5 -3.5h15q6 0 6 -4.5t-6 -4.5q-16 0 -59 1.5t-48 1.5q-6 0 -51 -1.5t-61 -1.5q-6 0 -6 4.5t6 4.5h20q21 0 29.5 3.5t15.5 31t8 72t1 143.5v354q0 21 -5 20q-5 -2 -34 -46l-236 -369q-4 -7 -9 -7z" />
    <glyph glyph-name="N" unicode="N" horiz-adv-x="716" 
d="M3 685h-4q-3 0 -4.5 2t0 4t4.5 2q46 0 81 1t52 2l16 1q7 0 10 -6q10 -19 39 -53l416 -517v313q0 70 -8 119.5t-18 74.5t-27.5 38.5t-29.5 15.5t-31 2h-14q-6 0 -6 4.5t6 4.5q16 0 72 -1.5t62 -1.5t34 1.5t44 1.5q6 0 6 -4.5t-6 -4.5h-7q-28 0 -39 -11t-18 -64.5
t-7 -174.5v-427q0 -10 -8 -10q-9 0 -25 22l-482 601l-1 -361q0 -71 6.5 -120t15.5 -74t25.5 -38.5t27.5 -15.5t30 -2h14q3 0 4.5 -2t0 -4.5t-4.5 -2.5q-17 0 -71.5 1.5t-60.5 1.5t-35.5 -1.5t-45.5 -1.5q-5 0 -5 4q1 4 6 5h6q26 0 39.5 12t24 69t10.5 169l1 359q0 15 -16 31
q-36 36 -79 36z" />
    <glyph glyph-name="O" unicode="O" horiz-adv-x="794" 
d="M133 346q0 -157 67.5 -251.5t187.5 -94.5q123 0 198 96t75 250q0 156 -69.5 251.5t-189.5 95.5q-122 0 -195.5 -96t-73.5 -251zM43 346q0 153 105 255t250 102q143 0 247.5 -103t104.5 -254q0 -150 -107 -253t-251 -103q-143 0 -246 102.5t-103 253.5z" />
    <glyph glyph-name="P" unicode="P" horiz-adv-x="613" 
d="M167 533v-227h126q93 0 143.5 52t50.5 144q0 181 -193 181h-88q-28 0 -33.5 -20.5t-5.5 -129.5zM144 2q-9 0 -63.5 -1t-58.5 -1q-6 0 -6 4.5t6 4.5q16 0 46 2q11 11 14.5 28t5.5 62q3 55 3 200v133q0 99 -1 143.5t-8 72t-15.5 31t-29.5 3.5h-18q-6 0 -6 4.5t6 4.5
q16 0 60.5 -1.5t50.5 -1.5t88 1.5t91 1.5q123 0 193.5 -50t70.5 -142t-72 -149t-186 -57q-51 1 -148 1v-36q0 -120 5 -174t13.5 -65.5t28.5 -11.5h51q6 0 6 -4.5t-6 -4.5q-16 0 -65.5 1t-55.5 1z" />
    <glyph glyph-name="Q" unicode="Q" horiz-adv-x="794" 
d="M133 351q0 -155 67.5 -249t187.5 -94q122 0 197 95t75 248q0 154 -69 248t-190 94q-122 0 -195 -94.5t-73 -247.5zM43 351q0 151 105 251.5t249 100.5t248 -101t104 -251q0 -138 -92.5 -236t-224.5 -113q0 -87 19.5 -128t77.5 -41q42 0 82 81q2 4 6 4t6 -3t0 -7
q-61 -103 -150 -103q-66 0 -95.5 46.5t-29.5 151.5q-129 16 -217 113t-88 235z" />
    <glyph glyph-name="R" unicode="R" horiz-adv-x="642" 
d="M167 533v-163q19 1 84 1q66 0 117.5 40t51.5 118q0 79 -41.5 117t-133.5 38h-39q-28 0 -33.5 -21t-5.5 -130zM132 2q-8 0 -57.5 -1t-52.5 -1q-6 0 -6 4.5t6 4.5q32 0 46 2q11 11 14.5 28t5.5 62q3 55 3 200v133q0 99 -1 143.5t-8 72t-15.5 31t-29.5 3.5h-18q-6 0 -6 4.5
t6 4.5q16 0 60.5 -1.5t50.5 -1.5t60.5 1.5t62.5 1.5q256 0 256 -164q0 -60 -62.5 -103.5t-150.5 -58.5q64 -2 100.5 -34t84.5 -130q43 -90 67.5 -129.5t44 -52t51.5 -12.5h7q7 0 7.5 -4.5t-7.5 -4.5h-36q-20 0 -42 -2t-27 -2q-31 0 -51 24q-34 39 -83 151q-29 67 -49 103
t-44.5 55.5t-46.5 24.5t-64 6h-41v-101q0 -99 1 -143.5t8 -72t15.5 -31t29.5 -3.5h20q6 0 6 -4.5t-6 -4.5q-16 0 -60 1t-49 1z" />
    <glyph glyph-name="S" unicode="S" horiz-adv-x="561" 
d="M277 703q104 0 218 -26q10 -4 11 -11q1 -8 -0.5 -34t-3.5 -84.5t-2 -125.5q0 -6 -2.5 -8.5t-5 0t-2.5 8.5q1 51 -3 88.5t-17 73.5t-36 58.5t-62.5 36.5t-94.5 14q-88 0 -129.5 -36t-41.5 -97q0 -34 15.5 -61t50.5 -50t62 -36t78 -34q40 -16 63 -27t54.5 -29.5t48.5 -37
t30 -45.5t13 -58q0 -85 -63 -138.5t-155 -53.5q-119 0 -233 30q-10 3 -10 10q0 23 -0.5 127.5t-0.5 128.5q0 7 2.5 10t5.5 0t3 -10q0 -144 55.5 -215t177.5 -71q79 0 118.5 36.5t39.5 98.5q0 24 -7 44t-24 37.5t-30.5 29t-44 26.5t-45 22t-51.5 22q-50 20 -81 35t-66 39
t-52 54.5t-17 68.5q0 87 67.5 138.5t166.5 51.5z" />
    <glyph glyph-name="T" unicode="T" horiz-adv-x="658" 
d="M368 694v-435q0 -99 1 -143.5t8 -72t15.5 -31t29.5 -3.5h18q6 0 6 -4.5t-6 -4.5q-16 0 -60.5 1.5t-49.5 1.5q-6 0 -50.5 -1.5t-60.5 -1.5q-6 0 -6 4.5t6 4.5h18q21 0 29.5 3.5t15.5 31t8 72t1 143.5v435q-28 -1 -82 -1q-76 0 -113 -50t-52 -154l-8 -57q-3 -7 -9 -5
q-1 2 -1 5l8 57q6 46 7.5 98t1.5 80t2 29q16 7 122 7q10 0 74 -1t88 -1q15 0 59 1t102 1h1q106 0 122 -7q2 -1 2 -29t1.5 -80t8.5 -98l7 -57q2 -5 -2 -5q-4 -1 -7 5l-9 57q-17 106 -53 155.5t-113 49.5h-80z" />
    <glyph glyph-name="U" unicode="U" horiz-adv-x="665" 
d="M567 244v190q0 70 -7.5 119.5t-17.5 74.5t-27 38.5t-29 15.5t-31 2h-9q-6 0 -6 4.5t6 4.5q16 0 68.5 -1.5t58.5 -1.5t35 1.5t45 1.5q6 0 6 -4.5t-6 -4.5h-7q-21 0 -31 -4.5t-19 -28.5t-12 -74.5t-3 -142.5v-190q0 -105 -69 -179.5t-185 -74.5q-110 0 -174.5 70t-64.5 192
v182q0 99 -1 144t-8 72t-15 30.5t-29 3.5h-14q-6 0 -6 4.5t6 4.5q16 0 58 -1.5t48 -1.5q5 0 49.5 1.5t60.5 1.5q6 0 6 -4.5t-6 -4.5h-18q-21 0 -29.5 -4t-15.5 -30t-8.5 -72.5t-1.5 -143.5l-1 -155q0 -121 57 -189t157 -68q81 0 135.5 64t54.5 158z" />
    <glyph glyph-name="V" unicode="V" horiz-adv-x="692" 
d="M385 96q3 0 5 5l148 386q36 97 36 149q0 22 -15 35.5t-41 13.5q-4 0 -15.5 -2t-12.5 -2q-7 0 -7 6t12 6q9 0 57.5 -1t56.5 -1q5 0 37 1t46 1q7 0 4 -5q-2 -3 -6 -4h-2q-40 0 -72 -60q-34 -58 -67 -142l-184 -482q-1 -3 -7 -3h-10q-6 0 -8 3l-191 483q-65 147 -83.5 174
t-57.5 27h-8q-7 0 -7 4q0 5 6 5q16 0 54.5 -1.5t44.5 -1.5t55.5 1.5t65.5 1.5q7 0 8 -5q-2 -3 -5 -4h-21q-32 0 -35 -17q-5 -29 64 -184q1 -3 3 -7l147 -375q2 -5 5 -5z" />
    <glyph glyph-name="W" unicode="W" horiz-adv-x="982" 
d="M371 96l115 254l-78 183q-35 79 -51 107t-28.5 36t-40.5 8h-8q-7 0 -7 4q0 5 6 5q16 0 54.5 -1.5t44.5 -1.5t50.5 1.5t60.5 1.5q6 0 6 -4.5t-6 -4.5h-8q-34 0 -34 -25q0 -40 41 -137l43 -100l41 100q30 68 30 115q0 48 -35 48q-5 0 -14 -1.5t-10 -1.5q-6 0 -6 5q0 6 11 6
q9 0 47 -1t46 -1q5 0 47 1t55 1q5 0 6 -4q-2 -4 -6 -5h-26q-38 0 -67.5 -37.5t-65.5 -128.5l-47 -111l136 -316q2 -5 5 -5q2 0 4 5l152 396q35 94 35 148q0 50 -51 50q-4 0 -15 -2t-13 -2q-7 0 -7 6t12 6q10 0 57 -1t55 -1q6 0 38.5 1t46.5 1q5 0 6 -4q-2 -4 -6 -5h-3
q-36 0 -68.5 -47.5t-73.5 -154.5l-187 -483q-2 -3 -7 -3h-10q-6 0 -7 3l-144 335l-150 -334q-2 -3 -6 -3h-8q-6 0 -8 3l-184 485q-39 100 -59 139t-35 49.5t-44 10.5h-2q-6 0 -6 4q0 5 5 5q16 0 51.5 -1.5t41.5 -1.5t65 1.5t75 1.5q7 0 7 -5q-1 -4 -6 -4h-26q-42 0 -44 -28
q0 -32 74 -222l129 -338q2 -5 5 -5q2 0 4 5z" />
    <glyph glyph-name="X" unicode="X" horiz-adv-x="683" 
d="M303 502l65 -103l69 95q80 111 80 161q0 29 -42 29q-5 0 -17.5 -1.5t-13.5 -1.5q-7 0 -5 5q2 6 14 6q8 0 62.5 -1t62.5 -1q6 0 38.5 1t45.5 1q6 0 6 -4.5t-6 -4.5h-2q-52 0 -96 -53q-44 -44 -116 -141l-74 -100l114 -181q59 -95 93 -138.5t50 -52.5t42 -9h9q8 0 8 -4
q0 -5 -6 -5q-18 0 -58 1.5t-46 1.5t-58.5 -1.5t-68.5 -1.5q-8 0 -9 5q1 3 4 4h22q33 0 33 17q1 30 -101 185q-2 2 -4 5l-76 121l-97 -134q-75 -104 -75 -147q0 -20 13.5 -34t33.5 -14q10 0 28 3l18 2q6 0 5 -7q-2 -6 -15 -6q-9 0 -74.5 1t-73.5 1q-5 0 -38 -1t-48 -1
q-5 0 -6 4q0 5 7 5h7q40 0 80 41.5t120 149.5q2 3 3.5 5t2.5 4l102 139l-84 135q-50 80 -73.5 115t-44.5 57.5t-32 25.5t-34 3h-8q-9 0 -9 4q0 5 7 5q17 0 57 -1.5t46 -1.5t57.5 1.5t69.5 1.5q7 0 8 -5q-1 -3 -4 -4h-22q-30 0 -32 -15q-3 -28 86 -166z" />
    <glyph glyph-name="Y" unicode="Y" horiz-adv-x="615" 
d="M459 509l-110 -192v-58q0 -99 1 -143.5t8 -72t15.5 -31t29.5 -3.5h18q6 0 6 -4.5t-6 -4.5q-16 0 -59.5 1.5t-49.5 1.5q-5 0 -49.5 -1.5t-60.5 -1.5q-6 0 -6 4.5t6 4.5h18q21 0 29.5 3.5t15.5 31t8 72t1 143.5v55l-108 195q-60 108 -88.5 141.5t-65.5 33.5h-8q-7 0 -7 4
q0 5 6 5q16 0 54.5 -1.5t44.5 -1.5t55.5 1.5t65.5 1.5q7 0 8 -5q-2 -3 -5 -4h-21q-19 0 -25.5 -8.5t0 -31.5t22 -54t45.5 -86l95 -175l106 183q11 19 21.5 44t17.5 56t-5 52t-46 21q-4 0 -15 -2t-13 -2q-7 0 -7 6t12 6q9 0 53 -1t52 -1q5 0 50.5 1t58.5 1q7 0 4 -5
q-2 -3 -6 -4h-2q-26 0 -63.5 -38.5t-60.5 -73t-40 -63.5z" />
    <glyph glyph-name="Z" unicode="Z" horiz-adv-x="625" 
d="M83 505l-10 -106q0 -3 -3 -4.5t-6 0.5t-3 5l11 105q15 180 22 184q9 4 48 4q21 0 172 -1.5t156 -1.5q6 0 41 1.5t50 1.5q9 0 11 -1t0 -9l-443 -669q17 0 113 -1.5t112 -1.5q83 0 139 60.5t65 141.5l7 99q0 3 3 4.5t5 -0.5t2 -5l-6 -100q-16 -199 -24 -207q-4 -4 -133 -4
q-14 0 -72.5 0.5t-91.5 0.5q-18 1 -55.5 1.5t-56.5 0.5l-98 -6q-10 0 0 16l441 668h-185q-88 -1 -144.5 -47t-66.5 -129z" />
    <glyph glyph-name="bracketleft" unicode="[" horiz-adv-x="400" 
d="M111 -270l3 516l-3 525q0 8 7 8q23 0 72 -0.5t75 -0.5q23 0 68 0.5t69 0.5q3 0 4.5 -2.5t0 -5t-4.5 -2.5q-26 -1 -75.5 0t-64.5 1h-115q-7 0 -7 -3l1 -521l-1 -512q0 -3 7 -3h115q15 0 64.5 1t75.5 0q3 0 4.5 -2.5t0 -5t-4.5 -2.5q-24 0 -69 0.5t-68 0.5q-26 0 -75 -0.5
t-72 -0.5q-7 0 -7 8z" />
    <glyph glyph-name="backslash" unicode="\" horiz-adv-x="356" 
d="M179 247q-137 344 -227 531q14 8 28 4q27 -68 103.5 -258.5t108.5 -272.5q149 -362 223 -521q-3 -2 -5 -3t-3.5 -2t-4 -0.5t-3.5 0.5t-5 1.5t-7 2.5q-149 376 -208 518z" />
    <glyph glyph-name="bracketright" unicode="]" horiz-adv-x="400" 
d="M286 246l3 -516q0 -8 -7 -8q-23 0 -72 0.5t-75 0.5q-23 0 -68 -0.5t-69 -0.5q-3 0 -4.5 2.5t0 5t4.5 2.5q26 1 75.5 0t64.5 -1h115q7 0 7 3l-1 512l1 521q0 3 -7 3h-115q-15 0 -64.5 -1t-75.5 0q-3 0 -4.5 2.5t0 5t4.5 2.5q24 0 69 -0.5t68 -0.5q26 0 75 0.5t72 0.5
q7 0 7 -8z" />
    <glyph glyph-name="asciicircum" unicode="^" horiz-adv-x="809" 
d="M420 443q-4 4 -7 0l-82 -122q-14 -19 -34 -19t-20 14q0 9 18 29q50 57 117 107q4 4 9 0q72 -55 121 -97q20 -19 20 -29q0 -7 -6.5 -14t-16.5 -7q-20 0 -35 21q-14 20 -84 117z" />
    <glyph glyph-name="underscore" unicode="_" horiz-adv-x="678" 
d="M337 -20q173 0 271 6q5 -4 5 -12.5t-5 -11.5q-126 7 -270 7t-270 -7q-5 3 -5 11.5t5 12.5q98 -6 269 -6z" />
    <glyph glyph-name="grave" unicode="`" horiz-adv-x="809" 
d="M479 537q-31 32 -89 77l-59 45q-12 9 -12 17q0 16 3 19t18 3q18 0 24 -6q3 -3 22.5 -31t47 -62.5t50.5 -55.5q3 -3 3 -4q0 -4 -4 -4q-2 0 -4 2z" />
    <glyph glyph-name="a" unicode="a" horiz-adv-x="514" 
d="M102 130q0 -39 33 -68t71 -29t92.5 52t61.5 81q6 78 6 144v21l-82 -35q-111 -46 -146.5 -78.5t-35.5 -87.5zM156 -11q-58 0 -91 32t-33 80q0 108 250 205l83 32q-4 92 -27.5 127.5t-79.5 35.5q-30 0 -54 -14t-34.5 -28t-24 -39.5t-16.5 -29.5q-12 -18 -45 -18
q-40 0 -40 23q0 25 35 47q37 25 92 46.5t103 21.5q79 0 124 -44t45 -138q0 -37 -4 -119.5t-4 -99.5q0 -85 28 -85q12 0 28.5 18.5t25.5 36.5q2 4 6.5 3.5t6 -4t-0.5 -7.5q-14 -22 -53 -51.5t-65 -29.5q-57 0 -57 71q0 54 4 82q-26 -44 -90.5 -99t-111.5 -55z" />
    <glyph glyph-name="b" unicode="b" horiz-adv-x="592" 
d="M309 12q82 0 126 58.5t44 168.5q0 61 -20 114t-63.5 88.5t-102.5 35.5q-42 0 -83.5 -23.5t-67.5 -62.5v-285q82 -94 167 -94zM67 8v673q0 59 -13.5 69t-50.5 -1q-5 -1 -6 3t4 6h2q18 3 36.5 10t29.5 13t29 17t26 15q2 2 10 -0.5t8 -6.5v-404q35 51 88.5 79.5t111.5 28.5
q87 0 149 -66.5t62 -168.5q0 -120 -87 -202.5t-199 -82.5q-86 0 -152 60q-37 -51 -43 -51q-5 0 -5 9z" />
    <glyph glyph-name="c" unicode="c" horiz-adv-x="542" 
d="M102 275q0 -100 64 -164.5t165 -64.5q70 0 120 33.5t89 103.5q3 5 7 4q5 -2 1 -7q-45 -82 -118 -136t-153 -54q-106 0 -173 67t-67 173q0 108 87.5 194t197.5 86q70 0 118.5 -23.5t48.5 -51.5q0 -15 -13.5 -28t-35.5 -13q-13 0 -29 14.5t-30 32.5t-41 32.5t-60 14.5
q-77 0 -127.5 -57t-50.5 -156z" />
    <glyph glyph-name="d" unicode="d" horiz-adv-x="599" 
d="M281 488q-83 0 -129 -57t-46 -166q0 -60 21 -114t66 -91t104 -37q45 0 86 26t68 69v271q-30 30 -46.5 45t-53 34.5t-70.5 19.5zM451 463v218q0 61 -12.5 72.5t-53.5 4.5q-5 -1 -6 3t4 6h2q54 9 121 46q2 2 11 -0.5t9 -6.5v-687q0 -76 7.5 -93t43.5 -17q6 0 6 -4.5
t-6 -4.5q-74 0 -121 -10q-12 -3 -12 9q0 2 1.5 16t3.5 38t2 49q-36 -53 -90.5 -82.5t-114.5 -29.5q-87 0 -148.5 66.5t-61.5 168.5q0 119 87.5 202t199.5 83q67 0 128 -47z" />
    <glyph glyph-name="e" unicode="e" horiz-adv-x="516" 
d="M350 356q31 0 40 9q9 11 9 32q0 32 -31 61.5t-84 29.5q-66 0 -113 -34.5t-67 -101.5q62 0 140.5 2t105.5 2zM285 -10q-113 0 -182 67t-69 173q0 111 86 195.5t192 84.5q51 0 88.5 -14.5t55.5 -36.5t25 -43.5t5 -40.5q-5 -31 -42 -31h-342q-8 -40 -8 -77
q0 -92 70.5 -155.5t171.5 -63.5q87 0 147 49.5t104 144.5q4 11 8 7q1 -3 -1 -9q-45 -105 -124.5 -177.5t-184.5 -72.5z" />
    <glyph glyph-name="f" unicode="f" horiz-adv-x="296" 
d="M249 500h10q35 0 35 -2q0 -3 -6 -10.5t-20.5 -22t-20.5 -21.5q-13 0 -46 0.5t-51 0.5v-202q0 -86 1 -133q0 -73 9.5 -87t54.5 -14q6 0 6 -4.5t-6 -4.5q-17 0 -55.5 1t-44.5 1t-43 -1t-54 -1q-6 0 -6 4.5t6 4.5q41 0 49.5 16t8.5 85q-1 60 -1 161v164v10h-41q-14 0 -14 6
l35 48h26q24 114 107 198t167 84q39 0 70.5 -8t31.5 -18q0 -15 -16 -33t-38 -18q-13 0 -62 9.5t-82 9.5q-108 0 -109 -224q15 0 47.5 0.5t51.5 0.5z" />
    <glyph glyph-name="g" unicode="g" horiz-adv-x="502" 
d="M232 167q61 0 93.5 41.5t32.5 120.5q0 68 -33 118.5t-89 50.5q-128 0 -128 -160q0 -76 31.5 -123.5t92.5 -47.5zM223 -249h4q97 0 175 46t78 112q0 47 -38.5 67t-124.5 20h-130q-66 -20 -105.5 -56t-39.5 -78q0 -54 47 -82.5t134 -28.5zM465 484q-10 0 -82 9t-113 9v-2
q77 -11 119.5 -56.5t42.5 -114.5q0 -78 -59.5 -125t-151.5 -47h-18q-118 -10 -118 -54q0 -27 30 -35t103 -8h134q80 0 118.5 -31t38.5 -77q0 -62 -53.5 -122.5t-134 -97t-158.5 -36.5q-77 0 -121 35.5t-44 91.5q0 54 50 101.5t117 72.5q-133 5 -133 67q0 33 40.5 60
t101.5 37q-66 12 -103.5 54t-37.5 112q0 76 60.5 128.5t148.5 52.5q58 0 147 19t92 19q29 0 29 -15t-13 -31t-32 -16z" />
    <glyph glyph-name="h" unicode="h" 
d="M121 2q-6 0 -43 -1t-53 -1q-6 0 -6 4.5t6 4.5q32 0 38.5 17.5t6.5 92.5v562q0 43 -5.5 60.5t-19.5 20t-39 -2.5q-5 -1 -6 3t4 6h2q56 10 121 45q2 2 10 -0.5t8 -6.5v-403q80 107 183 107q163 0 163 -203v-257q0 -28 10 -35t38 -6q6 0 6 -4.5t-6 -4.5q-3 0 -41.5 1
t-47.5 1q-6 0 -39 -1t-49 -1q-6 0 -6 4.5t6 4.5q25 0 34.5 5t14 27t4.5 76v200q0 86 -34 124.5t-86 38.5q-47 0 -80.5 -20.5t-69.5 -68.5v-382h61q6 0 6 -4.5t-6 -4.5q-3 0 -39.5 1t-45.5 1z" />
    <glyph glyph-name="i" unicode="i" horiz-adv-x="226" 
d="M57 648q0 22 15 37.5t37 15.5t37.5 -15.5t15.5 -37.5t-15.5 -37t-37.5 -15t-37 15t-15 37zM75 110v267q0 54 -12 65t-52 3q-6 -2 -7.5 2t4.5 6q62 13 125 57q2 2 10 -0.5t8 -6.5v-393q0 -66 9.5 -83.5t50.5 -17.5q6 0 6 -4.5t-6 -4.5q-16 0 -53 1t-43 1t-45.5 -1
t-55.5 -1q-6 0 -6 4.5t6 4.5q42 0 51.5 17.5t9.5 83.5z" />
    <glyph glyph-name="j" unicode="j" horiz-adv-x="223" 
d="M54 648q0 22 15 37.5t37 15.5t37.5 -15.5t15.5 -37.5t-15.5 -37t-37.5 -15t-37 15t-15 37zM148 503l1 -454q-2 -60 -28 -111.5t-78 -114.5q-68 -84 -107 -84q-4 0 -18 2q-22 4 -22 18t12.5 30.5t28.5 21.5q8 2 16 2q12 0 29 -0.5t19 -0.5q20 0 32 12l5 6q5 5 6.5 7.5
t6 11.5t7 17.5t6 24t5.5 33t3.5 43t1.5 55.5v355q0 54 -13 65t-53 3q-6 -2 -7.5 2t4.5 6q62 13 125 57q2 2 10 -0.5t8 -6.5z" />
    <glyph glyph-name="k" unicode="k" horiz-adv-x="552" 
d="M560 0h-94q-23 0 -38 10q-35 22 -98 133l-82 137l-103 -105v-166h61q6 0 6 -4.5t-6 -4.5q-3 0 -39.5 1t-45.5 1q-6 0 -43 -1t-53 -1q-6 0 -6 4.5t6 4.5q32 0 38.5 17.5t6.5 92.5v562q0 43 -5.5 60.5t-19.5 20t-39 -2.5q-5 -1 -6 3t4 6h2q56 10 121 45q2 2 10 -0.5t8 -6.5
v-619l157 162q85 88 63 125q-9 16 -38 16q-3 0 -4.5 2t0 4.5t4.5 2.5q15 0 55 -1t45 -1q8 0 57 1t52 1t4.5 -2.5t0 -4.5t-4.5 -2q-47 0 -100 -35t-127 -112l-13 -13l97 -154q58 -93 96.5 -130t70.5 -37q5 0 6 -4q-1 -4 -6 -5z" />
    <glyph glyph-name="l" unicode="l" horiz-adv-x="217" 
d="M121 2q-6 0 -43 -1t-53 -1q-6 0 -6 4.5t6 4.5q32 0 38.5 17.5t6.5 92.5v562q0 43 -5.5 60.5t-19.5 20t-39 -2.5q-5 -1 -6 3t4 6h2q56 10 121 45q2 2 10 -0.5t8 -6.5v-687q0 -78 9 -94t50 -16q6 0 6 -4.5t-6 -4.5q-16 0 -46.5 1t-36.5 1z" />
    <glyph glyph-name="m" unicode="m" horiz-adv-x="891" 
d="M26 0q-6 0 -6 4.5t6 4.5q19 0 26.5 1t13.5 14t6.5 31.5t0.5 63.5v258q0 34 -46 76q-5 5 0 6q49 18 73 42q2 2 6 -1q39 -39 40 -100q39 55 81 82.5t97 27.5q117 0 152 -113q41 57 83 85t98 28q74 0 120.5 -47t46.5 -156v-257q0 -29 7.5 -35t43.5 -6q6 0 6 -4.5t-6 -4.5
q-3 0 -43 1t-49 1q-6 0 -46 -1t-57 -1q-6 0 -6 4.5t6 4.5q51 0 60 14t9 94v200q0 86 -36 124.5t-89 38.5q-35 0 -63 -14t-43 -30.5t-38 -48.5v-337q0 -28 11 -34.5t49 -6.5q6 0 6 -4.5t-6 -4.5q-3 0 -45 1t-51 1q-6 0 -44.5 -1t-55.5 -1q-6 0 -6 4.5t6 4.5h26t16.5 5t11 8.5
t5 20t2.5 29.5v45v200q0 87 -31.5 125t-82.5 38q-46 0 -77.5 -21t-66.5 -70v-380h59q6 0 6 -4.5t-6 -4.5q-3 0 -38 1t-44 1q-6 0 -43.5 -1t-54.5 -1z" />
    <glyph glyph-name="n" unicode="n" horiz-adv-x="562" 
d="M495 307v-209q0 -43 5.5 -62.5t13.5 -23t29 -3.5q6 0 6 -4.5t-6 -4.5q-3 0 -41.5 1t-47.5 1q-6 0 -37.5 -1t-47.5 -1q-6 0 -6 4.5t6 4.5q32 0 42 16t10 79l-1 213q0 86 -35 124.5t-86 38.5q-46 0 -80.5 -21.5t-70.5 -69.5v-380h52q6 0 6 -4.5t-6 -4.5q-3 0 -35 1t-41 1
q-6 0 -43 -1t-53 -1q-6 0 -6 4.5t6 4.5q32 0 38.5 17.5t6.5 92.5v258q0 34 -46 76q-5 5 0 6q49 18 73 42q2 2 6 -1q36 -36 41 -99q82 109 185 109q163 0 163 -203z" />
    <glyph glyph-name="o" unicode="o" horiz-adv-x="581" 
d="M301 1q79 0 121.5 63.5t42.5 176.5q0 100 -49.5 179.5t-127.5 79.5q-85 0 -127 -64.5t-42 -178.5q0 -100 50 -178t132 -78zM284 -10q-107 0 -177.5 69t-70.5 181q0 111 75 190.5t189 79.5q107 0 176.5 -69.5t69.5 -183.5q0 -101 -76 -184t-186 -83z" />
    <glyph glyph-name="p" unicode="p" horiz-adv-x="596" 
d="M147 104q26 -26 45 -42t53.5 -33t67.5 -17q82 0 126 58.5t44 168.5q0 61 -20 114t-63.5 88.5t-102.5 35.5q-42 0 -82.5 -22.5t-66.5 -61.5q0 -38 -0.5 -132t-0.5 -157zM148 507v-102q35 49 88 77t110 28q87 0 149 -66.5t62 -168.5q0 -120 -87 -202.5t-199 -82.5
q-67 0 -124 37v-290h71q6 0 6 -4.5t-6 -4.5q-2 0 -48.5 1t-54.5 1q-6 0 -52.5 -1t-62.5 -1q-6 0 -6 4.5t6 4.5q51 0 62.5 18t11.5 99v528q0 42 -7 58t-22.5 15t-40.5 -5q-5 -1 -6 3q-1 5 6 6q23 2 43.5 10t50 26t32.5 19q2 2 10 -0.5t8 -6.5z" />
    <glyph glyph-name="q" unicode="q" horiz-adv-x="589" 
d="M278 488q-82 0 -127.5 -57t-45.5 -166q0 -92 53 -167t137 -75q42 0 83 23t67 63v285q-19 19 -32.5 31t-36.5 29t-48 25.5t-50 8.5zM520 497v-625q0 -60 13 -69t51 2q5 1 6 -3q1 -5 -6 -6q-18 -3 -36 -10t-29.5 -13.5t-29 -17t-25.5 -14.5q-2 -2 -10.5 0.5t-8.5 6.5v347
q-36 -50 -89 -77.5t-111 -27.5q-93 0 -151.5 65t-58.5 170q0 120 86.5 202.5t198.5 82.5q82 0 150 -59q38 53 44 53t6 -7z" />
    <glyph glyph-name="r" unicode="r" horiz-adv-x="327" 
d="M215 493q26 17 57 17q45 0 45 -18q0 -16 -13.5 -34t-36.5 -18h-37q-54 0 -66.5 -16t-12.5 -80v-335h61q6 0 6 -4.5t-6 -4.5q-3 0 -41.5 1t-47.5 1q-6 0 -46 -1t-56 -1q-6 0 -6 4.5t6 4.5q37 0 46.5 17t9.5 93v258q0 34 -46 76q-5 5 0 6q43 16 69 42q2 2 6 -1
q37 -35 43 -92q13 48 66 85z" />
    <glyph glyph-name="s" unicode="s" horiz-adv-x="444" 
d="M39 361q0 72 57 110.5t128 38.5q37 0 61.5 -2t60 -8t45.5 -7q7 -1 7 -8q0 -16 -2.5 -86.5t-2.5 -88.5q0 -6 -4 -6t-4 6q0 95 -37.5 143.5t-122.5 48.5q-62 0 -100 -24t-38 -63q0 -19 9.5 -36t22.5 -28t37 -23t41.5 -18.5t47.5 -16.5q35 -12 51.5 -18.5t44 -21t40.5 -27.5
t24 -34.5t11 -47.5q0 -66 -51.5 -110t-127.5 -44q-36 0 -69 4.5t-50.5 9t-42 12.5t-31.5 10q-7 1 -7 14q0 3 1.5 19t3 56t1.5 103q0 4 2 6t4 0t2 -6q0 -112 41.5 -165.5t144.5 -53.5q130 0 130 100q0 20 -10 37t-21.5 28t-37.5 23t-41 17.5t-49 16.5q-79 24 -124 55.5
t-45 84.5z" />
    <glyph glyph-name="t" unicode="t" horiz-adv-x="326" 
d="M144 596v-97q14 0 66.5 0.5t68.5 0.5q35 1 35 -2q0 -10 -49 -54q-1 0 -52 0.5t-71 0.5v-314q0 -110 65 -110q31 0 58 27t44 77q1 4 5.5 4t7 -3t0.5 -7q-27 -55 -68.5 -92t-90.5 -37q-51 0 -73.5 33t-22.5 105v317h-55q-5 0 0 5l128 147q4 4 4 -1z" />
    <glyph glyph-name="u" unicode="u" horiz-adv-x="559" 
d="M67 193v184q0 61 -11.5 71.5t-52.5 3.5q-5 -1 -6 3q-1 5 6 6q58 10 122 45q2 2 10 -0.5t8 -6.5v-316q0 -86 33.5 -124.5t84.5 -38.5q46 0 80.5 21t71.5 70v266q0 61 -11.5 71.5t-52.5 3.5q-5 -1 -6 3t4 6h2q56 10 121 45q2 2 10 -0.5t8 -6.5v-380q0 -76 8 -93t45 -17
q3 0 4.5 -2t0 -4.5t-4.5 -2.5q-37 0 -130 -10q-6 -1 -7 1t-1 8q0 2 2.5 15.5t5 36.5t2.5 48q-82 -109 -185 -109q-161 0 -161 203z" />
    <glyph glyph-name="v" unicode="v" horiz-adv-x="531" 
d="M424 344l-146 -346q-2 -2 -4 -2h-16q-2 0 -4 2l-160 367q-35 81 -56 103.5t-55 22.5q-3 0 -4.5 2.5t0 4.5t4.5 2t47.5 -1t52.5 -1q5 0 46.5 0.5t55.5 0.5q6 0 6 -4t-6 -4q-44 0 -48.5 -16.5t23.5 -81.5l139 -320l116 277q29 75 17.5 108t-60.5 32q-6 0 -6 4.5t6 4.5
q14 0 49 -0.5t40 -0.5q8 0 45 1t40 1t4.5 -2t0 -4.5t-4.5 -2.5q-34 1 -62 -35t-60 -112z" />
    <glyph glyph-name="w" unicode="w" horiz-adv-x="829" 
d="M561 -2l-153 388l-163 -388q-2 -2 -3 -2h-11q-2 0 -4 2l-134 365q-29 83 -49 105.5t-60 22.5q-4 0 -4 4.5t4 4.5q2 0 42.5 -1t47.5 -1q5 0 54.5 1t62.5 1q3 0 4.5 -2t0 -4.5t-4.5 -2.5q-31 0 -41 -5t-8.5 -25t18.5 -68l111 -302l125 291q3 10 1 33q-2 22 -10 36
q-20 40 -64 40q-6 0 -6 5q0 4 5 4q13 0 51.5 -1t42.5 -1q5 0 42 1t49 1q7 0 7 -5q-1 -4 -6 -4q-43 0 -47 -13.5t22 -84.5l121 -308l107 266q22 51 16.5 82t-24.5 44.5t-50 13.5q-6 0 -6 5q0 4 5 4q14 0 56.5 -1t46.5 -1q6 0 47 1t44 1q6 0 6 -5q0 -4 -5 -4q-42 0 -68 -31
t-59 -116l-139 -346q-2 -2 -6 -2h-10q-2 0 -4 2z" />
    <glyph glyph-name="x" unicode="x" horiz-adv-x="531" 
d="M296 281l97 -144q42 -64 64 -90t35 -32t39 -6q6 0 6 -5q1 -4 -4 -4q-3 0 -44.5 1t-48.5 1q-6 0 -55.5 -1t-63.5 -1q-7 0 -7 5q0 4 5 4q34 0 44.5 4.5t4 25.5t-38.5 68l-87 128l-67 -85q-48 -63 -48 -99q0 -42 51 -42q6 0 6 -4.5t-6 -4.5q-14 0 -52.5 1t-42.5 1
q-8 0 -41.5 -1t-36.5 -1t-4.5 2t0 4.5t4.5 2.5q49 -1 164 148l68 87l-80 119q-59 90 -81 109t-59 19q-6 0 -6 5q-1 4 4 4q1 0 45.5 -1t52.5 -1q6 0 49 1t57 1q7 0 7 -5q0 -4 -5 -4q-42 0 -46 -10q-3 -15 45 -88l70 -104l45 60q56 74 54 110q-1 31 -54 31q-3 0 -4.5 2t0 4.5
t4.5 2.5q15 0 51 -1t41 -1q8 0 46 1t41 1t4.5 -2.5t0 -4.5t-4.5 -2q-34 1 -73.5 -34.5t-97.5 -112.5z" />
    <glyph glyph-name="y" unicode="y" horiz-adv-x="537" 
d="M117 -136q43 0 73.5 23.5t61.5 95.5l11 25l-159 352q-41 89 -60.5 110t-56.5 21q-3 0 -4.5 2.5t0 4.5t4.5 2t46.5 -1t52.5 -1q5 0 48.5 1t58.5 1q6 0 6 -4.5t-6 -4.5q-45 0 -50 -17.5t25 -83.5l133 -295l112 252q30 72 17 108t-63 36q-6 0 -6 4.5t6 4.5q16 0 52.5 -1
t41.5 -1q9 0 47.5 1t42.5 1q3 0 4.5 -2t0 -4.5t-4.5 -2.5q-34 1 -64.5 -36.5t-64.5 -113.5l-160 -360q-39 -89 -88.5 -131t-120.5 -42q-39 0 -61 11.5t-22 27.5q0 14 16.5 30t38.5 16q17 0 45 -14.5t47 -14.5z" />
    <glyph glyph-name="z" unicode="z" horiz-adv-x="505" 
d="M54 307l-3 -62q0 -3 -2.5 -4.5t-4.5 0t-2 4.5l3 62q8 188 11 189q9 4 47 4q20 0 146.5 -1t131.5 -1q8 0 38 1.5t37 1.5q15 0 0 -21l-348 -468q24 0 80 -1t66 -1q94 0 143.5 50.5t56.5 142.5l5 69q0 6 6 5q4 -1 3 -6l-5 -69q-19 -197 -20 -198q-4 -4 -87 -4q-95 0 -146 1
q-61 0 -93 1l-84 -2q-7 0 -12 2t-3 7l358 480h-130q-98 0 -143 -44.5t-49 -137.5z" />
    <glyph glyph-name="braceleft" unicode="{" horiz-adv-x="445" 
d="M238 374q0 -45 -25.5 -76.5t-64.5 -47.5q39 -16 64.5 -47t25.5 -76q0 -40 -33 -133t-33 -145q0 -127 182 -127q8 0 12 -5t1 -9.5t-14 -4.5q-102 0 -153.5 46.5t-51.5 120.5q0 57 35 145t35 125q0 47 -28.5 75t-67.5 28q-8 0 -8 7q0 5 1 6.5t7 1.5q39 0 67.5 28t28.5 75
q0 36 -35 124t-35 146q0 70 60.5 117.5t154.5 47.5q10 0 13 -4t-1 -8.5t-11 -4.5q-94 0 -143 -35t-49 -92q0 -52 33 -145t33 -133z" />
    <glyph glyph-name="bar" unicode="|" horiz-adv-x="267" 
d="M142 247q0 -319 6 -513q-10 -9 -14.5 -10.5t-14.5 0.5q10 209 10 522q0 258 -6 528q13 10 31 6q-12 -219 -12 -533z" />
    <glyph glyph-name="braceright" unicode="}" horiz-adv-x="445" 
d="M207 127q0 45 25.5 76t64.5 47q-39 16 -64.5 47.5t-25.5 76.5q0 40 33 133t33 145q0 57 -49 92t-143 35q-7 0 -11 4.5t-1 8.5t13 4q99 0 157 -45t58 -120q0 -58 -35 -146t-35 -124q0 -47 28.5 -75t67.5 -28q6 0 7 -1.5t1 -6.5q0 -7 -8 -7q-39 0 -67.5 -28t-28.5 -75
q0 -37 35 -125t35 -145q0 -76 -52 -121.5t-153 -45.5q-11 0 -14 4.5t1 9.5t12 5q182 0 182 127q0 52 -33 145t-33 133z" />
    <glyph glyph-name="asciitilde" unicode="~" horiz-adv-x="833" 
d="M264 322q44 57 61.5 75t34.5 18q22 0 77 -29.5t73 -29.5q14 0 22.5 8t36.5 47q7 7 9 3q2 -2 -2 -8q-36 -53 -59 -76.5t-45 -23.5q-21 0 -75 31.5t-73 31.5q-8 0 -17 -9t-36 -43q-6 -7 -8.5 -4.5t1.5 9.5z" />
    <glyph glyph-name="exclamdown" unicode="&#xa1;" horiz-adv-x="252" 
d="M158 -96v-5q0 -15 -22.5 -46t-31.5 -31q-24 0 -24 35v4q0 42 20.5 219t20.5 269q0 6 4 3l2 -3q0 -95 15.5 -256t15.5 -189zM184 458q0 -24 -17 -41t-41 -17q-23 0 -40.5 17.5t-17.5 40.5q0 24 17 41t41 17q25 0 41.5 -16.5t16.5 -41.5z" />
    <glyph glyph-name="cent" unicode="&#xa2;" horiz-adv-x="523" 
d="M97 267q0 -80 50 -139t132 -75q4 91 4 196q0 163 -1 239h-2q-79 0 -131 -57.5t-52 -163.5zM294 250q-1 -71 -1 -200q24 -2 38 -2q70 0 120 33t89 103q3 5 7 4q5 -2 1 -7q-41 -78 -110 -131t-145 -59q3 -164 4 -198q-15 -13 -28 -10q1 32 3.5 101.5t4.5 105.5
q-106 0 -173 67t-67 173q0 100 72.5 180t171.5 96q0 56 -2 174q9 7 13 7.5t15 -1.5q-1 -29 -3.5 -87.5t-4.5 -89.5q4 0 11.5 0.5t11.5 0.5q70 0 118.5 -23.5t48.5 -51.5q0 -15 -13.5 -28t-35.5 -13q-13 0 -27.5 13t-27 29.5t-36 31.5t-51.5 19q-4 -101 -4 -237z" />
    <glyph glyph-name="sterling" unicode="&#xa3;" horiz-adv-x="663" 
d="M216 244h30q113 0 211 6q5 -4 5 -12.5t-5 -11.5q-96 7 -210 7h-33q-39 -195 -86 -291q8 -1 92.5 -15t140.5 -20t106 -6q48 0 76 44q34 51 51 122l10 44q3 8 10 4q3 -1 1 -5l-10 -45q-24 -105 -44 -183q-4 -17 -25.5 -35t-46.5 -18q-49 0 -118 20t-144.5 49t-102.5 36
q-26 -47 -50 -61q-26 -14 -55 -14q-16 0 -30.5 10.5t-14.5 29.5q0 25 20 38.5t55 13.5q21 0 71 -8q17 52 33 289q-84 -2 -132 -6q-5 3 -5 9.5t5 10.5q21 -2 133 -2q8 116 15 165q21 197 169 290q52 33 104 33q40 0 66 -20t26 -49q0 -23 -12.5 -36t-31.5 -13q-15 0 -24.5 8
t-12.5 16.5t-6 23.5q-9 46 -54 46q-28 0 -51 -17q-35 -29 -58 -87t-40 -184q-13 -101 -28 -176z" />
    <glyph glyph-name="yen" unicode="&#xa5;" horiz-adv-x="615" 
d="M459 509l-107 -178q79 1 159 9q7 -7 1 -24q-45 7 -163 7v-140q112 2 160 10q11 -8 3 -24q-47 4 -163 6q0 -82 5.5 -116.5t14.5 -42t34 -7.5h18q6 0 6 -4.5t-6 -4.5q-16 0 -59.5 1.5t-49.5 1.5q-5 0 -49.5 -1.5t-60.5 -1.5q-6 0 -6 4.5t6 4.5h18q24 0 33 8t14 41.5
t7 116.5q-87 -1 -159 -7q-12 5 -3 22q55 -7 162 -7v138l-1 2q-103 -2 -158 -9q-10 7 -3 22q65 -5 156 -5l-102 178q-63 110 -90.5 142.5t-63.5 32.5h-8q-7 0 -7 4q0 5 6 5q16 0 54.5 -1.5t44.5 -1.5t55.5 1.5t65.5 1.5q7 0 8 -5q-2 -3 -5 -4h-21q-35 0 -28 -34
q8 -36 70 -146l96 -166l105 174q11 19 21.5 44t17.5 56t-5 52t-46 21q-4 0 -15 -2t-13 -2q-7 0 -7 6t12 6q9 0 53 -1t52 -1q5 0 50.5 1t58.5 1q5 0 6 -4q1 -5 -5 -5h-7q-25 0 -54.5 -28t-51.5 -60t-49 -75q-5 -8 -7 -12z" />
    <glyph glyph-name="brokenbar" unicode="&#xa6;" horiz-adv-x="267" 
d="M122 -284q0 18 3.5 122.5t3.5 120.5l-3 238q7 15 22 6q0 -17 -3 -122.5t-3 -121.5q0 -17 2.5 -119t2.5 -118q-13 -12 -25 -6zM126 293q0 18 1.5 122.5t1.5 120.5l-6 238q10 19 25 6q0 -17 -3 -122.5t-3 -121.5q0 -17 3 -119t3 -118q-13 -11 -22 -6z" />
    <glyph glyph-name="section" unicode="&#xa7;" horiz-adv-x="585" 
d="M162 514q0 18 2 23q-55 -40 -55 -101q0 -43 33 -95.5t80 -101l94 -97t80 -99t33 -91.5q0 -7 -1 -9q30 23 40.5 45t10.5 53q0 39 -32.5 89.5t-79.5 99.5t-93.5 97.5t-79 98.5t-32.5 88zM528 86q0 -47 -26 -81.5t-74 -68.5q-8 -53 -55 -91t-102 -38t-93.5 22t-38.5 51
q0 23 13 36.5t34 13.5q24 0 38 -16t20 -36t23 -36t46 -16q34 0 53.5 22.5t17.5 50.5q0 39 -33.5 88.5t-80.5 97.5t-94.5 98t-81 105t-33.5 102q0 48 27 84t77 70q12 49 54.5 81.5t97.5 32.5q52 0 88 -21.5t36 -48.5q0 -21 -11.5 -32t-29.5 -11q-22 0 -35.5 15t-19.5 32.5
t-23 32.5t-46 15q-32 0 -51.5 -22.5t-17.5 -50.5q0 -39 33 -88.5t80 -98.5t94.5 -98t80.5 -101t33 -95z" />
    <glyph glyph-name="dieresis" unicode="&#xa8;" horiz-adv-x="809" 
d="M252 648q0 20 14.5 35t34.5 15t35 -15t15 -35t-15 -34.5t-35 -14.5t-34.5 14.5t-14.5 34.5zM450 648q0 20 14.5 35t34.5 15t35 -15t15 -35t-15 -34.5t-35 -14.5t-34.5 14.5t-14.5 34.5z" />
    <glyph glyph-name="copyright" unicode="&#xa9;" horiz-adv-x="816" 
d="M600 246q-19 -22 -30.5 -34t-39 -34.5t-59.5 -33.5t-68 -10q-87 0 -143 55.5t-56 144.5q0 93 67.5 155t155.5 62q84 0 139 -26l9 -155q0 -2 -2 -3.5t-4 -0.5t-2 3q-15 173 -141 173q-79 0 -123 -45t-44 -139q0 -80 51 -134.5t133 -54.5q36 0 66 13.5t45 27t34 35.5
q4 5 6 7q4 4 6 -2q1 -2 0 -4zM397 -16q-147 0 -248.5 101.5t-101.5 255.5q0 74 35 143t89 116.5t120.5 76t128.5 28.5q148 0 248 -101t100 -256q0 -98 -57.5 -184t-142.5 -133t-171 -47zM407 1q142 0 240.5 96.5t98.5 242.5t-99.5 247.5t-235.5 101.5q-140 0 -241 -97.5
t-101 -242.5q0 -146 100.5 -247t237.5 -101z" />
    <glyph glyph-name="ordfeminine" unicode="&#xaa;" horiz-adv-x="376" 
d="M100 486q0 -23 16 -40t38 -17q20 0 50 29.5t34 45.5q4 28 4 78v8l-47 -19q-59 -24 -77 -41.5t-18 -43.5zM121 397q-34 0 -53 18t-19 46q0 30 33 58.5t111 59.5l49 19q-2 52 -16.5 72t-45.5 20q-18 0 -30.5 -8t-17 -16.5t-10.5 -24t-9 -20.5q-6 -14 -32 -14t-26 16t24 33
q57 41 110 41q103 0 103 -97q0 -22 -1.5 -69.5t-1.5 -55.5q0 -44 17 -44q12 0 32 31q3 7 9 2q4 -4 0 -8q-13 -17 -37 -38t-41 -21q-33 0 -33 41q0 34 1 46q-17 -24 -55.5 -55.5t-60.5 -31.5z" />
    <glyph glyph-name="guillemotleft" unicode="&#xab;" horiz-adv-x="662" 
d="M280 249v-1q27 -22 149 -101t134 -89q20 -20 20 -37q0 -22 -19 -22q-15 0 -41 23q-26 22 -127.5 113t-127.5 113q-5 5 0 10q33 28 137 124.5t117 108.5q26 23 37 23q23 0 23 -22q0 -21 -20 -38q-10 -9 -132 -90.5t-150 -106.5q-5 -3 0 -8zM66 249v-1q26 -24 129.5 -104.5
t110.5 -86.5q20 -20 19 -36q-4 -22 -21 -22q-13 0 -38 23q-26 23 -107.5 114t-103.5 112q-5 5 0 10q14 14 105.5 110.5t120.5 122.5q26 23 36 23q23 0 23 -22q0 -19 -21 -37q-4 -3 -115 -87t-138 -111q-4 -4 0 -8z" />
    <glyph glyph-name="uni00AD" unicode="&#xad;" horiz-adv-x="538" 
d="M271 251q103 0 199 6q6 -4 6 -12.5t-5 -11.5q-98 7 -200 7q-107 0 -200 -7q-6 3 -6 11.5t5 12.5q102 -6 201 -6z" />
    <glyph glyph-name="registered" unicode="&#xae;" horiz-adv-x="804" 
d="M331 460v-97q12 1 51 1q40 0 71 23.5t31 70.5q0 48 -25 70.5t-81 22.5h-23q-17 0 -20.5 -12.5t-3.5 -78.5zM581 44q-89 -60 -196 -60q-147 0 -242.5 100.5t-95.5 256.5q0 98 56 184t139.5 133t167.5 47q146 0 246 -98.5t100 -252.5q0 -33 -9.5 -73.5t-26.5 -80t-48 -66
t-69 -26.5q-46 0 -72.5 30t-56.5 100q-34 77 -54 97t-64 20h-25v-61q0 -59 1 -87t5 -43.5t9 -18t18 -2.5h12q3 0 3 -3.5t-3 -3.5q-9 0 -36 0.5t-30 0.5q-5 0 -44.5 -0.5t-40.5 -0.5q-5 0 -4 4q2 2 4 3q27 0 34 4q11 7 12 52q2 21 2 121v80q0 109 -5 130t-27 21h-11
q-4 0 -4 4t4 4q9 0 42.5 -1t36.5 -1q4 0 37.5 1t39.5 1q85 0 123.5 -23.5t38.5 -76.5q0 -38 -38 -65.5t-95 -33.5q36 -2 61.5 -23t54.5 -76q4 -8 17.5 -35.5t20 -38t18.5 -28t25.5 -24t29.5 -6.5q30 0 52 40.5t31.5 89t9.5 89.5q0 145 -98.5 243t-235.5 98
q-139 0 -235.5 -97t-96.5 -243q0 -147 95 -247.5t231 -100.5q112 0 183 47q4 3 5.5 1t-2.5 -5z" />
    <glyph glyph-name="overscore" unicode="&#xaf;" horiz-adv-x="809" 
d="M400 676h1q57 0 90 1q35 1 35 -1q0 -7 -46 -51q-1 0 -29 0.5t-49 0.5q-15 0 -37.5 -1t-38.5 -1q-35 -1 -35 2q0 7 46 51q1 0 21.5 -0.5t41.5 -0.5z" />
    <glyph glyph-name="degree" unicode="&#xb0;" horiz-adv-x="376" 
d="M73 577q0 -47 34 -81.5t81 -34.5t81 34.5t34 81.5t-34 81.5t-81 34.5t-81 -34.5t-34 -81.5zM58 577q0 54 38 92t92 38t92 -38t38 -92t-38 -92t-92 -38t-92 38t-38 92z" />
    <glyph glyph-name="plusminus" unicode="&#xb1;" 
d="M277 126q61 0 159 6q5 -4 5 -12.5t-5 -11.5q-126 7 -158 7t-158 -7q-5 3 -5 11.5t5 12.5q98 -6 157 -6zM268 526q4 5 12.5 5t11.5 -5q-7 -74 -7 -155q57 0 153 6q5 -4 5 -12.5t-5 -11.5q-126 7 -153 7q0 -83 7 -154q-3 -5 -11.5 -5t-12.5 5q3 48 3 154q-34 0 -153 -7
q-5 3 -5 11.5t5 12.5q96 -6 153 -6q0 107 -3 155z" />
    <glyph glyph-name="twosuperior" unicode="&#xb2;" horiz-adv-x="371" 
d="M135 348h-36t-36.5 -0.5t-17.5 -0.5v8q0 8 1 9q18 15 47.5 37.5t45.5 38.5q60 56 83.5 97t23.5 88q0 69 -70 69q-45 0 -73.5 -54t-28.5 -117q0 -4 -4.5 -4t-4.5 4q0 34 -7.5 88.5t-7.5 55.5q0 11 5 11q81 25 123 25q140 0 140 -91q0 -23 -16 -46t-34 -38t-57.5 -45
t-62.5 -49q-9 -7 -20 -16.5t-15 -12.5q94 0 131 1q27 0 37.5 1.5t19.5 9t12 25.5l6 42q1 7 5 8t5 -4q0 -2 -1 -4l-6 -43q-10 -87 -15 -92q-2 -2 -26 -2q-5 0 -69 0.5t-77 0.5z" />
    <glyph glyph-name="threesuperior" unicode="&#xb3;" horiz-adv-x="350" 
d="M128 355q59 0 89.5 27.5t30.5 69.5q0 74 -73 74q-23 0 -45.5 -19.5t-24.5 -19.5q-5 0 -6.5 6.5t-0.5 12.5l2 6q57 19 91 51.5t34 75.5q0 55 -61 56q-50 0 -75.5 -44.5t-25.5 -102.5q0 -2 -2.5 -3.5t-4.5 -0.5t-2 3q0 33 -4.5 76t-4.5 44q0 11 5 11q5 2 22 7.5t24.5 7.5
t22 5t28.5 4.5t30 1.5q115 0 115 -68q0 -17 -6.5 -30t-23.5 -24.5t-28.5 -17.5t-41.5 -19t-42 -18q33 11 58 11q105 0 105 -87q0 -52 -37 -81t-110 -29q-55 0 -120 21q-8 3 -6 7t8 2q53 -16 80 -16z" />
    <glyph glyph-name="acute" unicode="&#xb4;" horiz-adv-x="809" 
d="M317 537q-2 -2 -4 -2q-4 0 -4 4q0 1 3 4q22 21 49.5 55.5t47.5 62.5t23 31q6 6 24 6q15 0 18 -3t3 -19q0 -8 -12 -17l-59 -45q-58 -45 -89 -77z" />
    <glyph glyph-name="paragraph" unicode="&#xb6;" horiz-adv-x="644" 
d="M334 -149v502h-81q-92 0 -144.5 43t-52.5 118q0 76 48 117t145 41q7 0 110.5 -0.5t110.5 -0.5q6 0 50.5 1t60.5 1q6 0 6 -4.5t-6 -4.5h-18q-21 0 -29.5 -3.5t-15.5 -31t-8 -72t-1 -143.5v-563q0 -5 -2.5 -7t-5.5 0t-3 7v563q0 181 -5.5 214t-33.5 33h-113v-810
q0 -5 -3 -7t-6 0t-3 7z" />
    <glyph glyph-name="middot" unicode="&#xb7;" horiz-adv-x="252" 
d="M68 247q0 24 17 41t41 17q23 0 40.5 -17.5t17.5 -40.5q0 -24 -17 -41t-41 -17q-25 0 -41.5 16.5t-16.5 41.5z" />
    <glyph glyph-name="cedilla" unicode="&#xb8;" horiz-adv-x="809" 
d="M499 -163q0 -46 -36 -92.5t-86 -46.5q-35 0 -59.5 10.5t-24.5 27.5q0 18 10.5 30t27.5 12t45 -22.5t52 -22.5q20 0 33 17t13 38q0 70 -161 70q-11 0 -4 10q69 90 97 132q5 7 9 3q1 -2 -1 -5q-14 -18 -35 -50t-24 -36l-1 -3h6q68 0 103.5 -22t35.5 -50z" />
    <glyph glyph-name="onesuperior" unicode="&#xb9;" horiz-adv-x="213" 
d="M34 358h18q21 0 26 15t5 62v180q0 27 -8 31t-36 -8q-3 -1 -4.5 2t1.5 5q42 15 93 58q1 1 5 0.5t4 -2.5v-266q0 -48 5 -62.5t27 -14.5h19q2 0 2 -4.5t-2 -4.5q-8 0 -40 0.5t-38 0.5t-37.5 -0.5t-39.5 -0.5q-2 0 -2 4.5t2 4.5z" />
    <glyph glyph-name="ordmasculine" unicode="&#xba;" horiz-adv-x="376" 
d="M191 406q86 0 86 136q0 60 -22.5 103.5t-66.5 43.5q-88 0 -88 -138q0 -61 22 -103t69 -42zM184 397q-63 0 -103 39.5t-40 104.5q0 64 43 110t109 46q61 0 101.5 -40.5t40.5 -105.5q0 -59 -44 -106.5t-107 -47.5z" />
    <glyph glyph-name="guillemotright" unicode="&#xbb;" horiz-adv-x="662" 
d="M371 263v1q-27 22 -147 101t-132 89q-20 20 -20 37q0 22 19 22q15 0 41 -23q26 -22 125.5 -113t125.5 -113q5 -5 0 -10q-27 -23 -129 -116.5t-128 -115.5q-26 -23 -37 -23q-23 0 -23 22q0 21 20 38q9 8 133.5 89.5t151.5 106.5q5 3 0 8zM585 263v1q-23 21 -125.5 100
t-114.5 91q-20 20 -19 36q4 22 21 22q13 0 38 -23q26 -23 107.5 -114t103.5 -112q5 -5 0 -10q-16 -16 -103 -111.5t-116 -120.5q-26 -23 -36 -23q-23 0 -23 22q0 19 21 37q7 6 112.5 88.5t133.5 108.5q4 4 0 8z" />
    <glyph glyph-name="onequarter" unicode="&#xbc;" horiz-adv-x="636" 
d="M317 348q165 0 261 6q5 -4 5 -12.5t-5 -11.5q-126 7 -260 7t-260 -7q-5 3 -5 11.5t5 12.5q98 -6 259 -6zM183 47h126v143q-19 -23 -59.5 -67.5t-66.5 -75.5zM237 438h18q21 0 26 15t5 62v180q0 27 -8 31t-36 -8q-3 -1 -4.5 2t1.5 5q42 15 93 58q1 1 5 0.5t4 -2.5v-266
q0 -48 5 -62.5t27 -14.5h19q2 0 2 -4.5t-2 -4.5q-8 0 -40 0.5t-38 0.5t-37.5 -0.5t-39.5 -0.5q-2 0 -2 4.5t2 4.5zM361 47h34q37 0 49.5 8.5t17.5 40.5l4 24q1 6 6 5q4 0 3 -5l-3 -20q-12 -93 -14 -95t-33 -2h-64v-21q0 -44 8 -54.5t44 -10.5q4 0 4 -4.5t-4 -4.5
q-9 0 -42.5 0.5t-37.5 0.5q-3 0 -37 -0.5t-43 -0.5q-4 0 -4 4.5t4 4.5q39 0 47.5 10.5t8.5 54.5v21h-112q-4 0 -23 -1t-25 -1q-10 -1 -3 11q4 7 25 33q3 4 5 6q14 17 38.5 47t37.5 46.5t35 45t45 61.5q6 9 18 12q14 4 19.5 0.5t0.5 -12.5q-9 -19 -9 -46v-158z" />
    <glyph glyph-name="onehalf" unicode="&#xbd;" horiz-adv-x="636" 
d="M317 348q165 0 261 6q5 -4 5 -12.5t-5 -11.5q-126 7 -260 7t-260 -7q-5 3 -5 11.5t5 12.5q98 -6 259 -6zM237 438h18q21 0 26 15t5 62v180q0 27 -8 31t-36 -8q-3 -1 -4.5 2t1.5 5q42 15 93 58q1 1 5 0.5t4 -2.5v-266q0 -48 5 -62.5t27 -14.5h19q2 0 2 -4.5t-2 -4.5
q-8 0 -40 0.5t-38 0.5t-37.5 -0.5t-39.5 -0.5q-2 0 -2 4.5t2 4.5zM263 -96h-36t-36.5 -0.5t-17.5 -0.5v8q0 8 1 9q18 15 47.5 37.5t45.5 38.5q60 56 83.5 97t23.5 88q0 69 -70 69q-45 0 -73.5 -54t-28.5 -117q0 -4 -4.5 -4t-4.5 4q0 34 -7.5 88.5t-7.5 55.5q0 11 5 11
q81 25 123 25q140 0 140 -91q0 -23 -16 -46t-34 -38t-57.5 -45t-62.5 -49q-9 -7 -20 -16.5t-15 -12.5q94 0 131 1q27 0 37.5 1.5t19.5 9t12 25.5l6 42q1 7 5 8t5 -4q0 -2 -1 -4l-6 -43q-10 -87 -15 -92q-2 -2 -26 -2q-5 0 -69 0.5t-77 0.5z" />
    <glyph glyph-name="threequarters" unicode="&#xbe;" horiz-adv-x="636" 
d="M317 348q165 0 261 6q5 -4 5 -12.5t-5 -11.5q-126 7 -260 7t-260 -7q-5 3 -5 11.5t5 12.5q98 -6 259 -6zM183 47h126v143q-19 -23 -59.5 -67.5t-66.5 -75.5zM271 435q59 0 89.5 27.5t30.5 69.5q0 74 -73 74q-23 0 -45.5 -19.5t-24.5 -19.5q-5 0 -6.5 6.5t0.5 12.5l1 6
q57 19 91 51.5t34 75.5q0 55 -61 56q-50 0 -75.5 -44.5t-25.5 -102.5q0 -2 -2 -3.5t-4.5 -0.5t-2.5 3q0 33 -4.5 76t-4.5 44q0 11 5 11q5 2 22 7.5t24.5 7.5t22 5t28.5 4.5t30 1.5q115 0 115 -68q0 -17 -6.5 -30t-23.5 -24.5t-28.5 -17.5t-41.5 -19t-42 -18q33 11 58 11
q105 0 105 -87q0 -52 -37 -81t-110 -29q-55 0 -120 21q-8 3 -6 7t8 2q53 -16 80 -16zM361 47h34q37 0 49.5 8.5t17.5 40.5l4 24q1 6 6 5q4 0 3 -5l-3 -20q-12 -93 -14 -95t-33 -2h-64v-21q0 -44 8 -54.5t44 -10.5q4 0 4 -4.5t-4 -4.5q-9 0 -42.5 0.5t-37.5 0.5
q-3 0 -37 -0.5t-43 -0.5q-4 0 -4 4.5t4 4.5q39 0 47.5 10.5t8.5 54.5v21h-112q-4 0 -23 -1t-25 -1q-10 -1 -3 11q4 7 25 33q3 4 5 6q14 17 38.5 47t37.5 46.5t35 45t45 61.5q6 9 18 12q14 4 19.5 0.5t0.5 -12.5q-9 -19 -9 -46v-158z" />
    <glyph glyph-name="questiondown" unicode="&#xbf;" horiz-adv-x="395" 
d="M261 171q0 -8 -8 -11q-81 -40 -116.5 -77.5t-34.5 -90.5q1 -57 52.5 -88.5t151.5 -31.5q6 0 6 -6q0 -5 -6.5 -28t-15 -53.5t-11.5 -41.5q-6 -10 -6 1q9 56 9 57q-1 4 -18 4q-98 0 -153 43.5t-55 102.5q0 58 42.5 110.5t97.5 79.5q0 7 -2.5 42t-5 67t-1.5 36q0 3 18.5 14
t36.5 20t18 7v-34t0.5 -69.5t0.5 -52.5zM272 458q0 -24 -17 -41t-42 -17q-23 0 -40 17.5t-17 40.5q0 24 17 41t41 17q25 0 41.5 -16.5t16.5 -41.5z" />
    <glyph glyph-name="Agrave" unicode="&#xc0;" horiz-adv-x="711" 
d="M347 768q-31 32 -89 77l-59 45q-12 9 -12 17q0 16 3 19t18 3q18 0 24 -6q3 -3 22.5 -31t47 -62.5t50.5 -55.5q3 -3 3 -4q0 -4 -4 -4q-2 0 -4 2zM460 259l-149 349l-139 -351l170 1h118v1zM465 248l-117 -3q-26 0 -96.5 1.5t-82.5 1.5l-17 -42q-36 -97 -36 -149
q0 -49 56 -49q4 0 15 1.5t13 1.5q7 0 7 -5q0 -6 -12 -6q-9 0 -57.5 1t-56.5 1q-5 0 -37 -1t-46 -1q-6 0 -6 5q0 4 6 4h4q40 0 72 60q37 63 66 142l193 482q1 3 7 3h10q8 0 10 -3l182 -434q50 -120 76.5 -171t43 -65t42.5 -14h8q7 0 7 -4q0 -5 -6 -5q-16 0 -55.5 1.5
t-45.5 1.5t-55.5 -1.5t-65.5 -1.5q-7 0 -8 5q2 3 5 4h21q28 0 30 19q5 38 -74 220z" />
    <glyph glyph-name="Aacute" unicode="&#xc1;" horiz-adv-x="711" 
d="M347 768q-2 -2 -4 -2q-4 0 -4 4q0 1 3 4q22 21 49.5 55.5t47.5 62.5t23 31q6 6 24 6q15 0 18 -3t3 -19q0 -8 -12 -17l-59 -45q-58 -45 -89 -77zM460 259l-149 349l-139 -351l170 1h118v1zM465 248l-117 -3q-26 0 -96.5 1.5t-82.5 1.5l-17 -42q-36 -97 -36 -149
q0 -49 56 -49q4 0 15 1.5t13 1.5q7 0 7 -5q0 -6 -12 -6q-9 0 -57.5 1t-56.5 1q-5 0 -37 -1t-46 -1q-6 0 -6 5q0 4 6 4h4q40 0 72 60q37 63 66 142l193 482q1 3 7 3h10q8 0 10 -3l182 -434q50 -120 76.5 -171t43 -65t42.5 -14h8q7 0 7 -4q0 -5 -6 -5q-16 0 -55.5 1.5
t-45.5 1.5t-55.5 -1.5t-65.5 -1.5q-7 0 -8 5q2 3 5 4h21q28 0 30 19q5 38 -74 220z" />
    <glyph glyph-name="Acircumflex" unicode="&#xc2;" horiz-adv-x="711" 
d="M349 902q-4 4 -7 0l-82 -122q-14 -19 -34 -19t-20 14q0 9 18 29q50 57 117 107q5 5 9 0q72 -55 121 -97q20 -19 20 -29q0 -7 -6.5 -14t-16.5 -7q-20 0 -35 21q-14 20 -84 117zM460 259l-149 349l-139 -351l170 1h118v1zM465 248l-117 -3q-26 0 -96.5 1.5t-82.5 1.5
l-17 -42q-36 -97 -36 -149q0 -49 56 -49q4 0 15 1.5t13 1.5q7 0 7 -5q0 -6 -12 -6q-9 0 -57.5 1t-56.5 1q-5 0 -37 -1t-46 -1q-6 0 -6 5q0 4 6 4h4q40 0 72 60q37 63 66 142l193 482q1 3 7 3h10q8 0 10 -3l182 -434q50 -120 76.5 -171t43 -65t42.5 -14h8q7 0 7 -4
q0 -5 -6 -5q-16 0 -55.5 1.5t-45.5 1.5t-55.5 -1.5t-65.5 -1.5q-7 0 -8 5q2 3 5 4h21q28 0 30 19q5 38 -74 220z" />
    <glyph glyph-name="Atilde" unicode="&#xc3;" horiz-adv-x="711" 
d="M193 792q44 57 61.5 75t34.5 18q22 0 77 -29.5t73 -29.5q14 0 22.5 8t36.5 47q7 7 9 3q2 -2 -2 -8q-36 -53 -59 -76.5t-45 -23.5q-21 0 -75 31.5t-73 31.5q-8 0 -17 -9t-36 -43q-6 -7 -8.5 -4.5t1.5 9.5zM460 259l-149 349l-139 -351l170 1h118v1zM465 248l-117 -3
q-26 0 -96.5 1.5t-82.5 1.5l-17 -42q-36 -97 -36 -149q0 -49 56 -49q4 0 15 1.5t13 1.5q7 0 7 -5q0 -6 -12 -6q-9 0 -57.5 1t-56.5 1q-5 0 -37 -1t-46 -1q-6 0 -6 5q0 4 6 4h4q40 0 72 60q37 63 66 142l193 482q1 3 7 3h10q8 0 10 -3l182 -434q50 -120 76.5 -171t43 -65
t42.5 -14h8q7 0 7 -4q0 -5 -6 -5q-16 0 -55.5 1.5t-45.5 1.5t-55.5 -1.5t-65.5 -1.5q-7 0 -8 5q2 3 5 4h21q28 0 30 19q5 38 -74 220z" />
    <glyph glyph-name="Adieresis" unicode="&#xc4;" horiz-adv-x="711" 
d="M397 825q0 20 14.5 35t34.5 15t35 -15t15 -35t-15 -34.5t-35 -14.5t-34.5 14.5t-14.5 34.5zM199 825q0 20 14.5 35t34.5 15t35 -15t15 -35t-15 -34.5t-35 -14.5t-34.5 14.5t-14.5 34.5zM460 259l-149 349l-139 -351l170 1h118v1zM465 248l-117 -3q-26 0 -96.5 1.5
t-82.5 1.5l-17 -42q-36 -97 -36 -149q0 -49 56 -49q4 0 15 1.5t13 1.5q7 0 7 -5q0 -6 -12 -6q-9 0 -57.5 1t-56.5 1q-5 0 -37 -1t-46 -1q-6 0 -6 5q0 4 6 4h4q40 0 72 60q37 63 66 142l193 482q1 3 7 3h10q8 0 10 -3l182 -434q50 -120 76.5 -171t43 -65t42.5 -14h8q7 0 7 -4
q0 -5 -6 -5q-16 0 -55.5 1.5t-45.5 1.5t-55.5 -1.5t-65.5 -1.5q-7 0 -8 5q2 3 5 4h21q28 0 30 19q5 38 -74 220z" />
    <glyph glyph-name="Aring" unicode="&#xc5;" horiz-adv-x="711" 
d="M283 762q0 -26 18 -44t44 -18t44 18t18 44t-18 44t-44 18t-44 -18t-18 -44zM460 259l-149 349l-139 -351l170 1h118v1zM465 248l-117 -3q-26 0 -96.5 1.5t-82.5 1.5l-17 -42q-36 -97 -36 -149q0 -49 56 -49q4 0 15 1.5t13 1.5q7 0 7 -5q0 -6 -12 -6q-9 0 -57.5 1t-56.5 1
q-5 0 -37 -1t-46 -1q-6 0 -6 5q0 4 6 4h4q40 0 72 60q37 63 66 142l191 478q-27 5 -43.5 25t-16.5 48q0 31 21.5 52.5t52.5 21.5t52.5 -21.5t21.5 -52.5q0 -27 -16.5 -47t-41.5 -26l181 -430q50 -120 76.5 -171t43 -65t42.5 -14h8q7 0 7 -4q0 -5 -6 -5q-16 0 -55.5 1.5
t-45.5 1.5t-55.5 -1.5t-65.5 -1.5q-7 0 -8 5q2 3 5 4h21q28 0 30 19q5 38 -74 220z" />
    <glyph glyph-name="AE" unicode="&#xc6;" horiz-adv-x="1007" 
d="M468 259l-107 361l-3 8l-172 -371l164 1h118v1zM471 248l-118 -3q-26 0 -91 1.5t-80 1.5l-19 -42q-40 -91 -44 -149q-1 -25 12 -37t40 -12q5 0 16 1.5t12 1.5q7 0 7 -5q-2 -6 -12 -6q-9 0 -57.5 1t-56.5 1q-5 0 -36.5 -1t-44.5 -1q-4 0 -5.5 1.5t-0.5 3.5q0 4 6 4h4
q37 0 74 60q35 56 75 142l201 434q-10 24 -22 31.5t-40 7.5q-6 0 -6 4.5t6 4.5q17 0 62.5 -1t51.5 -1h241q46 0 141 1t108 1l9 -1h-1q-4 -2 -1 -3q4 -2 29 -184l4 -36q2 -5 -3 -5t-7 5l-5 36q-14 84 -69 129t-142 46h-275q-6 0 -4 -6l84 -292h104q87 0 119 29t32 86v21
q0 6 5 6t5 -6q0 -17 -2.5 -76.5t-2.5 -65.5q0 -7 2.5 -68t2.5 -69q0 -6 -5 -6t-5 6v15q0 57 -32 86.5t-120 29.5h-99l32 -111q33 -118 53 -169.5t34.5 -65t40.5 -13.5h69q83 0 136.5 59.5t64.5 142.5l6 53q0 3 3 4.5t5.5 -0.5t2.5 -5l-6 -54q-23 -193 -29 -204q-1 -2 -2 -3
q-4 -4 -133 -4h-109q-16 0 -55.5 1.5t-45.5 1.5t-56 -1.5t-67 -1.5q-6 0 -6 4.5t6 4.5h21q29 0 34 22q8 38 -46 217z" />
    <glyph glyph-name="Ccedilla" unicode="&#xc7;" horiz-adv-x="756" 
d="M133 346q0 -156 76.5 -251t210.5 -95q234 0 261 267h8l-12 -233q-101 -44 -255 -44q-2 0 -6 0.5t-5 0.5l-41 -62q2 -3 5 -3q68 0 103.5 -22t35.5 -50q0 -46 -36 -92.5t-86 -46.5q-35 0 -59.5 10.5t-24.5 27.5q0 18 10.5 30t27.5 12t45 -22.5t52 -22.5q20 0 33 17t13 38
q0 70 -161 70q-11 0 -4 10q74 98 79 106q-155 6 -257.5 106.5t-102.5 248.5q0 154 113 255.5t270 101.5q62 0 135 -13t114 -31l12 -218h-9q-25 252 -250 252q-134 0 -214.5 -96t-80.5 -251z" />
    <glyph glyph-name="Egrave" unicode="&#xc8;" horiz-adv-x="622" 
d="M347 768q-31 32 -89 77l-59 45q-12 9 -12 17q0 16 3 19t18 3q18 0 24 -6q3 -3 22.5 -31t47 -62.5t50.5 -55.5q3 -3 3 -4q0 -4 -4 -4q-2 0 -4 2zM171 434v-69h83q88 0 120 29t32 86v21q0 6 5 6t5 -6q0 -17 -2.5 -76.5t-2.5 -65.5q0 -7 2.5 -68t2.5 -69q0 -6 -5 -6t-5 6v15
q0 57 -32 86.5t-120 29.5h-83v-192q0 -113 -8 -147q14 0 93.5 -1.5t95.5 -1.5q84 0 142.5 60.5t68.5 141.5l6 53q0 3 3 4.5t5.5 -0.5t2.5 -5l-6 -54q-23 -193 -29 -204q-1 -2 -2 -3q-4 -4 -133 -4q-15 0 -69.5 0.5t-83.5 0.5q-16 1 -49.5 1.5t-50.5 0.5l-141 -3q-7 0 -8 3
q-1 2 2 3t6 1q32 0 44.5 7.5t19.5 34t11 91.5q4 55 4 294q0 95 -1.5 143t-9.5 73.5t-17 29.5t-30 4h-18q-6 0 -6 4.5t6 4.5q16 0 60.5 -1.5t50.5 -1.5q4 0 168 1.5t184 1.5q38 0 47 -4q4 -2 29 -184l4 -36q2 -5 -3 -5t-7 5l-5 36q-14 84 -69 129.5t-142 46.5h-127
q-29 0 -34 -20t-4 -141v-86z" />
    <glyph glyph-name="Eacute" unicode="&#xc9;" horiz-adv-x="622" 
d="M288 768q-2 -2 -4 -2q-4 0 -4 4q0 1 3 4q22 21 49.5 55.5t47.5 62.5t23 31q6 6 24 6q15 0 18 -3t3 -19q0 -8 -12 -17l-58 -45q-59 -45 -90 -77zM171 434v-69h83q88 0 120 29t32 86v21q0 6 5 6t5 -6q0 -17 -2.5 -76.5t-2.5 -65.5q0 -7 2.5 -68t2.5 -69q0 -6 -5 -6t-5 6v15
q0 57 -32 86.5t-120 29.5h-83v-192q0 -113 -8 -147q14 0 93.5 -1.5t95.5 -1.5q84 0 142.5 60.5t68.5 141.5l6 53q0 3 3 4.5t5.5 -0.5t2.5 -5l-6 -54q-23 -193 -29 -204q-1 -2 -2 -3q-4 -4 -133 -4q-15 0 -69.5 0.5t-83.5 0.5q-16 1 -49.5 1.5t-50.5 0.5l-141 -3q-7 0 -8 3
q-1 2 2 3t6 1q32 0 44.5 7.5t19.5 34t11 91.5q4 55 4 294q0 95 -1.5 143t-9.5 73.5t-17 29.5t-30 4h-18q-6 0 -6 4.5t6 4.5q16 0 60.5 -1.5t50.5 -1.5q4 0 168 1.5t184 1.5q38 0 47 -4q4 -2 29 -184l4 -36q2 -5 -3 -5t-7 5l-5 36q-14 84 -69 129.5t-142 46.5h-127
q-29 0 -34 -20t-4 -141v-86z" />
    <glyph glyph-name="Ecircumflex" unicode="&#xca;" horiz-adv-x="622" 
d="M310 912q-4 4 -7 0l-82 -122q-14 -19 -34 -19t-20 14q0 9 18 29q50 57 117 107q4 5 9 0q72 -55 121 -97q20 -19 20 -29q0 -7 -6.5 -14t-16.5 -7q-20 0 -35 21q-14 20 -84 117zM171 434v-69h83q88 0 120 29t32 86v21q0 6 5 6t5 -6q0 -17 -2.5 -76.5t-2.5 -65.5
q0 -7 2.5 -68t2.5 -69q0 -6 -5 -6t-5 6v15q0 57 -32 86.5t-120 29.5h-83v-192q0 -113 -8 -147q14 0 93.5 -1.5t95.5 -1.5q84 0 142.5 60.5t68.5 141.5l6 53q0 3 3 4.5t5.5 -0.5t2.5 -5l-6 -54q-23 -193 -29 -204q-1 -2 -2 -3q-4 -4 -133 -4q-15 0 -69.5 0.5t-83.5 0.5
q-16 1 -49.5 1.5t-50.5 0.5l-141 -3q-7 0 -8 3q-1 2 2 3t6 1q32 0 44.5 7.5t19.5 34t11 91.5q4 55 4 294q0 95 -1.5 143t-9.5 73.5t-17 29.5t-30 4h-18q-6 0 -6 4.5t6 4.5q16 0 60.5 -1.5t50.5 -1.5q4 0 168 1.5t184 1.5q38 0 47 -4q4 -2 29 -184l4 -36q2 -5 -3 -5t-7 5
l-5 36q-14 84 -69 129.5t-142 46.5h-127q-29 0 -34 -20t-4 -141v-86z" />
    <glyph glyph-name="Edieresis" unicode="&#xcb;" horiz-adv-x="622" 
d="M366 830q0 20 14.5 35t34.5 15t35 -15t15 -35t-15 -34.5t-35 -14.5t-34.5 14.5t-14.5 34.5zM168 830q0 20 14.5 35t34.5 15t35 -15t15 -35t-15 -34.5t-35 -14.5t-34.5 14.5t-14.5 34.5zM171 434v-69h83q88 0 120 29t32 86v21q0 6 5 6t5 -6q0 -17 -2.5 -76.5t-2.5 -65.5
q0 -7 2.5 -68t2.5 -69q0 -6 -5 -6t-5 6v15q0 57 -32 86.5t-120 29.5h-83v-192q0 -113 -8 -147q14 0 93.5 -1.5t95.5 -1.5q84 0 142.5 60.5t68.5 141.5l6 53q0 3 3 4.5t5.5 -0.5t2.5 -5l-6 -54q-23 -193 -29 -204q-1 -2 -2 -3q-4 -4 -133 -4q-15 0 -69.5 0.5t-83.5 0.5
q-16 1 -49.5 1.5t-50.5 0.5l-141 -3q-7 0 -8 3q-1 2 2 3t6 1q32 0 44.5 7.5t19.5 34t11 91.5q4 55 4 294q0 95 -1.5 143t-9.5 73.5t-17 29.5t-30 4h-18q-6 0 -6 4.5t6 4.5q16 0 60.5 -1.5t50.5 -1.5q4 0 168 1.5t184 1.5q38 0 47 -4q4 -2 29 -184l4 -36q2 -5 -3 -5t-7 5
l-5 36q-14 84 -69 129.5t-142 46.5h-127q-29 0 -34 -20t-4 -141v-86z" />
    <glyph glyph-name="Igrave" unicode="&#xcc;" horiz-adv-x="281" 
d="M147 768q-31 32 -89 77l-59 45q-12 9 -12 17q0 16 3 19t18 3q18 0 24 -6q3 -3 22.5 -31t47 -62.5t50.5 -55.5q3 -3 3 -4q0 -4 -4 -4q-2 0 -4 2zM102 259v175q0 99 -1 143.5t-8 72t-15.5 31t-29.5 3.5h-21q-6 0 -6 4.5t6 4.5q15 0 62 -1.5t52 -1.5q6 0 51.5 1.5t61.5 1.5
q6 0 6 -4.5t-6 -4.5h-21q-21 0 -29.5 -3.5t-15.5 -31t-8 -72t-1 -143.5v-175q0 -99 1 -143.5t8 -72t15.5 -31t29.5 -3.5h21q6 0 6 -4.5t-6 -4.5q-16 0 -61.5 1.5t-51.5 1.5q-5 0 -52 -1.5t-62 -1.5q-6 0 -6 4.5t6 4.5h21q21 0 29.5 3.5t15.5 31t8 72t1 143.5z" />
    <glyph glyph-name="Iacute" unicode="&#xcd;" horiz-adv-x="281" 
d="M125 768q-2 -2 -4 -2q-4 0 -4 4q0 1 3 4q22 21 49.5 55.5t47.5 62.5t23 31q6 6 24 6q15 0 18 -3t3 -19q0 -8 -12 -17l-59 -45q-58 -45 -89 -77zM102 259v175q0 99 -1 143.5t-8 72t-15.5 31t-29.5 3.5h-21q-6 0 -6 4.5t6 4.5q15 0 62 -1.5t52 -1.5q6 0 51.5 1.5t61.5 1.5
q6 0 6 -4.5t-6 -4.5h-21q-21 0 -29.5 -3.5t-15.5 -31t-8 -72t-1 -143.5v-175q0 -99 1 -143.5t8 -72t15.5 -31t29.5 -3.5h21q6 0 6 -4.5t-6 -4.5q-16 0 -61.5 1.5t-51.5 1.5q-5 0 -52 -1.5t-62 -1.5q-6 0 -6 4.5t6 4.5h21q21 0 29.5 3.5t15.5 31t8 72t1 143.5z" />
    <glyph glyph-name="Icircumflex" unicode="&#xce;" horiz-adv-x="281" 
d="M141 912q-4 4 -7 0l-82 -122q-14 -19 -34 -19t-20 14q0 9 18 29q50 57 117 107q5 5 9 0q72 -55 121 -97q20 -19 20 -29q0 -7 -6.5 -14t-16.5 -7q-20 0 -35 21q-14 20 -84 117zM102 259v175q0 99 -1 143.5t-8 72t-15.5 31t-29.5 3.5h-21q-6 0 -6 4.5t6 4.5q15 0 62 -1.5
t52 -1.5q6 0 51.5 1.5t61.5 1.5q6 0 6 -4.5t-6 -4.5h-21q-21 0 -29.5 -3.5t-15.5 -31t-8 -72t-1 -143.5v-175q0 -99 1 -143.5t8 -72t15.5 -31t29.5 -3.5h21q6 0 6 -4.5t-6 -4.5q-16 0 -61.5 1.5t-51.5 1.5q-5 0 -52 -1.5t-62 -1.5q-6 0 -6 4.5t6 4.5h21q21 0 29.5 3.5
t15.5 31t8 72t1 143.5z" />
    <glyph glyph-name="Idieresis" unicode="&#xcf;" horiz-adv-x="281" 
d="M-6 830q0 20 14.5 35t34.5 15t35 -15t15 -35t-15 -34.5t-35 -14.5t-34.5 14.5t-14.5 34.5zM192 830q0 20 14.5 35t34.5 15t35 -15t15 -35t-15 -34.5t-35 -14.5t-34.5 14.5t-14.5 34.5zM102 259v175q0 99 -1 143.5t-8 72t-15.5 31t-29.5 3.5h-21q-6 0 -6 4.5t6 4.5
q15 0 62 -1.5t52 -1.5q6 0 51.5 1.5t61.5 1.5q6 0 6 -4.5t-6 -4.5h-21q-21 0 -29.5 -3.5t-15.5 -31t-8 -72t-1 -143.5v-175q0 -99 1 -143.5t8 -72t15.5 -31t29.5 -3.5h21q6 0 6 -4.5t-6 -4.5q-16 0 -61.5 1.5t-51.5 1.5q-5 0 -52 -1.5t-62 -1.5q-6 0 -6 4.5t6 4.5h21
q21 0 29.5 3.5t15.5 31t8 72t1 143.5z" />
    <glyph glyph-name="Eth" unicode="&#xd0;" horiz-adv-x="733" 
d="M601 346q0 154 -80.5 246t-214.5 92h-66q-51 0 -60 -33t-9 -217v-74q82 0 123 1q35 1 35 -1q0 -7 -46 -51q-5 0 -46.5 0.5t-65.5 0.5v-149q0 -113 -8 -147q10 0 67.5 -2t83.5 -2q135 0 211 90.5t76 245.5zM690 346q0 -152 -107.5 -249t-270.5 -97q-55 0 -90 1
q-11 1 -32.5 1.5t-32.5 0.5l-141 -3q-7 0 -8 3q-1 2 2 3t6 1q32 0 44.5 7.5t19.5 34t11 91.5q2 29 2 169q-7 0 -21.5 -0.5t-22.5 -0.5q-35 -1 -35 2q0 7 46 51q2 0 13 -0.5t19 -0.5v33q0 22 -1.5 96.5t-1.5 103.5q0 68 -8.5 79.5t-57.5 11.5q-6 0 -6 4.5t6 4.5q4 0 58.5 -1
t63.5 -1q6 0 76.5 1t86.5 1q159 0 270.5 -97.5t111.5 -249.5z" />
    <glyph glyph-name="Ntilde" unicode="&#xd1;" horiz-adv-x="716" 
d="M207 787q44 57 61.5 75t34.5 18q22 0 77 -29.5t73 -29.5q14 0 22.5 8t36.5 47q7 7 9 3q2 -2 -2 -8q-36 -53 -59 -76.5t-45 -23.5q-21 0 -75 31.5t-73 31.5q-8 0 -17 -9t-36 -43q-6 -7 -8.5 -4.5t1.5 9.5zM3 685h-4q-3 0 -4.5 2t0 4t4.5 2q46 0 81 1t52 2l16 1q7 0 10 -6
q10 -19 39 -53l416 -517v313q0 70 -8 119.5t-18 74.5t-27.5 38.5t-29.5 15.5t-31 2h-14q-6 0 -6 4.5t6 4.5q16 0 72 -1.5t62 -1.5t34 1.5t44 1.5q6 0 6 -4.5t-6 -4.5h-7q-28 0 -39 -11t-18 -64.5t-7 -174.5v-427q0 -10 -8 -10q-9 0 -25 22l-482 601l-1 -361q0 -71 6.5 -120
t15.5 -74t25.5 -38.5t27.5 -15.5t30 -2h14q3 0 4.5 -2t0 -4.5t-4.5 -2.5q-17 0 -71.5 1.5t-60.5 1.5t-35.5 -1.5t-45.5 -1.5q-5 0 -5 4q1 4 6 5h6q26 0 39.5 12t24 69t10.5 169l1 359q0 15 -16 31q-36 36 -79 36z" />
    <glyph glyph-name="Ograve" unicode="&#xd2;" horiz-adv-x="794" 
d="M443 758q-31 32 -89 77l-59 45q-12 9 -12 17q0 16 3 19t18 3q18 0 24 -6q3 -3 22.5 -31t47 -62.5t50.5 -55.5q3 -3 3 -4q0 -4 -4 -4q-2 0 -4 2zM133 346q0 -157 67.5 -251.5t187.5 -94.5q123 0 198 96t75 250q0 156 -69.5 251.5t-189.5 95.5q-122 0 -195.5 -96
t-73.5 -251zM43 346q0 153 105 255t250 102q143 0 247.5 -103t104.5 -254q0 -150 -107 -253t-251 -103q-143 0 -246 102.5t-103 253.5z" />
    <glyph glyph-name="Oacute" unicode="&#xd3;" horiz-adv-x="794" 
d="M341 758q-2 -2 -4 -2q-4 0 -4 4q0 1 3 4q22 21 49.5 55.5t47.5 62.5t23 31q6 6 24 6q15 0 18 -3t3 -19q0 -8 -12 -17l-59 -45q-58 -45 -89 -77zM133 346q0 -157 67.5 -251.5t187.5 -94.5q123 0 198 96t75 250q0 156 -69.5 251.5t-189.5 95.5q-122 0 -195.5 -96
t-73.5 -251zM43 346q0 153 105 255t250 102q143 0 247.5 -103t104.5 -254q0 -150 -107 -253t-251 -103q-143 0 -246 102.5t-103 253.5z" />
    <glyph glyph-name="Ocircumflex" unicode="&#xd4;" horiz-adv-x="794" 
d="M405 912q-4 4 -7 0l-82 -122q-14 -19 -34 -19t-20 14q0 9 18 29q50 57 117 107q5 5 9 0q72 -55 121 -97q20 -19 20 -29q0 -7 -6.5 -14t-16.5 -7q-20 0 -35 21q-14 20 -84 117zM133 346q0 -157 67.5 -251.5t187.5 -94.5q123 0 198 96t75 250q0 156 -69.5 251.5
t-189.5 95.5q-122 0 -195.5 -96t-73.5 -251zM43 346q0 153 105 255t250 102q143 0 247.5 -103t104.5 -254q0 -150 -107 -253t-251 -103q-143 0 -246 102.5t-103 253.5z" />
    <glyph glyph-name="Otilde" unicode="&#xd5;" horiz-adv-x="794" 
d="M253 792q44 57 61.5 75t34.5 18q22 0 77 -29.5t73 -29.5q14 0 22.5 8t36.5 47q7 7 9 3q2 -2 -2 -8q-36 -53 -59 -76.5t-45 -23.5q-21 0 -75 31.5t-73 31.5q-8 0 -17 -9t-36 -43q-6 -7 -8.5 -4.5t1.5 9.5zM133 346q0 -157 67.5 -251.5t187.5 -94.5q123 0 198 96t75 250
q0 156 -69.5 251.5t-189.5 95.5q-122 0 -195.5 -96t-73.5 -251zM43 346q0 153 105 255t250 102q143 0 247.5 -103t104.5 -254q0 -150 -107 -253t-251 -103q-143 0 -246 102.5t-103 253.5z" />
    <glyph glyph-name="Odieresis" unicode="&#xd6;" horiz-adv-x="794" 
d="M256 830q0 20 14.5 35t34.5 15t35 -15t15 -35t-15 -34.5t-35 -14.5t-34.5 14.5t-14.5 34.5zM454 830q0 20 14.5 35t34.5 15t35 -15t15 -35t-15 -34.5t-35 -14.5t-34.5 14.5t-14.5 34.5zM133 346q0 -157 67.5 -251.5t187.5 -94.5q123 0 198 96t75 250q0 156 -69.5 251.5
t-189.5 95.5q-122 0 -195.5 -96t-73.5 -251zM43 346q0 153 105 255t250 102q143 0 247.5 -103t104.5 -254q0 -150 -107 -253t-251 -103q-143 0 -246 102.5t-103 253.5z" />
    <glyph glyph-name="multiply" unicode="&#xd7;" 
d="M139 93q-13 1 -23 19q69 56 152 139q-46 46 -144 131q-2 11 16 21q31 -39 136 -144l1 1q27 27 137 147q11 0 20 -15q-16 -11 -35 -28.5t-32 -30t-40.5 -40.5t-40.5 -41l-1 -1q78 -78 146 -132q0 -10 -18 -20q-14 20 -33.5 40.5t-52 53l-50.5 50.5q-103 -103 -138 -150z
" />
    <glyph glyph-name="Oslash" unicode="&#xd8;" horiz-adv-x="794" 
d="M397 332q-40 -63 -168 -270q64 -62 159 -62q123 0 198 96t75 250q0 178 -85 271q-42 -63 -179 -285zM133 346q0 -180 84 -272q53 82 168 264l178 292q-68 63 -161 63q-122 0 -195.5 -96t-73.5 -251zM43 346q0 153 105 255t250 102q94 0 180 -50l105 173q12 1 15 -0.5
t12 -8.5q-54 -75 -117 -174q72 -49 114.5 -126t42.5 -171q0 -150 -107 -253t-251 -103q-95 0 -177 49q-35 -56 -110 -183q-14 -3 -17 -2.5t-11 8.5q98 148 123 186q-73 48 -115 125.5t-42 172.5z" />
    <glyph glyph-name="Ugrave" unicode="&#xd9;" horiz-adv-x="665" 
d="M389 754q-31 32 -89 77l-59 45q-12 9 -12 17q0 16 3 19t18 3q18 0 24 -6q3 -3 22.5 -31t47 -62.5t50.5 -55.5q3 -3 3 -4q0 -4 -4 -4q-2 0 -4 2zM567 244v190q0 70 -7.5 119.5t-17.5 74.5t-27 38.5t-29 15.5t-31 2h-9q-6 0 -6 4.5t6 4.5q16 0 68.5 -1.5t58.5 -1.5t35 1.5
t45 1.5q6 0 6 -4.5t-6 -4.5h-7q-21 0 -31 -4.5t-19 -28.5t-12 -74.5t-3 -142.5v-190q0 -105 -69 -179.5t-185 -74.5q-110 0 -174.5 70t-64.5 192v182q0 99 -1 144t-8 72t-15 30.5t-29 3.5h-14q-6 0 -6 4.5t6 4.5q16 0 58 -1.5t48 -1.5q5 0 49.5 1.5t60.5 1.5q6 0 6 -4.5
t-6 -4.5h-18q-21 0 -29.5 -4t-15.5 -30t-8.5 -72.5t-1.5 -143.5l-1 -155q0 -121 57 -189t157 -68q81 0 135.5 64t54.5 158z" />
    <glyph glyph-name="Uacute" unicode="&#xda;" horiz-adv-x="665" 
d="M288 753q-2 -2 -4 -2q-4 0 -4 4q0 1 3 4q22 21 49.5 55.5t47.5 62.5t23 31q6 6 24 6q15 0 18 -3t3 -19q0 -8 -12 -17l-58 -45q-59 -45 -90 -77zM567 244v190q0 70 -7.5 119.5t-17.5 74.5t-27 38.5t-29 15.5t-31 2h-9q-6 0 -6 4.5t6 4.5q16 0 68.5 -1.5t58.5 -1.5t35 1.5
t45 1.5q6 0 6 -4.5t-6 -4.5h-7q-21 0 -31 -4.5t-19 -28.5t-12 -74.5t-3 -142.5v-190q0 -105 -69 -179.5t-185 -74.5q-110 0 -174.5 70t-64.5 192v182q0 99 -1 144t-8 72t-15 30.5t-29 3.5h-14q-6 0 -6 4.5t6 4.5q16 0 58 -1.5t48 -1.5q5 0 49.5 1.5t60.5 1.5q6 0 6 -4.5
t-6 -4.5h-18q-21 0 -29.5 -4t-15.5 -30t-8.5 -72.5t-1.5 -143.5l-1 -155q0 -121 57 -189t157 -68q81 0 135.5 64t54.5 158z" />
    <glyph glyph-name="Ucircumflex" unicode="&#xdb;" horiz-adv-x="665" 
d="M350 902q-4 4 -7 0l-82 -122q-14 -19 -34 -19t-20 14q0 9 18 29q50 57 117 107q4 5 9 0q72 -55 121 -97q20 -19 20 -29q0 -7 -6.5 -14t-16.5 -7q-20 0 -35 21q-14 20 -84 117zM567 244v190q0 70 -7.5 119.5t-17.5 74.5t-27 38.5t-29 15.5t-31 2h-9q-6 0 -6 4.5t6 4.5
q16 0 68.5 -1.5t58.5 -1.5t35 1.5t45 1.5q6 0 6 -4.5t-6 -4.5h-7q-21 0 -31 -4.5t-19 -28.5t-12 -74.5t-3 -142.5v-190q0 -105 -69 -179.5t-185 -74.5q-110 0 -174.5 70t-64.5 192v182q0 99 -1 144t-8 72t-15 30.5t-29 3.5h-14q-6 0 -6 4.5t6 4.5q16 0 58 -1.5t48 -1.5
q5 0 49.5 1.5t60.5 1.5q6 0 6 -4.5t-6 -4.5h-18q-21 0 -29.5 -4t-15.5 -30t-8.5 -72.5t-1.5 -143.5l-1 -155q0 -121 57 -189t157 -68q81 0 135.5 64t54.5 158z" />
    <glyph glyph-name="Udieresis" unicode="&#xdc;" horiz-adv-x="665" 
d="M394 810q0 20 14.5 35t34.5 15t35 -15t15 -35t-15 -34.5t-35 -14.5t-34.5 14.5t-14.5 34.5zM196 810q0 20 14.5 35t34.5 15t35 -15t15 -35t-15 -34.5t-35 -14.5t-34.5 14.5t-14.5 34.5zM567 244v190q0 70 -7.5 119.5t-17.5 74.5t-27 38.5t-29 15.5t-31 2h-9q-6 0 -6 4.5
t6 4.5q16 0 68.5 -1.5t58.5 -1.5t35 1.5t45 1.5q6 0 6 -4.5t-6 -4.5h-7q-21 0 -31 -4.5t-19 -28.5t-12 -74.5t-3 -142.5v-190q0 -105 -69 -179.5t-185 -74.5q-110 0 -174.5 70t-64.5 192v182q0 99 -1 144t-8 72t-15 30.5t-29 3.5h-14q-6 0 -6 4.5t6 4.5q16 0 58 -1.5
t48 -1.5q5 0 49.5 1.5t60.5 1.5q6 0 6 -4.5t-6 -4.5h-18q-21 0 -29.5 -4t-15.5 -30t-8.5 -72.5t-1.5 -143.5l-1 -155q0 -121 57 -189t157 -68q81 0 135.5 64t54.5 158z" />
    <glyph glyph-name="Yacute" unicode="&#xdd;" horiz-adv-x="615" 
d="M270 748q-2 -2 -4 -2q-4 0 -4 4q0 1 3 4q22 21 49.5 55.5t47.5 62.5t23 31q6 6 24 6q15 0 18 -3t3 -19q0 -8 -12 -17l-58 -45q-59 -45 -90 -77zM459 509l-110 -192v-58q0 -99 1 -143.5t8 -72t15.5 -31t29.5 -3.5h18q6 0 6 -4.5t-6 -4.5q-16 0 -59.5 1.5t-49.5 1.5
q-5 0 -49.5 -1.5t-60.5 -1.5q-6 0 -6 4.5t6 4.5h18q21 0 29.5 3.5t15.5 31t8 72t1 143.5v55l-108 195q-60 108 -88.5 141.5t-65.5 33.5h-8q-7 0 -7 4q0 5 6 5q16 0 54.5 -1.5t44.5 -1.5t55.5 1.5t65.5 1.5q7 0 8 -5q-2 -3 -5 -4h-21q-19 0 -25.5 -8.5t0 -31.5t22 -54
t45.5 -86l95 -175l106 183q11 19 21.5 44t17.5 56t-5 52t-46 21q-4 0 -15 -2t-13 -2q-7 0 -7 6t12 6q9 0 53 -1t52 -1q5 0 50.5 1t58.5 1q7 0 4 -5q-2 -3 -6 -4h-2q-26 0 -63.5 -38.5t-60.5 -73t-40 -63.5z" />
    <glyph glyph-name="Thorn" unicode="&#xde;" horiz-adv-x="606" 
d="M172 157h126q93 0 143.5 52t50.5 144q0 182 -193 182h-127v-378zM95 259v175q0 99 -1 143.5t-8 72t-15.5 31t-29.5 3.5h-21q-6 0 -6 4.5t6 4.5q15 0 62 -1.5t52 -1.5q6 0 51.5 1.5t61.5 1.5q6 0 6 -4.5t-6 -4.5h-21q-23 0 -32 -6.5t-15 -35.5t-7 -97h142
q123 0 193.5 -50.5t70.5 -142.5t-71.5 -148.5t-186.5 -56.5h-148q1 -67 7 -96t15 -35.5t32 -6.5h21q6 0 6 -4.5t-6 -4.5q-16 0 -61.5 1.5t-51.5 1.5q-5 0 -52 -1.5t-62 -1.5q-6 0 -6 4.5t6 4.5h21q21 0 29.5 3.5t15.5 31t8 72t1 143.5z" />
    <glyph glyph-name="germandbls" unicode="&#xdf;" horiz-adv-x="554" 
d="M18 0q-6 0 -6 4.5t6 4.5q41 0 49.5 16t8.5 85q-1 60 -1 161v164v10h-58q-14 0 -14 6l36 49h44q27 108 119.5 193t162.5 85q50 0 79.5 -28t29.5 -69q0 -29 -22.5 -63t-49 -61.5t-49 -66t-22.5 -75.5q0 -39 20.5 -69t49.5 -49.5t58.5 -39t50 -50t20.5 -70.5
q0 -55 -42 -97.5t-94 -42.5q-72 0 -106 22.5t-34 56.5q0 20 13 32t29 12q35 0 39 -51q6 -65 60 -65q39 0 61 23.5t22 67.5q0 36 -20 63t-48.5 46l-57 38t-48.5 49t-20 69q0 42 32.5 93t65 100t32.5 88q0 37 -28.5 59.5t-78.5 22.5q-157 0 -157 -230v-200q0 -116 1 -183
q0 -73 9.5 -87t54.5 -14q6 0 6 -4.5t-6 -4.5q-17 0 -55.5 1t-44.5 1t-43 -1t-54 -1z" />
    <glyph glyph-name="agrave" unicode="&#xe0;" horiz-adv-x="514" 
d="M340 559q-31 32 -90 77l-58 45q-12 9 -12 17q0 16 3 19t18 3q18 0 24 -6q3 -3 22.5 -31t47 -62.5t50.5 -55.5q3 -3 3 -4q0 -4 -4 -4q-2 0 -4 2zM102 130q0 -39 33 -68t71 -29t92.5 52t61.5 81q6 78 6 144v21l-82 -35q-111 -46 -146.5 -78.5t-35.5 -87.5zM156 -11
q-58 0 -91 32t-33 80q0 108 250 205l83 32q-4 92 -27.5 127.5t-79.5 35.5q-30 0 -54 -14t-34.5 -28t-24 -39.5t-16.5 -29.5q-12 -18 -45 -18q-40 0 -40 23q0 25 35 47q37 25 92 46.5t103 21.5q79 0 124 -44t45 -138q0 -37 -4 -119.5t-4 -99.5q0 -85 28 -85q12 0 28.5 18.5
t25.5 36.5q2 4 6.5 3.5t6 -4t-0.5 -7.5q-14 -22 -53 -51.5t-65 -29.5q-57 0 -57 71q0 54 4 82q-26 -44 -90.5 -99t-111.5 -55z" />
    <glyph glyph-name="aacute" unicode="&#xe1;" horiz-adv-x="514" 
d="M226 559q-2 -2 -4 -2q-4 0 -4 4q0 1 3 4q22 21 49.5 55.5t47.5 62.5t23 31q6 6 24 6q15 0 18 -3t3 -19q0 -8 -12 -17l-58 -45q-59 -45 -90 -77zM102 130q0 -39 33 -68t71 -29t92.5 52t61.5 81q6 78 6 144v21l-82 -35q-111 -46 -146.5 -78.5t-35.5 -87.5zM156 -11
q-58 0 -91 32t-33 80q0 108 250 205l83 32q-4 92 -27.5 127.5t-79.5 35.5q-30 0 -54 -14t-34.5 -28t-24 -39.5t-16.5 -29.5q-12 -18 -45 -18q-40 0 -40 23q0 25 35 47q37 25 92 46.5t103 21.5q79 0 124 -44t45 -138q0 -37 -4 -119.5t-4 -99.5q0 -85 28 -85q12 0 28.5 18.5
t25.5 36.5q2 4 6.5 3.5t6 -4t-0.5 -7.5q-14 -22 -53 -51.5t-65 -29.5q-57 0 -57 71q0 54 4 82q-26 -44 -90.5 -99t-111.5 -55z" />
    <glyph glyph-name="acircumflex" unicode="&#xe2;" horiz-adv-x="514" 
d="M266 718q-4 4 -7 0l-82 -122q-14 -19 -34 -19t-20 14q0 9 18 29q50 57 117 107q4 5 9 0q72 -55 121 -97q20 -19 20 -29q0 -7 -6.5 -14t-16.5 -7q-20 0 -35 21q-14 20 -84 117zM102 130q0 -39 33 -68t71 -29t92.5 52t61.5 81q6 78 6 144v21l-82 -35q-111 -46 -146.5 -78.5
t-35.5 -87.5zM156 -11q-58 0 -91 32t-33 80q0 108 250 205l83 32q-4 92 -27.5 127.5t-79.5 35.5q-30 0 -54 -14t-34.5 -28t-24 -39.5t-16.5 -29.5q-12 -18 -45 -18q-40 0 -40 23q0 25 35 47q37 25 92 46.5t103 21.5q79 0 124 -44t45 -138q0 -37 -4 -119.5t-4 -99.5
q0 -85 28 -85q12 0 28.5 18.5t25.5 36.5q2 4 6.5 3.5t6 -4t-0.5 -7.5q-14 -22 -53 -51.5t-65 -29.5q-57 0 -57 71q0 54 4 82q-26 -44 -90.5 -99t-111.5 -55z" />
    <glyph glyph-name="atilde" unicode="&#xe3;" horiz-adv-x="514" 
d="M116 593q44 57 61.5 75t34.5 18q22 0 77 -29.5t73 -29.5q14 0 22.5 8t36.5 47q7 7 9 3q2 -2 -2 -8q-36 -53 -59 -76.5t-45 -23.5q-21 0 -75 31.5t-73 31.5q-8 0 -17 -9t-36 -43q-6 -7 -8.5 -4.5t1.5 9.5zM102 130q0 -39 33 -68t71 -29t92.5 52t61.5 81q6 78 6 144v21
l-82 -35q-111 -46 -146.5 -78.5t-35.5 -87.5zM156 -11q-58 0 -91 32t-33 80q0 108 250 205l83 32q-4 92 -27.5 127.5t-79.5 35.5q-30 0 -54 -14t-34.5 -28t-24 -39.5t-16.5 -29.5q-12 -18 -45 -18q-40 0 -40 23q0 25 35 47q37 25 92 46.5t103 21.5q79 0 124 -44t45 -138
q0 -37 -4 -119.5t-4 -99.5q0 -85 28 -85q12 0 28.5 18.5t25.5 36.5q2 4 6.5 3.5t6 -4t-0.5 -7.5q-14 -22 -53 -51.5t-65 -29.5q-57 0 -57 71q0 54 4 82q-26 -44 -90.5 -99t-111.5 -55z" />
    <glyph glyph-name="adieresis" unicode="&#xe4;" horiz-adv-x="514" 
d="M116 636q0 20 14.5 35t34.5 15t35 -15t15 -35t-15 -34.5t-35 -14.5t-34.5 14.5t-14.5 34.5zM314 636q0 20 14.5 35t34.5 15t35 -15t15 -35t-15 -34.5t-35 -14.5t-34.5 14.5t-14.5 34.5zM102 130q0 -39 33 -68t71 -29t92.5 52t61.5 81q6 78 6 144v21l-82 -35
q-111 -46 -146.5 -78.5t-35.5 -87.5zM156 -11q-58 0 -91 32t-33 80q0 108 250 205l83 32q-4 92 -27.5 127.5t-79.5 35.5q-30 0 -54 -14t-34.5 -28t-24 -39.5t-16.5 -29.5q-12 -18 -45 -18q-40 0 -40 23q0 25 35 47q37 25 92 46.5t103 21.5q79 0 124 -44t45 -138
q0 -37 -4 -119.5t-4 -99.5q0 -85 28 -85q12 0 28.5 18.5t25.5 36.5q2 4 6.5 3.5t6 -4t-0.5 -7.5q-14 -22 -53 -51.5t-65 -29.5q-57 0 -57 71q0 54 4 82q-26 -44 -90.5 -99t-111.5 -55z" />
    <glyph glyph-name="aring" unicode="&#xe5;" horiz-adv-x="514" 
d="M207 649q0 -26 18 -44t44 -18t44 18t18 44t-18 44t-44 18t-44 -18t-18 -44zM195 649q0 31 21.5 52.5t52.5 21.5t52.5 -21.5t21.5 -52.5t-21.5 -52.5t-52.5 -21.5t-52.5 21.5t-21.5 52.5zM102 130q0 -39 33 -68t71 -29t92.5 52t61.5 81q6 78 6 144v21l-82 -35
q-111 -46 -146.5 -78.5t-35.5 -87.5zM156 -11q-58 0 -91 32t-33 80q0 108 250 205l83 32q-4 92 -27.5 127.5t-79.5 35.5q-30 0 -54 -14t-34.5 -28t-24 -39.5t-16.5 -29.5q-12 -18 -45 -18q-40 0 -40 23q0 25 35 47q37 25 92 46.5t103 21.5q79 0 124 -44t45 -138
q0 -37 -4 -119.5t-4 -99.5q0 -85 28 -85q12 0 28.5 18.5t25.5 36.5q2 4 6.5 3.5t6 -4t-0.5 -7.5q-14 -22 -53 -51.5t-65 -29.5q-57 0 -57 71q0 54 4 82q-26 -44 -90.5 -99t-111.5 -55z" />
    <glyph glyph-name="ae" unicode="&#xe6;" horiz-adv-x="864" 
d="M698 356q31 0 40 9q9 11 9 32q0 32 -31 61.5t-84 29.5q-66 0 -113 -34.5t-67 -101.5q62 0 141 2t105 2zM376 183v127q0 16 -1 24l-91 -38q-111 -46 -146.5 -78.5t-35.5 -87.5q0 -39 33 -68t71 -29q42 0 98.5 56t71.5 94zM258 501q-30 0 -54 -14t-34.5 -28t-24 -39.5
t-16.5 -29.5q-12 -18 -45 -18q-40 0 -40 23q0 25 35 47q37 25 92 46.5t103 21.5q131 0 161 -115q43 53 103.5 84t121.5 31q51 0 88.5 -14.5t55.5 -36.5t25 -43.5t5 -40.5q-5 -31 -42 -31h-342q-8 -40 -8 -77q0 -92 70.5 -155.5t171.5 -63.5q88 0 146.5 49t102.5 145
q4 11 8 7q1 -3 -1 -9q-46 -106 -124 -178t-183 -72q-93 0 -160 49t-94 130q-24 -48 -96 -114t-127 -66q-58 0 -91 32t-33 80q0 108 250 205l93 36q-4 88 -32.5 123.5t-84.5 35.5z" />
    <glyph glyph-name="ccedilla" unicode="&#xe7;" horiz-adv-x="542" 
d="M388 -146q0 -46 -36 -92.5t-86 -46.5q-35 0 -59.5 10.5t-24.5 27.5q0 18 10.5 30t27.5 12t45 -22.5t52 -22.5q20 0 33 17t13 38q0 70 -161 70q-11 0 -4 10q11 15 39 52.5t39 52.5q-105 0 -172 67.5t-67 172.5q0 108 87.5 194t197.5 86q70 0 118.5 -23.5t48.5 -51.5
q0 -15 -13.5 -28t-35.5 -13q-13 0 -29 14.5t-30 32.5t-41 32.5t-60 14.5q-77 0 -127.5 -57t-50.5 -156q0 -100 64 -164.5t165 -64.5q70 0 120 33.5t89 103.5q3 5 7 4q5 -2 1 -7q-44 -80 -114.5 -133t-148.5 -57l-41 -61q2 -3 5 -3q68 0 103.5 -22t35.5 -50z" />
    <glyph glyph-name="egrave" unicode="&#xe8;" horiz-adv-x="516" 
d="M379 559q-31 32 -89 77l-59 45q-12 9 -12 17q0 16 3 19t18 3q18 0 24 -6q3 -3 22.5 -31t47 -62.5t50.5 -55.5q3 -3 3 -4q0 -4 -4 -4q-2 0 -4 2zM350 356q31 0 40 9q9 11 9 32q0 32 -31 61.5t-84 29.5q-66 0 -113 -34.5t-67 -101.5q62 0 140.5 2t105.5 2zM285 -10
q-113 0 -182 67t-69 173q0 111 86 195.5t192 84.5q51 0 88.5 -14.5t55.5 -36.5t25 -43.5t5 -40.5q-5 -31 -42 -31h-342q-8 -40 -8 -77q0 -92 70.5 -155.5t171.5 -63.5q87 0 147 49.5t104 144.5q4 11 8 7q1 -3 -1 -9q-45 -105 -124.5 -177.5t-184.5 -72.5z" />
    <glyph glyph-name="eacute" unicode="&#xe9;" horiz-adv-x="516" 
d="M245 559q-2 -2 -4 -2q-4 0 -4 4q0 1 3 4q22 21 49.5 55.5t47.5 62.5t23 31q6 6 24 6q15 0 18 -3t3 -19q0 -8 -12 -17l-59 -45q-58 -45 -89 -77zM350 356q31 0 40 9q9 11 9 32q0 32 -31 61.5t-84 29.5q-66 0 -113 -34.5t-67 -101.5q62 0 140.5 2t105.5 2zM285 -10
q-113 0 -182 67t-69 173q0 111 86 195.5t192 84.5q51 0 88.5 -14.5t55.5 -36.5t25 -43.5t5 -40.5q-5 -31 -42 -31h-342q-8 -40 -8 -77q0 -92 70.5 -155.5t171.5 -63.5q87 0 147 49.5t104 144.5q4 11 8 7q1 -3 -1 -9q-45 -105 -124.5 -177.5t-184.5 -72.5z" />
    <glyph glyph-name="ecircumflex" unicode="&#xea;" horiz-adv-x="516" 
d="M297 718q-4 4 -7 0l-82 -122q-14 -19 -34 -19t-20 14q0 9 18 29q50 57 117 107q5 5 9 0q72 -55 121 -97q20 -19 20 -29q0 -7 -6.5 -14t-16.5 -7q-20 0 -35 21q-14 20 -84 117zM350 356q31 0 40 9q9 11 9 32q0 32 -31 61.5t-84 29.5q-66 0 -113 -34.5t-67 -101.5
q62 0 140.5 2t105.5 2zM285 -10q-113 0 -182 67t-69 173q0 111 86 195.5t192 84.5q51 0 88.5 -14.5t55.5 -36.5t25 -43.5t5 -40.5q-5 -31 -42 -31h-342q-8 -40 -8 -77q0 -92 70.5 -155.5t171.5 -63.5q87 0 147 49.5t104 144.5q4 11 8 7q1 -3 -1 -9q-45 -105 -124.5 -177.5
t-184.5 -72.5z" />
    <glyph glyph-name="edieresis" unicode="&#xeb;" horiz-adv-x="516" 
d="M150 636q0 20 14.5 35t34.5 15t35 -15t15 -35t-15 -34.5t-35 -14.5t-34.5 14.5t-14.5 34.5zM348 636q0 20 14.5 35t34.5 15t35 -15t15 -35t-15 -34.5t-35 -14.5t-34.5 14.5t-14.5 34.5zM350 356q31 0 40 9q9 11 9 32q0 32 -31 61.5t-84 29.5q-66 0 -113 -34.5t-67 -101.5
q62 0 140.5 2t105.5 2zM285 -10q-113 0 -182 67t-69 173q0 111 86 195.5t192 84.5q51 0 88.5 -14.5t55.5 -36.5t25 -43.5t5 -40.5q-5 -31 -42 -31h-342q-8 -40 -8 -77q0 -92 70.5 -155.5t171.5 -63.5q87 0 147 49.5t104 144.5q4 11 8 7q1 -3 -1 -9q-45 -105 -124.5 -177.5
t-184.5 -72.5z" />
    <glyph glyph-name="igrave" unicode="&#xec;" horiz-adv-x="226" 
d="M140 559q-31 32 -90 77l-58 45q-12 9 -12 17q0 16 3 19t18 3q18 0 24 -6q3 -3 22.5 -31t47 -62.5t50.5 -55.5q3 -3 3 -4q0 -4 -4 -4q-2 0 -4 2zM78 110v267q0 54 -12 65t-52 3q-6 -2 -7.5 2t4.5 6q62 13 125 57q2 2 10 -0.5t8 -6.5v-393q0 -66 9.5 -83.5t50.5 -17.5
q6 0 6 -4.5t-6 -4.5q-16 0 -53 1t-43 1t-45.5 -1t-55.5 -1q-6 0 -6 4.5t6 4.5q42 0 51.5 17.5t9.5 83.5z" />
    <glyph glyph-name="iacute" unicode="&#xed;" horiz-adv-x="226" 
d="M89 559q-2 -2 -4 -2q-4 0 -4 4q0 1 3 4q22 21 49.5 55.5t47.5 62.5t23 31q6 6 24 6q15 0 18 -3t3 -19q0 -8 -12 -17l-59 -45q-58 -45 -89 -77zM78 110v267q0 54 -12 65t-52 3q-6 -2 -7.5 2t4.5 6q62 13 125 57q2 2 10 -0.5t8 -6.5v-393q0 -66 9.5 -83.5t50.5 -17.5
q6 0 6 -4.5t-6 -4.5q-16 0 -53 1t-43 1t-45.5 -1t-55.5 -1q-6 0 -6 4.5t6 4.5q42 0 51.5 17.5t9.5 83.5z" />
    <glyph glyph-name="icircumflex" unicode="&#xee;" horiz-adv-x="226" 
d="M122 718q-4 4 -7 0l-82 -122q-14 -19 -34 -19t-20 14q0 9 18 29q50 57 117 107q4 5 9 0q72 -55 121 -97q20 -19 20 -29q0 -7 -6.5 -14t-16.5 -7q-20 0 -35 21q-14 20 -84 117zM78 110v267q0 54 -12 65t-52 3q-6 -2 -7.5 2t4.5 6q62 13 125 57q2 2 10 -0.5t8 -6.5v-393
q0 -66 9.5 -83.5t50.5 -17.5q6 0 6 -4.5t-6 -4.5q-16 0 -53 1t-43 1t-45.5 -1t-55.5 -1q-6 0 -6 4.5t6 4.5q42 0 51.5 17.5t9.5 83.5z" />
    <glyph glyph-name="idieresis" unicode="&#xef;" horiz-adv-x="226" 
d="M153 636q0 20 14.5 35t34.5 15t35 -15t15 -35t-15 -34.5t-35 -14.5t-34.5 14.5t-14.5 34.5zM-45 636q0 20 14.5 35t34.5 15t35 -15t15 -35t-15 -34.5t-35 -14.5t-34.5 14.5t-14.5 34.5zM78 110v267q0 54 -12 65t-52 3q-6 -2 -7.5 2t4.5 6q62 13 125 57q2 2 10 -0.5
t8 -6.5v-393q0 -66 9.5 -83.5t50.5 -17.5q6 0 6 -4.5t-6 -4.5q-16 0 -53 1t-43 1t-45.5 -1t-55.5 -1q-6 0 -6 4.5t6 4.5q42 0 51.5 17.5t9.5 83.5z" />
    <glyph glyph-name="eth" unicode="&#xf0;" horiz-adv-x="584" 
d="M301 1q79 0 121.5 63.5t42.5 176.5q0 112 -42.5 185.5t-134.5 73.5q-85 0 -127 -64.5t-42 -178.5q0 -100 50 -178t132 -78zM546 257q0 -101 -76 -184t-186 -83q-107 0 -177.5 69t-70.5 181q0 120 80.5 195t173.5 75q84 0 131 -61q-30 121 -103 205q-100 -44 -153 -74
q-6 0 -9.5 8.5t-0.5 13.5q87 33 156 60q-60 68 -148 119q-7 4 -3 7q3 2 8 0q99 -52 173 -113q30 12 59.5 26.5l59 29t41.5 20.5q7 -3 11 -9.5t-1 -12.5q-134 -51 -161 -62q196 -166 196 -410z" />
    <glyph glyph-name="ntilde" unicode="&#xf1;" horiz-adv-x="562" 
d="M143 597q44 57 61.5 75t34.5 18q22 0 77 -29.5t73 -29.5q14 0 22.5 8t36.5 47q7 7 9 3q2 -2 -2 -8q-36 -53 -59 -76.5t-45 -23.5q-21 0 -75 31.5t-73 31.5q-8 0 -17 -9t-36 -43q-6 -7 -8.5 -4.5t1.5 9.5zM495 307v-209q0 -43 5.5 -62.5t13.5 -23t29 -3.5q6 0 6 -4.5
t-6 -4.5q-3 0 -41.5 1t-47.5 1q-6 0 -37.5 -1t-47.5 -1q-6 0 -6 4.5t6 4.5q32 0 42 16t10 79l-1 213q0 86 -35 124.5t-86 38.5q-46 0 -80.5 -21.5t-70.5 -69.5v-380h52q6 0 6 -4.5t-6 -4.5q-3 0 -35 1t-41 1q-6 0 -43 -1t-53 -1q-6 0 -6 4.5t6 4.5q32 0 38.5 17.5t6.5 92.5
v258q0 34 -46 76q-5 5 0 6q49 18 73 42q2 2 6 -1q36 -36 41 -99q82 109 185 109q163 0 163 -203z" />
    <glyph glyph-name="ograve" unicode="&#xf2;" horiz-adv-x="581" 
d="M378 559q-31 32 -90 77l-58 45q-12 9 -12 17q0 16 3 19t18 3q18 0 24 -6q3 -3 22.5 -31t47 -62.5t50.5 -55.5q3 -3 3 -4q0 -4 -4 -4q-2 0 -4 2zM301 1q79 0 121.5 63.5t42.5 176.5q0 100 -49.5 179.5t-127.5 79.5q-85 0 -127 -64.5t-42 -178.5q0 -100 50 -178t132 -78z
M284 -10q-107 0 -177.5 69t-70.5 181q0 111 75 190.5t189 79.5q107 0 176.5 -69.5t69.5 -183.5q0 -101 -76 -184t-186 -83z" />
    <glyph glyph-name="oacute" unicode="&#xf3;" horiz-adv-x="581" 
d="M230 559q-2 -2 -4 -2q-4 0 -4 4q0 1 3 4q22 21 49.5 55.5t47.5 62.5t23 31q6 6 24 6q15 0 18 -3t3 -19q0 -8 -12 -17l-58 -45q-59 -45 -90 -77zM301 1q79 0 121.5 63.5t42.5 176.5q0 100 -49.5 179.5t-127.5 79.5q-85 0 -127 -64.5t-42 -178.5q0 -100 50 -178t132 -78z
M284 -10q-107 0 -177.5 69t-70.5 181q0 111 75 190.5t189 79.5q107 0 176.5 -69.5t69.5 -183.5q0 -101 -76 -184t-186 -83z" />
    <glyph glyph-name="ocircumflex" unicode="&#xf4;" horiz-adv-x="581" 
d="M296 718q-4 4 -7 0l-82 -122q-14 -19 -34 -19t-20 14q0 9 18 29q50 57 117 107q4 5 9 0q72 -55 121 -97q20 -19 20 -29q0 -7 -6.5 -14t-16.5 -7q-20 0 -35 21q-14 20 -84 117zM301 1q79 0 121.5 63.5t42.5 176.5q0 100 -49.5 179.5t-127.5 79.5q-85 0 -127 -64.5
t-42 -178.5q0 -100 50 -178t132 -78zM284 -10q-107 0 -177.5 69t-70.5 181q0 111 75 190.5t189 79.5q107 0 176.5 -69.5t69.5 -183.5q0 -101 -76 -184t-186 -83z" />
    <glyph glyph-name="otilde" unicode="&#xf5;" horiz-adv-x="581" 
d="M141 593q44 57 61.5 75t34.5 18q22 0 77 -29.5t73 -29.5q14 0 22.5 8t36.5 47q7 7 9 3q2 -2 -2 -8q-36 -53 -59 -76.5t-45 -23.5q-21 0 -75 31.5t-73 31.5q-8 0 -17 -9t-36 -43q-6 -7 -8.5 -4.5t1.5 9.5zM301 1q79 0 121.5 63.5t42.5 176.5q0 100 -49.5 179.5
t-127.5 79.5q-85 0 -127 -64.5t-42 -178.5q0 -100 50 -178t132 -78zM284 -10q-107 0 -177.5 69t-70.5 181q0 111 75 190.5t189 79.5q107 0 176.5 -69.5t69.5 -183.5q0 -101 -76 -184t-186 -83z" />
    <glyph glyph-name="odieresis" unicode="&#xf6;" horiz-adv-x="581" 
d="M136 636q0 20 14.5 35t34.5 15t35 -15t15 -35t-15 -34.5t-35 -14.5t-34.5 14.5t-14.5 34.5zM334 636q0 20 14.5 35t34.5 15t35 -15t15 -35t-15 -34.5t-35 -14.5t-34.5 14.5t-14.5 34.5zM301 1q79 0 121.5 63.5t42.5 176.5q0 100 -49.5 179.5t-127.5 79.5
q-85 0 -127 -64.5t-42 -178.5q0 -100 50 -178t132 -78zM284 -10q-107 0 -177.5 69t-70.5 181q0 111 75 190.5t189 79.5q107 0 176.5 -69.5t69.5 -183.5q0 -101 -76 -184t-186 -83z" />
    <glyph glyph-name="divide" unicode="&#xf7;" 
d="M242 383q0 16 10.5 27t27.5 11q15 0 26.5 -11t11.5 -27t-11.5 -27t-26.5 -11q-17 0 -27.5 11t-10.5 27zM242 109q0 16 10.5 27t27.5 11q15 0 26.5 -11t11.5 -27t-11.5 -27t-26.5 -11q-17 0 -27.5 11t-10.5 27zM277 251q75 0 171 6q5 -4 5 -12.5t-5 -11.5q-126 7 -170 7
t-170 -7q-5 3 -5 11.5t5 12.5q96 -6 169 -6z" />
    <glyph glyph-name="oslash" unicode="&#xf8;" horiz-adv-x="581" 
d="M281 253q42 79 106 203q-44 44 -99 44q-85 0 -127 -64.5t-42 -178.5t60 -192q16 30 51 94t51 94zM301 1q79 0 121.5 63.5t42.5 176.5q0 125 -66 203q-73 -135 -105 -197q-53 -94 -104 -195q48 -51 111 -51zM284 -10q-58 0 -114 24q-11 -21 -34.5 -67.5t-31.5 -62.5
q-12 -3 -16 -2.5t-12 6.5l79 134q-56 31 -87.5 87.5t-31.5 130.5q0 111 75 190.5t189 79.5q56 0 104 -21q42 86 69 135q14 1 15 0.5t12 -7.5q-65 -107 -80 -135q58 -31 92 -89.5t34 -135.5q0 -101 -76 -184t-186 -83z" />
    <glyph glyph-name="ugrave" unicode="&#xf9;" horiz-adv-x="559" 
d="M307 542q-31 32 -89 77l-59 45q-12 9 -12 17q0 16 3 19t18 3q18 0 24 -6q3 -3 22.5 -31t47 -62.5t50.5 -55.5q3 -3 3 -4q0 -4 -4 -4q-2 0 -4 2zM67 193v184q0 61 -11.5 71.5t-52.5 3.5q-5 -1 -6 3q-1 5 6 6q58 10 122 45q2 2 10 -0.5t8 -6.5v-316q0 -86 33.5 -124.5
t84.5 -38.5q46 0 80.5 21t71.5 70v266q0 61 -11.5 71.5t-52.5 3.5q-5 -1 -6 3t4 6h2q56 10 121 45q2 2 10 -0.5t8 -6.5v-380q0 -76 8 -93t45 -17q3 0 4.5 -2t0 -4.5t-4.5 -2.5q-37 0 -130 -10q-6 -1 -7 1t-1 8q0 2 2.5 15.5t5 36.5t2.5 48q-82 -109 -185 -109
q-161 0 -161 203z" />
    <glyph glyph-name="uacute" unicode="&#xfa;" horiz-adv-x="559" 
d="M246 540q-2 -2 -4 -2q-4 0 -4 4q0 1 3 4q22 21 49.5 55.5t47.5 62.5t23 31q6 6 24 6q15 0 18 -3t3 -19q0 -8 -12 -17l-58 -45q-59 -45 -90 -77zM67 193v184q0 61 -11.5 71.5t-52.5 3.5q-5 -1 -6 3q-1 5 6 6q58 10 122 45q2 2 10 -0.5t8 -6.5v-316q0 -86 33.5 -124.5
t84.5 -38.5q46 0 80.5 21t71.5 70v266q0 61 -11.5 71.5t-52.5 3.5q-5 -1 -6 3t4 6h2q56 10 121 45q2 2 10 -0.5t8 -6.5v-380q0 -76 8 -93t45 -17q3 0 4.5 -2t0 -4.5t-4.5 -2.5q-37 0 -130 -10q-6 -1 -7 1t-1 8q0 2 2.5 15.5t5 36.5t2.5 48q-82 -109 -185 -109
q-161 0 -161 203z" />
    <glyph glyph-name="ucircumflex" unicode="&#xfb;" horiz-adv-x="559" 
d="M280 717q-4 4 -7 0l-82 -122q-14 -19 -34 -19t-20 14q0 9 18 29q50 57 117 107q4 4 9 0q72 -55 121 -97q20 -19 20 -29q0 -7 -6.5 -14t-16.5 -7q-20 0 -35 21q-14 20 -84 117zM67 193v184q0 61 -11.5 71.5t-52.5 3.5q-5 -1 -6 3q-1 5 6 6q58 10 122 45q2 2 10 -0.5
t8 -6.5v-316q0 -86 33.5 -124.5t84.5 -38.5q46 0 80.5 21t71.5 70v266q0 61 -11.5 71.5t-52.5 3.5q-5 -1 -6 3t4 6h2q56 10 121 45q2 2 10 -0.5t8 -6.5v-380q0 -76 8 -93t45 -17q3 0 4.5 -2t0 -4.5t-4.5 -2.5q-37 0 -130 -10q-6 -1 -7 1t-1 8q0 2 2.5 15.5t5 36.5t2.5 48
q-82 -109 -185 -109q-161 0 -161 203z" />
    <glyph glyph-name="udieresis" unicode="&#xfc;" horiz-adv-x="559" 
d="M327 631q0 20 14.5 35t34.5 15t35 -15t15 -35t-15 -34.5t-35 -14.5t-34.5 14.5t-14.5 34.5zM129 631q0 20 14.5 35t34.5 15t35 -15t15 -35t-15 -34.5t-35 -14.5t-34.5 14.5t-14.5 34.5zM67 193v184q0 61 -11.5 71.5t-52.5 3.5q-5 -1 -6 3q-1 5 6 6q58 10 122 45
q2 2 10 -0.5t8 -6.5v-316q0 -86 33.5 -124.5t84.5 -38.5q46 0 80.5 21t71.5 70v266q0 61 -11.5 71.5t-52.5 3.5q-5 -1 -6 3t4 6h2q56 10 121 45q2 2 10 -0.5t8 -6.5v-380q0 -76 8 -93t45 -17q3 0 4.5 -2t0 -4.5t-4.5 -2.5q-37 0 -130 -10q-6 -1 -7 1t-1 8q0 2 2.5 15.5
t5 36.5t2.5 48q-82 -109 -185 -109q-161 0 -161 203z" />
    <glyph glyph-name="yacute" unicode="&#xfd;" horiz-adv-x="537" 
d="M240 542q-2 -2 -4 -2q-4 0 -4 4q0 1 3 4q22 21 49.5 55.5t47.5 62.5t23 31q6 6 24 6q15 0 18 -3t3 -19q0 -8 -12 -17l-58 -45q-59 -45 -90 -77zM117 -136q43 0 73.5 23.5t61.5 95.5l11 25l-159 352q-41 89 -60.5 110t-56.5 21q-3 0 -4.5 2.5t0 4.5t4.5 2t46.5 -1t52.5 -1
q5 0 48.5 1t58.5 1q6 0 6 -4.5t-6 -4.5q-45 0 -50 -17.5t25 -83.5l133 -295l112 252q30 72 17 108t-63 36q-6 0 -6 4.5t6 4.5q16 0 52.5 -1t41.5 -1q9 0 47.5 1t42.5 1q3 0 4.5 -2t0 -4.5t-4.5 -2.5q-34 1 -64.5 -36.5t-64.5 -113.5l-160 -360q-39 -89 -88.5 -131
t-120.5 -42q-39 0 -61 11.5t-22 27.5q0 14 16.5 30t38.5 16q17 0 45 -14.5t47 -14.5z" />
    <glyph glyph-name="thorn" unicode="&#xfe;" horiz-adv-x="596" 
d="M313 12q82 0 126 58.5t44 168.5q0 61 -20 114t-63.5 88.5t-102.5 35.5q-42 0 -83 -23t-67 -62q0 -48 -0.5 -143.5t-0.5 -143.5q81 -93 167 -93zM147 744v-341q35 50 88 78.5t111 28.5q87 0 149 -66.5t62 -168.5q0 -120 -87 -202.5t-199 -82.5q-69 0 -125 38v-291h71
q6 0 6 -4.5t-6 -4.5q-3 0 -48 1t-54 1q-6 0 -52.5 -1t-62.5 -1q-6 0 -6 4.5t6 4.5q51 0 62.5 18t11.5 99v765q0 42 -7 58t-22.5 15t-40.5 -5q-5 -1 -6 3t4 6h2q17 2 36 8.5t31.5 13.5t31 18t26.5 15q2 2 10 -0.5t8 -6.5z" />
    <glyph glyph-name="ydieresis" unicode="&#xff;" horiz-adv-x="537" 
d="M337 631q0 20 14.5 35t34.5 15t35 -15t15 -35t-15 -34.5t-35 -14.5t-34.5 14.5t-14.5 34.5zM139 631q0 20 14.5 35t34.5 15t35 -15t15 -35t-15 -34.5t-35 -14.5t-34.5 14.5t-14.5 34.5zM117 -136q43 0 73.5 23.5t61.5 95.5l11 25l-159 352q-41 89 -60.5 110t-56.5 21
q-3 0 -4.5 2.5t0 4.5t4.5 2t46.5 -1t52.5 -1q5 0 48.5 1t58.5 1q6 0 6 -4.5t-6 -4.5q-45 0 -50 -17.5t25 -83.5l133 -295l112 252q30 72 17 108t-63 36q-6 0 -6 4.5t6 4.5q16 0 52.5 -1t41.5 -1q9 0 47.5 1t42.5 1q3 0 4.5 -2t0 -4.5t-4.5 -2.5q-34 1 -64.5 -36.5
t-64.5 -113.5l-160 -360q-39 -89 -88.5 -131t-120.5 -42q-39 0 -61 11.5t-22 27.5q0 14 16.5 30t38.5 16q17 0 45 -14.5t47 -14.5z" />
    <glyph glyph-name="Amacron" unicode="&#x100;" horiz-adv-x="711" 
d="M348 842h1q57 0 90 1q35 1 35 -1q0 -7 -46 -51q-1 0 -29 0.5t-49 0.5q-15 0 -37.5 -1t-38.5 -1q-35 -1 -35 2q0 7 46 51q1 0 21.5 -0.5t41.5 -0.5zM460 259l-149 349l-139 -351l170 1h118v1zM465 248l-117 -3q-26 0 -96.5 1.5t-82.5 1.5l-17 -42q-36 -97 -36 -149
q0 -49 56 -49q4 0 15 1.5t13 1.5q7 0 7 -5q0 -6 -12 -6q-9 0 -57.5 1t-56.5 1q-5 0 -37 -1t-46 -1q-6 0 -6 5q0 4 6 4h4q40 0 72 60q37 63 66 142l193 482q1 3 7 3h10q8 0 10 -3l182 -434q50 -120 76.5 -171t43 -65t42.5 -14h8q7 0 7 -4q0 -5 -6 -5q-16 0 -55.5 1.5
t-45.5 1.5t-55.5 -1.5t-65.5 -1.5q-7 0 -8 5q2 3 5 4h21q28 0 30 19q5 38 -74 220z" />
    <glyph glyph-name="amacron" unicode="&#x101;" horiz-adv-x="514" 
d="M266 636h1q57 0 90 1q35 1 35 -1q0 -7 -46 -51q-1 0 -29 0.5t-49 0.5q-15 0 -37.5 -1t-38.5 -1q-35 -1 -35 2q0 7 46 51q1 0 21.5 -0.5t41.5 -0.5zM102 130q0 -39 33 -68t71 -29t92.5 52t61.5 81q6 78 6 144v21l-82 -35q-111 -46 -146.5 -78.5t-35.5 -87.5zM156 -11
q-58 0 -91 32t-33 80q0 108 250 205l83 32q-4 92 -27.5 127.5t-79.5 35.5q-30 0 -54 -14t-34.5 -28t-24 -39.5t-16.5 -29.5q-12 -18 -45 -18q-40 0 -40 23q0 25 35 47q37 25 92 46.5t103 21.5q79 0 124 -44t45 -138q0 -37 -4 -119.5t-4 -99.5q0 -85 28 -85q12 0 28.5 18.5
t25.5 36.5q2 4 6.5 3.5t6 -4t-0.5 -7.5q-14 -22 -53 -51.5t-65 -29.5q-57 0 -57 71q0 54 4 82q-26 -44 -90.5 -99t-111.5 -55z" />
    <glyph glyph-name="Abreve" unicode="&#x102;" horiz-adv-x="711" 
d="M345 781q-65 0 -119 72q-6 7 -6 12q0 6 23 14t32 -3q30 -39 52.5 -56.5t49.5 -17.5q43 0 75 75q3 7 11 7q5 0 8 -3.5t0 -7.5q-21 -36 -56 -63t-70 -29zM460 259l-149 349l-139 -351l170 1h118v1zM465 248l-117 -3q-26 0 -96.5 1.5t-82.5 1.5l-17 -42q-36 -97 -36 -149
q0 -49 56 -49q4 0 15 1.5t13 1.5q7 0 7 -5q0 -6 -12 -6q-9 0 -57.5 1t-56.5 1q-5 0 -37 -1t-46 -1q-6 0 -6 5q0 4 6 4h4q40 0 72 60q37 63 66 142l193 482q1 3 7 3h10q8 0 10 -3l182 -434q50 -120 76.5 -171t43 -65t42.5 -14h8q7 0 7 -4q0 -5 -6 -5q-16 0 -55.5 1.5
t-45.5 1.5t-55.5 -1.5t-65.5 -1.5q-7 0 -8 5q2 3 5 4h21q28 0 30 19q5 38 -74 220z" />
    <glyph glyph-name="abreve" unicode="&#x103;" horiz-adv-x="514" 
d="M263 587q-65 0 -119 72q-6 7 -6 12q0 6 23 14t32 -3q30 -39 52.5 -56.5t49.5 -17.5q43 0 75 75q3 7 11 7q5 0 8 -3.5t0 -7.5q-21 -36 -56 -63t-70 -29zM102 130q0 -39 33 -68t71 -29t92.5 52t61.5 81q6 78 6 144v21l-82 -35q-111 -46 -146.5 -78.5t-35.5 -87.5zM156 -11
q-58 0 -91 32t-33 80q0 108 250 205l83 32q-4 92 -27.5 127.5t-79.5 35.5q-30 0 -54 -14t-34.5 -28t-24 -39.5t-16.5 -29.5q-12 -18 -45 -18q-40 0 -40 23q0 25 35 47q37 25 92 46.5t103 21.5q79 0 124 -44t45 -138q0 -37 -4 -119.5t-4 -99.5q0 -85 28 -85q12 0 28.5 18.5
t25.5 36.5q2 4 6.5 3.5t6 -4t-0.5 -7.5q-14 -22 -53 -51.5t-65 -29.5q-57 0 -57 71q0 54 4 82q-26 -44 -90.5 -99t-111.5 -55z" />
    <glyph glyph-name="Aogonek" unicode="&#x104;" horiz-adv-x="711" 
d="M460 259l-149 349l-139 -351l170 1h118v1zM465 248l-117 -3q-26 0 -96.5 1.5t-82.5 1.5l-17 -42q-36 -97 -36 -149q0 -49 56 -49q4 0 15 1.5t13 1.5q7 0 7 -5q0 -6 -12 -6q-9 0 -57.5 1t-56.5 1q-5 0 -37 -1t-46 -1q-6 0 -6 5q0 4 6 4h4q40 0 72 60q37 63 66 142l193 482
q1 3 7 3h10q8 0 10 -3l182 -434q50 -120 76.5 -171t43 -65t42.5 -14h8q7 0 7 -4q0 -2 -2 -4q-51 -64 -53 -90q-2 -20 11 -32t41 -12q33 0 75 21l-20 -44q-11 -23 -17 -28q-31 -13 -68 -13q-33 0 -50.5 19.5t-12.5 53.5q3 22 21 49t60 75q-17 0 -52.5 1.5t-39.5 1.5
q-6 0 -55.5 -1.5t-65.5 -1.5q-7 0 -8 5q2 3 5 4h21q28 0 30 19q5 38 -74 220z" />
    <glyph glyph-name="aogonek" unicode="&#x105;" horiz-adv-x="514" 
d="M102 130q0 -39 33 -68t71 -29t92.5 52t61.5 81q6 78 6 144v21l-82 -35q-111 -46 -146.5 -78.5t-35.5 -87.5zM466 -133q33 0 75 21l-20 -44q-11 -23 -17 -28q-31 -13 -68 -13q-33 0 -50.5 19.5t-12.5 53.5q3 23 24 53t67 82q-33 -21 -53 -21q-57 0 -57 71q0 54 4 82
q-26 -44 -90.5 -99t-111.5 -55q-58 0 -91 32t-33 80q0 108 250 205l83 32q-4 92 -27.5 127.5t-79.5 35.5q-30 0 -54 -14t-34.5 -28t-24 -39.5t-16.5 -29.5q-12 -18 -45 -18q-40 0 -40 23q0 25 35 47q37 25 92 46.5t103 21.5q79 0 124 -44t45 -138q0 -37 -4 -119.5t-4 -99.5
q0 -85 28 -85q10 0 26 16l6 6q11 14 22 33q2 4 6.5 3.5t6 -4t-0.5 -7.5q-11 -16 -33 -35q-77 -90 -82 -125q-2 -20 11 -32t41 -12z" />
    <glyph glyph-name="Cacute" unicode="&#x106;" horiz-adv-x="756" 
d="M372 768q-2 -2 -4 -2q-4 0 -4 4q0 1 3 4q22 21 49.5 55.5t47.5 62.5t23 31q6 6 24 6q15 0 18 -3t3 -19q0 -8 -12 -17l-58 -45q-59 -45 -90 -77zM133 346q0 -156 76.5 -251t210.5 -95q234 0 261 267h8l-12 -233q-101 -44 -255 -44q-162 0 -270.5 101.5t-108.5 254.5
q0 154 113 255.5t270 101.5q62 0 135 -13t114 -31l12 -218h-9q-25 252 -250 252q-134 0 -214.5 -96t-80.5 -251z" />
    <glyph glyph-name="cacute" unicode="&#x107;" horiz-adv-x="542" 
d="M238 559q-2 -2 -4 -2q-4 0 -4 4q0 1 3 4q22 21 49.5 55.5t47.5 62.5t23 31q6 6 24 6q15 0 18 -3t3 -19q0 -8 -12 -17l-58 -45q-59 -45 -90 -77zM102 275q0 -100 64 -164.5t165 -64.5q70 0 120 33.5t89 103.5q3 5 7 4q5 -2 1 -7q-45 -82 -118 -136t-153 -54
q-106 0 -173 67t-67 173q0 108 87.5 194t197.5 86q70 0 118.5 -23.5t48.5 -51.5q0 -15 -13.5 -28t-35.5 -13q-13 0 -29 14.5t-30 32.5t-41 32.5t-60 14.5q-77 0 -127.5 -57t-50.5 -156z" />
    <glyph glyph-name="Ccircumflex" unicode="&#x108;" horiz-adv-x="756" 
d="M427 912q-4 4 -7 0l-82 -122q-14 -19 -34 -19t-20 14q0 9 18 29q50 57 117 107q5 5 9 0q72 -55 121 -97q20 -19 20 -29q0 -7 -6.5 -14t-16.5 -7q-20 0 -35 21q-14 20 -84 117zM133 346q0 -156 76.5 -251t210.5 -95q234 0 261 267h8l-12 -233q-101 -44 -255 -44
q-162 0 -270.5 101.5t-108.5 254.5q0 154 113 255.5t270 101.5q62 0 135 -13t114 -31l12 -218h-9q-25 252 -250 252q-134 0 -214.5 -96t-80.5 -251z" />
    <glyph glyph-name="ccircumflex" unicode="&#x109;" horiz-adv-x="542" 
d="M310 718q-4 4 -7 0l-82 -122q-14 -19 -34 -19t-20 14q0 9 18 29q50 57 117 107q4 5 9 0q72 -55 121 -97q20 -19 20 -29q0 -7 -6.5 -14t-16.5 -7q-20 0 -35 21q-14 20 -84 117zM102 275q0 -100 64 -164.5t165 -64.5q70 0 120 33.5t89 103.5q3 5 7 4q5 -2 1 -7
q-45 -82 -118 -136t-153 -54q-106 0 -173 67t-67 173q0 108 87.5 194t197.5 86q70 0 118.5 -23.5t48.5 -51.5q0 -15 -13.5 -28t-35.5 -13q-13 0 -29 14.5t-30 32.5t-41 32.5t-60 14.5q-77 0 -127.5 -57t-50.5 -156z" />
    <glyph glyph-name="Cdotaccent" unicode="&#x10a;" horiz-adv-x="756" 
d="M380 828q0 22 15 37.5t37 15.5t37.5 -15.5t15.5 -37.5t-15.5 -37t-37.5 -15t-37 15t-15 37zM133 346q0 -156 76.5 -251t210.5 -95q234 0 261 267h8l-12 -233q-101 -44 -255 -44q-162 0 -270.5 101.5t-108.5 254.5q0 154 113 255.5t270 101.5q62 0 135 -13t114 -31
l12 -218h-9q-25 252 -250 252q-134 0 -214.5 -96t-80.5 -251z" />
    <glyph glyph-name="cdotaccent" unicode="&#x10b;" horiz-adv-x="542" 
d="M263 639q0 22 15 37.5t37 15.5t37.5 -15.5t15.5 -37.5t-15.5 -37t-37.5 -15t-37 15t-15 37zM102 275q0 -100 64 -164.5t165 -64.5q70 0 120 33.5t89 103.5q3 5 7 4q5 -2 1 -7q-45 -82 -118 -136t-153 -54q-106 0 -173 67t-67 173q0 108 87.5 194t197.5 86
q70 0 118.5 -23.5t48.5 -51.5q0 -15 -13.5 -28t-35.5 -13q-13 0 -29 14.5t-30 32.5t-41 32.5t-60 14.5q-77 0 -127.5 -57t-50.5 -156z" />
    <glyph glyph-name="Ccaron" unicode="&#x10c;" horiz-adv-x="756" 
d="M421 782q4 -4 7 0l82 122q14 19 34 19t20 -14q0 -9 -18 -29q-38 -43 -117 -107q-5 -5 -9 0q-72 55 -121 97q-20 19 -20 29q0 7 6.5 14t16.5 7q20 0 35 -21q14 -20 84 -117zM133 346q0 -156 76.5 -251t210.5 -95q234 0 261 267h8l-12 -233q-101 -44 -255 -44
q-162 0 -270.5 101.5t-108.5 254.5q0 154 113 255.5t270 101.5q62 0 135 -13t114 -31l12 -218h-9q-25 252 -250 252q-134 0 -214.5 -96t-80.5 -251z" />
    <glyph glyph-name="ccaron" unicode="&#x10d;" horiz-adv-x="542" 
d="M308 588q4 -4 7 0l82 122q14 19 34 19t20 -14q0 -9 -18 -29q-38 -43 -117 -107q-4 -5 -9 0q-72 55 -121 97q-20 19 -20 29q0 7 6.5 14t16.5 7q20 0 35 -21q14 -20 84 -117zM102 275q0 -100 64 -164.5t165 -64.5q70 0 120 33.5t89 103.5q3 5 7 4q5 -2 1 -7
q-45 -82 -118 -136t-153 -54q-106 0 -173 67t-67 173q0 108 87.5 194t197.5 86q70 0 118.5 -23.5t48.5 -51.5q0 -15 -13.5 -28t-35.5 -13q-13 0 -29 14.5t-30 32.5t-41 32.5t-60 14.5q-77 0 -127.5 -57t-50.5 -156z" />
    <glyph glyph-name="Dcaron" unicode="&#x10e;" horiz-adv-x="733" 
d="M326 782q4 -4 7 0l82 122q14 19 34 19t20 -14q0 -9 -18 -29q-38 -43 -117 -107q-4 -5 -9 0q-72 55 -121 97q-20 19 -20 29q0 7 6.5 14t16.5 7q20 0 35 -21q14 -20 84 -117zM601 346q0 154 -80.5 246t-214.5 92h-66q-51 0 -60 -33t-9 -217v-273q0 -113 -8 -147
q10 0 67.5 -2t83.5 -2q135 0 211 90.5t76 245.5zM690 346q0 -152 -107.5 -249t-270.5 -97q-55 0 -90 1q-11 1 -32.5 1.5t-32.5 0.5l-141 -3q-7 0 -8 3q-1 2 2 3t6 1q32 0 44.5 7.5t19.5 34t11 91.5q2 30 2.5 80.5t-0.5 107.5t-1 65q0 22 -1.5 96.5t-1.5 103.5
q0 68 -8.5 79.5t-57.5 11.5q-6 0 -6 4.5t6 4.5q4 0 58.5 -1t63.5 -1q6 0 76.5 1t86.5 1q159 0 270.5 -97.5t111.5 -249.5z" />
    <glyph glyph-name="dcaron" unicode="&#x10f;" horiz-adv-x="709" 
d="M608 620q-4 -2 -5.5 -0.5t2.5 4.5q50 28 50 90q0 12 -5 27q-12 -20 -35 -20q-18 0 -30.5 12.5t-12.5 30.5q0 20 13.5 33.5t35.5 13.5q27 0 42.5 -22.5t15.5 -60.5q0 -34 -24 -64t-47 -44zM281 488q-83 0 -129 -57t-46 -166q0 -60 21 -114t66 -91t104 -37q45 0 86 26
t68 69v271q-30 30 -46.5 45t-53 34.5t-70.5 19.5zM451 463v218q0 61 -12.5 72.5t-53.5 4.5q-5 -1 -6 3t4 6h2q54 9 121 46q2 2 11 -0.5t9 -6.5v-687q0 -76 7.5 -93t43.5 -17q6 0 6 -4.5t-6 -4.5q-74 0 -121 -10q-12 -3 -12 9q0 2 1.5 16t3.5 38t2 49q-36 -53 -90.5 -82.5
t-114.5 -29.5q-87 0 -148.5 66.5t-61.5 168.5q0 119 87.5 202t199.5 83q67 0 128 -47z" />
    <glyph glyph-name="Dcroat" unicode="&#x110;" horiz-adv-x="733" 
d="M601 346q0 154 -80.5 246t-214.5 92h-66q-51 0 -60 -33t-9 -217v-74q82 0 123 1q35 1 35 -1q0 -7 -46 -51q-5 0 -46.5 0.5t-65.5 0.5v-149q0 -113 -8 -147q10 0 67.5 -2t83.5 -2q135 0 211 90.5t76 245.5zM690 346q0 -152 -107.5 -249t-270.5 -97q-55 0 -90 1
q-11 1 -32.5 1.5t-32.5 0.5l-141 -3q-7 0 -8 3q-1 2 2 3t6 1q32 0 44.5 7.5t19.5 34t11 91.5q2 29 2 169q-7 0 -21.5 -0.5t-22.5 -0.5q-35 -1 -35 2q0 7 46 51q2 0 13 -0.5t19 -0.5v33q0 22 -1.5 96.5t-1.5 103.5q0 68 -8.5 79.5t-57.5 11.5q-6 0 -6 4.5t6 4.5q4 0 58.5 -1
t63.5 -1q6 0 76.5 1t86.5 1q159 0 270.5 -97.5t111.5 -249.5z" />
    <glyph glyph-name="dslash" unicode="&#x111;" horiz-adv-x="599" 
d="M281 488q-83 0 -129 -57t-46 -166q0 -60 21 -114t66 -91t104 -37q45 0 86 26t68 69v271q-30 30 -46.5 45t-53 34.5t-70.5 19.5zM443 661h8v20q0 61 -12.5 72.5t-53.5 4.5q-5 -1 -6 3t4 6h2q54 9 121 46q2 2 11 -0.5t9 -6.5v-145q32 0 48 1q35 1 35 -1q0 -7 -46 -51h-37
v-491q0 -76 7.5 -93t43.5 -17q6 0 6 -4.5t-6 -4.5q-74 0 -121 -10q-12 -3 -12 9q0 2 1.5 16t3.5 38t2 49q-36 -53 -90.5 -82.5t-114.5 -29.5q-87 0 -148.5 66.5t-61.5 168.5q0 119 87.5 202t199.5 83q67 0 128 -47v148h-6q-30 0 -116 -2q-35 -1 -35 2q0 7 46 51q6 0 42 -0.5
t61 -0.5z" />
    <glyph glyph-name="Emacron" unicode="&#x112;" horiz-adv-x="622" 
d="M309 842h1q57 0 90 1q35 1 35 -1q0 -7 -46 -51q-1 0 -29 0.5t-49 0.5q-15 0 -37.5 -1t-38.5 -1q-35 -1 -35 2q0 7 46 51q1 0 21.5 -0.5t41.5 -0.5zM171 434v-69h83q88 0 120 29t32 86v21q0 6 5 6t5 -6q0 -17 -2.5 -76.5t-2.5 -65.5q0 -7 2.5 -68t2.5 -69q0 -6 -5 -6t-5 6
v15q0 57 -32 86.5t-120 29.5h-83v-192q0 -113 -8 -147q14 0 93.5 -1.5t95.5 -1.5q84 0 142.5 60.5t68.5 141.5l6 53q0 3 3 4.5t5.5 -0.5t2.5 -5l-6 -54q-23 -193 -29 -204q-1 -2 -2 -3q-4 -4 -133 -4q-15 0 -69.5 0.5t-83.5 0.5q-16 1 -49.5 1.5t-50.5 0.5l-141 -3
q-7 0 -8 3q-1 2 2 3t6 1q32 0 44.5 7.5t19.5 34t11 91.5q4 55 4 294q0 95 -1.5 143t-9.5 73.5t-17 29.5t-30 4h-18q-6 0 -6 4.5t6 4.5q16 0 60.5 -1.5t50.5 -1.5q4 0 168 1.5t184 1.5q38 0 47 -4q4 -2 29 -184l4 -36q2 -5 -3 -5t-7 5l-5 36q-14 84 -69 129.5t-142 46.5h-127
q-29 0 -34 -20t-4 -141v-86z" />
    <glyph glyph-name="emacron" unicode="&#x113;" horiz-adv-x="516" 
d="M306 636h1q57 0 90 1q35 1 35 -1q0 -7 -46 -51q-1 0 -29 0.5t-49 0.5q-15 0 -37.5 -1t-38.5 -1q-35 -1 -35 2q0 7 46 51q1 0 21.5 -0.5t41.5 -0.5zM350 356q31 0 40 9q9 11 9 32q0 32 -31 61.5t-84 29.5q-66 0 -113 -34.5t-67 -101.5q62 0 140.5 2t105.5 2zM285 -10
q-113 0 -182 67t-69 173q0 111 86 195.5t192 84.5q51 0 88.5 -14.5t55.5 -36.5t25 -43.5t5 -40.5q-5 -31 -42 -31h-342q-8 -40 -8 -77q0 -92 70.5 -155.5t171.5 -63.5q87 0 147 49.5t104 144.5q4 11 8 7q1 -3 -1 -9q-45 -105 -124.5 -177.5t-184.5 -72.5z" />
    <glyph glyph-name="Ebreve" unicode="&#x114;" horiz-adv-x="622" 
d="M311 776q-65 0 -119 72q-6 8 -6 12q0 6 23 14t32 -3q30 -39 52.5 -56.5t49.5 -17.5q43 0 75 75q3 7 11 7q5 0 8 -3.5t0 -7.5q-21 -36 -56 -63t-70 -29zM171 434v-69h83q88 0 120 29t32 86v21q0 6 5 6t5 -6q0 -17 -2.5 -76.5t-2.5 -65.5q0 -7 2.5 -68t2.5 -69q0 -6 -5 -6
t-5 6v15q0 57 -32 86.5t-120 29.5h-83v-192q0 -113 -8 -147q14 0 93.5 -1.5t95.5 -1.5q84 0 142.5 60.5t68.5 141.5l6 53q0 3 3 4.5t5.5 -0.5t2.5 -5l-6 -54q-23 -193 -29 -204q-1 -2 -2 -3q-4 -4 -133 -4q-15 0 -69.5 0.5t-83.5 0.5q-16 1 -49.5 1.5t-50.5 0.5l-141 -3
q-7 0 -8 3q-1 2 2 3t6 1q32 0 44.5 7.5t19.5 34t11 91.5q4 55 4 294q0 95 -1.5 143t-9.5 73.5t-17 29.5t-30 4h-18q-6 0 -6 4.5t6 4.5q16 0 60.5 -1.5t50.5 -1.5q4 0 168 1.5t184 1.5q38 0 47 -4q4 -2 29 -184l4 -36q2 -5 -3 -5t-7 5l-5 36q-14 84 -69 129.5t-142 46.5h-127
q-29 0 -34 -20t-4 -141v-86z" />
    <glyph glyph-name="ebreve" unicode="&#x115;" horiz-adv-x="516" 
d="M297 587q-65 0 -119 72q-6 7 -6 12q0 6 23 14t32 -3q30 -39 52.5 -56.5t49.5 -17.5q43 0 75 75q3 7 11 7q5 0 8 -3.5t0 -7.5q-21 -36 -56 -63t-70 -29zM350 356q31 0 40 9q9 11 9 32q0 32 -31 61.5t-84 29.5q-66 0 -113 -34.5t-67 -101.5q62 0 140.5 2t105.5 2zM285 -10
q-113 0 -182 67t-69 173q0 111 86 195.5t192 84.5q51 0 88.5 -14.5t55.5 -36.5t25 -43.5t5 -40.5q-5 -31 -42 -31h-342q-8 -40 -8 -77q0 -92 70.5 -155.5t171.5 -63.5q87 0 147 49.5t104 144.5q4 11 8 7q1 -3 -1 -9q-45 -105 -124.5 -177.5t-184.5 -72.5z" />
    <glyph glyph-name="Edotaccent" unicode="&#x116;" horiz-adv-x="622" 
d="M259 833q0 22 15 37.5t37 15.5t37.5 -15.5t15.5 -37.5t-15.5 -37t-37.5 -15t-37 15t-15 37zM171 434v-69h83q88 0 120 29t32 86v21q0 6 5 6t5 -6q0 -17 -2.5 -76.5t-2.5 -65.5q0 -7 2.5 -68t2.5 -69q0 -6 -5 -6t-5 6v15q0 57 -32 86.5t-120 29.5h-83v-192q0 -113 -8 -147
q14 0 93.5 -1.5t95.5 -1.5q84 0 142.5 60.5t68.5 141.5l6 53q0 3 3 4.5t5.5 -0.5t2.5 -5l-6 -54q-23 -193 -29 -204q-1 -2 -2 -3q-4 -4 -133 -4q-15 0 -69.5 0.5t-83.5 0.5q-16 1 -49.5 1.5t-50.5 0.5l-141 -3q-7 0 -8 3q-1 2 2 3t6 1q32 0 44.5 7.5t19.5 34t11 91.5
q4 55 4 294q0 95 -1.5 143t-9.5 73.5t-17 29.5t-30 4h-18q-6 0 -6 4.5t6 4.5q16 0 60.5 -1.5t50.5 -1.5q4 0 168 1.5t184 1.5q38 0 47 -4q4 -2 29 -184l4 -36q2 -5 -3 -5t-7 5l-5 36q-14 84 -69 129.5t-142 46.5h-127q-29 0 -34 -20t-4 -141v-86z" />
    <glyph glyph-name="edotaccent" unicode="&#x117;" horiz-adv-x="516" 
d="M268 639q0 22 15 37.5t37 15.5t37.5 -15.5t15.5 -37.5t-15.5 -37t-37.5 -15t-37 15t-15 37zM350 356q31 0 40 9q9 11 9 32q0 32 -31 61.5t-84 29.5q-66 0 -113 -34.5t-67 -101.5q62 0 140.5 2t105.5 2zM285 -10q-113 0 -182 67t-69 173q0 111 86 195.5t192 84.5
q51 0 88.5 -14.5t55.5 -36.5t25 -43.5t5 -40.5q-5 -31 -42 -31h-342q-8 -40 -8 -77q0 -92 70.5 -155.5t171.5 -63.5q87 0 147 49.5t104 144.5q4 11 8 7q1 -3 -1 -9q-45 -105 -124.5 -177.5t-184.5 -72.5z" />
    <glyph glyph-name="Eogonek" unicode="&#x118;" horiz-adv-x="622" 
d="M171 434v-69h83q88 0 120 29t32 86v21q0 6 5 6t5 -6q0 -17 -2.5 -76.5t-2.5 -65.5q0 -7 2.5 -68t2.5 -69q0 -6 -5 -6t-5 6v15q0 57 -32 86.5t-120 29.5h-83v-192q0 -113 -8 -147q14 0 93.5 -1.5t95.5 -1.5q84 0 142.5 60.5t68.5 141.5l6 53q0 3 3 4.5t5.5 -0.5t2.5 -5
l-6 -54q-20 -189 -30 -206q-52 -65 -57 -94q-2 -20 11 -32t41 -12q33 0 75 21l-20 -44q-11 -23 -17 -28q-31 -13 -68 -13q-33 0 -50.5 19.5t-12.5 53.5q2 22 20.5 48.5t61.5 76.5q-23 -1 -118 -1q-15 0 -69.5 0.5t-83.5 0.5q-16 1 -49.5 1.5t-50.5 0.5l-141 -3q-7 0 -8 3
q-1 2 2 3t6 1q32 0 44.5 7.5t19.5 34t11 91.5q4 55 4 294q0 95 -1.5 143t-9.5 73.5t-17 29.5t-30 4h-18q-6 0 -6 4.5t6 4.5q16 0 60.5 -1.5t50.5 -1.5q4 0 168 1.5t184 1.5q38 0 47 -4q4 -2 29 -184l4 -36q2 -5 -3 -5t-7 5l-5 36q-14 84 -69 129.5t-142 46.5h-127
q-29 0 -34 -20t-4 -141v-86z" />
    <glyph glyph-name="eogonek" unicode="&#x119;" horiz-adv-x="516" 
d="M350 356q31 0 40 9q9 11 9 32q0 32 -31 61.5t-84 29.5q-66 0 -113 -34.5t-67 -101.5q62 0 140.5 2t105.5 2zM408 -134q33 0 75 21l-20 -44q-11 -23 -17 -28q-31 -13 -68 -13q-33 0 -50.5 19.5t-12.5 53.5q3 24 26 56.5t80 96.5q-63 -38 -136 -38q-113 0 -182 67t-69 173
q0 111 86 195.5t192 84.5q51 0 88.5 -14.5t55.5 -36.5t25 -43.5t5 -40.5q-5 -31 -42 -31h-342q-8 -40 -8 -77q0 -92 70.5 -155.5t171.5 -63.5q87 0 147 49.5t104 144.5q4 11 8 7q1 -3 -1 -9q-58 -132 -149 -196q-52 -61 -69.5 -88t-19.5 -46q-2 -20 11 -32t41 -12z" />
    <glyph glyph-name="Ecaron" unicode="&#x11a;" horiz-adv-x="622" 
d="M307 782q4 -4 7 0l82 122q14 19 34 19t20 -14q0 -9 -18 -29q-38 -43 -117 -107q-5 -5 -9 0q-72 55 -121 97q-20 19 -20 29q0 7 6.5 14t16.5 7q20 0 35 -21q14 -20 84 -117zM171 434v-69h83q88 0 120 29t32 86v21q0 6 5 6t5 -6q0 -17 -2.5 -76.5t-2.5 -65.5q0 -7 2.5 -68
t2.5 -69q0 -6 -5 -6t-5 6v15q0 57 -32 86.5t-120 29.5h-83v-192q0 -113 -8 -147q14 0 93.5 -1.5t95.5 -1.5q84 0 142.5 60.5t68.5 141.5l6 53q0 3 3 4.5t5.5 -0.5t2.5 -5l-6 -54q-23 -193 -29 -204q-1 -2 -2 -3q-4 -4 -133 -4q-15 0 -69.5 0.5t-83.5 0.5q-16 1 -49.5 1.5
t-50.5 0.5l-141 -3q-7 0 -8 3q-1 2 2 3t6 1q32 0 44.5 7.5t19.5 34t11 91.5q4 55 4 294q0 95 -1.5 143t-9.5 73.5t-17 29.5t-30 4h-18q-6 0 -6 4.5t6 4.5q16 0 60.5 -1.5t50.5 -1.5q4 0 168 1.5t184 1.5q38 0 47 -4q4 -2 29 -184l4 -36q2 -5 -3 -5t-7 5l-5 36
q-14 84 -69 129.5t-142 46.5h-127q-29 0 -34 -20t-4 -141v-86z" />
    <glyph glyph-name="ecaron" unicode="&#x11b;" horiz-adv-x="516" 
d="M302 588q4 -4 7 0l82 122q14 19 34 19t20 -14q0 -9 -18 -29q-38 -43 -117 -107q-4 -5 -9 0q-72 55 -121 97q-20 19 -20 29q0 7 6.5 14t16.5 7q20 0 35 -21q14 -20 84 -117zM350 356q31 0 40 9q9 11 9 32q0 32 -31 61.5t-84 29.5q-66 0 -113 -34.5t-67 -101.5
q62 0 140.5 2t105.5 2zM285 -10q-113 0 -182 67t-69 173q0 111 86 195.5t192 84.5q51 0 88.5 -14.5t55.5 -36.5t25 -43.5t5 -40.5q-5 -31 -42 -31h-342q-8 -40 -8 -77q0 -92 70.5 -155.5t171.5 -63.5q87 0 147 49.5t104 144.5q4 11 8 7q1 -3 -1 -9q-45 -105 -124.5 -177.5
t-184.5 -72.5z" />
    <glyph glyph-name="Gcircumflex" unicode="&#x11c;" horiz-adv-x="770" 
d="M442 912q-4 4 -7 0l-82 -122q-14 -19 -34 -19t-20 14q0 9 18 29q50 57 117 107q4 5 9 0q72 -55 121 -97q20 -19 20 -29q0 -7 -6.5 -14t-16.5 -7q-20 0 -35 21q-14 20 -84 117zM428 693q-136 0 -215.5 -95t-79.5 -252q0 -156 76.5 -251t210.5 -95q103 0 201 56q3 5 3 130
q0 90 -2 112q-24 6 -78 8q-60 4 -217 4q-4 0 -5 3q2 3 6 4q220 0 366 11q6 0 6 -8q-1 -96 -1 -322q0 -7 -8 -1q-37 30 -62 30q-14 0 -84.5 -18.5t-122.5 -18.5q-162 0 -270.5 101.5t-108.5 254.5q0 154 113 255.5t270 101.5q62 0 135 -13t114 -31l12 -213q0 -4 -2 -6
t-4.5 -0.5t-2.5 5.5q-24 248 -250 248z" />
    <glyph glyph-name="gcircumflex" unicode="&#x11d;" horiz-adv-x="502" 
d="M244 718q-4 4 -7 0l-82 -122q-14 -19 -34 -19t-20 14q0 9 18 29q50 57 117 107q4 5 9 0q72 -55 121 -97q20 -19 20 -29q0 -7 -6.5 -14t-16.5 -7q-20 0 -35 21q-14 20 -84 117zM232 167q61 0 93.5 41.5t32.5 120.5q0 68 -33 118.5t-89 50.5q-128 0 -128 -160
q0 -76 31.5 -123.5t92.5 -47.5zM223 -249h4q97 0 175 46t78 112q0 47 -38.5 67t-124.5 20h-130q-66 -20 -105.5 -56t-39.5 -78q0 -54 47 -82.5t134 -28.5zM465 484q-10 0 -82 9t-113 9v-2q77 -11 119.5 -56.5t42.5 -114.5q0 -78 -59.5 -125t-151.5 -47h-18
q-118 -10 -118 -54q0 -27 30 -35t103 -8h134q80 0 118.5 -31t38.5 -77q0 -62 -53.5 -122.5t-134 -97t-158.5 -36.5q-77 0 -121 35.5t-44 91.5q0 54 50 101.5t117 72.5q-133 5 -133 67q0 33 40.5 60t101.5 37q-66 12 -103.5 54t-37.5 112q0 76 60.5 128.5t148.5 52.5
q58 0 147 19t92 19q29 0 29 -15t-13 -31t-32 -16z" />
    <glyph glyph-name="Gbreve" unicode="&#x11e;" horiz-adv-x="770" 
d="M428 693q-136 0 -215.5 -95t-79.5 -252q0 -156 76.5 -251t210.5 -95q103 0 201 56q3 5 3 130q0 90 -2 112q-24 6 -78 8q-60 4 -217 4q-4 0 -5 3q2 3 6 4q220 0 366 11q6 0 6 -8q-1 -96 -1 -322q0 -7 -8 -1q-37 30 -62 30q-14 0 -84.5 -18.5t-122.5 -18.5
q-162 0 -270.5 101.5t-108.5 254.5q0 154 113 255.5t270 101.5q62 0 135 -13t114 -31l12 -213q0 -4 -2 -6t-4.5 -0.5t-2.5 5.5q-24 248 -250 248zM433 781q-65 0 -119 72q-6 7 -6 12q0 6 23 14t32 -3q30 -39 52.5 -56.5t49.5 -17.5q43 0 75 75q3 7 11 7q5 0 8 -3.5t0 -7.5
q-21 -36 -56 -63t-70 -29z" />
    <glyph glyph-name="gbreve" unicode="&#x11f;" horiz-adv-x="502" 
d="M246 587q-65 0 -119 72q-6 7 -6 12q0 6 23 14t32 -3q30 -39 52.5 -56.5t49.5 -17.5q43 0 75 75q3 7 11 7q5 0 8 -3.5t0 -7.5q-21 -36 -56 -63t-70 -29zM232 167q61 0 93.5 41.5t32.5 120.5q0 68 -33 118.5t-89 50.5q-128 0 -128 -160q0 -76 31.5 -123.5t92.5 -47.5z
M223 -249h4q97 0 175 46t78 112q0 47 -38.5 67t-124.5 20h-130q-66 -20 -105.5 -56t-39.5 -78q0 -54 47 -82.5t134 -28.5zM465 484q-10 0 -82 9t-113 9v-2q77 -11 119.5 -56.5t42.5 -114.5q0 -78 -59.5 -125t-151.5 -47h-18q-118 -10 -118 -54q0 -27 30 -35t103 -8h134
q80 0 118.5 -31t38.5 -77q0 -62 -53.5 -122.5t-134 -97t-158.5 -36.5q-77 0 -121 35.5t-44 91.5q0 54 50 101.5t117 72.5q-133 5 -133 67q0 33 40.5 60t101.5 37q-66 12 -103.5 54t-37.5 112q0 76 60.5 128.5t148.5 52.5q58 0 147 19t92 19q29 0 29 -15t-13 -31t-32 -16z
" />
    <glyph glyph-name="Gdotaccent" unicode="&#x120;" horiz-adv-x="770" 
d="M428 693q-136 0 -215.5 -95t-79.5 -252q0 -156 76.5 -251t210.5 -95q103 0 201 56q3 5 3 130q0 90 -2 112q-24 6 -78 8q-60 4 -217 4q-4 0 -5 3q2 3 6 4q220 0 366 11q6 0 6 -8q-1 -96 -1 -322q0 -7 -8 -1q-37 30 -62 30q-14 0 -84.5 -18.5t-122.5 -18.5
q-162 0 -270.5 101.5t-108.5 254.5q0 154 113 255.5t270 101.5q62 0 135 -13t114 -31l12 -213q0 -4 -2 -6t-4.5 -0.5t-2.5 5.5q-24 248 -250 248zM385 833q0 22 15 37.5t37 15.5t37.5 -15.5t15.5 -37.5t-15.5 -37t-37.5 -15t-37 15t-15 37z" />
    <glyph glyph-name="gdotaccent" unicode="&#x121;" horiz-adv-x="502" 
d="M186 639q0 22 15 37.5t37 15.5t37.5 -15.5t15.5 -37.5t-15.5 -37t-37.5 -15t-37 15t-15 37zM232 167q61 0 93.5 41.5t32.5 120.5q0 68 -33 118.5t-89 50.5q-128 0 -128 -160q0 -76 31.5 -123.5t92.5 -47.5zM223 -249h4q97 0 175 46t78 112q0 47 -38.5 67t-124.5 20h-130
q-66 -20 -105.5 -56t-39.5 -78q0 -54 47 -82.5t134 -28.5zM465 484q-10 0 -82 9t-113 9v-2q77 -11 119.5 -56.5t42.5 -114.5q0 -78 -59.5 -125t-151.5 -47h-18q-118 -10 -118 -54q0 -27 30 -35t103 -8h134q80 0 118.5 -31t38.5 -77q0 -62 -53.5 -122.5t-134 -97
t-158.5 -36.5q-77 0 -121 35.5t-44 91.5q0 54 50 101.5t117 72.5q-133 5 -133 67q0 33 40.5 60t101.5 37q-66 12 -103.5 54t-37.5 112q0 76 60.5 128.5t148.5 52.5q58 0 147 19t92 19q29 0 29 -15t-13 -31t-32 -16z" />
    <glyph glyph-name="Gcommaaccent" unicode="&#x122;" horiz-adv-x="770" 
d="M406 -261q-4 -2 -5.5 -0.5t2.5 4.5q50 28 50 90q0 12 -5 27q-12 -20 -35 -20q-18 0 -30.5 12.5t-12.5 30.5q0 20 13.5 33.5t35.5 13.5q27 0 42.5 -22.5t15.5 -60.5q0 -34 -24 -64t-47 -44zM428 693q-136 0 -215.5 -95t-79.5 -252q0 -156 76.5 -251t210.5 -95
q103 0 201 56q3 5 3 130q0 90 -2 112q-24 6 -78 8q-60 4 -217 4q-4 0 -5 3q2 3 6 4q220 0 366 11q6 0 6 -8q-1 -96 -1 -322q0 -7 -8 -1q-37 30 -62 30q-14 0 -84.5 -18.5t-122.5 -18.5q-162 0 -270.5 101.5t-108.5 254.5q0 154 113 255.5t270 101.5q62 0 135 -13t114 -31
l12 -213q0 -4 -2 -6t-4.5 -0.5t-2.5 5.5q-24 248 -250 248z" />
    <glyph glyph-name="gcommaaccent" unicode="&#x123;" horiz-adv-x="502" 
d="M251 769q4 2 5.5 0.5t-2.5 -4.5q-50 -28 -50 -90q0 -15 5 -27q11 20 35 20q18 0 30.5 -12.5t12.5 -30.5q0 -20 -13.5 -33.5t-35.5 -13.5q-27 0 -42.5 22.5t-15.5 60.5q0 34 23.5 63.5t47.5 44.5zM232 167q61 0 93.5 41.5t32.5 120.5q0 68 -33 118.5t-89 50.5
q-128 0 -128 -160q0 -76 31.5 -123.5t92.5 -47.5zM223 -249h4q97 0 175 46t78 112q0 47 -38.5 67t-124.5 20h-130q-66 -20 -105.5 -56t-39.5 -78q0 -54 47 -82.5t134 -28.5zM465 484q-10 0 -82 9t-113 9v-2q77 -11 119.5 -56.5t42.5 -114.5q0 -78 -59.5 -125t-151.5 -47h-18
q-118 -10 -118 -54q0 -27 30 -35t103 -8h134q80 0 118.5 -31t38.5 -77q0 -62 -53.5 -122.5t-134 -97t-158.5 -36.5q-77 0 -121 35.5t-44 91.5q0 54 50 101.5t117 72.5q-133 5 -133 67q0 33 40.5 60t101.5 37q-66 12 -103.5 54t-37.5 112q0 76 60.5 128.5t148.5 52.5
q58 0 147 19t92 19q29 0 29 -15t-13 -31t-32 -16z" />
    <glyph glyph-name="Hcircumflex" unicode="&#x124;" horiz-adv-x="696" 
d="M358 912q-4 4 -7 0l-82 -122q-14 -19 -34 -19t-20 14q0 9 18 29q50 57 117 107q4 5 9 0q72 -55 121 -97q20 -19 20 -29q0 -7 -6.5 -14t-16.5 -7q-20 0 -35 21q-14 20 -84 117zM91 259v175q0 99 -1 143.5t-8 72t-15.5 31t-29.5 3.5h-13q-6 0 -6 4.5t6 4.5q16 0 58 -1.5
t48 -1.5q5 0 50 1.5t61 1.5q6 0 6 -4.5t-6 -4.5h-20q-21 0 -29.5 -3.5t-15.5 -31t-8 -72t-1 -143.5v-80l184 2l178 -3v81q0 99 -1 143.5t-8 72t-15.5 31t-29.5 3.5h-21q-6 0 -6 4.5t6 4.5q16 0 61 -1.5t51 -1.5t49 1.5t59 1.5q6 0 6 -4.5t-6 -4.5h-16q-21 0 -29 -3.5
t-15 -30.5t-8 -72t-1 -144v-175q0 -99 1 -144t8 -72t15 -30.5t29 -3.5h16q6 0 6 -4.5t-6 -4.5q-16 0 -59 1.5t-49 1.5t-51 -1.5t-61 -1.5q-6 0 -6 4.5t6 4.5h21q21 0 29.5 3.5t15.5 31t8 72t1 143.5v84l-177 -1q-107 0 -185 2v-85q0 -99 1 -143.5t8 -72t15.5 -31t29.5 -3.5
h20q6 0 6 -4.5t-6 -4.5q-16 0 -61 1.5t-50 1.5q-6 0 -48 -1.5t-58 -1.5q-6 0 -6 4.5t6 4.5h13q21 0 29.5 3.5t15.5 31t8 72t1 143.5z" />
    <glyph glyph-name="hcircumflex" unicode="&#x125;" 
d="M99 994q-4 4 -7 0l-82 -122q-14 -19 -34 -19t-20 14q0 9 18 29q50 57 117 107q5 5 9 0q72 -55 121 -97q20 -19 20 -29q0 -7 -6.5 -14t-16.5 -7q-20 0 -35 21q-14 20 -84 117zM121 2q-6 0 -43 -1t-53 -1q-6 0 -6 4.5t6 4.5q32 0 38.5 17.5t6.5 92.5v562q0 43 -5.5 60.5
t-19.5 20t-39 -2.5q-5 -1 -6 3t4 6h2q56 10 121 45q2 2 10 -0.5t8 -6.5v-403q80 107 183 107q163 0 163 -203v-257q0 -28 10 -35t38 -6q6 0 6 -4.5t-6 -4.5q-3 0 -41.5 1t-47.5 1q-6 0 -39 -1t-49 -1q-6 0 -6 4.5t6 4.5q25 0 34.5 5t14 27t4.5 76v200q0 86 -34 124.5
t-86 38.5q-47 0 -80.5 -20.5t-69.5 -68.5v-382h61q6 0 6 -4.5t-6 -4.5q-3 0 -39.5 1t-45.5 1z" />
    <glyph glyph-name="Hbar" unicode="&#x126;" horiz-adv-x="696" 
d="M529 353v81q0 76 -1 105q-61 3 -181 3q-60 0 -180 -2v-186l184 2zM91 259v175q0 75 -1 104l-63 -3q-5 3 -5 11.5t5 12.5q38 -2 63 -2q-1 62 -7 88.5t-15 32.5t-31 6h-13q-6 0 -6 4.5t6 4.5q16 0 58 -1.5t48 -1.5q5 0 50 1.5t61 1.5q6 0 6 -4.5t-6 -4.5h-20q-22 0 -31 -6
t-15 -33.5t-7 -89.5q120 -2 178 -2q140 0 182 2q-1 62 -7 89.5t-15 33.5t-31 6h-21q-6 0 -6 4.5t6 4.5q16 0 61 -1.5t51 -1.5t49 1.5t59 1.5q6 0 6 -4.5t-6 -4.5h-16q-21 0 -30 -5.5t-15 -33t-7 -88.5q23 0 61 2q5 -4 5 -12.5t-5 -11.5q-38 2 -62 2v-278q0 -99 1 -144t8 -72
t15 -30.5t29 -3.5h16q6 0 6 -4.5t-6 -4.5q-16 0 -59 1.5t-49 1.5t-51 -1.5t-61 -1.5q-6 0 -6 4.5t6 4.5h21q21 0 29.5 3.5t15.5 31t8 72t1 143.5v84l-177 -1q-107 0 -185 2v-85q0 -99 1 -143.5t8 -72t15.5 -31t29.5 -3.5h20q6 0 6 -4.5t-6 -4.5q-16 0 -61 1.5t-50 1.5
q-6 0 -48 -1.5t-58 -1.5q-6 0 -6 4.5t6 4.5h13q21 0 29.5 3.5t15.5 31t8 72t1 143.5z" />
    <glyph glyph-name="hbar" unicode="&#x127;" 
d="M362 0q-6 0 -6 4.5t6 4.5q25 0 34.5 5t14 27t4.5 76v200q0 86 -34 124.5t-86 38.5q-47 0 -80.5 -20.5t-69.5 -68.5v-382h61q6 0 6 -4.5t-6 -4.5q-3 0 -39.5 1t-45.5 1q-6 0 -43 -1t-53 -1q-6 0 -6 4.5t6 4.5q32 0 38.5 17.5t6.5 92.5v491q-8 0 -24.5 -0.5t-26.5 -0.5
q-35 -1 -35 2q0 7 46 51q3 0 16.5 -0.5t23.5 -0.5v20q0 43 -5.5 60.5t-19.5 20t-39 -2.5q-5 -1 -6 3t4 6h2q56 10 121 45q2 2 10 -0.5t8 -6.5v-145q79 0 119 1q35 1 35 -1q0 -7 -46 -51q-5 0 -44 0.5t-64 0.5v-208q80 107 183 107q163 0 163 -203v-257q0 -28 10 -35t38 -6
q6 0 6 -4.5t-6 -4.5q-3 0 -41.5 1t-47.5 1q-6 0 -39 -1t-49 -1z" />
    <glyph glyph-name="Itilde" unicode="&#x128;" horiz-adv-x="281" 
d="M-15 792q44 57 61.5 75t34.5 18q22 0 77 -29.5t73 -29.5q14 0 22.5 8t36.5 47q7 7 9 3q2 -2 -2 -8q-36 -53 -59 -76.5t-45 -23.5q-21 0 -75 31.5t-73 31.5q-8 0 -17 -9t-36 -43q-6 -7 -8.5 -4.5t1.5 9.5zM103 259v175q0 99 -1 143.5t-8 72t-15.5 31t-29.5 3.5h-21
q-6 0 -6 4.5t6 4.5q15 0 62 -1.5t52 -1.5q6 0 51.5 1.5t61.5 1.5q6 0 6 -4.5t-6 -4.5h-21q-21 0 -29.5 -3.5t-15.5 -31t-8 -72t-1 -143.5v-175q0 -99 1 -143.5t8 -72t15.5 -31t29.5 -3.5h21q6 0 6 -4.5t-6 -4.5q-16 0 -61.5 1.5t-51.5 1.5q-5 0 -52 -1.5t-62 -1.5
q-6 0 -6 4.5t6 4.5h21q21 0 29.5 3.5t15.5 31t8 72t1 143.5z" />
    <glyph glyph-name="itilde" unicode="&#x129;" horiz-adv-x="226" 
d="M-43 598q44 57 61.5 75t34.5 18q22 0 77 -29.5t73 -29.5q14 0 22.5 8t36.5 47q7 7 9 3q2 -2 -2 -8q-36 -53 -59 -76.5t-45 -23.5q-21 0 -75 31.5t-73 31.5q-8 0 -17 -9t-36 -43q-6 -7 -8.5 -4.5t1.5 9.5zM79 110v267q0 54 -12 65t-52 3q-6 -2 -7.5 2t4.5 6q62 13 125 57
q2 2 10 -0.5t8 -6.5v-393q0 -66 9.5 -83.5t50.5 -17.5q6 0 6 -4.5t-6 -4.5q-16 0 -53 1t-43 1t-45.5 -1t-55.5 -1q-6 0 -6 4.5t6 4.5q42 0 51.5 17.5t9.5 83.5z" />
    <glyph glyph-name="Imacron" unicode="&#x12a;" horiz-adv-x="281" 
d="M141 842h1q57 0 90 1q35 1 35 -1q0 -7 -46 -51q-1 0 -29 0.5t-49 0.5q-15 0 -37.5 -1t-38.5 -1q-35 -1 -35 2q0 7 46 51q1 0 21.5 -0.5t41.5 -0.5zM102 259v175q0 99 -1 143.5t-8 72t-15.5 31t-29.5 3.5h-21q-6 0 -6 4.5t6 4.5q15 0 62 -1.5t52 -1.5q6 0 51.5 1.5
t61.5 1.5q6 0 6 -4.5t-6 -4.5h-21q-21 0 -29.5 -3.5t-15.5 -31t-8 -72t-1 -143.5v-175q0 -99 1 -143.5t8 -72t15.5 -31t29.5 -3.5h21q6 0 6 -4.5t-6 -4.5q-16 0 -61.5 1.5t-51.5 1.5q-5 0 -52 -1.5t-62 -1.5q-6 0 -6 4.5t6 4.5h21q21 0 29.5 3.5t15.5 31t8 72t1 143.5z" />
    <glyph glyph-name="imacron" unicode="&#x12b;" horiz-adv-x="226" 
d="M110 636h1q57 0 90 1q35 1 35 -1q0 -7 -46 -51q-1 0 -29 0.5t-49 0.5q-15 0 -37.5 -1t-38.5 -1q-35 -1 -35 2q0 7 46 51q1 0 21.5 -0.5t41.5 -0.5zM78 110v267q0 54 -12 65t-52 3q-6 -2 -7.5 2t4.5 6q62 13 125 57q2 2 10 -0.5t8 -6.5v-393q0 -66 9.5 -83.5t50.5 -17.5
q6 0 6 -4.5t-6 -4.5q-16 0 -53 1t-43 1t-45.5 -1t-55.5 -1q-6 0 -6 4.5t6 4.5q42 0 51.5 17.5t9.5 83.5z" />
    <glyph glyph-name="Ibreve" unicode="&#x12c;" horiz-adv-x="281" 
d="M143 781q-65 0 -119 72q-6 7 -6 12q0 6 23 14t32 -3q30 -39 52.5 -56.5t49.5 -17.5q43 0 75 75q3 7 11 7q5 0 8 -3.5t0 -7.5q-21 -36 -56 -63t-70 -29zM102 259v175q0 99 -1 143.5t-8 72t-15.5 31t-29.5 3.5h-21q-6 0 -6 4.5t6 4.5q15 0 62 -1.5t52 -1.5q6 0 51.5 1.5
t61.5 1.5q6 0 6 -4.5t-6 -4.5h-21q-21 0 -29.5 -3.5t-15.5 -31t-8 -72t-1 -143.5v-175q0 -99 1 -143.5t8 -72t15.5 -31t29.5 -3.5h21q6 0 6 -4.5t-6 -4.5q-16 0 -61.5 1.5t-51.5 1.5q-5 0 -52 -1.5t-62 -1.5q-6 0 -6 4.5t6 4.5h21q21 0 29.5 3.5t15.5 31t8 72t1 143.5z" />
    <glyph glyph-name="ibreve" unicode="&#x12d;" horiz-adv-x="226" 
d="M108 587q-65 0 -119 72q-6 7 -6 12q0 6 23 14t32 -3q30 -39 52.5 -56.5t49.5 -17.5q43 0 75 75q3 7 11 7q5 0 8 -3.5t0 -7.5q-21 -36 -56 -63t-70 -29zM78 110v267q0 54 -12 65t-52 3q-6 -2 -7.5 2t4.5 6q62 13 125 57q2 2 10 -0.5t8 -6.5v-393q0 -66 9.5 -83.5
t50.5 -17.5q6 0 6 -4.5t-6 -4.5q-16 0 -53 1t-43 1t-45.5 -1t-55.5 -1q-6 0 -6 4.5t6 4.5q42 0 51.5 17.5t9.5 83.5z" />
    <glyph glyph-name="Iogonek" unicode="&#x12e;" horiz-adv-x="281" 
d="M102 259v175q0 99 -1 143.5t-8 72t-15.5 31t-29.5 3.5h-21q-6 0 -6 4.5t6 4.5q15 0 62 -1.5t52 -1.5q6 0 51.5 1.5t61.5 1.5q6 0 6 -4.5t-6 -4.5h-21q-21 0 -29.5 -3.5t-15.5 -31t-8 -72t-1 -143.5v-175q0 -99 1 -143.5t8 -72t15.5 -31t29.5 -3.5h21q5 0 6 -3t-2 -5
q-49 -65 -53 -90q-2 -20 11 -32t41 -12q33 0 75 21l-20 -44q-11 -23 -17 -28q-31 -13 -68 -13q-33 0 -50.5 19.5t-12.5 53.5q3 22 21 49t60 75q-18 0 -59 1.5t-45 1.5q-5 0 -52 -1.5t-62 -1.5q-6 0 -6 4.5t6 4.5h21q21 0 29.5 3.5t15.5 31t8 72t1 143.5z" />
    <glyph glyph-name="iogonek" unicode="&#x12f;" horiz-adv-x="226" 
d="M60 648q0 22 15 37.5t37 15.5t37.5 -15.5t15.5 -37.5t-15.5 -37t-37.5 -15t-37 15t-15 37zM78 110v267q0 54 -12 65t-52 3q-6 -2 -7.5 2t4.5 6q62 13 125 57q2 2 10 -0.5t8 -6.5v-393q0 -66 9.5 -83.5t50.5 -17.5q6 0 6 -4.5t-6 -4.5q-48 -61 -52 -89q-2 -20 11 -32
t41 -12q33 0 75 21l-20 -44q-11 -23 -17 -28q-31 -13 -68 -13q-33 0 -50.5 19.5t-12.5 53.5q3 22 21 48.5t61 75.5q-18 0 -49.5 1t-35.5 1q-6 0 -45.5 -1t-55.5 -1q-6 0 -6 4.5t6 4.5q42 0 51.5 17.5t9.5 83.5z" />
    <glyph glyph-name="Idot" unicode="&#x130;" horiz-adv-x="281" 
d="M88 833q0 22 15 37.5t37 15.5t37.5 -15.5t15.5 -37.5t-15.5 -37t-37.5 -15t-37 15t-15 37zM102 259v175q0 99 -1 143.5t-8 72t-15.5 31t-29.5 3.5h-21q-6 0 -6 4.5t6 4.5q15 0 62 -1.5t52 -1.5q6 0 51.5 1.5t61.5 1.5q6 0 6 -4.5t-6 -4.5h-21q-21 0 -29.5 -3.5t-15.5 -31
t-8 -72t-1 -143.5v-175q0 -99 1 -143.5t8 -72t15.5 -31t29.5 -3.5h21q6 0 6 -4.5t-6 -4.5q-16 0 -61.5 1.5t-51.5 1.5q-5 0 -52 -1.5t-62 -1.5q-6 0 -6 4.5t6 4.5h21q21 0 29.5 3.5t15.5 31t8 72t1 143.5z" />
    <glyph glyph-name="dotlessi" unicode="&#x131;" horiz-adv-x="226" 
d="M75 110v267q0 54 -12 65t-52 3q-6 -2 -7.5 2t4.5 6q62 13 125 57q2 2 10 -0.5t8 -6.5v-393q0 -66 9.5 -83.5t50.5 -17.5q6 0 6 -4.5t-6 -4.5q-16 0 -53 1t-43 1t-45.5 -1t-55.5 -1q-6 0 -6 4.5t6 4.5q42 0 51.5 17.5t9.5 83.5z" />
    <glyph glyph-name="IJ" unicode="&#x132;" horiz-adv-x="546" 
d="M449 434v-115q0 -12 0.5 -52t0.5 -54q0 -76 -7.5 -125.5t-31.5 -93t-47.5 -70t-76.5 -78.5q-18 -18 -46 -38t-39 -20q-9 0 -23 2q-27 7 -27 23q0 18 10 34.5t29 22.5q10 2 20 2q15 0 37 -0.5t25 -0.5q27 0 40 15q33 35 45.5 109t12.5 264v175q0 196 -9 226q-7 22 -29 24
h-16h-26q-6 0 -6 4.5t6 4.5q16 0 65.5 -1.5t54.5 -1.5q6 0 51.5 1.5t62.5 1.5q6 0 6 -4.5t-6 -4.5h-20q-41 0 -48.5 -32t-7.5 -218zM102 259v175q0 99 -1 143.5t-8 72t-15.5 31t-29.5 3.5h-21q-6 0 -6 4.5t6 4.5q15 0 62 -1.5t52 -1.5q6 0 51.5 1.5t61.5 1.5q6 0 6 -4.5
t-6 -4.5h-21q-21 0 -29.5 -3.5t-15.5 -31t-8 -72t-1 -143.5v-175q0 -99 1 -143.5t8 -72t15.5 -31t29.5 -3.5h21q6 0 6 -4.5t-6 -4.5q-16 0 -61.5 1.5t-51.5 1.5q-5 0 -52 -1.5t-62 -1.5q-6 0 -6 4.5t6 4.5h21q21 0 29.5 3.5t15.5 31t8 72t1 143.5z" />
    <glyph glyph-name="ij" unicode="&#x133;" horiz-adv-x="429" 
d="M57 648q0 22 15 37.5t37 15.5t37.5 -15.5t15.5 -37.5t-15.5 -37t-37.5 -15t-37 15t-15 37zM260 648q0 22 15 37.5t37 15.5t37.5 -15.5t15.5 -37.5t-15.5 -37t-37.5 -15t-37 15t-15 37zM75 110v267q0 54 -12 65t-52 3q-6 -2 -7.5 2t4.5 6q62 13 125 57q2 2 10 -0.5t8 -6.5
v-393q0 -66 9.5 -83.5t50.5 -17.5q6 0 6 -4.5t-6 -4.5q-16 0 -53 1t-43 1t-45.5 -1t-55.5 -1q-6 0 -6 4.5t6 4.5q42 0 51.5 17.5t9.5 83.5zM354 503l1 -454q-2 -60 -28 -111.5t-78 -114.5q-68 -84 -107 -84q-4 0 -18 2q-22 4 -22 18t12.5 30.5t28.5 21.5q8 2 16 2
q12 0 29 -0.5t19 -0.5q20 0 32 12l5 6q5 5 6.5 7.5t6 11.5t7 17.5t6 24t5.5 33t3.5 43t1.5 55.5v355q0 54 -13 65t-53 3q-6 -2 -7.5 2t4.5 6q62 13 125 57q2 2 10 -0.5t8 -6.5z" />
    <glyph glyph-name="Jcircumflex" unicode="&#x134;" horiz-adv-x="285" 
d="M151 912q-4 4 -7 0l-82 -122q-14 -19 -34 -19t-20 14q0 9 18 29q50 57 117 107q5 5 9 0q72 -55 121 -97q20 -19 20 -29q0 -7 -6.5 -14t-16.5 -7q-20 0 -35 21q-14 20 -84 117zM188 434v-115q0 -12 0.5 -52t0.5 -54q0 -76 -7.5 -125.5t-31.5 -93t-47.5 -70t-76.5 -78.5
q-18 -18 -46 -38t-39 -20q-9 0 -23 2q-27 7 -27 23q0 18 10 34.5t29 22.5q10 2 20 2q14 0 36.5 -0.5t25.5 -0.5q27 0 40 15q33 35 45.5 109t12.5 264v175q0 185 -7 217.5t-46 32.5h-1h-26q-6 0 -6 4.5t6 4.5q16 0 65.5 -1.5t54.5 -1.5q6 0 51.5 1.5t62.5 1.5q6 0 6 -4.5
t-6 -4.5h-20q-41 0 -48.5 -32t-7.5 -218z" />
    <glyph glyph-name="jcircumflex" unicode="&#x135;" horiz-adv-x="223" 
d="M113 723q-4 4 -7 0l-82 -122q-14 -19 -34 -19t-20 14q0 9 18 29q50 57 117 107q5 4 9 0q72 -55 121 -97q20 -19 20 -29q0 -7 -6.5 -14t-16.5 -7q-20 0 -35 21q-14 20 -84 117zM148 503l1 -454q-2 -60 -28 -111.5t-78 -114.5q-68 -84 -107 -84q-4 0 -18 2q-22 4 -22 18
t12.5 30.5t28.5 21.5q8 2 16 2q12 0 29 -0.5t19 -0.5q20 0 32 12l5 6q5 5 6.5 7.5t6 11.5t7 17.5t6 24t5.5 33t3.5 43t1.5 55.5v355q0 54 -13 65t-53 3q-6 -2 -7.5 2t4.5 6q62 13 125 57q2 2 10 -0.5t8 -6.5z" />
    <glyph glyph-name="Kcommaaccent" unicode="&#x136;" horiz-adv-x="668" 
d="M341 -241q-4 -2 -5.5 -0.5t2.5 4.5q50 28 50 90q0 12 -5 27q-12 -20 -35 -20q-18 0 -30.5 12.5t-12.5 30.5q0 20 13.5 33.5t35.5 13.5q27 0 42.5 -22.5t15.5 -60.5q0 -34 -24 -64t-47 -44zM243 0q-3 0 -51 1t-56 1t-59.5 -1t-54.5 -1q-6 0 -6 4.5t6 4.5q32 0 46 2
q11 11 14.5 28t5.5 62q3 55 3 200v133q0 99 -1 143.5t-8 72t-15.5 31t-29.5 3.5h-18q-6 0 -6 4.5t6 4.5q15 0 61.5 -1.5t51.5 -1.5t48.5 1.5t59.5 1.5q6 0 6 -4.5t-6 -4.5h-18q-21 0 -29.5 -3.5t-16 -30.5t-8.5 -72.5t-1 -143.5v-140l180 194q116 123 116 172q-1 25 -39 25
q-4 0 -13 -2t-10 -2q-9 0 -9 6t11 6q9 0 55 -1t54 -1q5 0 49 1t57 1q3 0 4.5 -2.5t0 -4.5t-4.5 -2h-2q-49 0 -93.5 -36t-166.5 -166l-96 -103q33 21 70 21t62 -13q18 -9 31 -21t25 -33t18.5 -34.5t20 -47t19.5 -48.5q48 -120 75 -157t66 -37h12q9 0 9 -4q1 -2 -3 -4l-8 -1
h-34q-20 0 -43.5 -2t-28.5 -2q-31 0 -50 24q-26 33 -69 151q-43 117 -61 150q-35 58 -73 59q-32 0 -63 -27l-68 -73v-21q0 -99 1 -143.5t8 -72t15.5 -31t29.5 -3.5h22q6 0 6 -4.5t-6 -4.5z" />
    <glyph glyph-name="kcommaaccent" unicode="&#x137;" horiz-adv-x="552" 
d="M290 -251q-4 -2 -5.5 -0.5t2.5 4.5q50 28 50 90q0 12 -5 27q-12 -20 -35 -20q-18 0 -30.5 12.5t-12.5 30.5q0 20 13.5 33.5t35.5 13.5q27 0 42.5 -22.5t15.5 -60.5q0 -34 -24 -64t-47 -44zM560 0h-94q-23 0 -38 10q-35 22 -98 133l-82 137l-103 -105v-166h61q6 0 6 -4.5
t-6 -4.5q-3 0 -39.5 1t-45.5 1q-6 0 -43 -1t-53 -1q-6 0 -6 4.5t6 4.5q32 0 38.5 17.5t6.5 92.5v562q0 43 -5.5 60.5t-19.5 20t-39 -2.5q-5 -1 -6 3t4 6h2q56 10 121 45q2 2 10 -0.5t8 -6.5v-619l157 162q85 88 63 125q-9 16 -38 16q-3 0 -4.5 2t0 4.5t4.5 2.5q15 0 55 -1
t45 -1q8 0 57 1t52 1t4.5 -2.5t0 -4.5t-4.5 -2q-47 0 -100 -35t-127 -112l-13 -13l97 -154q58 -93 96.5 -130t70.5 -37q5 0 6 -4q-1 -4 -6 -5z" />
    <glyph glyph-name="kgreenlandic" unicode="&#x138;" horiz-adv-x="552" 
d="M561 0h-94q-23 0 -38 10q-35 22 -98 133l-82 137l-102 -104v-66q0 -66 9.5 -83.5t50.5 -17.5q6 0 6 -4.5t-6 -4.5q-16 0 -53 1t-43 1t-45.5 -1t-55.5 -1q-6 0 -6 4.5t6 4.5q42 0 51.5 17.5t9.5 83.5v267q0 54 -12 65t-52 3q-6 -2 -7.5 2t4.5 6q62 13 125 57q2 2 10 -0.5
t8 -6.5v-315l156 161q85 88 63 125q-9 16 -38 16q-3 0 -4.5 2t0 4.5t4.5 2.5q15 0 55 -1t45 -1q8 0 57 1t52 1t4.5 -2.5t0 -4.5t-4.5 -2q-47 0 -100 -35t-127 -112l-13 -13l97 -154q58 -93 96.5 -130t70.5 -37q5 0 6 -4q-1 -4 -6 -5z" />
    <glyph glyph-name="Lacute" unicode="&#x139;" horiz-adv-x="609" 
d="M143 768q-2 -2 -4 -2q-4 0 -4 4q0 1 3 4q22 21 49.5 55.5t47.5 62.5t23 31q6 6 24 6q15 0 18 -3t3 -19q0 -8 -12 -17l-59 -45q-58 -45 -89 -77zM171 434v-273q0 -113 -8 -147q15 0 95 -1.5t96 -1.5q81 0 138.5 72t68.5 157l10 91q0 3 3 4.5t5.5 -0.5t2.5 -5l-10 -92
q-25 -218 -31 -229q-1 -2 -2 -3q-6 -6 -133 -6q-15 0 -68.5 0.5t-82.5 0.5q-16 1 -49 1.5t-49 0.5l-141 -3q-7 0 -8 3q-1 2 2 3t6 1q32 0 44.5 7.5t19.5 34t11 91.5q2 30 2.5 80.5t-0.5 107.5t-1 65q0 22 -1.5 96.5t-1.5 103.5q0 68 -8.5 79.5t-57.5 11.5q-6 0 -6 4.5t6 4.5
q4 0 58.5 -1t63.5 -1q6 0 56 1t67 1q6 0 6 -4.5t-6 -4.5h-28q-51 0 -60 -33t-9 -217z" />
    <glyph glyph-name="lacute" unicode="&#x13a;" horiz-adv-x="217" 
d="M82 863q-2 -2 -4 -2q-4 0 -4 4q0 1 3 4q22 21 49.5 55.5t47.5 62.5t23 31q6 6 24 6q15 0 18 -3t3 -19q0 -8 -12 -17l-58 -45q-59 -45 -90 -77zM121 2q-6 0 -43 -1t-53 -1q-6 0 -6 4.5t6 4.5q32 0 38.5 17.5t6.5 92.5v562q0 43 -5.5 60.5t-19.5 20t-39 -2.5q-5 -1 -6 3
t4 6h2q56 10 121 45q2 2 10 -0.5t8 -6.5v-687q0 -78 9 -94t50 -16q6 0 6 -4.5t-6 -4.5q-16 0 -46.5 1t-36.5 1z" />
    <glyph glyph-name="Lcommaaccent" unicode="&#x13b;" horiz-adv-x="609" 
d="M280 -261q-4 -2 -5.5 -0.5t2.5 4.5q50 28 50 90q0 12 -5 27q-12 -20 -35 -20q-18 0 -30.5 12.5t-12.5 30.5q0 20 13.5 33.5t35.5 13.5q27 0 42.5 -22.5t15.5 -60.5q0 -34 -24 -64t-47 -44zM171 434v-273q0 -113 -8 -147q15 0 95 -1.5t96 -1.5q81 0 138.5 72t68.5 157
l10 91q0 3 3 4.5t5.5 -0.5t2.5 -5l-10 -92q-25 -218 -31 -229q-1 -2 -2 -3q-6 -6 -133 -6q-15 0 -68.5 0.5t-82.5 0.5q-16 1 -49 1.5t-49 0.5l-141 -3q-7 0 -8 3q-1 2 2 3t6 1q32 0 44.5 7.5t19.5 34t11 91.5q2 30 2.5 80.5t-0.5 107.5t-1 65q0 22 -1.5 96.5t-1.5 103.5
q0 68 -8.5 79.5t-57.5 11.5q-6 0 -6 4.5t6 4.5q4 0 58.5 -1t63.5 -1q6 0 56 1t67 1q6 0 6 -4.5t-6 -4.5h-28q-51 0 -60 -33t-9 -217z" />
    <glyph glyph-name="lcommaaccent" unicode="&#x13c;" horiz-adv-x="217" 
d="M95 -261q-4 -2 -5.5 -0.5t2.5 4.5q50 28 50 90q0 12 -5 27q-12 -20 -35 -20q-18 0 -30.5 12.5t-12.5 30.5q0 20 13.5 33.5t35.5 13.5q27 0 42.5 -22.5t15.5 -60.5q0 -34 -24 -64t-47 -44zM121 2q-6 0 -43 -1t-53 -1q-6 0 -6 4.5t6 4.5q32 0 38.5 17.5t6.5 92.5v562
q0 43 -5.5 60.5t-19.5 20t-39 -2.5q-5 -1 -6 3t4 6h2q56 10 121 45q2 2 10 -0.5t8 -6.5v-687q0 -78 9 -94t50 -16q6 0 6 -4.5t-6 -4.5q-16 0 -46.5 1t-36.5 1z" />
    <glyph glyph-name="Lcaron" unicode="&#x13d;" horiz-adv-x="609" 
d="M134 782q4 -4 7 0l82 122q14 19 34 19t20 -14q0 -9 -18 -29q-38 -43 -117 -107q-4 -5 -9 0q-72 55 -121 97q-20 19 -20 29q0 7 6.5 14t16.5 7q20 0 35 -21q14 -20 84 -117zM171 434v-273q0 -113 -8 -147q15 0 95 -1.5t96 -1.5q81 0 138.5 72t68.5 157l10 91q0 3 3 4.5
t5.5 -0.5t2.5 -5l-10 -92q-25 -218 -31 -229q-1 -2 -2 -3q-6 -6 -133 -6q-15 0 -68.5 0.5t-82.5 0.5q-16 1 -49 1.5t-49 0.5l-141 -3q-7 0 -8 3q-1 2 2 3t6 1q32 0 44.5 7.5t19.5 34t11 91.5q2 30 2.5 80.5t-0.5 107.5t-1 65q0 22 -1.5 96.5t-1.5 103.5q0 68 -8.5 79.5
t-57.5 11.5q-6 0 -6 4.5t6 4.5q4 0 58.5 -1t63.5 -1q6 0 56 1t67 1q6 0 6 -4.5t-6 -4.5h-28q-51 0 -60 -33t-9 -217z" />
    <glyph glyph-name="lcaron" unicode="&#x13e;" horiz-adv-x="328" 
d="M227 624q-4 -2 -5.5 -0.5t2.5 4.5q50 28 50 90q0 12 -5 27q-12 -20 -35 -20q-18 0 -30.5 12.5t-12.5 30.5q0 20 13.5 33.5t35.5 13.5q27 0 42.5 -22.5t15.5 -60.5q0 -34 -24 -64t-47 -44zM121 2q-6 0 -43 -1t-53 -1q-6 0 -6 4.5t6 4.5q32 0 38.5 17.5t6.5 92.5v562
q0 43 -5.5 60.5t-19.5 20t-39 -2.5q-5 -1 -6 3t4 6h2q56 10 121 45q2 2 10 -0.5t8 -6.5v-687q0 -78 9 -94t50 -16q6 0 6 -4.5t-6 -4.5q-16 0 -46.5 1t-36.5 1z" />
    <glyph glyph-name="Ldot" unicode="&#x13f;" horiz-adv-x="609" 
d="M327 376q0 22 15 37.5t37 15.5t37.5 -15.5t15.5 -37.5t-15.5 -37t-37.5 -15t-37 15t-15 37zM171 434v-273q0 -113 -8 -147q15 0 95 -1.5t96 -1.5q81 0 138.5 72t68.5 157l10 91q0 3 3 4.5t5.5 -0.5t2.5 -5l-10 -92q-25 -218 -31 -229q-1 -2 -2 -3q-6 -6 -133 -6
q-15 0 -68.5 0.5t-82.5 0.5q-16 1 -49 1.5t-49 0.5l-141 -3q-7 0 -8 3q-1 2 2 3t6 1q32 0 44.5 7.5t19.5 34t11 91.5q2 30 2.5 80.5t-0.5 107.5t-1 65q0 22 -1.5 96.5t-1.5 103.5q0 68 -8.5 79.5t-57.5 11.5q-6 0 -6 4.5t6 4.5q4 0 58.5 -1t63.5 -1q6 0 56 1t67 1
q6 0 6 -4.5t-6 -4.5h-28q-51 0 -60 -33t-9 -217z" />
    <glyph glyph-name="ldot" unicode="&#x140;" horiz-adv-x="351" 
d="M216 378q0 22 15 37.5t37 15.5t37.5 -15.5t15.5 -37.5t-15.5 -37t-37.5 -15t-37 15t-15 37zM121 2q-6 0 -43 -1t-53 -1q-6 0 -6 4.5t6 4.5q32 0 38.5 17.5t6.5 92.5v562q0 43 -5.5 60.5t-19.5 20t-39 -2.5q-5 -1 -6 3t4 6h2q56 10 121 45q2 2 10 -0.5t8 -6.5v-687
q0 -78 9 -94t50 -16q6 0 6 -4.5t-6 -4.5q-16 0 -46.5 1t-36.5 1z" />
    <glyph glyph-name="Lslash" unicode="&#x141;" horiz-adv-x="609" 
d="M-35 337q-6 0 -9.5 8.5t-0.5 13.5q75 27 137 53q0 25 -1.5 91t-1.5 90q0 68 -8.5 79.5t-57.5 11.5q-6 0 -6 4.5t6 4.5q4 0 58.5 -1t63.5 -1q6 0 56 1t67 1q6 0 6 -4.5t-6 -4.5h-28q-51 0 -60 -32.5t-9 -213.5q27 11 54 24t53.5 26.5t37.5 18.5q7 -3 11 -9.5t-1 -12.5
q-103 -38 -155 -60v-264q0 -113 -8 -147q15 0 95 -1.5t96 -1.5q81 0 138.5 72t68.5 157l10 91q0 3 3 4.5t5.5 -0.5t2.5 -5l-10 -92q-25 -218 -31 -229q-1 -2 -2 -3q-6 -6 -133 -6q-15 0 -68.5 0.5t-82.5 0.5q-16 1 -49 1.5t-49 0.5l-141 -3q-7 0 -8 3q-1 2 2 3t6 1
q32 0 44.5 7.5t19.5 34t11 91.5q2 30 2.5 80.5t-0.5 107.5t-1 65v6q-76 -34 -127 -62z" />
    <glyph glyph-name="lslash" unicode="&#x142;" horiz-adv-x="257" 
d="M141 2q-6 0 -43 -1t-53 -1q-6 0 -6 4.5t6 4.5q32 0 38.5 17.5t6.5 92.5v371q-66 -30 -129 -63q-6 0 -9.5 8.5t-0.5 13.5q15 6 61.5 23t77.5 30v179q0 43 -5.5 60.5t-19.5 20t-39 -2.5q-5 -1 -6 3t4 6h2q56 10 121 45q2 2 10 -0.5t8 -6.5v-279q57 24 147 70q7 -3 11 -9.5
t-1 -12.5q-94 -34 -157 -60v-396q0 -78 9 -94t50 -16q6 0 6 -4.5t-6 -4.5q-16 0 -46.5 1t-36.5 1z" />
    <glyph glyph-name="Nacute" unicode="&#x143;" horiz-adv-x="716" 
d="M302 758q-2 -2 -4 -2q-4 0 -4 4q0 1 3 4q22 21 49.5 55.5t47.5 62.5t23 31q6 6 24 6q15 0 18 -3t3 -19q0 -8 -12 -17l-58 -45q-59 -45 -90 -77zM3 685h-4q-3 0 -4.5 2t0 4t4.5 2q46 0 81 1t52 2l16 1q7 0 10 -6q10 -19 39 -53l416 -517v313q0 70 -8 119.5t-18 74.5
t-27.5 38.5t-29.5 15.5t-31 2h-14q-6 0 -6 4.5t6 4.5q16 0 72 -1.5t62 -1.5t34 1.5t44 1.5q6 0 6 -4.5t-6 -4.5h-7q-28 0 -39 -11t-18 -64.5t-7 -174.5v-427q0 -10 -8 -10q-9 0 -25 22l-482 601l-1 -361q0 -71 6.5 -120t15.5 -74t25.5 -38.5t27.5 -15.5t30 -2h14q3 0 4.5 -2
t0 -4.5t-4.5 -2.5q-17 0 -71.5 1.5t-60.5 1.5t-35.5 -1.5t-45.5 -1.5q-5 0 -5 4q1 4 6 5h6q26 0 39.5 12t24 69t10.5 169l1 359q0 15 -16 31q-36 36 -79 36z" />
    <glyph glyph-name="nacute" unicode="&#x144;" horiz-adv-x="562" 
d="M259 547q-2 -2 -4 -2q-4 0 -4 4q0 1 3 4q22 21 49.5 55.5t47.5 62.5t23 31q6 6 24 6q15 0 18 -3t3 -19q0 -8 -12 -17l-59 -45q-58 -45 -89 -77zM495 307v-209q0 -43 5.5 -62.5t13.5 -23t29 -3.5q6 0 6 -4.5t-6 -4.5q-3 0 -41.5 1t-47.5 1q-6 0 -37.5 -1t-47.5 -1
q-6 0 -6 4.5t6 4.5q32 0 42 16t10 79l-1 213q0 86 -35 124.5t-86 38.5q-46 0 -80.5 -21.5t-70.5 -69.5v-380h52q6 0 6 -4.5t-6 -4.5q-3 0 -35 1t-41 1q-6 0 -43 -1t-53 -1q-6 0 -6 4.5t6 4.5q32 0 38.5 17.5t6.5 92.5v258q0 34 -46 76q-5 5 0 6q49 18 73 42q2 2 6 -1
q36 -36 41 -99q82 109 185 109q163 0 163 -203z" />
    <glyph glyph-name="Ncommaaccent" unicode="&#x145;" horiz-adv-x="716" 
d="M361 -241q-4 -2 -5.5 -0.5t2.5 4.5q50 28 50 90q0 12 -5 27q-12 -20 -35 -20q-18 0 -30.5 12.5t-12.5 30.5q0 20 13.5 33.5t35.5 13.5q27 0 42.5 -22.5t15.5 -60.5q0 -34 -24 -64t-47 -44zM3 685h-4q-3 0 -4.5 2t0 4t4.5 2q46 0 81 1t52 2l16 1q7 0 10 -6q10 -19 39 -53
l416 -517v313q0 70 -8 119.5t-18 74.5t-27.5 38.5t-29.5 15.5t-31 2h-14q-6 0 -6 4.5t6 4.5q16 0 72 -1.5t62 -1.5t34 1.5t44 1.5q6 0 6 -4.5t-6 -4.5h-7q-28 0 -39 -11t-18 -64.5t-7 -174.5v-427q0 -10 -8 -10q-9 0 -25 22l-482 601l-1 -361q0 -71 6.5 -120t15.5 -74
t25.5 -38.5t27.5 -15.5t30 -2h14q3 0 4.5 -2t0 -4.5t-4.5 -2.5q-17 0 -71.5 1.5t-60.5 1.5t-35.5 -1.5t-45.5 -1.5q-5 0 -5 4q1 4 6 5h6q26 0 39.5 12t24 69t10.5 169l1 359q0 15 -16 31q-36 36 -79 36z" />
    <glyph glyph-name="ncommaaccent" unicode="&#x146;" horiz-adv-x="562" 
d="M267 -251q-4 -2 -5.5 -0.5t2.5 4.5q50 28 50 90q0 12 -5 27q-12 -20 -35 -20q-18 0 -30.5 12.5t-12.5 30.5q0 20 13.5 33.5t35.5 13.5q27 0 42.5 -22.5t15.5 -60.5q0 -34 -24 -64t-47 -44zM495 307v-209q0 -43 5.5 -62.5t13.5 -23t29 -3.5q6 0 6 -4.5t-6 -4.5
q-3 0 -41.5 1t-47.5 1q-6 0 -37.5 -1t-47.5 -1q-6 0 -6 4.5t6 4.5q32 0 42 16t10 79l-1 213q0 86 -35 124.5t-86 38.5q-46 0 -80.5 -21.5t-70.5 -69.5v-380h52q6 0 6 -4.5t-6 -4.5q-3 0 -35 1t-41 1q-6 0 -43 -1t-53 -1q-6 0 -6 4.5t6 4.5q32 0 38.5 17.5t6.5 92.5v258
q0 34 -46 76q-5 5 0 6q49 18 73 42q2 2 6 -1q36 -36 41 -99q82 109 185 109q163 0 163 -203z" />
    <glyph glyph-name="Ncaron" unicode="&#x147;" horiz-adv-x="716" 
d="M355 782q4 -4 7 0l82 122q14 19 34 19t20 -14q0 -9 -18 -29q-38 -43 -117 -107q-5 -5 -9 0q-72 55 -121 97q-20 19 -20 29q0 7 6.5 14t16.5 7q20 0 35 -21q14 -20 84 -117zM3 685h-4q-3 0 -4.5 2t0 4t4.5 2q46 0 81 1t52 2l16 1q7 0 10 -6q10 -19 39 -53l416 -517v313
q0 70 -8 119.5t-18 74.5t-27.5 38.5t-29.5 15.5t-31 2h-14q-6 0 -6 4.5t6 4.5q16 0 72 -1.5t62 -1.5t34 1.5t44 1.5q6 0 6 -4.5t-6 -4.5h-7q-28 0 -39 -11t-18 -64.5t-7 -174.5v-427q0 -10 -8 -10q-9 0 -25 22l-482 601l-1 -361q0 -71 6.5 -120t15.5 -74t25.5 -38.5
t27.5 -15.5t30 -2h14q3 0 4.5 -2t0 -4.5t-4.5 -2.5q-17 0 -71.5 1.5t-60.5 1.5t-35.5 -1.5t-45.5 -1.5q-5 0 -5 4q1 4 6 5h6q26 0 39.5 12t24 69t10.5 169l1 359q0 15 -16 31q-36 36 -79 36z" />
    <glyph glyph-name="ncaron" unicode="&#x148;" horiz-adv-x="562" 
d="M295 585q4 -4 7 0l82 122q14 19 34 19t20 -14q0 -9 -18 -29q-38 -43 -117 -107q-5 -4 -9 0q-72 55 -121 97q-20 19 -20 29q0 7 6.5 14t16.5 7q20 0 35 -21q14 -20 84 -117zM495 307v-209q0 -43 5.5 -62.5t13.5 -23t29 -3.5q6 0 6 -4.5t-6 -4.5q-3 0 -41.5 1t-47.5 1
q-6 0 -37.5 -1t-47.5 -1q-6 0 -6 4.5t6 4.5q32 0 42 16t10 79l-1 213q0 86 -35 124.5t-86 38.5q-46 0 -80.5 -21.5t-70.5 -69.5v-380h52q6 0 6 -4.5t-6 -4.5q-3 0 -35 1t-41 1q-6 0 -43 -1t-53 -1q-6 0 -6 4.5t6 4.5q32 0 38.5 17.5t6.5 92.5v258q0 34 -46 76q-5 5 0 6
q49 18 73 42q2 2 6 -1q36 -36 41 -99q82 109 185 109q163 0 163 -203z" />
    <glyph glyph-name="Eng" unicode="&#x14a;" horiz-adv-x="716" 
d="M215 9h14q3 0 4.5 -2t0 -4.5t-4.5 -2.5q-17 0 -71.5 1.5t-60.5 1.5t-35.5 -1.5t-45.5 -1.5q-5 0 -5 4q1 4 6 5h6q26 0 39.5 12t24 69t10.5 169l1 359q0 15 -16 31q-36 36 -79 36h-4q-3 0 -4.5 2t0 4t4.5 2q46 0 81 1t52 2l16 1q7 0 10 -6q10 -19 39 -53l416 -517v313
q0 70 -8 119.5t-18 74.5t-27.5 38.5t-29.5 15.5t-31 2h-14q-6 0 -6 4.5t6 4.5q16 0 72 -1.5t62 -1.5t34 1.5t44 1.5q6 0 6 -4.5t-6 -4.5h-7q-28 0 -39 -11t-18 -64.5t-7 -174.5l-1 -115q0 -13 0.5 -105.5t0.5 -106.5v-57.5t-4 -49t-12.5 -54.5t-26 -47t-43.5 -53
q-18 -18 -46 -38t-39 -20q-9 0 -23 2q-27 7 -27 23q0 18 10 34.5t29 22.5q10 2 20 2q15 0 37.5 -0.5t24.5 -0.5q24 0 40 18q36 40 36 91q0 31 -22 58l-469 582l-1 -361q0 -71 6.5 -120t15.5 -74t25.5 -38.5t27.5 -15.5t30 -2z" />
    <glyph glyph-name="eng" unicode="&#x14b;" horiz-adv-x="562" 
d="M420 22v295q0 86 -35 124.5t-86 38.5q-46 0 -80.5 -21.5t-70.5 -69.5v-380h52q6 0 6 -4.5t-6 -4.5q-3 0 -35 1t-41 1q-6 0 -43 -1t-53 -1q-6 0 -6 4.5t6 4.5q32 0 38.5 17.5t6.5 92.5v258q0 34 -46 76q-5 5 0 6q49 18 73 42q2 2 6 -1q36 -36 41 -99q82 109 185 109
q163 0 163 -203v-258q-2 -60 -28 -111.5t-78 -114.5q-68 -84 -107 -84q-4 0 -18 2q-22 4 -22 18t12.5 30.5t28.5 21.5q8 2 16 2q12 0 29 -0.5t19 -0.5q20 0 32 12l5 6q5 5 6.5 7.5t6 11.5t7 17.5t6 24t5.5 33t3.5 43t1.5 55.5z" />
    <glyph glyph-name="Omacron" unicode="&#x14c;" horiz-adv-x="794" 
d="M400 832h1q57 0 90 1q35 1 35 -1q0 -7 -46 -51q-1 0 -29 0.5t-49 0.5q-15 0 -37.5 -1t-38.5 -1q-35 -1 -35 2q0 7 46 51q1 0 21.5 -0.5t41.5 -0.5zM133 346q0 -157 67.5 -251.5t187.5 -94.5q123 0 198 96t75 250q0 156 -69.5 251.5t-189.5 95.5q-122 0 -195.5 -96
t-73.5 -251zM43 346q0 153 105 255t250 102q143 0 247.5 -103t104.5 -254q0 -150 -107 -253t-251 -103q-143 0 -246 102.5t-103 253.5z" />
    <glyph glyph-name="omacron" unicode="&#x14d;" horiz-adv-x="581" 
d="M293 636h1q57 0 90 1q35 1 35 -1q0 -7 -46 -51q-1 0 -29 0.5t-49 0.5q-15 0 -37.5 -1t-38.5 -1q-35 -1 -35 2q0 7 46 51q1 0 21.5 -0.5t41.5 -0.5zM301 1q79 0 121.5 63.5t42.5 176.5q0 100 -49.5 179.5t-127.5 79.5q-85 0 -127 -64.5t-42 -178.5q0 -100 50 -178t132 -78
zM284 -10q-107 0 -177.5 69t-70.5 181q0 111 75 190.5t189 79.5q107 0 176.5 -69.5t69.5 -183.5q0 -101 -76 -184t-186 -83z" />
    <glyph glyph-name="Obreve" unicode="&#x14e;" horiz-adv-x="794" 
d="M410 781q-65 0 -119 72q-6 7 -6 12q0 6 23 14t32 -3q30 -39 52.5 -56.5t49.5 -17.5q43 0 75 75q3 7 11 7q5 0 8 -3.5t0 -7.5q-21 -36 -56 -63t-70 -29zM133 346q0 -157 67.5 -251.5t187.5 -94.5q123 0 198 96t75 250q0 156 -69.5 251.5t-189.5 95.5q-122 0 -195.5 -96
t-73.5 -251zM43 346q0 153 105 255t250 102q143 0 247.5 -103t104.5 -254q0 -150 -107 -253t-251 -103q-143 0 -246 102.5t-103 253.5z" />
    <glyph glyph-name="obreve" unicode="&#x14f;" horiz-adv-x="581" 
d="M290 586q-65 0 -119 72q-6 8 -6 12q0 6 23 14t32 -3q30 -39 52.5 -56.5t49.5 -17.5q43 0 75 75q3 7 11 7q5 0 8 -3.5t0 -7.5q-21 -36 -56 -63t-70 -29zM301 1q79 0 121.5 63.5t42.5 176.5q0 100 -49.5 179.5t-127.5 79.5q-85 0 -127 -64.5t-42 -178.5q0 -100 50 -178
t132 -78zM284 -10q-107 0 -177.5 69t-70.5 181q0 111 75 190.5t189 79.5q107 0 176.5 -69.5t69.5 -183.5q0 -101 -76 -184t-186 -83z" />
    <glyph glyph-name="Ohungarumlaut" unicode="&#x150;" horiz-adv-x="794" 
d="M455 759q-2 -2 -4 -2q-4 0 -5 4q0 1 3 4q29 29 69 87l39 57q5 6 23 6q14 0 18 -3q3 -3 3 -18q0 -8 -11 -17q-93 -72 -135 -118zM343 759q0 -2 -3 -2q-5 0 -6 4q0 2 2 4q17 21 36 54.5t32.5 60t15.5 29.5q4 6 21 6q13 0 19 -3q3 -3 3 -18q0 -8 -9 -17q-1 -1 -16.5 -15.5
t-30 -28.5t-33.5 -35t-31 -39zM133 346q0 -157 67.5 -251.5t187.5 -94.5q123 0 198 96t75 250q0 156 -69.5 251.5t-189.5 95.5q-122 0 -195.5 -96t-73.5 -251zM43 346q0 153 105 255t250 102q143 0 247.5 -103t104.5 -254q0 -150 -107 -253t-251 -103q-143 0 -246 102.5
t-103 253.5z" />
    <glyph glyph-name="ohungarumlaut" unicode="&#x151;" horiz-adv-x="581" 
d="M329 559q-2 -2 -4 -2q-4 0 -5 4q0 1 3 4q29 29 69 87l39 57q5 6 23 6q14 0 18 -3q3 -3 3 -18q0 -8 -11 -17q-93 -72 -135 -118zM217 559q0 -2 -3 -2q-5 0 -6 4q0 2 2 4q17 21 36 54.5t32.5 60t15.5 29.5q4 6 21 6q13 0 19 -3q3 -3 3 -18q0 -8 -9 -17q-1 -1 -16.5 -15.5
t-30 -28.5t-33.5 -35t-31 -39zM301 1q79 0 121.5 63.5t42.5 176.5q0 100 -49.5 179.5t-127.5 79.5q-85 0 -127 -64.5t-42 -178.5q0 -100 50 -178t132 -78zM284 -10q-107 0 -177.5 69t-70.5 181q0 111 75 190.5t189 79.5q107 0 176.5 -69.5t69.5 -183.5q0 -101 -76 -184
t-186 -83z" />
    <glyph glyph-name="OE" unicode="&#x152;" horiz-adv-x="1085" 
d="M98 346q0 -157 67.5 -251.5t187.5 -94.5q105 0 145 42.5t47 132.5l2 85q0 13 -0.5 41.5t-0.5 44.5q0 82 -3 131t-13 95.5t-29.5 70t-52 37t-81.5 13.5q-122 0 -195.5 -96t-73.5 -251zM623 434v-69h97q88 0 120 29t32 86v21q0 6 5 6t5 -6q0 -17 -2.5 -76.5t-2.5 -65.5
q0 -7 2.5 -68t2.5 -69q0 -6 -5 -6t-5 6v15q0 57 -32 86.5t-120 29.5h-97v-192q0 -113 -8 -147q14 0 93.5 -1.5t95.5 -1.5q84 0 142.5 60.5t68.5 141.5l6 53q0 3 3 4.5t5.5 -0.5t2.5 -5l-6 -54q-23 -193 -29 -204q-1 -2 -2 -3q-4 -4 -133 -4q-15 0 -69.5 0.5t-83.5 0.5
q-16 1 -49.5 1.5t-50.5 0.5l-174 -3q-33 -10 -78 -10q-143 0 -246 102.5t-103 253.5q0 153 105 255t250 102q44 0 77 -10q18 0 83.5 -1.5t70.5 -1.5q4 0 161.5 1.5t178.5 1.5q38 0 47 -4q4 -2 29 -184l4 -36q2 -5 -3 -5t-7 5l-5 36q-14 84 -69 129.5t-142 46.5h-127
q-29 0 -34 -20t-4 -141v-86z" />
    <glyph glyph-name="oe" unicode="&#x153;" horiz-adv-x="973" 
d="M795 356q31 0 40 9q9 11 9 32q0 32 -31 61.5t-84 29.5q-66 0 -113 -34.5t-67 -101.5q63 0 141 2t105 2zM301 1q79 0 121.5 63.5t42.5 176.5q0 100 -49.5 179.5t-127.5 79.5q-85 0 -127 -64.5t-42 -178.5q0 -100 50 -178t132 -78zM732 -10q-80 0 -139 33.5t-89 93.5
q-37 -57 -94 -92t-126 -35q-107 0 -177.5 69t-70.5 181q0 111 75 190.5t189 79.5q77 0 135.5 -36t87.5 -102q39 61 103 99.5t131 38.5q51 0 88.5 -14.5t55.5 -36.5t25 -43.5t5 -40.5q-5 -31 -42 -31h-342q-8 -40 -8 -77q0 -92 71 -155.5t173 -63.5q168 0 259 196q4 11 8 7
q1 -3 -1 -9q-45 -104 -128 -178t-189 -74z" />
    <glyph glyph-name="Racute" unicode="&#x154;" horiz-adv-x="642" 
d="M265 758q-2 -2 -4 -2q-4 0 -4 4q0 1 3 4q22 21 49.5 55.5t47.5 62.5t23 31q6 6 24 6q15 0 18 -3t3 -19q0 -8 -12 -17l-59 -45q-58 -45 -89 -77zM167 533v-163q19 1 84 1q66 0 117.5 40t51.5 118q0 79 -41.5 117t-133.5 38h-39q-28 0 -33.5 -21t-5.5 -130zM132 2
q-8 0 -57.5 -1t-52.5 -1q-6 0 -6 4.5t6 4.5q32 0 46 2q11 11 14.5 28t5.5 62q3 55 3 200v133q0 99 -1 143.5t-8 72t-15.5 31t-29.5 3.5h-18q-6 0 -6 4.5t6 4.5q16 0 60.5 -1.5t50.5 -1.5t60.5 1.5t62.5 1.5q256 0 256 -164q0 -60 -62.5 -103.5t-150.5 -58.5q64 -2 100.5 -34
t84.5 -130q43 -90 67.5 -129.5t44 -52t51.5 -12.5h7q7 0 7.5 -4.5t-7.5 -4.5h-36q-20 0 -42 -2t-27 -2q-31 0 -51 24q-34 39 -83 151q-29 67 -49 103t-44.5 55.5t-46.5 24.5t-64 6h-41v-101q0 -99 1 -143.5t8 -72t15.5 -31t29.5 -3.5h20q6 0 6 -4.5t-6 -4.5q-16 0 -60 1
t-49 1z" />
    <glyph glyph-name="racute" unicode="&#x155;" horiz-adv-x="327" 
d="M169 554q-2 -2 -4 -2q-4 0 -4 4q0 1 3 4q22 21 49.5 55.5t47.5 62.5t23 31q6 6 24 6q15 0 18 -3t3 -19q0 -8 -12 -17l-59 -45q-58 -45 -89 -77zM215 493q26 17 57 17q45 0 45 -18q0 -16 -13.5 -34t-36.5 -18h-37q-54 0 -66.5 -16t-12.5 -80v-335h61q6 0 6 -4.5t-6 -4.5
q-3 0 -41.5 1t-47.5 1q-6 0 -46 -1t-56 -1q-6 0 -6 4.5t6 4.5q37 0 46.5 17t9.5 93v258q0 34 -46 76q-5 5 0 6q43 16 69 42q2 2 6 -1q37 -35 43 -92q13 48 66 85z" />
    <glyph glyph-name="Rcommaaccent" unicode="&#x156;" horiz-adv-x="642" 
d="M341 -241q-4 -2 -5.5 -0.5t2.5 4.5q50 28 50 90q0 12 -5 27q-12 -20 -35 -20q-18 0 -30.5 12.5t-12.5 30.5q0 20 13.5 33.5t35.5 13.5q27 0 42.5 -22.5t15.5 -60.5q0 -34 -24 -64t-47 -44zM167 533v-163q19 1 84 1q66 0 117.5 40t51.5 118q0 79 -41.5 117t-133.5 38h-39
q-28 0 -33.5 -21t-5.5 -130zM132 2q-8 0 -57.5 -1t-52.5 -1q-6 0 -6 4.5t6 4.5q32 0 46 2q11 11 14.5 28t5.5 62q3 55 3 200v133q0 99 -1 143.5t-8 72t-15.5 31t-29.5 3.5h-18q-6 0 -6 4.5t6 4.5q16 0 60.5 -1.5t50.5 -1.5t60.5 1.5t62.5 1.5q256 0 256 -164
q0 -60 -62.5 -103.5t-150.5 -58.5q64 -2 100.5 -34t84.5 -130q43 -90 67.5 -129.5t44 -52t51.5 -12.5h7q7 0 7.5 -4.5t-7.5 -4.5h-36q-20 0 -42 -2t-27 -2q-31 0 -51 24q-34 39 -83 151q-29 67 -49 103t-44.5 55.5t-46.5 24.5t-64 6h-41v-101q0 -99 1 -143.5t8 -72t15.5 -31
t29.5 -3.5h20q6 0 6 -4.5t-6 -4.5q-16 0 -60 1t-49 1z" />
    <glyph glyph-name="rcommaaccent" unicode="&#x157;" horiz-adv-x="327" 
d="M100 -261q-4 -2 -5.5 -0.5t2.5 4.5q50 28 50 90q0 12 -5 27q-12 -20 -35 -20q-18 0 -30.5 12.5t-12.5 30.5q0 20 13.5 33.5t35.5 13.5q27 0 42.5 -22.5t15.5 -60.5q0 -34 -24 -64t-47 -44zM215 493q26 17 57 17q45 0 45 -18q0 -16 -13.5 -34t-36.5 -18h-37
q-54 0 -66.5 -16t-12.5 -80v-335h61q6 0 6 -4.5t-6 -4.5q-3 0 -41.5 1t-47.5 1q-6 0 -46 -1t-56 -1q-6 0 -6 4.5t6 4.5q37 0 46.5 17t9.5 93v258q0 34 -46 76q-5 5 0 6q43 16 69 42q2 2 6 -1q37 -35 43 -92q13 48 66 85z" />
    <glyph glyph-name="Rcaron" unicode="&#x158;" horiz-adv-x="642" 
d="M271 782q4 -4 7 0l82 122q14 19 34 19t20 -14q0 -9 -18 -29q-38 -43 -117 -107q-5 -5 -9 0q-72 55 -121 97q-20 19 -20 29q0 7 6.5 14t16.5 7q20 0 35 -21q14 -20 84 -117zM167 533v-163q19 1 84 1q66 0 117.5 40t51.5 118q0 79 -41.5 117t-133.5 38h-39q-28 0 -33.5 -21
t-5.5 -130zM132 2q-8 0 -57.5 -1t-52.5 -1q-6 0 -6 4.5t6 4.5q32 0 46 2q11 11 14.5 28t5.5 62q3 55 3 200v133q0 99 -1 143.5t-8 72t-15.5 31t-29.5 3.5h-18q-6 0 -6 4.5t6 4.5q16 0 60.5 -1.5t50.5 -1.5t60.5 1.5t62.5 1.5q256 0 256 -164q0 -60 -62.5 -103.5
t-150.5 -58.5q64 -2 100.5 -34t84.5 -130q43 -90 67.5 -129.5t44 -52t51.5 -12.5h7q7 0 7.5 -4.5t-7.5 -4.5h-36q-20 0 -42 -2t-27 -2q-31 0 -51 24q-34 39 -83 151q-29 67 -49 103t-44.5 55.5t-46.5 24.5t-64 6h-41v-101q0 -99 1 -143.5t8 -72t15.5 -31t29.5 -3.5h20
q6 0 6 -4.5t-6 -4.5q-16 0 -60 1t-49 1z" />
    <glyph glyph-name="rcaron" unicode="&#x159;" horiz-adv-x="327" 
d="M175 585q4 -4 7 0l82 122q14 19 34 19t20 -14q0 -9 -18 -29q-38 -43 -117 -107q-5 -4 -9 0q-72 55 -121 97q-20 19 -20 29q0 7 6.5 14t16.5 7q20 0 35 -21q14 -20 84 -117zM215 493q26 17 57 17q45 0 45 -18q0 -16 -13.5 -34t-36.5 -18h-37q-54 0 -66.5 -16t-12.5 -80
v-335h61q6 0 6 -4.5t-6 -4.5q-3 0 -41.5 1t-47.5 1q-6 0 -46 -1t-56 -1q-6 0 -6 4.5t6 4.5q37 0 46.5 17t9.5 93v258q0 34 -46 76q-5 5 0 6q43 16 69 42q2 2 6 -1q37 -35 43 -92q13 48 66 85z" />
    <glyph glyph-name="Sacute" unicode="&#x15a;" horiz-adv-x="561" 
d="M245 758q-2 -2 -4 -2q-4 0 -4 4q0 1 3 4q22 21 49.5 55.5t47.5 62.5t23 31q6 6 24 6q15 0 18 -3t3 -19q0 -8 -12 -17l-59 -45q-58 -45 -89 -77zM277 703q104 0 218 -26q10 -4 11 -11q1 -8 -0.5 -34t-3.5 -84.5t-2 -125.5q0 -6 -2.5 -8.5t-5 0t-2.5 8.5q1 51 -3 88.5
t-17 73.5t-36 58.5t-62.5 36.5t-94.5 14q-88 0 -129.5 -36t-41.5 -97q0 -34 15.5 -61t50.5 -50t62 -36t78 -34q40 -16 63 -27t54.5 -29.5t48.5 -37t30 -45.5t13 -58q0 -85 -63 -138.5t-155 -53.5q-119 0 -233 30q-10 3 -10 10q0 23 -0.5 127.5t-0.5 128.5q0 7 2.5 10t5.5 0
t3 -10q0 -144 55.5 -215t177.5 -71q79 0 118.5 36.5t39.5 98.5q0 24 -7 44t-24 37.5t-30.5 29t-44 26.5t-45 22t-51.5 22q-50 20 -81 35t-66 39t-52 54.5t-17 68.5q0 87 67.5 138.5t166.5 51.5z" />
    <glyph glyph-name="sacute" unicode="&#x15b;" horiz-adv-x="444" 
d="M158 559q-2 -2 -4 -2q-4 0 -4 4q0 1 3 4q22 21 49.5 55.5t47.5 62.5t23 31q6 6 24 6q15 0 18 -3t3 -19q0 -8 -12 -17l-58 -45q-59 -45 -90 -77zM39 361q0 72 57 110.5t128 38.5q37 0 61.5 -2t60 -8t45.5 -7q7 -1 7 -8q0 -16 -2.5 -86.5t-2.5 -88.5q0 -6 -4 -6t-4 6
q0 95 -37.5 143.5t-122.5 48.5q-62 0 -100 -24t-38 -63q0 -19 9.5 -36t22.5 -28t37 -23t41.5 -18.5t47.5 -16.5q35 -12 51.5 -18.5t44 -21t40.5 -27.5t24 -34.5t11 -47.5q0 -66 -51.5 -110t-127.5 -44q-36 0 -69 4.5t-50.5 9t-42 12.5t-31.5 10q-7 1 -7 14q0 3 1.5 19t3 56
t1.5 103q0 4 2 6t4 0t2 -6q0 -112 41.5 -165.5t144.5 -53.5q130 0 130 100q0 20 -10 37t-21.5 28t-37.5 23t-41 17.5t-49 16.5q-79 24 -124 55.5t-45 84.5z" />
    <glyph glyph-name="Scircumflex" unicode="&#x15c;" horiz-adv-x="561" 
d="M299 912q-4 4 -7 0l-82 -122q-14 -19 -34 -19t-20 14q0 9 18 29q50 57 117 107q5 5 9 0q72 -55 121 -97q20 -19 20 -29q0 -7 -6.5 -14t-16.5 -7q-20 0 -35 21q-14 20 -84 117zM277 703q104 0 218 -26q10 -4 11 -11q1 -8 -0.5 -34t-3.5 -84.5t-2 -125.5q0 -6 -2.5 -8.5
t-5 0t-2.5 8.5q1 51 -3 88.5t-17 73.5t-36 58.5t-62.5 36.5t-94.5 14q-88 0 -129.5 -36t-41.5 -97q0 -34 15.5 -61t50.5 -50t62 -36t78 -34q40 -16 63 -27t54.5 -29.5t48.5 -37t30 -45.5t13 -58q0 -85 -63 -138.5t-155 -53.5q-119 0 -233 30q-10 3 -10 10q0 23 -0.5 127.5
t-0.5 128.5q0 7 2.5 10t5.5 0t3 -10q0 -144 55.5 -215t177.5 -71q79 0 118.5 36.5t39.5 98.5q0 24 -7 44t-24 37.5t-30.5 29t-44 26.5t-45 22t-51.5 22q-50 20 -81 35t-66 39t-52 54.5t-17 68.5q0 87 67.5 138.5t166.5 51.5z" />
    <glyph glyph-name="scircumflex" unicode="&#x15d;" horiz-adv-x="444" 
d="M233 718q-4 4 -7 0l-82 -122q-14 -19 -34 -19t-20 14q0 9 18 29q50 57 117 107q5 5 9 0q72 -55 121 -97q20 -19 20 -29q0 -7 -6.5 -14t-16.5 -7q-20 0 -35 21q-14 20 -84 117zM39 361q0 72 57 110.5t128 38.5q37 0 61.5 -2t60 -8t45.5 -7q7 -1 7 -8q0 -16 -2.5 -86.5
t-2.5 -88.5q0 -6 -4 -6t-4 6q0 95 -37.5 143.5t-122.5 48.5q-62 0 -100 -24t-38 -63q0 -19 9.5 -36t22.5 -28t37 -23t41.5 -18.5t47.5 -16.5q35 -12 51.5 -18.5t44 -21t40.5 -27.5t24 -34.5t11 -47.5q0 -66 -51.5 -110t-127.5 -44q-36 0 -69 4.5t-50.5 9t-42 12.5t-31.5 10
q-7 1 -7 14q0 3 1.5 19t3 56t1.5 103q0 4 2 6t4 0t2 -6q0 -112 41.5 -165.5t144.5 -53.5q130 0 130 100q0 20 -10 37t-21.5 28t-37.5 23t-41 17.5t-49 16.5q-79 24 -124 55.5t-45 84.5z" />
    <glyph glyph-name="Scedilla" unicode="&#x15e;" horiz-adv-x="561" 
d="M277 703q104 0 218 -26q10 -4 11 -11q1 -8 -0.5 -34t-3.5 -84.5t-2 -125.5q0 -6 -2.5 -8.5t-5 0t-2.5 8.5q1 51 -3 88.5t-17 73.5t-36 58.5t-62.5 36.5t-94.5 14q-88 0 -129.5 -36t-41.5 -97q0 -34 15.5 -61t50.5 -50t62 -36t78 -34q40 -16 63 -27t54.5 -29.5t48.5 -37
t30 -45.5t13 -58q0 -85 -63 -138.5t-155 -53.5h-2l-41 -61q2 -3 5 -3q68 0 103.5 -22t35.5 -50q0 -46 -36 -92.5t-86 -46.5q-35 0 -59.5 10.5t-24.5 27.5q0 18 10.5 30t27.5 12t45 -22.5t52 -22.5q20 0 33 17t13 38q0 70 -161 70q-11 0 -4 10l78 105q-115 0 -222 30
q-10 3 -10 10q0 23 -0.5 127.5t-0.5 128.5q0 7 2.5 10t5.5 0t3 -10q0 -144 55.5 -215t177.5 -71q79 0 118.5 36.5t39.5 98.5q0 24 -7 44t-24 37.5t-30.5 29t-44 26.5t-45 22t-51.5 22q-50 20 -81 35t-66 39t-52 54.5t-17 68.5q0 87 67.5 138.5t166.5 51.5z" />
    <glyph glyph-name="scedilla" unicode="&#x15f;" horiz-adv-x="444" 
d="M39 361q0 72 57 110.5t128 38.5q37 0 61.5 -2t60 -8t45.5 -7q7 -1 7 -8q0 -16 -2.5 -86.5t-2.5 -88.5q0 -6 -4 -6t-4 6q0 95 -37.5 143.5t-122.5 48.5q-62 0 -100 -24t-38 -63q0 -19 9.5 -36t22.5 -28t37 -23t41.5 -18.5t47.5 -16.5q35 -12 51.5 -18.5t44 -21t40.5 -27.5
t24 -34.5t11 -47.5q0 -66 -51.5 -110t-127.5 -44h-2l-41 -61q2 -3 5 -3q68 0 103.5 -22t35.5 -50q0 -46 -36 -92.5t-86 -46.5q-35 0 -59.5 10.5t-24.5 27.5q0 18 10.5 30t27.5 12t45 -22.5t52 -22.5q20 0 33 17t13 38q0 70 -161 70q-11 0 -4 10q11 15 39 52.5t39 52.5
q-34 1 -64.5 5.5t-46.5 9t-40.5 12t-30.5 9.5q-7 1 -7 14q0 3 1.5 19t3 56t1.5 103q0 4 2 6t4 0t2 -6q0 -112 41.5 -165.5t144.5 -53.5q130 0 130 100q0 20 -10 37t-21.5 28t-37.5 23t-41 17.5t-49 16.5q-79 24 -124 55.5t-45 84.5z" />
    <glyph glyph-name="Scaron" unicode="&#x160;" horiz-adv-x="561" 
d="M286 782q4 -4 7 0l82 122q14 19 34 19t20 -14q0 -9 -18 -29q-38 -43 -117 -107q-4 -5 -9 0q-72 55 -121 97q-20 19 -20 29q0 7 6.5 14t16.5 7q20 0 35 -21q14 -20 84 -117zM277 703q104 0 218 -26q10 -4 11 -11q1 -8 -0.5 -34t-3.5 -84.5t-2 -125.5q0 -6 -2.5 -8.5t-5 0
t-2.5 8.5q1 51 -3 88.5t-17 73.5t-36 58.5t-62.5 36.5t-94.5 14q-88 0 -129.5 -36t-41.5 -97q0 -34 15.5 -61t50.5 -50t62 -36t78 -34q40 -16 63 -27t54.5 -29.5t48.5 -37t30 -45.5t13 -58q0 -85 -63 -138.5t-155 -53.5q-119 0 -233 30q-10 3 -10 10q0 23 -0.5 127.5
t-0.5 128.5q0 7 2.5 10t5.5 0t3 -10q0 -144 55.5 -215t177.5 -71q79 0 118.5 36.5t39.5 98.5q0 24 -7 44t-24 37.5t-30.5 29t-44 26.5t-45 22t-51.5 22q-50 20 -81 35t-66 39t-52 54.5t-17 68.5q0 87 67.5 138.5t166.5 51.5z" />
    <glyph glyph-name="scaron" unicode="&#x161;" horiz-adv-x="444" 
d="M234 587q4 -4 7 0l82 122q14 19 34 19t20 -14q0 -9 -18 -29q-38 -43 -117 -107q-4 -4 -9 0q-72 55 -121 97q-20 19 -20 29q0 7 6.5 14t16.5 7q20 0 35 -21q14 -20 84 -117zM39 361q0 72 57 110.5t128 38.5q37 0 61.5 -2t60 -8t45.5 -7q7 -1 7 -8q0 -16 -2.5 -86.5
t-2.5 -88.5q0 -6 -4 -6t-4 6q0 95 -37.5 143.5t-122.5 48.5q-62 0 -100 -24t-38 -63q0 -19 9.5 -36t22.5 -28t37 -23t41.5 -18.5t47.5 -16.5q35 -12 51.5 -18.5t44 -21t40.5 -27.5t24 -34.5t11 -47.5q0 -66 -51.5 -110t-127.5 -44q-36 0 -69 4.5t-50.5 9t-42 12.5t-31.5 10
q-7 1 -7 14q0 3 1.5 19t3 56t1.5 103q0 4 2 6t4 0t2 -6q0 -112 41.5 -165.5t144.5 -53.5q130 0 130 100q0 20 -10 37t-21.5 28t-37.5 23t-41 17.5t-49 16.5q-79 24 -124 55.5t-45 84.5z" />
    <glyph glyph-name="Tcommaaccent" unicode="&#x162;" horiz-adv-x="658" 
d="M320 -261q-4 -2 -5.5 -0.5t2.5 4.5q50 28 50 90q0 12 -5 27q-12 -20 -35 -20q-18 0 -30.5 12.5t-12.5 30.5q0 20 13.5 33.5t35.5 13.5q27 0 42.5 -22.5t15.5 -60.5q0 -34 -24 -64t-47 -44zM368 694v-435q0 -99 1 -143.5t8 -72t15.5 -31t29.5 -3.5h18q6 0 6 -4.5t-6 -4.5
q-16 0 -60.5 1.5t-49.5 1.5q-6 0 -50.5 -1.5t-60.5 -1.5q-6 0 -6 4.5t6 4.5h18q21 0 29.5 3.5t15.5 31t8 72t1 143.5v435q-28 -1 -82 -1q-76 0 -113 -50t-52 -154l-8 -57q-3 -7 -9 -5q-1 2 -1 5l8 57q6 46 7.5 98t1.5 80t2 29q16 7 122 7q10 0 74 -1t88 -1q15 0 59 1t102 1
h1q106 0 122 -7q2 -1 2 -29t1.5 -80t8.5 -98l7 -57q2 -5 -2 -5q-4 -1 -7 5l-9 57q-17 106 -53 155.5t-113 49.5h-80z" />
    <glyph glyph-name="tcommaaccent" unicode="&#x163;" horiz-adv-x="326" 
d="M146 -261q-4 -2 -5.5 -0.5t2.5 4.5q50 28 50 90q0 12 -5 27q-12 -20 -35 -20q-18 0 -30.5 12.5t-12.5 30.5q0 20 13.5 33.5t35.5 13.5q27 0 42.5 -22.5t15.5 -60.5q0 -34 -24 -64t-47 -44zM144 596v-97q14 0 66.5 0.5t68.5 0.5q35 1 35 -2q0 -10 -49 -54q-1 0 -52 0.5
t-71 0.5v-314q0 -110 65 -110q31 0 58 27t44 77q1 4 5.5 4t7 -3t0.5 -7q-27 -55 -68.5 -92t-90.5 -37q-51 0 -73.5 33t-22.5 105v317h-55q-5 0 0 5l128 147q4 4 4 -1z" />
    <glyph glyph-name="Tcaron" unicode="&#x164;" horiz-adv-x="658" 
d="M329 782q4 -4 7 0l82 122q14 19 34 19t20 -14q0 -9 -18 -29q-38 -43 -117 -107q-5 -5 -9 0q-72 55 -121 97q-20 19 -20 29q0 7 6.5 14t16.5 7q20 0 35 -21q14 -20 84 -117zM368 694v-435q0 -99 1 -143.5t8 -72t15.5 -31t29.5 -3.5h18q6 0 6 -4.5t-6 -4.5q-16 0 -60.5 1.5
t-49.5 1.5q-6 0 -50.5 -1.5t-60.5 -1.5q-6 0 -6 4.5t6 4.5h18q21 0 29.5 3.5t15.5 31t8 72t1 143.5v435q-28 -1 -82 -1q-76 0 -113 -50t-52 -154l-8 -57q-3 -7 -9 -5q-1 2 -1 5l8 57q6 46 7.5 98t1.5 80t2 29q16 7 122 7q10 0 74 -1t88 -1q15 0 59 1t102 1h1q106 0 122 -7
q2 -1 2 -29t1.5 -80t8.5 -98l7 -57q2 -5 -2 -5q-4 -1 -7 5l-9 57q-17 106 -53 155.5t-113 49.5h-80z" />
    <glyph glyph-name="tcaron" unicode="&#x165;" horiz-adv-x="348" 
d="M220 555q-4 -2 -5.5 -0.5t2.5 4.5q50 28 50 90q0 12 -5 27q-12 -20 -35 -20q-18 0 -30.5 12.5t-12.5 30.5q0 20 13.5 33.5t35.5 13.5q27 0 42.5 -22.5t15.5 -60.5q0 -34 -24 -64t-47 -44zM144 596v-97q14 0 66.5 0.5t68.5 0.5q35 1 35 -2q0 -10 -49 -54q-1 0 -52 0.5
t-71 0.5v-314q0 -110 65 -110q31 0 58 27t44 77q1 4 5.5 4t7 -3t0.5 -7q-27 -55 -68.5 -92t-90.5 -37q-51 0 -73.5 33t-22.5 105v317h-55q-5 0 0 5l128 147q4 4 4 -1z" />
    <glyph glyph-name="Tbar" unicode="&#x166;" horiz-adv-x="658" 
d="M368 346v-87q0 -99 1 -143.5t8 -72t15.5 -31t29.5 -3.5h18q6 0 6 -4.5t-6 -4.5q-16 0 -60.5 1.5t-49.5 1.5q-6 0 -50.5 -1.5t-60.5 -1.5q-6 0 -6 4.5t6 4.5h18q21 0 29.5 3.5t15.5 31t8 72t1 143.5v87q-72 -1 -160 -7q-5 3 -5 11.5t5 12.5q61 -4 160 -6v337
q-28 -1 -82 -1q-76 0 -113 -50t-52 -154l-8 -57q-3 -7 -9 -5q-1 2 -1 5l8 57q6 46 7.5 98t1.5 80t2 29q16 7 122 7q10 0 74 -1t88 -1q15 0 59 1t102 1h1q106 0 122 -7q2 -1 2 -29t1.5 -80t8.5 -98l7 -57q2 -5 -2 -5q-4 -1 -7 5l-9 57q-17 106 -53 155.5t-113 49.5h-80v-337
q81 0 163 6q5 -4 5 -12.5t-5 -11.5q-92 6 -163 7z" />
    <glyph glyph-name="tbar" unicode="&#x167;" horiz-adv-x="326" 
d="M144 596v-97q14 0 66.5 0.5t68.5 0.5q35 1 35 -2q0 -10 -49 -54q-1 0 -52 0.5t-71 0.5v-129h113q35 1 35 -1q0 -11 -44 -53h-104v-131q0 -110 65 -110q31 0 58 27t44 77q1 4 5.5 4t7 -3t0.5 -7q-27 -55 -68.5 -92t-90.5 -37q-51 0 -73.5 33t-22.5 105v134h-16
q-26 0 -26 2q0 6 42 51v130h-55q-5 0 0 5l128 147q4 4 4 -1z" />
    <glyph glyph-name="Utilde" unicode="&#x168;" horiz-adv-x="665" 
d="M191 782q44 57 61.5 75t34.5 18q22 0 77 -29.5t73 -29.5q14 0 22.5 8t36.5 47q7 7 9 3q2 -2 -2 -8q-36 -53 -59 -76.5t-45 -23.5q-21 0 -75 31.5t-73 31.5q-8 0 -17 -9t-36 -43q-6 -7 -8.5 -4.5t1.5 9.5zM567 244v190q0 70 -7.5 119.5t-17.5 74.5t-27 38.5t-29 15.5
t-31 2h-9q-6 0 -6 4.5t6 4.5q16 0 68.5 -1.5t58.5 -1.5t35 1.5t45 1.5q6 0 6 -4.5t-6 -4.5h-7q-21 0 -31 -4.5t-19 -28.5t-12 -74.5t-3 -142.5v-190q0 -105 -69 -179.5t-185 -74.5q-110 0 -174.5 70t-64.5 192v182q0 99 -1 144t-8 72t-15 30.5t-29 3.5h-14q-6 0 -6 4.5
t6 4.5q16 0 58 -1.5t48 -1.5q5 0 49.5 1.5t60.5 1.5q6 0 6 -4.5t-6 -4.5h-18q-21 0 -29.5 -4t-15.5 -30t-8.5 -72.5t-1.5 -143.5l-1 -155q0 -121 57 -189t157 -68q81 0 135.5 64t54.5 158z" />
    <glyph glyph-name="utilde" unicode="&#x169;" horiz-adv-x="559" 
d="M124 593q44 57 61.5 75t34.5 18q22 0 77 -29.5t73 -29.5q14 0 22.5 8t36.5 47q7 7 9 3q2 -2 -2 -8q-36 -53 -59 -76.5t-45 -23.5q-21 0 -75 31.5t-73 31.5q-8 0 -17 -9t-36 -43q-6 -7 -8.5 -4.5t1.5 9.5zM67 193v184q0 61 -11.5 71.5t-52.5 3.5q-5 -1 -6 3q-1 5 6 6
q58 10 122 45q2 2 10 -0.5t8 -6.5v-316q0 -86 33.5 -124.5t84.5 -38.5q46 0 80.5 21t71.5 70v266q0 61 -11.5 71.5t-52.5 3.5q-5 -1 -6 3t4 6h2q56 10 121 45q2 2 10 -0.5t8 -6.5v-380q0 -76 8 -93t45 -17q3 0 4.5 -2t0 -4.5t-4.5 -2.5q-37 0 -130 -10q-6 -1 -7 1t-1 8
q0 2 2.5 15.5t5 36.5t2.5 48q-82 -109 -185 -109q-161 0 -161 203z" />
    <glyph glyph-name="Umacron" unicode="&#x16a;" horiz-adv-x="665" 
d="M348 827h1q57 0 90 1q35 1 35 -1q0 -7 -46 -51q-1 0 -29 0.5t-49 0.5q-15 0 -37.5 -1t-38.5 -1q-35 -1 -35 2q0 7 46 51q1 0 21.5 -0.5t41.5 -0.5zM567 244v190q0 70 -7.5 119.5t-17.5 74.5t-27 38.5t-29 15.5t-31 2h-9q-6 0 -6 4.5t6 4.5q16 0 68.5 -1.5t58.5 -1.5
t35 1.5t45 1.5q6 0 6 -4.5t-6 -4.5h-7q-21 0 -31 -4.5t-19 -28.5t-12 -74.5t-3 -142.5v-190q0 -105 -69 -179.5t-185 -74.5q-110 0 -174.5 70t-64.5 192v182q0 99 -1 144t-8 72t-15 30.5t-29 3.5h-14q-6 0 -6 4.5t6 4.5q16 0 58 -1.5t48 -1.5q5 0 49.5 1.5t60.5 1.5
q6 0 6 -4.5t-6 -4.5h-18q-21 0 -29.5 -4t-15.5 -30t-8.5 -72.5t-1.5 -143.5l-1 -155q0 -121 57 -189t157 -68q81 0 135.5 64t54.5 158z" />
    <glyph glyph-name="umacron" unicode="&#x16b;" horiz-adv-x="559" 
d="M271 638h1q57 0 90 1q35 1 35 -1q0 -7 -46 -51q-1 0 -29 0.5t-49 0.5q-15 0 -37.5 -1t-38.5 -1q-35 -1 -35 2q0 7 46 51q1 0 21.5 -0.5t41.5 -0.5zM67 193v184q0 61 -11.5 71.5t-52.5 3.5q-5 -1 -6 3q-1 5 6 6q58 10 122 45q2 2 10 -0.5t8 -6.5v-316q0 -86 33.5 -124.5
t84.5 -38.5q46 0 80.5 21t71.5 70v266q0 61 -11.5 71.5t-52.5 3.5q-5 -1 -6 3t4 6h2q56 10 121 45q2 2 10 -0.5t8 -6.5v-380q0 -76 8 -93t45 -17q3 0 4.5 -2t0 -4.5t-4.5 -2.5q-37 0 -130 -10q-6 -1 -7 1t-1 8q0 2 2.5 15.5t5 36.5t2.5 48q-82 -109 -185 -109
q-161 0 -161 203z" />
    <glyph glyph-name="Ubreve" unicode="&#x16c;" horiz-adv-x="665" 
d="M347 761q-65 0 -119 72q-6 7 -6 12q0 6 23 14t32 -3q30 -39 52.5 -56.5t49.5 -17.5q43 0 75 75q3 7 11 7q5 0 8 -3.5t0 -7.5q-21 -36 -56 -63t-70 -29zM567 244v190q0 70 -7.5 119.5t-17.5 74.5t-27 38.5t-29 15.5t-31 2h-9q-6 0 -6 4.5t6 4.5q16 0 68.5 -1.5t58.5 -1.5
t35 1.5t45 1.5q6 0 6 -4.5t-6 -4.5h-7q-21 0 -31 -4.5t-19 -28.5t-12 -74.5t-3 -142.5v-190q0 -105 -69 -179.5t-185 -74.5q-110 0 -174.5 70t-64.5 192v182q0 99 -1 144t-8 72t-15 30.5t-29 3.5h-14q-6 0 -6 4.5t6 4.5q16 0 58 -1.5t48 -1.5q5 0 49.5 1.5t60.5 1.5
q6 0 6 -4.5t-6 -4.5h-18q-21 0 -29.5 -4t-15.5 -30t-8.5 -72.5t-1.5 -143.5l-1 -155q0 -121 57 -189t157 -68q81 0 135.5 64t54.5 158z" />
    <glyph glyph-name="ubreve" unicode="&#x16d;" horiz-adv-x="559" 
d="M277 587q-65 0 -119 72q-6 7 -6 12q0 6 23 14t32 -3q30 -39 52.5 -56.5t49.5 -17.5q43 0 75 75q3 7 11 7q5 0 8 -3.5t0 -7.5q-21 -36 -56 -63t-70 -29zM67 193v184q0 61 -11.5 71.5t-52.5 3.5q-5 -1 -6 3q-1 5 6 6q58 10 122 45q2 2 10 -0.5t8 -6.5v-316
q0 -86 33.5 -124.5t84.5 -38.5q46 0 80.5 21t71.5 70v266q0 61 -11.5 71.5t-52.5 3.5q-5 -1 -6 3t4 6h2q56 10 121 45q2 2 10 -0.5t8 -6.5v-380q0 -76 8 -93t45 -17q3 0 4.5 -2t0 -4.5t-4.5 -2.5q-37 0 -130 -10q-6 -1 -7 1t-1 8q0 2 2.5 15.5t5 36.5t2.5 48
q-82 -109 -185 -109q-161 0 -161 203z" />
    <glyph glyph-name="Uring" unicode="&#x16e;" horiz-adv-x="665" 
d="M285 823q0 -26 18 -44t44 -18t44 18t18 44t-18 44t-44 18t-44 -18t-18 -44zM273 823q0 31 21.5 52.5t52.5 21.5t52.5 -21.5t21.5 -52.5t-21.5 -52.5t-52.5 -21.5t-52.5 21.5t-21.5 52.5zM567 244v190q0 70 -7.5 119.5t-17.5 74.5t-27 38.5t-29 15.5t-31 2h-9q-6 0 -6 4.5
t6 4.5q16 0 68.5 -1.5t58.5 -1.5t35 1.5t45 1.5q6 0 6 -4.5t-6 -4.5h-7q-21 0 -31 -4.5t-19 -28.5t-12 -74.5t-3 -142.5v-190q0 -105 -69 -179.5t-185 -74.5q-110 0 -174.5 70t-64.5 192v182q0 99 -1 144t-8 72t-15 30.5t-29 3.5h-14q-6 0 -6 4.5t6 4.5q16 0 58 -1.5
t48 -1.5q5 0 49.5 1.5t60.5 1.5q6 0 6 -4.5t-6 -4.5h-18q-21 0 -29.5 -4t-15.5 -30t-8.5 -72.5t-1.5 -143.5l-1 -155q0 -121 57 -189t157 -68q81 0 135.5 64t54.5 158z" />
    <glyph glyph-name="uring" unicode="&#x16f;" horiz-adv-x="559" 
d="M209 631q0 -26 18 -44t44 -18t44 18t18 44t-18 44t-44 18t-44 -18t-18 -44zM197 631q0 31 21.5 52.5t52.5 21.5t52.5 -21.5t21.5 -52.5t-21.5 -52.5t-52.5 -21.5t-52.5 21.5t-21.5 52.5zM67 193v184q0 61 -11.5 71.5t-52.5 3.5q-5 -1 -6 3q-1 5 6 6q58 10 122 45
q2 2 10 -0.5t8 -6.5v-316q0 -86 33.5 -124.5t84.5 -38.5q46 0 80.5 21t71.5 70v266q0 61 -11.5 71.5t-52.5 3.5q-5 -1 -6 3t4 6h2q56 10 121 45q2 2 10 -0.5t8 -6.5v-380q0 -76 8 -93t45 -17q3 0 4.5 -2t0 -4.5t-4.5 -2.5q-37 0 -130 -10q-6 -1 -7 1t-1 8q0 2 2.5 15.5
t5 36.5t2.5 48q-82 -109 -185 -109q-161 0 -161 203z" />
    <glyph glyph-name="Uhungarumlaut" unicode="&#x170;" horiz-adv-x="665" 
d="M280 753q0 -2 -3 -2q-5 0 -6 4q0 2 2 4q17 21 36 54.5t32.5 60t15.5 29.5q4 6 21 6q13 0 19 -3q3 -3 3 -18q0 -8 -9 -17q-1 -1 -16.5 -15.5t-30 -28.5t-33.5 -35t-31 -39zM392 753q-2 -2 -4 -2q-4 0 -5 4q0 1 3 4q29 29 68 87l40 57q5 6 23 6q13 0 18 -3q3 -3 3 -18
q0 -8 -11 -17q-93 -72 -135 -118zM567 244v190q0 70 -7.5 119.5t-17.5 74.5t-27 38.5t-29 15.5t-31 2h-9q-6 0 -6 4.5t6 4.5q16 0 68.5 -1.5t58.5 -1.5t35 1.5t45 1.5q6 0 6 -4.5t-6 -4.5h-7q-21 0 -31 -4.5t-19 -28.5t-12 -74.5t-3 -142.5v-190q0 -105 -69 -179.5
t-185 -74.5q-110 0 -174.5 70t-64.5 192v182q0 99 -1 144t-8 72t-15 30.5t-29 3.5h-14q-6 0 -6 4.5t6 4.5q16 0 58 -1.5t48 -1.5q5 0 49.5 1.5t60.5 1.5q6 0 6 -4.5t-6 -4.5h-18q-21 0 -29.5 -4t-15.5 -30t-8.5 -72.5t-1.5 -143.5l-1 -155q0 -121 57 -189t157 -68
q81 0 135.5 64t54.5 158z" />
    <glyph glyph-name="uhungarumlaut" unicode="&#x171;" horiz-adv-x="559" 
d="M204 548q0 -2 -3 -2q-5 0 -6 4q0 2 2 4q17 21 36 54.5t32.5 60t15.5 29.5q4 6 21 6q13 0 19 -3q3 -3 3 -18q0 -8 -9 -17q-1 -1 -16.5 -15.5t-30 -28.5t-33.5 -35t-31 -39zM316 548q-2 -2 -4 -2q-4 0 -5 4q0 1 3 4q29 29 68 86l40 58q5 6 23 6q13 0 18 -3q3 -3 3 -18
q0 -8 -11 -17q-93 -72 -135 -118zM67 193v184q0 61 -11.5 71.5t-52.5 3.5q-5 -1 -6 3q-1 5 6 6q58 10 122 45q2 2 10 -0.5t8 -6.5v-316q0 -86 33.5 -124.5t84.5 -38.5q46 0 80.5 21t71.5 70v266q0 61 -11.5 71.5t-52.5 3.5q-5 -1 -6 3t4 6h2q56 10 121 45q2 2 10 -0.5
t8 -6.5v-380q0 -76 8 -93t45 -17q3 0 4.5 -2t0 -4.5t-4.5 -2.5q-37 0 -130 -10q-6 -1 -7 1t-1 8q0 2 2.5 15.5t5 36.5t2.5 48q-82 -109 -185 -109q-161 0 -161 203z" />
    <glyph glyph-name="Uogonek" unicode="&#x172;" horiz-adv-x="665" 
d="M455 -133q33 0 75 21l-20 -44q-11 -23 -17 -28q-31 -13 -68 -13q-33 0 -50.5 19.5t-12.5 53.5q3 24 26.5 56.5t79.5 95.5q-62 -38 -141 -38q-110 0 -174.5 70t-64.5 192v182q0 99 -1 144t-8 72t-15 30.5t-29 3.5h-14q-6 0 -6 4.5t6 4.5q16 0 58 -1.5t48 -1.5
q5 0 49.5 1.5t60.5 1.5q6 0 6 -4.5t-6 -4.5h-18q-21 0 -29.5 -4t-15.5 -30t-8.5 -72.5t-1.5 -143.5l-1 -155q0 -121 57 -189t157 -68q81 0 135.5 64t54.5 158v190q0 70 -7.5 119.5t-17.5 74.5t-27 38.5t-29 15.5t-31 2h-9q-6 0 -6 4.5t6 4.5q16 0 68.5 -1.5t58.5 -1.5
t35 1.5t45 1.5q6 0 6 -4.5t-6 -4.5h-7q-21 0 -31 -4.5t-19 -28.5t-12 -74.5t-3 -142.5v-190q0 -124 -85 -195q-88 -99 -93 -138q-2 -20 11 -32t41 -12z" />
    <glyph glyph-name="uogonek" unicode="&#x173;" horiz-adv-x="559" 
d="M67 193v184q0 61 -11.5 71.5t-52.5 3.5q-5 -1 -6 3q-1 5 6 6q58 10 122 45q2 2 10 -0.5t8 -6.5v-316q0 -86 33.5 -124.5t84.5 -38.5q46 0 80.5 21t71.5 70v266q0 61 -11.5 71.5t-52.5 3.5q-5 -1 -6 3t4 6h2q56 10 121 45q2 2 10 -0.5t8 -6.5v-380q0 -76 8 -93t45 -17
q4 0 4.5 -3.5t-2.5 -5.5q-50 -63 -52 -89q-2 -20 11 -32t41 -12q33 0 75 21l-20 -44q-11 -23 -17 -28q-31 -13 -68 -13q-33 0 -50.5 19.5t-12.5 53.5q3 22 21 49t60 75q-30 0 -120 -10q-6 -1 -7 1t-1 8q0 2 2.5 15.5t5 36.5t2.5 48q-82 -109 -185 -109q-161 0 -161 203z" />
    <glyph glyph-name="Wcircumflex" unicode="&#x174;" horiz-adv-x="982" 
d="M516 912q-4 4 -7 0l-82 -122q-14 -19 -34 -19t-20 14q0 9 18 29q50 57 117 107q4 5 9 0q72 -55 121 -97q20 -19 20 -29q0 -7 -6.5 -14t-16.5 -7q-20 0 -35 21q-14 20 -84 117zM371 96l115 254l-78 183q-35 79 -51 107t-28.5 36t-40.5 8h-8q-7 0 -7 4q0 5 6 5
q16 0 54.5 -1.5t44.5 -1.5t50.5 1.5t60.5 1.5q6 0 6 -4.5t-6 -4.5h-8q-34 0 -34 -25q0 -40 41 -137l43 -100l41 100q30 68 30 115q0 48 -35 48q-5 0 -14 -1.5t-10 -1.5q-6 0 -6 5q0 6 11 6q9 0 47 -1t46 -1q5 0 47 1t55 1q5 0 6 -4q-2 -4 -6 -5h-26q-38 0 -67.5 -37.5
t-65.5 -128.5l-47 -111l136 -316q2 -5 5 -5q2 0 4 5l152 396q35 94 35 148q0 50 -51 50q-4 0 -15 -2t-13 -2q-7 0 -7 6t12 6q10 0 57 -1t55 -1q6 0 38.5 1t46.5 1q5 0 6 -4q-2 -4 -6 -5h-3q-36 0 -68.5 -47.5t-73.5 -154.5l-187 -483q-2 -3 -7 -3h-10q-6 0 -7 3l-144 335
l-150 -334q-2 -3 -6 -3h-8q-6 0 -8 3l-184 485q-39 100 -59 139t-35 49.5t-44 10.5h-2q-6 0 -6 4q0 5 5 5q16 0 51.5 -1.5t41.5 -1.5t65 1.5t75 1.5q7 0 7 -5q-1 -4 -6 -4h-26q-42 0 -44 -28q0 -32 74 -222l129 -338q2 -5 5 -5q2 0 4 5z" />
    <glyph glyph-name="wcircumflex" unicode="&#x175;" horiz-adv-x="829" 
d="M419 718q-4 4 -7 0l-82 -122q-14 -19 -34 -19t-20 14q0 9 18 29q50 57 117 107q5 5 9 0q72 -55 121 -97q20 -19 20 -29q0 -7 -6.5 -14t-16.5 -7q-20 0 -35 21q-14 20 -84 117zM561 -2l-153 388l-163 -388q-2 -2 -3 -2h-11q-2 0 -4 2l-134 365q-29 83 -49 105.5t-60 22.5
q-4 0 -4 4.5t4 4.5q2 0 42.5 -1t47.5 -1q5 0 54.5 1t62.5 1q3 0 4.5 -2t0 -4.5t-4.5 -2.5q-31 0 -41 -5t-8.5 -25t18.5 -68l111 -302l125 291q3 10 1 33q-2 22 -10 36q-20 40 -64 40q-6 0 -6 5q0 4 5 4q13 0 51.5 -1t42.5 -1q5 0 42 1t49 1q7 0 7 -5q-1 -4 -6 -4
q-43 0 -47 -13.5t22 -84.5l121 -308l107 266q22 51 16.5 82t-24.5 44.5t-50 13.5q-6 0 -6 5q0 4 5 4q14 0 56.5 -1t46.5 -1q6 0 47 1t44 1q6 0 6 -5q0 -4 -5 -4q-42 0 -68 -31t-59 -116l-139 -346q-2 -2 -6 -2h-10q-2 0 -4 2z" />
    <glyph glyph-name="Ycircumflex" unicode="&#x176;" horiz-adv-x="615" 
d="M325 905q-4 4 -7 0l-82 -122q-14 -19 -34 -19t-20 14q0 9 18 29q50 57 117 107q5 4 9 0q72 -55 121 -97q20 -19 20 -29q0 -7 -6.5 -14t-16.5 -7q-20 0 -35 21q-14 20 -84 117zM459 509l-110 -192v-58q0 -99 1 -143.5t8 -72t15.5 -31t29.5 -3.5h18q6 0 6 -4.5t-6 -4.5
q-16 0 -59.5 1.5t-49.5 1.5q-5 0 -49.5 -1.5t-60.5 -1.5q-6 0 -6 4.5t6 4.5h18q21 0 29.5 3.5t15.5 31t8 72t1 143.5v55l-108 195q-60 108 -88.5 141.5t-65.5 33.5h-8q-7 0 -7 4q0 5 6 5q16 0 54.5 -1.5t44.5 -1.5t55.5 1.5t65.5 1.5q7 0 8 -5q-2 -3 -5 -4h-21
q-19 0 -25.5 -8.5t0 -31.5t22 -54t45.5 -86l95 -175l106 183q11 19 21.5 44t17.5 56t-5 52t-46 21q-4 0 -15 -2t-13 -2q-7 0 -7 6t12 6q9 0 53 -1t52 -1q5 0 50.5 1t58.5 1q7 0 4 -5q-2 -3 -6 -4h-2q-26 0 -63.5 -38.5t-60.5 -73t-40 -63.5z" />
    <glyph glyph-name="ycircumflex" unicode="&#x177;" horiz-adv-x="537" 
d="M289 718q-4 4 -7 0l-82 -122q-14 -19 -34 -19t-20 14q0 9 18 29q50 57 117 107q5 5 9 0q72 -55 121 -97q20 -19 20 -29q0 -7 -6.5 -14t-16.5 -7q-20 0 -35 21q-14 20 -84 117zM117 -136q43 0 73.5 23.5t61.5 95.5l11 25l-159 352q-41 89 -60.5 110t-56.5 21
q-3 0 -4.5 2.5t0 4.5t4.5 2t46.5 -1t52.5 -1q5 0 48.5 1t58.5 1q6 0 6 -4.5t-6 -4.5q-45 0 -50 -17.5t25 -83.5l133 -295l112 252q30 72 17 108t-63 36q-6 0 -6 4.5t6 4.5q16 0 52.5 -1t41.5 -1q9 0 47.5 1t42.5 1q3 0 4.5 -2t0 -4.5t-4.5 -2.5q-34 1 -64.5 -36.5
t-64.5 -113.5l-160 -360q-39 -89 -88.5 -131t-120.5 -42q-39 0 -61 11.5t-22 27.5q0 14 16.5 30t38.5 16q17 0 45 -14.5t47 -14.5z" />
    <glyph glyph-name="Ydieresis" unicode="&#x178;" horiz-adv-x="615" 
d="M375 815q0 20 14.5 35t34.5 15t35 -15t15 -35t-15 -34.5t-35 -14.5t-34.5 14.5t-14.5 34.5zM177 815q0 20 14.5 35t34.5 15t35 -15t15 -35t-15 -34.5t-35 -14.5t-34.5 14.5t-14.5 34.5zM459 509l-110 -192v-58q0 -99 1 -143.5t8 -72t15.5 -31t29.5 -3.5h18q6 0 6 -4.5
t-6 -4.5q-16 0 -59.5 1.5t-49.5 1.5q-5 0 -49.5 -1.5t-60.5 -1.5q-6 0 -6 4.5t6 4.5h18q21 0 29.5 3.5t15.5 31t8 72t1 143.5v55l-108 195q-60 108 -88.5 141.5t-65.5 33.5h-8q-7 0 -7 4q0 5 6 5q16 0 54.5 -1.5t44.5 -1.5t55.5 1.5t65.5 1.5q7 0 8 -5q-2 -3 -5 -4h-21
q-19 0 -25.5 -8.5t0 -31.5t22 -54t45.5 -86l95 -175l106 183q11 19 21.5 44t17.5 56t-5 52t-46 21q-4 0 -15 -2t-13 -2q-7 0 -7 6t12 6q9 0 53 -1t52 -1q5 0 50.5 1t58.5 1q7 0 4 -5q-2 -3 -6 -4h-2q-26 0 -63.5 -38.5t-60.5 -73t-40 -63.5z" />
    <glyph glyph-name="Zacute" unicode="&#x179;" horiz-adv-x="625" 
d="M283 753q-2 -2 -4 -2q-4 0 -4 4q0 1 3 4q22 21 49.5 55.5t47.5 62.5t23 31q6 6 24 6q15 0 18 -3t3 -19q0 -8 -12 -17l-59 -45q-58 -45 -89 -77zM83 505l-10 -106q0 -3 -3 -4.5t-6 0.5t-3 5l11 105q15 180 22 184q9 4 48 4q21 0 172 -1.5t156 -1.5q6 0 41 1.5t50 1.5
q9 0 11 -1t0 -9l-443 -669q17 0 113 -1.5t112 -1.5q83 0 139 60.5t65 141.5l7 99q0 3 3 4.5t5 -0.5t2 -5l-6 -100q-16 -199 -24 -207q-4 -4 -133 -4q-14 0 -72.5 0.5t-91.5 0.5q-18 1 -55.5 1.5t-56.5 0.5l-98 -6q-10 0 0 16l441 668h-185q-88 -1 -144.5 -47t-66.5 -129z
" />
    <glyph glyph-name="zacute" unicode="&#x17a;" horiz-adv-x="505" 
d="M217 559q-2 -2 -4 -2q-4 0 -4 4q0 1 3 4q22 21 49.5 55.5t47.5 62.5t23 31q6 6 24 6q15 0 18 -3t3 -19q0 -8 -12 -17l-59 -45q-58 -45 -89 -77zM54 307l-3 -62q0 -3 -2.5 -4.5t-4.5 0t-2 4.5l3 62q8 188 11 189q9 4 47 4q20 0 146.5 -1t131.5 -1q8 0 38 1.5t37 1.5
q15 0 0 -21l-348 -468q24 0 80 -1t66 -1q94 0 143.5 50.5t56.5 142.5l5 69q0 6 6 5q4 -1 3 -6l-5 -69q-19 -197 -20 -198q-4 -4 -87 -4q-95 0 -146 1q-61 0 -93 1l-84 -2q-7 0 -12 2t-3 7l358 480h-130q-98 0 -143 -44.5t-49 -137.5z" />
    <glyph glyph-name="Zdotaccent" unicode="&#x17b;" horiz-adv-x="625" 
d="M273 833q0 22 15 37.5t37 15.5t37.5 -15.5t15.5 -37.5t-15.5 -37t-37.5 -15t-37 15t-15 37zM83 505l-10 -106q0 -3 -3 -4.5t-6 0.5t-3 5l11 105q15 180 22 184q9 4 48 4q21 0 172 -1.5t156 -1.5q6 0 41 1.5t50 1.5q9 0 11 -1t0 -9l-443 -669q17 0 113 -1.5t112 -1.5
q83 0 139 60.5t65 141.5l7 99q0 3 3 4.5t5 -0.5t2 -5l-6 -100q-16 -199 -24 -207q-4 -4 -133 -4q-14 0 -72.5 0.5t-91.5 0.5q-18 1 -55.5 1.5t-56.5 0.5l-98 -6q-10 0 0 16l441 668h-185q-88 -1 -144.5 -47t-66.5 -129z" />
    <glyph glyph-name="zdotaccent" unicode="&#x17c;" horiz-adv-x="505" 
d="M205 639q0 22 15 37.5t37 15.5t37.5 -15.5t15.5 -37.5t-15.5 -37t-37.5 -15t-37 15t-15 37zM54 307l-3 -62q0 -3 -2.5 -4.5t-4.5 0t-2 4.5l3 62q8 188 11 189q9 4 47 4q20 0 146.5 -1t131.5 -1q8 0 38 1.5t37 1.5q15 0 0 -21l-348 -468q24 0 80 -1t66 -1q94 0 143.5 50.5
t56.5 142.5l5 69q0 6 6 5q4 -1 3 -6l-5 -69q-19 -197 -20 -198q-4 -4 -87 -4q-95 0 -146 1q-61 0 -93 1l-84 -2q-7 0 -12 2t-3 7l358 480h-130q-98 0 -143 -44.5t-49 -137.5z" />
    <glyph glyph-name="Zcaron" unicode="&#x17d;" horiz-adv-x="625" 
d="M321 782q4 -4 7 0l82 122q14 19 34 19t20 -14q0 -9 -18 -29q-38 -43 -117 -107q-5 -5 -9 0q-72 55 -121 97q-20 19 -20 29q0 7 6.5 14t16.5 7q20 0 35 -21q14 -20 84 -117zM83 505l-10 -106q0 -3 -3 -4.5t-6 0.5t-3 5l11 105q15 180 22 184q9 4 48 4q21 0 172 -1.5
t156 -1.5q6 0 41 1.5t50 1.5q9 0 11 -1t0 -9l-443 -669q17 0 113 -1.5t112 -1.5q83 0 139 60.5t65 141.5l7 99q0 3 3 4.5t5 -0.5t2 -5l-6 -100q-16 -199 -24 -207q-4 -4 -133 -4q-14 0 -72.5 0.5t-91.5 0.5q-18 1 -55.5 1.5t-56.5 0.5l-98 -6q-10 0 0 16l441 668h-185
q-88 -1 -144.5 -47t-66.5 -129z" />
    <glyph glyph-name="zcaron" unicode="&#x17e;" horiz-adv-x="505" 
d="M257 587q4 -4 7 0l82 122q14 19 34 19t20 -14q0 -9 -18 -29q-38 -43 -117 -107q-5 -4 -9 0q-72 55 -121 97q-20 19 -20 29q0 7 6.5 14t16.5 7q20 0 35 -21q14 -20 84 -117zM54 307l-3 -62q0 -3 -2.5 -4.5t-4.5 0t-2 4.5l3 62q8 188 11 189q9 4 47 4q20 0 146.5 -1
t131.5 -1q8 0 38 1.5t37 1.5q15 0 0 -21l-348 -468q24 0 80 -1t66 -1q94 0 143.5 50.5t56.5 142.5l5 69q0 6 6 5q4 -1 3 -6l-5 -69q-19 -197 -20 -198q-4 -4 -87 -4q-95 0 -146 1q-61 0 -93 1l-84 -2q-7 0 -12 2t-3 7l358 480h-130q-98 0 -143 -44.5t-49 -137.5z" />
    <glyph glyph-name="florin" unicode="&#x192;" horiz-adv-x="559" 
d="M229 239v-1q-88 -431 -210 -504q-47 -29 -101 -29q-36 0 -63 19t-25 45q2 23 15 36t32 13q15 0 24 -8t11.5 -16.5t4.5 -23.5q6 -45 50 -45q24 0 49 17q34 26 61 123t79 378v3q-84 -1 -168 -7q-5 3 -5 9.5t5 10.5q43 -3 170 -3q43 206 94.5 305t117.5 138q50 30 100 30
q36 0 64 -19.5t26 -45.5q-2 -23 -15 -36t-32 -13q-38 0 -40 48q-6 45 -50 45q-25 0 -50 -17q-26 -20 -42 -48.5t-41.5 -121.5t-57.5 -265q105 0 205 7q5 -4 5 -12.5t-5 -11.5q-112 7 -207 7q0 -2 -0.5 -4t-0.5 -3z" />
    <glyph glyph-name="Scommaaccent" unicode="&#x218;" horiz-adv-x="561" 
d="M286 -261q-4 -2 -5.5 -0.5t2.5 4.5q50 28 50 90q0 12 -5 27q-12 -20 -35 -20q-18 0 -30.5 12.5t-12.5 30.5q0 20 13.5 33.5t35.5 13.5q27 0 42.5 -22.5t15.5 -60.5q0 -34 -24 -64t-47 -44zM277 703q104 0 218 -26q10 -4 11 -11q1 -8 -0.5 -34t-3.5 -84.5t-2 -125.5
q0 -6 -2.5 -8.5t-5 0t-2.5 8.5q1 51 -3 88.5t-17 73.5t-36 58.5t-62.5 36.5t-94.5 14q-88 0 -129.5 -36t-41.5 -97q0 -34 15.5 -61t50.5 -50t62 -36t78 -34q40 -16 63 -27t54.5 -29.5t48.5 -37t30 -45.5t13 -58q0 -85 -63 -138.5t-155 -53.5q-119 0 -233 30q-10 3 -10 10
q0 23 -0.5 127.5t-0.5 128.5q0 7 2.5 10t5.5 0t3 -10q0 -144 55.5 -215t177.5 -71q79 0 118.5 36.5t39.5 98.5q0 24 -7 44t-24 37.5t-30.5 29t-44 26.5t-45 22t-51.5 22q-50 20 -81 35t-66 39t-52 54.5t-17 68.5q0 87 67.5 138.5t166.5 51.5z" />
    <glyph glyph-name="scommaaccent" unicode="&#x219;" horiz-adv-x="444" 
d="M217 -261q-4 -2 -5.5 -0.5t2.5 4.5q50 28 50 90q0 12 -5 27q-12 -20 -35 -20q-18 0 -30.5 12.5t-12.5 30.5q0 20 13.5 33.5t35.5 13.5q27 0 42.5 -22.5t15.5 -60.5q0 -34 -24 -64t-47 -44zM39 361q0 72 57 110.5t128 38.5q37 0 61.5 -2t60 -8t45.5 -7q7 -1 7 -8
q0 -16 -2.5 -86.5t-2.5 -88.5q0 -6 -4 -6t-4 6q0 95 -37.5 143.5t-122.5 48.5q-62 0 -100 -24t-38 -63q0 -19 9.5 -36t22.5 -28t37 -23t41.5 -18.5t47.5 -16.5q35 -12 51.5 -18.5t44 -21t40.5 -27.5t24 -34.5t11 -47.5q0 -66 -51.5 -110t-127.5 -44q-36 0 -69 4.5t-50.5 9
t-42 12.5t-31.5 10q-7 1 -7 14q0 3 1.5 19t3 56t1.5 103q0 4 2 6t4 0t2 -6q0 -112 41.5 -165.5t144.5 -53.5q130 0 130 100q0 20 -10 37t-21.5 28t-37.5 23t-41 17.5t-49 16.5q-79 24 -124 55.5t-45 84.5z" />
    <glyph glyph-name="dotlessj" unicode="&#x237;" horiz-adv-x="223" 
d="M148 503l1 -454q-2 -60 -28 -111.5t-78 -114.5q-68 -84 -107 -84q-4 0 -18 2q-22 4 -22 18t12.5 30.5t28.5 21.5q8 2 16 2q12 0 29 -0.5t19 -0.5q20 0 32 12l5 6q5 5 6.5 7.5t6 11.5t7 17.5t6 24t5.5 33t3.5 43t1.5 55.5v355q0 54 -13 65t-53 3q-6 -2 -7.5 2t4.5 6
q62 13 125 57q2 2 10 -0.5t8 -6.5z" />
    <glyph glyph-name="circumflex" unicode="&#x2c6;" horiz-adv-x="809" 
d="M420 680q-4 4 -7 0l-82 -122q-14 -19 -34 -19t-20 14q0 9 18 29q50 57 117 107q4 5 9 0q72 -55 121 -97q20 -19 20 -29q0 -7 -6.5 -14t-16.5 -7q-20 0 -35 21q-14 20 -84 117z" />
    <glyph glyph-name="caron" unicode="&#x2c7;" horiz-adv-x="809" 
d="M420 542q4 -4 7 0l82 122q14 19 34 19t20 -14q0 -9 -18 -29q-38 -43 -117 -107q-4 -5 -9 0q-72 55 -121 97q-20 19 -20 29q0 7 6.5 14t16.5 7q20 0 35 -21q14 -20 84 -117z" />
    <glyph glyph-name="breve" unicode="&#x2d8;" horiz-adv-x="809" 
d="M424 563q-65 0 -119 72q-6 7 -6 12q0 6 23 14t32 -3q30 -39 52.5 -56.5t49.5 -17.5q43 0 75 75q3 7 11 7q5 0 8 -3.5t0 -7.5q-21 -36 -56 -63t-70 -29z" />
    <glyph glyph-name="dotaccent" unicode="&#x2d9;" horiz-adv-x="809" 
d="M348 648q0 22 15 37.5t37 15.5t37.5 -15.5t15.5 -37.5t-15.5 -37t-37.5 -15t-37 15t-15 37z" />
    <glyph glyph-name="ring" unicode="&#x2da;" horiz-adv-x="809" 
d="M337 633q0 -26 18 -44t44 -18t44 18t18 44t-18 44t-44 18t-44 -18t-18 -44zM325 633q0 31 21.5 52.5t52.5 21.5t52.5 -21.5t21.5 -52.5t-21.5 -52.5t-52.5 -21.5t-52.5 21.5t-21.5 52.5z" />
    <glyph glyph-name="ogonek" unicode="&#x2db;" horiz-adv-x="809" 
d="M388 -184q33 0 75 21l-20 -44q-11 -23 -17 -28q-31 -13 -68 -13q-33 0 -50.5 19.5t-12.5 53.5q2 14 8.5 28.5t28 41.5t34.5 42t55 63q7 7 10 3q1 -2 -2 -5q-88 -99 -93 -138q-2 -20 11 -32t41 -12z" />
    <glyph glyph-name="tilde" unicode="&#x2dc;" horiz-adv-x="809" 
d="M264 597q44 57 61.5 75t34.5 18q22 0 77 -29.5t73 -29.5q14 0 22.5 8t36.5 47q7 7 9 3q2 -2 -2 -8q-36 -53 -59 -76.5t-45 -23.5q-21 0 -75 31.5t-73 31.5q-8 0 -17 -9t-36 -43q-6 -7 -8.5 -4.5t1.5 9.5z" />
    <glyph glyph-name="hungarumlaut" unicode="&#x2dd;" horiz-adv-x="809" 
d="M387 548q-2 -2 -4 -2q-4 0 -5 4q0 1 3 4q29 29 69 86l39 58q5 6 23 6q14 0 18 -3q3 -3 3 -18q0 -8 -11 -17q-93 -72 -135 -118zM275 548q0 -2 -3 -2q-5 0 -6 4q0 2 2 4q17 21 36 54.5t32.5 60t15.5 29.5q4 6 21 6q13 0 19 -3q3 -3 3 -18q0 -8 -9 -17q-1 -1 -16.5 -15.5
t-30 -28.5t-33.5 -35t-31 -39z" />
    <glyph glyph-name="Wgrave" unicode="&#x1e80;" horiz-adv-x="982" 
d="M571 753q-31 32 -89 77l-59 45q-12 9 -12 17q0 16 3 19t18 3q18 0 24 -6q3 -3 22.5 -31t47 -62.5t50.5 -55.5q3 -3 3 -4q0 -4 -4 -4q-2 0 -4 2zM371 96l115 254l-78 183q-35 79 -51 107t-28.5 36t-40.5 8h-8q-7 0 -7 4q0 5 6 5q16 0 54.5 -1.5t44.5 -1.5t50.5 1.5
t60.5 1.5q6 0 6 -4.5t-6 -4.5h-8q-34 0 -34 -25q0 -40 41 -137l43 -100l41 100q30 68 30 115q0 48 -35 48q-5 0 -14 -1.5t-10 -1.5q-6 0 -6 5q0 6 11 6q9 0 47 -1t46 -1q5 0 47 1t55 1q5 0 6 -4q-2 -4 -6 -5h-26q-38 0 -67.5 -37.5t-65.5 -128.5l-47 -111l136 -316
q2 -5 5 -5q2 0 4 5l152 396q35 94 35 148q0 50 -51 50q-4 0 -15 -2t-13 -2q-7 0 -7 6t12 6q10 0 57 -1t55 -1q6 0 38.5 1t46.5 1q5 0 6 -4q-2 -4 -6 -5h-3q-36 0 -68.5 -47.5t-73.5 -154.5l-187 -483q-2 -3 -7 -3h-10q-6 0 -7 3l-144 335l-150 -334q-2 -3 -6 -3h-8
q-6 0 -8 3l-184 485q-39 100 -59 139t-35 49.5t-44 10.5h-2q-6 0 -6 4q0 5 5 5q16 0 51.5 -1.5t41.5 -1.5t65 1.5t75 1.5q7 0 7 -5q-1 -4 -6 -4h-26q-42 0 -44 -28q0 -32 74 -222l129 -338q2 -5 5 -5q2 0 4 5z" />
    <glyph glyph-name="wgrave" unicode="&#x1e81;" horiz-adv-x="829" 
d="M450 559q-31 32 -90 77l-58 45q-12 9 -12 17q0 16 3 19t18 3q18 0 24 -6q3 -3 22.5 -31t47 -62.5t50.5 -55.5q3 -3 3 -4q0 -4 -4 -4q-2 0 -4 2zM561 -2l-153 388l-163 -388q-2 -2 -3 -2h-11q-2 0 -4 2l-134 365q-29 83 -49 105.5t-60 22.5q-4 0 -4 4.5t4 4.5q2 0 42.5 -1
t47.5 -1q5 0 54.5 1t62.5 1q3 0 4.5 -2t0 -4.5t-4.5 -2.5q-31 0 -41 -5t-8.5 -25t18.5 -68l111 -302l125 291q3 10 1 33q-2 22 -10 36q-20 40 -64 40q-6 0 -6 5q0 4 5 4q13 0 51.5 -1t42.5 -1q5 0 42 1t49 1q7 0 7 -5q-1 -4 -6 -4q-43 0 -47 -13.5t22 -84.5l121 -308
l107 266q22 51 16.5 82t-24.5 44.5t-50 13.5q-6 0 -6 5q0 4 5 4q14 0 56.5 -1t46.5 -1q6 0 47 1t44 1q6 0 6 -5q0 -4 -5 -4q-42 0 -68 -31t-59 -116l-139 -346q-2 -2 -6 -2h-10q-2 0 -4 2z" />
    <glyph glyph-name="Wacute" unicode="&#x1e82;" horiz-adv-x="982" 
d="M465 753q-2 -2 -4 -2q-4 0 -4 4q0 1 3 4q22 21 49.5 55.5t47.5 62.5t23 31q6 6 24 6q15 0 18 -3t3 -19q0 -8 -12 -17l-59 -45q-58 -45 -89 -77zM371 96l115 254l-78 183q-35 79 -51 107t-28.5 36t-40.5 8h-8q-7 0 -7 4q0 5 6 5q16 0 54.5 -1.5t44.5 -1.5t50.5 1.5
t60.5 1.5q6 0 6 -4.5t-6 -4.5h-8q-34 0 -34 -25q0 -40 41 -137l43 -100l41 100q30 68 30 115q0 48 -35 48q-5 0 -14 -1.5t-10 -1.5q-6 0 -6 5q0 6 11 6q9 0 47 -1t46 -1q5 0 47 1t55 1q5 0 6 -4q-2 -4 -6 -5h-26q-38 0 -67.5 -37.5t-65.5 -128.5l-47 -111l136 -316
q2 -5 5 -5q2 0 4 5l152 396q35 94 35 148q0 50 -51 50q-4 0 -15 -2t-13 -2q-7 0 -7 6t12 6q10 0 57 -1t55 -1q6 0 38.5 1t46.5 1q5 0 6 -4q-2 -4 -6 -5h-3q-36 0 -68.5 -47.5t-73.5 -154.5l-187 -483q-2 -3 -7 -3h-10q-6 0 -7 3l-144 335l-150 -334q-2 -3 -6 -3h-8
q-6 0 -8 3l-184 485q-39 100 -59 139t-35 49.5t-44 10.5h-2q-6 0 -6 4q0 5 5 5q16 0 51.5 -1.5t41.5 -1.5t65 1.5t75 1.5q7 0 7 -5q-1 -4 -6 -4h-26q-42 0 -44 -28q0 -32 74 -222l129 -338q2 -5 5 -5q2 0 4 5z" />
    <glyph glyph-name="wacute" unicode="&#x1e83;" horiz-adv-x="829" 
d="M369 559q-2 -2 -4 -2q-4 0 -4 4q0 1 3 4q22 21 49.5 55.5t47.5 62.5t23 31q6 6 24 6q15 0 18 -3t3 -19q0 -8 -12 -17l-59 -45q-58 -45 -89 -77zM561 -2l-153 388l-163 -388q-2 -2 -3 -2h-11q-2 0 -4 2l-134 365q-29 83 -49 105.5t-60 22.5q-4 0 -4 4.5t4 4.5q2 0 42.5 -1
t47.5 -1q5 0 54.5 1t62.5 1q3 0 4.5 -2t0 -4.5t-4.5 -2.5q-31 0 -41 -5t-8.5 -25t18.5 -68l111 -302l125 291q3 10 1 33q-2 22 -10 36q-20 40 -64 40q-6 0 -6 5q0 4 5 4q13 0 51.5 -1t42.5 -1q5 0 42 1t49 1q7 0 7 -5q-1 -4 -6 -4q-43 0 -47 -13.5t22 -84.5l121 -308
l107 266q22 51 16.5 82t-24.5 44.5t-50 13.5q-6 0 -6 5q0 4 5 4q14 0 56.5 -1t46.5 -1q6 0 47 1t44 1q6 0 6 -5q0 -4 -5 -4q-42 0 -68 -31t-59 -116l-139 -346q-2 -2 -6 -2h-10q-2 0 -4 2z" />
    <glyph glyph-name="Wdieresis" unicode="&#x1e84;" horiz-adv-x="982" 
d="M562 830q0 20 14.5 35t34.5 15t35 -15t15 -35t-15 -34.5t-35 -14.5t-34.5 14.5t-14.5 34.5zM364 830q0 20 14.5 35t34.5 15t35 -15t15 -35t-15 -34.5t-35 -14.5t-34.5 14.5t-14.5 34.5zM371 96l115 254l-78 183q-35 79 -51 107t-28.5 36t-40.5 8h-8q-7 0 -7 4q0 5 6 5
q16 0 54.5 -1.5t44.5 -1.5t50.5 1.5t60.5 1.5q6 0 6 -4.5t-6 -4.5h-8q-34 0 -34 -25q0 -40 41 -137l43 -100l41 100q30 68 30 115q0 48 -35 48q-5 0 -14 -1.5t-10 -1.5q-6 0 -6 5q0 6 11 6q9 0 47 -1t46 -1q5 0 47 1t55 1q5 0 6 -4q-2 -4 -6 -5h-26q-38 0 -67.5 -37.5
t-65.5 -128.5l-47 -111l136 -316q2 -5 5 -5q2 0 4 5l152 396q35 94 35 148q0 50 -51 50q-4 0 -15 -2t-13 -2q-7 0 -7 6t12 6q10 0 57 -1t55 -1q6 0 38.5 1t46.5 1q5 0 6 -4q-2 -4 -6 -5h-3q-36 0 -68.5 -47.5t-73.5 -154.5l-187 -483q-2 -3 -7 -3h-10q-6 0 -7 3l-144 335
l-150 -334q-2 -3 -6 -3h-8q-6 0 -8 3l-184 485q-39 100 -59 139t-35 49.5t-44 10.5h-2q-6 0 -6 4q0 5 5 5q16 0 51.5 -1.5t41.5 -1.5t65 1.5t75 1.5q7 0 7 -5q-1 -4 -6 -4h-26q-42 0 -44 -28q0 -32 74 -222l129 -338q2 -5 5 -5q2 0 4 5z" />
    <glyph glyph-name="wdieresis" unicode="&#x1e85;" horiz-adv-x="829" 
d="M266 641q0 20 14.5 35t34.5 15t35 -15t15 -35t-15 -34.5t-35 -14.5t-34.5 14.5t-14.5 34.5zM464 641q0 20 14.5 35t34.5 15t35 -15t15 -35t-15 -34.5t-35 -14.5t-34.5 14.5t-14.5 34.5zM561 -2l-153 388l-163 -388q-2 -2 -3 -2h-11q-2 0 -4 2l-134 365q-29 83 -49 105.5
t-60 22.5q-4 0 -4 4.5t4 4.5q2 0 42.5 -1t47.5 -1q5 0 54.5 1t62.5 1q3 0 4.5 -2t0 -4.5t-4.5 -2.5q-31 0 -41 -5t-8.5 -25t18.5 -68l111 -302l125 291q3 10 1 33q-2 22 -10 36q-20 40 -64 40q-6 0 -6 5q0 4 5 4q13 0 51.5 -1t42.5 -1q5 0 42 1t49 1q7 0 7 -5q-1 -4 -6 -4
q-43 0 -47 -13.5t22 -84.5l121 -308l107 266q22 51 16.5 82t-24.5 44.5t-50 13.5q-6 0 -6 5q0 4 5 4q14 0 56.5 -1t46.5 -1q6 0 47 1t44 1q6 0 6 -5q0 -4 -5 -4q-42 0 -68 -31t-59 -116l-139 -346q-2 -2 -6 -2h-10q-2 0 -4 2z" />
    <glyph glyph-name="figuredash" unicode="&#x2012;" horiz-adv-x="616" 
d="M311 251q143 0 239 6q6 -4 6 -12.5t-5 -11.5q-128 7 -242 7q-112 0 -238 -7q-6 3 -6 11.5t5 12.5q102 -6 241 -6z" />
    <glyph glyph-name="endash" unicode="&#x2013;" horiz-adv-x="500" 
d="M246 251q80 0 176 6q6 -4 6 -12.5t-5 -11.5q-98 7 -179 7q-80 0 -173 -7q-6 3 -5.5 11.5t4.5 12.5q102 -6 176 -6z" />
    <glyph glyph-name="emdash" unicode="&#x2014;" horiz-adv-x="1000" 
d="M507 251q323 0 421 6q6 -4 6 -12.5t-5 -11.5q-98 7 -424 7q-308 0 -434 -7q-6 3 -6 11.5t5 12.5q100 -6 437 -6z" />
    <glyph glyph-name="uni2015" unicode="&#x2015;" horiz-adv-x="1420" 
d="M717 251q531 0 627 6q6 -4 6 -12.5t-5 -11.5q-128 7 -630 7q-520 0 -644 -7q-6 3 -6 11.5t5 12.5q100 -6 647 -6z" />
    <glyph glyph-name="doublebar" unicode="&#x2016;" horiz-adv-x="421" 
d="M292 247q0 -319 6 -513q-15 -13 -29 -10q10 209 10 522q0 258 -6 528q13 10 31 6q-12 -219 -12 -533zM142 247q0 -319 6 -513q-10 -9 -14.5 -10.5t-14.5 0.5q10 209 10 522q0 258 -6 528q13 10 31 6q-12 -219 -12 -533z" />
    <glyph glyph-name="quoteleft" unicode="&#x2018;" horiz-adv-x="269" 
d="M168 698q4 1 5 -1.5t-2 -4.5q-28 -9 -49 -25.5t-21 -35.5q0 -21 46 -31q5 -1 7 -2q56 -12 56 -52q0 -24 -16.5 -40t-44.5 -16q-35 0 -57 24t-22 63q0 86 98 121z" />
    <glyph glyph-name="quoteright" unicode="&#x2019;" horiz-adv-x="269" 
d="M114 491q-4 -1 -5 1.5t2 4.5q70 23 70 62q0 17 -11.5 24t-39.5 13q-29 6 -43.5 17.5t-14.5 32.5q0 24 16 38.5t45 14.5q35 0 56.5 -25.5t21.5 -65.5q0 -83 -97 -117z" />
    <glyph glyph-name="quotesinglbase" unicode="&#x201a;" horiz-adv-x="269" 
d="M114 -99q-4 -1 -5 1.5t2 4.5q70 23 70 62q0 17 -11.5 24t-39.5 13q-29 6 -43.5 17.5t-14.5 32.5q0 24 16 38.5t45 14.5q35 0 56.5 -25.5t21.5 -65.5q0 -83 -97 -117z" />
    <glyph glyph-name="reversequoteleft" unicode="&#x201b;" horiz-adv-x="269" 
d="M167 491q-97 34 -97 117q0 40 21.5 65.5t56.5 25.5q29 0 45 -14.5t16 -38.5q0 -21 -14.5 -32.5t-43.5 -17.5q-28 -6 -39.5 -13t-11.5 -24q0 -39 70 -62q3 -2 2 -4.5t-5 -1.5z" />
    <glyph glyph-name="quotedblleft" unicode="&#x201c;" horiz-adv-x="458" 
d="M357 698q4 1 5 -1.5t-2 -4.5q-28 -9 -49 -25.5t-21 -35.5q0 -21 46 -31q2 -1 3.5 -1.5t3.5 -0.5q56 -12 56 -52q0 -24 -16.5 -40t-44.5 -16q-35 0 -57 25.5t-22 64.5q0 83 98 118zM168 698q4 1 5 -1.5t-2 -4.5q-28 -9 -49 -25.5t-21 -35.5q0 -21 46 -31q5 -1 7 -2
q56 -12 56 -52q0 -24 -16.5 -40t-44.5 -16q-35 0 -57 24t-22 63q0 86 98 121z" />
    <glyph glyph-name="quotedblright" unicode="&#x201d;" horiz-adv-x="458" 
d="M301 491q-4 -1 -5 1.5t2 4.5q70 23 70 62q0 17 -11.5 24t-39.5 13q-29 6 -43.5 17.5t-14.5 32.5q0 24 16 38.5t45 14.5q35 0 56.5 -25.5t21.5 -65.5q0 -83 -97 -117zM112 491q-4 -1 -5 1.5t2 4.5q70 23 70 62q0 17 -11.5 24t-39.5 13q-29 6 -43.5 17.5t-14.5 32.5
q0 24 16 38.5t45 14.5q35 0 56.5 -25.5t21.5 -65.5q0 -83 -97 -117z" />
    <glyph glyph-name="quotedblbase" unicode="&#x201e;" horiz-adv-x="458" 
d="M302 -99q-4 -1 -5 1.5t2 4.5q70 23 70 62q0 17 -11.5 24t-39.5 13q-29 6 -43.5 17.5t-14.5 32.5q0 24 16 38.5t45 14.5q35 0 56.5 -25.5t21.5 -65.5q0 -83 -97 -117zM113 -99q-4 -1 -5 1.5t2 4.5q70 23 70 62q0 17 -11.5 24t-39.5 13q-29 6 -43.5 17.5t-14.5 32.5
q0 24 16 38.5t45 14.5q35 0 56.5 -25.5t21.5 -65.5q0 -83 -97 -117z" />
    <glyph glyph-name="reversequotedblleft" unicode="&#x201f;" horiz-adv-x="458" 
d="M169 491q-97 34 -97 117q0 40 21.5 65.5t56.5 25.5q29 0 45 -14.5t16 -38.5q0 -21 -14.5 -32.5t-43.5 -17.5q-28 -6 -39.5 -13t-11.5 -24q0 -39 70 -62q3 -2 2 -4.5t-5 -1.5zM358 491q-97 34 -97 117q0 40 21.5 65.5t56.5 25.5q29 0 45 -14.5t16 -38.5q0 -21 -14.5 -32.5
t-43.5 -17.5q-28 -6 -39.5 -13t-11.5 -24q0 -39 70 -62q3 -2 2 -4.5t-5 -1.5z" />
    <glyph glyph-name="dagger" unicode="&#x2020;" horiz-adv-x="617" 
d="M200 459h80q0 113 -5.5 158t-16.5 56t-42 11h-21q-6 0 -6 4.5t6 4.5q15 0 62 -1.5t52 -1.5q6 0 51.5 1.5t61.5 1.5q6 0 6 -4.5t-6 -4.5h-21q-17 0 -24.5 -1t-16.5 -8.5t-12 -20t-6.5 -40t-4 -62.5t-0.5 -93h78q63 0 89 5.5t33.5 18t7.5 44.5v4q0 6 4.5 6t4.5 -6
q0 -16 -1.5 -53t-1.5 -43q0 -5 1.5 -43t1.5 -53q0 -6 -4.5 -6t-4.5 6v3q0 46 -20.5 57t-109.5 11h-78v-301q0 -99 1.5 -143.5t9.5 -72t18 -31t35 -3.5h21q6 0 6 -4.5t-6 -4.5q-16 0 -61.5 1.5t-51.5 1.5q-5 0 -52 -1.5t-62 -1.5q-6 0 -6 4.5t6 4.5h21q25 0 35 3.5t18 31
t9.5 72t1.5 143.5v301h-80q-63 0 -89 -5.5t-33 -18t-7 -44.5v-3q0 -6 -4.5 -6t-4.5 6q0 15 1.5 53t1.5 43q0 6 -1.5 43t-1.5 53q0 6 4.5 6t4.5 -6v-4q0 -32 7 -44.5t33 -18t89 -5.5z" />
    <glyph glyph-name="daggerdbl" unicode="&#x2021;" horiz-adv-x="617" 
d="M200 178h80v232h-80q-63 0 -89 -5.5t-33 -18t-7 -44.5v-3q0 -6 -4.5 -6t-4.5 6q0 15 1.5 53t1.5 43q0 6 -1.5 43t-1.5 53q0 6 4.5 6t4.5 -6v-4q0 -32 7 -44.5t33 -18t89 -5.5h80q0 113 -5.5 158t-16.5 56t-42 11h-21q-6 0 -6 4.5t6 4.5q15 0 62 -1.5t52 -1.5
q6 0 51.5 1.5t61.5 1.5q6 0 6 -4.5t-6 -4.5h-21q-17 0 -24.5 -1t-16.5 -8.5t-12 -20t-6.5 -40t-4 -62.5t-0.5 -93h78q63 0 89 5.5t33.5 18t7.5 44.5v4q0 6 4.5 6t4.5 -6q0 -16 -1.5 -53t-1.5 -43q0 -5 1.5 -43t1.5 -53q0 -6 -4.5 -6t-4.5 6v3q0 46 -20.5 57t-109.5 11h-78
v-232h78q63 0 89 5.5t33.5 18t7.5 44.5v4q0 6 4.5 6t4.5 -6q0 -16 -1.5 -53t-1.5 -43q0 -5 1.5 -43t1.5 -53q0 -6 -4.5 -6t-4.5 6v3q0 46 -20.5 57t-109.5 11h-78v-20q0 -99 1.5 -143.5t9.5 -72t18 -31t35 -3.5h21q6 0 6 -4.5t-6 -4.5q-16 0 -61.5 1.5t-51.5 1.5
q-5 0 -52 -1.5t-62 -1.5q-6 0 -6 4.5t6 4.5h21q25 0 35 3.5t18 31t9.5 72t1.5 143.5v20h-80q-63 0 -89 -5.5t-33 -18t-7 -44.5v-3q0 -6 -4.5 -6t-4.5 6q0 15 1.5 53t1.5 43q0 6 -1.5 43t-1.5 53q0 6 4.5 6t4.5 -6v-4q0 -32 7 -44.5t33 -18t89 -5.5z" />
    <glyph glyph-name="bullet" unicode="&#x2022;" horiz-adv-x="362" 
d="M95 255q0 36 24.5 61.5t62.5 25.5q34 0 60.5 -26t26.5 -61q0 -38 -25.5 -62.5t-61.5 -24.5q-38 0 -62.5 24.5t-24.5 62.5z" />
    <glyph glyph-name="ellipsis" unicode="&#x2026;" horiz-adv-x="684" 
d="M520 54q0 24 17 41t41 17q23 0 40.5 -17.5t17.5 -40.5q0 -24 -17 -41t-41 -17q-25 0 -41.5 16.5t-16.5 41.5zM284 54q0 24 17 41t41 17q23 0 40.5 -17.5t17.5 -40.5q0 -24 -17 -41t-41 -17q-25 0 -41.5 16.5t-16.5 41.5zM48 54q0 24 17 41t41 17q23 0 40.5 -17.5
t17.5 -40.5q0 -24 -17 -41t-41 -17q-25 0 -41.5 16.5t-16.5 41.5z" />
    <glyph glyph-name="perthousand" unicode="&#x2030;" horiz-adv-x="1196" 
d="M897 290q-20 -28 -20 -119q0 -140 119 -140q49 0 76 16q21 23 21 120q0 73 -27 106t-89 33q-52 0 -80 -16zM892 297q20 14 55 29t60 15q75 0 110.5 -38.5t35.5 -119.5q0 -47 -23 -84t-52 -57q-68 -49 -116 -49q-143 0 -143 154q0 49 22 89t51 61zM118 648
q-20 -28 -20 -119q0 -140 119 -140q49 0 76 16q21 23 21 120q0 73 -27 106t-89 33q-52 0 -80 -16zM113 655q20 14 55 29t60 15q75 0 110.5 -38.5t35.5 -119.5q0 -47 -23 -84t-52 -57q-68 -49 -116 -49q-143 0 -143 154q0 49 22 89t51 61zM478 290q-20 -28 -20 -119
q0 -140 119 -140q49 0 76 16q21 23 21 120q0 73 -27 106t-89 33q-52 0 -80 -16zM473 297q20 14 55 29t60 15q75 0 110.5 -38.5t35.5 -119.5q0 -47 -23 -84t-52 -57q-68 -49 -116 -49q-143 0 -143 154q0 49 22 89t51 61zM384 340q-39 -47 -86 -105.5t-103.5 -129.5
t-84.5 -106q-28 -6 -41 0q177 197 303 343q161 196 283 350q19 4 35 -2q-177 -193 -306 -350z" />
    <glyph glyph-name="tripleprime" unicode="&#x2034;" horiz-adv-x="397" 
d="M314 709q11 0 20 -8.5t9 -20.5q0 -6 -6.5 -49t-12.5 -102.5t-6 -105.5q0 -4 -2.5 -6t-5 0t-2.5 6q0 46 -5.5 105.5t-11 102.5t-5.5 49q0 12 8.5 20.5t19.5 8.5zM198 709q11 0 20 -8.5t9 -20.5q0 -6 -6.5 -49t-12.5 -102.5t-6 -105.5q0 -4 -2.5 -6t-5 0t-2.5 6
q0 46 -5.5 105.5t-11 102.5t-5.5 49q0 12 8.5 20.5t19.5 8.5zM82 709q11 0 20 -8.5t9 -20.5q0 -6 -6.5 -49t-12.5 -102.5t-6 -105.5q0 -4 -2.5 -6t-5 0t-2.5 6q0 46 -5.5 105.5t-11 102.5t-5.5 49q0 12 8.5 20.5t19.5 8.5z" />
    <glyph glyph-name="guilsinglleft" unicode="&#x2039;" horiz-adv-x="443" 
d="M66 249v-1q27 -22 142 -101t127 -89q20 -20 20 -37q0 -22 -19 -22q-14 0 -40 23q-26 22 -121 113t-121 113q-5 5 0 10q31 27 127 118.5t115 108.5q26 23 36 23q23 0 23 -22q0 -21 -20 -38q-9 -8 -125 -87t-144 -104q-5 -3 0 -8z" />
    <glyph glyph-name="guilsinglright" unicode="&#x203a;" horiz-adv-x="443" 
d="M374 259v1q-27 22 -142 101t-127 89q-20 20 -20 37q0 22 19 22q14 0 40 -23q26 -22 121 -113t121 -113q5 -5 0 -10q-27 -23 -121.5 -114t-120.5 -113q-26 -23 -36 -23q-23 0 -23 22q0 21 20 38q9 8 125 87t144 104q5 3 0 8z" />
    <glyph glyph-name="interrobang" unicode="&#x203d;" horiz-adv-x="395" 
d="M120 54q0 24 17 41t42 17q23 0 40 -17.5t17 -40.5q0 -24 -17 -41t-41 -17q-25 0 -41.5 16.5t-16.5 41.5zM181 370q110 66 109 150q-2 101 -151 117q26 -176 42 -267zM131 231q0 1 0.5 37.5t1 90t1 109.5t1 104t0.5 66q-30 2 -45 2q-10 0 -10 6q0 5 6.5 28t15 53.5
t11.5 41.5q6 10 6 -1q-9 -56 -9 -57q1 -4 18 -4q98 0 153 -43.5t55 -102.5q0 -57 -49 -116t-104 -86q1 -9 8 -43.5t12.5 -64.5t4.5 -35q0 -3 -19 -14t-38 -20t-19 -7q-1 7 -1 56z" />
    <glyph glyph-name="fraction" unicode="&#x2044;" horiz-adv-x="636" 
d="M317 348q165 0 261 6q5 -4 5 -12.5t-5 -11.5q-126 7 -260 7t-260 -7q-5 3 -5 11.5t5 12.5q98 -6 259 -6z" />
    <glyph glyph-name="uni2070" unicode="&#x2070;" horiz-adv-x="423" 
d="M123 644q-20 -28 -20 -116q0 -71 31.5 -107t87.5 -36q49 0 76 16q21 23 21 115q0 74 -27 109t-89 35q-52 0 -80 -16zM118 651q20 14 55 29t60 15q146 0 146 -163q0 -85 -75 -136q-68 -49 -116 -49q-143 0 -143 157q0 49 22 87t51 60z" />
    <glyph glyph-name="uni2074" unicode="&#x2074;" horiz-adv-x="371" 
d="M59 488h126v143q-19 -23 -59.5 -67.5t-66.5 -75.5zM237 488h34q37 0 49.5 8.5t17.5 40.5l4 24q1 6 6 5q4 0 3 -5l-3 -20q-12 -93 -14 -95t-33 -2h-64v-21q0 -44 8 -54.5t44 -10.5q4 0 4 -4.5t-4 -4.5q-9 0 -42.5 0.5t-37.5 0.5q-3 0 -37 -0.5t-43 -0.5q-4 0 -4 4.5t4 4.5
q39 0 47.5 10.5t8.5 54.5v21h-112q-4 0 -23 -1t-25 -1q-10 -1 -3 11q4 7 30 39q14 17 38.5 47t37.5 46.5t35 45t45 61.5q6 9 18 12q14 4 19.5 0.5t0.5 -12.5q-9 -19 -9 -46v-158z" />
    <glyph glyph-name="uni2075" unicode="&#x2075;" horiz-adv-x="343" 
d="M299 451q0 -50 -34.5 -80t-96.5 -30q-78 0 -129 45q-3 2 -2.5 5.5t3 4.5t5.5 -1q25 -20 45.5 -28.5t52.5 -8.5q43 0 66 25.5t23 65.5q0 41 -23.5 63t-60.5 22q-38 0 -88 -39q-2 -2 -5 0t-3 4l-3 169q0 3 16.5 14.5t19.5 11.5q4 0 42.5 -0.5t51.5 -0.5h88q27 0 27 -2
q0 -4 -2 -20.5t-4.5 -40.5t-3.5 -34l-2 -21q0 -3 -2.5 -4.5t-5 0t-2.5 4.5l2 21q0 17 -2.5 25.5t-15 15t-38.5 6.5h-117l-11 -119q48 29 94 29q58 0 86.5 -27.5t28.5 -74.5z" />
    <glyph glyph-name="uni2076" unicode="&#x2076;" horiz-adv-x="356" 
d="M43 485q0 69 51 132t139 92q6 3 7 -2q0 -3 -4 -5q-47 -19 -78.5 -58t-42.5 -77t-11 -76q0 -55 28.5 -85.5t70.5 -30.5q39 0 52 8q13 24 13 65q0 45 -23 66t-58 21q-31 0 -54 -23q-5 -5 -8 -2t2 8q18 18 47 33.5t54 15.5q40 0 67.5 -25.5t27.5 -65.5q0 -60 -62 -100
q-53 -34 -88 -34q-59 0 -94.5 36.5t-35.5 106.5z" />
    <glyph glyph-name="uni2077" unicode="&#x2077;" horiz-adv-x="341" 
d="M159 350q-3 0 -38.5 -0.5t-42.5 -0.5q-5 0 -6 4q2 4 7 5h13q23 -2 48.5 24.5t46.5 69.5l95 183h-162q-35 0 -48 -11.5t-15 -42.5l-3 -44q0 -2 -2 -3.5t-4.5 0t-2.5 4.5l2 43q3 29 3 109q0 2 20 2h78q12 0 84 0.5t76 0.5q1 0 2 -7.5t0.5 -15.5t-1.5 -9q-55 -99 -109 -212
q-13 -31 -14 -56q0 -36 24 -36q5 0 11.5 1t7.5 1q6 0 6 -5t-6 -5q-5 0 -35.5 0.5t-34.5 0.5z" />
    <glyph glyph-name="uni2078" unicode="&#x2078;" horiz-adv-x="347" 
d="M240 619q0 22 -25 39.5t-60 17.5q-30 0 -43 -9q-16 -20 -16 -34q0 -13 6.5 -23.5t21 -20t26 -15.5t35 -16t33.5 -15q22 24 22 76zM192 371q36 0 51 10q17 14 17 34q0 22 -15.5 39.5t-33 26t-49.5 22t-46 20.5q-28 -25 -28 -77q0 -30 34 -52.5t70 -22.5zM59 595
q0 41 49 76q50 32 85 32q39 0 68 -20.5t29 -44.5q0 -9 -2 -17t-4.5 -14.5t-8 -14t-9 -12t-11.5 -12t-11 -9.5t-12 -9.5t-10 -8.5q79 -35 79 -79q0 -47 -54 -87q-45 -31 -96 -31q-47 0 -81 23t-34 61q0 53 76 97q-53 27 -53 70z" />
    <glyph glyph-name="uni2079" unicode="&#x2079;" horiz-adv-x="359" 
d="M320 547q0 -86 -55.5 -142.5t-149.5 -68.5q-6 -1 -7 4q0 2 4 3q78 13 112 68t34 119q0 141 -109 141q-33 0 -47 -9q-11 -25 -11 -68q0 -45 22 -67t57 -22q32 0 62 19q9 6 9 1q0 -3 -3 -6q-56 -49 -109 -49q-40 0 -66 25t-26 66q0 61 58 107q53 32 97 32q56 0 92 -41.5
t36 -111.5z" />
    <glyph glyph-name="uni207A" unicode="&#x207a;" horiz-adv-x="438" 
d="M208 646q4 5 12.5 5t11.5 -5q-8 -22 -8 -120q65 0 119 7q5 -3 5 -11.5t-5 -12.5q-23 3 -119 5q0 -60 8 -118q-3 -5 -11.5 -5t-12.5 5q4 32 4 118q-98 -2 -119 -5q-5 4 -5 12.5t5 11.5q21 -7 119 -7q0 89 -4 120z" />
    <glyph glyph-name="uni207B" unicode="&#x207b;" horiz-adv-x="438" 
d="M218 513q-94 0 -125 -4q-5 4 -5 12.5t5 11.5q18 -6 124 -6q79 0 126 6q5 -3 5 -11.5t-5 -12.5q-35 4 -125 4z" />
    </font>
</defs>
</svg>
